<?xml version="1.0" encoding="UTF-8" standalone="no"?>
<svg
   xmlns:dc="http://purl.org/dc/elements/1.1/"
   xmlns:cc="http://creativecommons.org/ns#"
   xmlns:rdf="http://www.w3.org/1999/02/22-rdf-syntax-ns#"
   xmlns:svg="http://www.w3.org/2000/svg"
   xmlns="http://www.w3.org/2000/svg"
   xmlns:sodipodi="http://sodipodi.sourceforge.net/DTD/sodipodi-0.dtd"
   xmlns:inkscape="http://www.inkscape.org/namespaces/inkscape"
   width="2805px"
   height="1295px"
   viewBox="0 0 2805 1295"
   version="1.1"
   id="svg2"
   inkscape:version="0.47 r22583"
   sodipodi:docname="HA_Diagram-1.svg">
  <metadata
     id="metadata429">
    <rdf:RDF>
      <cc:Work
         rdf:about="">
        <dc:format>image/svg+xml</dc:format>
        <dc:type
           rdf:resource="http://purl.org/dc/dcmitype/StillImage" />
        <dc:title>HA_Diagram-1 2</dc:title>
      </cc:Work>
    </rdf:RDF>
  </metadata>
  <defs
     id="defs427">
    <inkscape:perspective
       sodipodi:type="inkscape:persp3d"
       inkscape:vp_x="0 : 647.5 : 1"
       inkscape:vp_y="0 : 1000 : 0"
       inkscape:vp_z="2805 : 647.5 : 1"
       inkscape:persp3d-origin="1402.5 : 431.66667 : 1"
       id="perspective431" />
  </defs>
  <sodipodi:namedview
     pagecolor="#ffffff"
     bordercolor="#666666"
     borderopacity="1"
     objecttolerance="10"
     gridtolerance="10"
     guidetolerance="10"
     inkscape:pageopacity="0"
     inkscape:pageshadow="2"
     inkscape:window-width="1440"
     inkscape:window-height="838"
     id="namedview425"
     showgrid="false"
     showguides="true"
     inkscape:guide-bbox="true"
     inkscape:zoom="0.51545081"
     inkscape:cx="1402.5"
     inkscape:cy="880.30592"
     inkscape:window-x="-8"
     inkscape:window-y="-8"
     inkscape:window-maximized="1"
     inkscape:current-layer="HA_Diagram-1" />
  <!-- Generator: Sketch 55.2 (78181) - https://sketchapp.com -->
  <title
     id="title4">HA_Diagram-1 2</title>
  <desc
     id="desc6">Created with Sketch.</desc>
  <g
     id="Page-1"
     stroke="none"
     stroke-width="1"
     fill="none"
     fill-rule="evenodd">
    <g
       id="HA_Diagram-1">
      <rect
         id="Rectangle"
         fill="#FFFFFF"
         fill-rule="nonzero"
         x="0"
         y="0"
         width="2805"
         height="1295" />
      <text
         id="IBM-Blockchain-Platform-Console-(UI)"
         fill="#FFFFFF"
         font-family="IBMPlexSans-Text, IBM Plex Sans"
         font-size="37.07"
         font-weight="500">
        <tspan
           x="781.89699"
           y="408"
           id="tspan12">IBM Blockchain Platform 控制台 (UI)</tspan>
      </text>
      <text
         id="IBM-Blockchain-Platform-Extension-for-VS-Code"
         fill="#FFFFFF"
         font-family="IBMPlexSans-Text, IBM Plex Sans"
         font-size="37.07"
         font-weight="500">
        <tspan
           x="681.3421"
           y="865"
           id="tspan15">IBM Blockchain Platform Extension for VS Code</tspan>
      </text>
      <g
         id="Group-5-Copy"
         transform="translate(756.000000, 8.000000)">
        <polygon
           id="XMLID_12_"
           stroke="#5B6872"
           stroke-width="1.5"
           fill="#F2F5F7"
           fill-rule="nonzero"
           points="0 1178.2139 1047.49618 1178.2139 1047.49618 1145 1081 1211.4278 1047.49618 1278 1047.49618 1244.7861 0 1244.7861" />
        <g
           id="Increasing-Blockchai"
           transform="translate(280.000000, 1185.000000)"
           fill="#000000"
           font-family="Helvetica"
           font-size="30"
           font-weight="normal">
          <text
             id="Increasing-Blockchain-high-availability"
             x="104">
            <tspan
               x="104"
               y="29"
               id="tspan21"
               style="font-family:SimHei;-inkscape-font-specification:SimHei">提高区块链高可用性</tspan>
          </text>
        </g>
        <path
           d="M458.698708,1139 L17.1583058,1139 C7.72123761,1139 0,1131.91245 0,1123.24989 L0,217.750105 C0,209.087547 7.72123761,202 17.1583058,202 L458.841694,202 C468.278762,202 476,209.087547 476,217.750105 L476,1123.24989 C475.857014,1131.91245 468.135777,1139 458.698708,1139 Z"
           id="XMLID_306_"
           stroke="#2D3F49"
           fill="#2D3F49"
           fill-rule="nonzero" />
        <path
           d="M435.817089,1112 L41.1829105,1112 C31.7323097,1112 24,1104.96417 24,1096.36482 L24,287.635179 C24,279.035831 31.7323097,272 41.1829105,272 L435.817089,272 C445.26769,272 453,279.035831 453,287.635179 L453,1096.36482 C453,1104.96417 445.26769,1112 435.817089,1112 Z"
           id="XMLID_305_"
           fill="#FFFFFF"
           fill-rule="nonzero" />
        <path
           d="M413.714286,1083 L61.1428571,1083 C51.7142857,1083 44,1075.64784 44,1066.66187 L44,313.338126 C44,304.352157 51.7142857,297 61.1428571,297 L413.857143,297 C423.285714,297 431,304.352157 431,313.338126 L431,1066.66187 C430.857143,1075.64784 423.142857,1083 413.714286,1083 Z"
           id="XMLID_304_"
           stroke="#00B39F"
           stroke-width="2"
           stroke-dasharray="8" />
        <path
           d="M384.864583,1049 L90.1354167,1049 C80.7109375,1049 73,1041.25351 73,1031.78559 L73,413.214411 C73,403.746485 80.7109375,396 90.1354167,396 L384.864583,396 C394.289063,396 402,403.746485 402,413.214411 L402,1031.64214 C402,1041.25351 394.289063,1049 384.864583,1049 Z"
           id="XMLID_303_"
           stroke="#6182BB"
           fill="#FFFFFF"
           fill-rule="nonzero" />
        <path
           d="M369.80543,1026 L119.19457,1026 C109.737557,1026 102,1018.27156 102,1008.82569 L102,497.174312 C102,487.72844 109.737557,480 119.19457,480 L369.80543,480 C379.262443,480 387,487.72844 387,497.174312 L387,1008.82569 C387,1018.27156 379.262443,1026 369.80543,1026 Z"
           id="XMLID_302_"
           fill="#4278BD"
           fill-rule="nonzero" />
        <path
           d="M349.945946,642 L278.054054,642 C274.724324,642 272,635.8656 272,628.368 L272,584.632 C272,577.1344 274.724324,571 278.054054,571 L349.945946,571 C353.275676,571 356,577.1344 356,584.632 L356,628.368 C356,635.8656 353.275676,642 349.945946,642 Z"
           id="XMLID_279_"
           fill="#FFFFFF"
           fill-rule="nonzero" />
        <g
           id="Ordering-Node-1"
           transform="translate(276.000000, 571.000000)"
           fill="#000000"
           font-family="Helvetica"
           font-size="20"
           font-weight="normal">
          <text
             id="Ordering">
            <tspan
               x="0.410703"
               y="19"
               id="tspan31">排序</tspan>
          </text>
          <text
             id="Node-1">
            <tspan
               x="12.365208"
               y="39"
               id="tspan34">节点 1</tspan>
          </text>
        </g>
        <g
           id="(Raft)"
           opacity="0.517066592"
           transform="translate(291.000000, 611.000000)"
           fill="#000000"
           font-family="Helvetica"
           font-size="18"
           font-weight="normal">
          <text
             id="text37">
            <tspan
               x="0"
               y="18"
               id="tspan39">(Raft)</tspan>
          </text>
        </g>
        <g
           id="XMLID_298_"
           transform="translate(90,409)">
          <rect
             id="XMLID_39_"
             x="0.42857143"
             y="13.440928"
             width="329.14285"
             height="33.329334" />
          <g
             id="Worker-Pool"
             transform="translate(70,0)"
             font-size="28"
             font-weight="normal"
             style="font-size:28px;font-weight:normal;fill:#000000;font-family:Helvetica">
            <text
               id="text44">
              <tspan
                 x="0.53985709"
                 y="28.631969"
                 id="tspan46"
                 style="font-family:SimHei;-inkscape-font-specification:SimHei">工作程序池</tspan>
            </text>
          </g>
        </g>
        <g
           id="XMLID_292_"
           transform="translate(85.000000, 212.000000)">
          <rect
             id="XMLID_38_"
             x="0.284651163"
             y="10.5714286"
             width="305.430698"
             height="48.5714286" />
          <g
             id="Region-1"
             transform="translate(104,0)"
             font-size="24.0721"
             font-weight="normal"
             style="font-size:24.07209969px;font-weight:normal;fill:#ffffff;font-family:Helvetica">
            <text
               id="Region"
               x="22">
              <tspan
                 x="22.818604"
                 y="24"
                 id="tspan52"
                 style="font-family:SimHei;-inkscape-font-specification:SimHei">区域</tspan>
            </text>
            <text
               id="1">
              <tspan
                 x="77.101776"
                 y="24"
                 id="tspan55">1</tspan>
            </text>
          </g>
        </g>
        <rect
           id="XMLID_291_"
           x="119"
           y="599"
           width="238"
           height="34" />
        <g
           id="XMLID_290_"
           transform="translate(152,500)"
           font-size="30"
           font-weight="normal"
           style="font-size:30px;font-weight:normal;fill:#ffffff;font-family:Helvetica">
          <text
             id="Worker-Node">
            <tspan
               x="0"
               y="29"
               id="tspan60"
               style="font-family:SimHei;-inkscape-font-specification:SimHei">工作程序节点</tspan>
          </text>
        </g>
        <g
           id="Single-Cluster"
           transform="translate(144,323)"
           font-size="30"
           font-weight="normal"
           style="font-size:30px;font-weight:normal;fill:#000000;font-family:Helvetica">
          <text
             id="text63"
             x="32">
            <tspan
               x="32"
               y="29"
               id="tspan65"
               style="font-family:SimHei;-inkscape-font-specification:SimHei">单个集群</tspan>
          </text>
        </g>
        <path
           d="M349.945946,642 L278.054054,642 C274.724324,642 272,635.8656 272,628.368 L272,584.632 C272,577.1344 274.724324,571 278.054054,571 L349.945946,571 C353.275676,571 356,577.1344 356,584.632 L356,628.368 C356,635.8656 353.275676,642 349.945946,642 Z"
           id="path67"
           fill="#FFFFFF"
           fill-rule="nonzero" />
        <rect
           id="XMLID_25_"
           x="114"
           y="894"
           width="235"
           height="54" />
        <g
           id="g70"
           transform="translate(276.000000, 571.000000)"
           fill="#000000"
           font-family="Helvetica"
           font-size="20"
           font-weight="normal">
          <text
             id="text72">
            <tspan
               x="0.410703"
               y="19"
               id="tspan74">排序</tspan>
          </text>
          <text
             id="text76">
            <tspan
               x="12.365208"
               y="39"
               id="tspan78">节点 1</tspan>
          </text>
        </g>
        <path
           d="M1017.84169,1139 L576.158306,1139 C566.721238,1139 559,1131.80547 559,1123.01217 L559,15.9878348 C559,7.19452568 566.721238,0 576.158306,0 L1017.84169,0 C1027.27876,0 1035,7.19452568 1035,15.9878348 L1035,1122.87893 C1035,1131.80547 1027.27876,1139 1017.84169,1139 Z"
           id="XMLID_272_"
           stroke="#2D3F49"
           fill="#2D3F49"
           fill-rule="nonzero" />
        <path
           d="M995.958401,1112 L601.182832,1112 C591.732274,1112 584,1104.84497 584,1096.09992 L584,98.9000773 C584,90.1550348 591.732274,83 601.182832,83 L995.815211,83 C1005.26577,83 1013,90.1550348 1013,98.9000773 L1013,1096.09992 C1013.14123,1104.84497 1005.40896,1112 995.958401,1112 Z"
           id="XMLID_271_"
           fill="#FFFFFF"
           fill-rule="nonzero" />
        <path
           d="M972.857143,1083 L620.142857,1083 C610.714286,1083 603,1075.47516 603,1066.27813 L603,123.721873 C603,114.524843 610.714286,107 620.142857,107 L972.857143,107 C982.285714,107 990,114.524843 990,123.721873 L990,1066.41748 C990,1075.47516 982.285714,1083 972.857143,1083 Z"
           id="XMLID_270_"
           stroke="#00B39F"
           stroke-width="2"
           stroke-dasharray="8" />
        <path
           d="M944.864583,1049 L650.135417,1049 C640.710938,1049 633,1041.27315 633,1031.82923 L633,275.170767 C633,265.726845 640.710938,258 650.135417,258 L944.864583,258 C954.289062,258 962,265.726845 962,275.170767 L962,1031.82923 C962,1041.27315 954.289062,1049 944.864583,1049 Z"
           id="XMLID_269_"
           stroke="#6182BB"
           fill="#FFFFFF"
           fill-rule="nonzero" />
        <g
           id="XMLID_265_"
           transform="translate(632.000000, 262.000000)">
          <rect
             id="XMLID_24_"
             x="0.714285714"
             y="12.7849462"
             width="329.142857"
             height="33.2171147" />
          <g
             id="g86"
             transform="translate(84,0)"
             font-size="28"
             font-weight="normal"
             style="font-size:28px;font-weight:normal;fill:#000000;font-family:Helvetica">
            <text
               id="text88">
              <tspan
                 x="0.85442859"
                 y="28.022329"
                 id="tspan90"
                 style="font-family:SimHei;-inkscape-font-specification:SimHei">工作程序池</tspan>
            </text>
          </g>
        </g>
        <rect
           id="XMLID_264_"
           x="656"
           y="105"
           width="283"
           height="49" />
        <g
           id="XMLID_259_"
           transform="translate(643.000000, 20.000000)">
          <rect
             id="XMLID_23_"
             x="0.569302326"
             y="10.1773567"
             width="305.430698"
             height="48.7366375" />
          <g
             id="g95"
             transform="translate(81.000000, 0.000000)"
             fill="#FFFFFF"
             font-family="Helvetica"
             font-size="24.0721"
             font-weight="normal">
            <text
               id="text97"
               x="38">
              <tspan
                 x="38.12558"
                 y="24"
                 id="tspan99"><tspan
   style="font-family:SimHei;-inkscape-font-specification:SimHei"
   id="tspan3251">区域</tspan>

 1</tspan>
            </text>
          </g>
        </g>
        <path
           d="M923.80543,536 L673.19457,536 C663.737557,536 656,528.307054 656,518.904564 L656,347.095436 C656,337.692946 663.737557,330 673.19457,330 L923.80543,330 C933.262443,330 941,337.692946 941,347.095436 L941,518.904564 C941,528.307054 933.262443,536 923.80543,536 Z"
           id="XMLID_258_"
           fill="#4278BD"
           fill-rule="nonzero" />
        <path
           d="M924.945946,490 L853.054054,490 C849.724324,490 847,483.8656 847,476.368 L847,432.632 C847,425.1344 849.724324,419 853.054054,419 L924.945946,419 C928.275676,419 931,425.1344 931,432.632 L931,476.368 C931,483.8656 928.275676,490 924.945946,490 Z"
           id="path102"
           fill="#FFFFFF"
           fill-rule="nonzero" />
        <g
           id="g104"
           transform="translate(849.000000, 419.000000)"
           fill="#000000"
           font-family="Helvetica"
           font-size="20"
           font-weight="normal">
          <text
             id="text106"
             x="12">
            <tspan
               x="12.410703"
               y="19"
               id="tspan108"
               style="font-family:SimHei;-inkscape-font-specification:SimHei">排序</tspan>
          </text>
          <text
             id="text110">
            <tspan
               x="12.365208"
               y="39"
               id="tspan112"><tspan
   style="-inkscape-font-specification:SimHei;font-family:SimHei"
   id="tspan3261">节点</tspan>

 1</tspan>
          </text>
        </g>
        <g
           id="g114"
           transform="translate(864,459)"
           font-size="18"
           font-weight="normal"
           style="font-size:18px;font-weight:normal;opacity:0.51706663;fill:#000000;font-family:Helvetica">
          <text
             id="text116">
            <tspan
               x="0"
               y="18"
               id="tspan118">(Raft)</tspan>
          </text>
        </g>
        <path
           d="M830.666667,491 L767.333333,491 C764.4,491 762,484.8656 762,477.368 L762,433.632 C762,426.1344 764.4,420 767.333333,420 L830.666667,420 C833.6,420 836,426.1344 836,433.632 L836,477.368 C836,484.8656 833.6,491 830.666667,491 Z"
           id="XMLID_255_"
           fill="#FFFFFF"
           fill-rule="nonzero" />
        <text
           id="CA-1"
           fill="#000000"
           font-family="Helvetica"
           font-size="22"
           font-weight="normal">
          <tspan
             x="775.923077"
             y="447.88"
             id="tspan122">CA 1</tspan>
        </text>
        <g
           id="Peers"
           transform="translate(769,454)"
           font-size="20"
           font-weight="normal"
           style="font-size:20px;font-weight:normal;opacity:0.51706669;fill:#000000;font-family:Helvetica">
          <text
             id="(Peers)"
             x="-2">
            <tspan
               x="-1.6538463"
               y="19.34"
               id="tspan126">（</tspan>
            <tspan
               x="15"
               y="19.34"
               font-size="15"
               id="tspan128"
               style="font-size:15px;font-family:SimHei;-inkscape-font-specification:SimHei">同级</tspan>
            <tspan
               x="44.19088"
               y="19.34"
               id="tspan130">）</tspan>
          </text>
        </g>
        <rect
           id="XMLID_257_"
           x="680"
           y="451"
           width="238"
           height="34" />
        <g
           id="XMLID_256_"
           transform="translate(704,352)"
           font-size="30"
           font-weight="normal"
           style="font-size:30px;font-weight:normal;fill:#ffffff;font-family:Helvetica">
          <text
             id="Worker-Node-1"
             x="-2">
            <tspan
               x="-2"
               y="29"
               id="tspan135"><tspan
   style="font-family:SimHei;-inkscape-font-specification:SimHei"
   id="tspan3255">工作程序节点</tspan>

 1</tspan>
          </text>
        </g>
        <polygon
           id="XMLID_22_"
           points="681 439 699.222495 439 916 439 916 493 728.77243 493 681 493" />
        <g
           id="Org-1"
           opacity="0.517066592"
           transform="translate(698.000000, 450.000000)" />
        <path
           d="M218.666667,642 L155.333333,642 C152.4,642 150,635.8656 150,628.368 L150,584.632 C150,577.1344 152.4,571 155.333333,571 L218.666667,571 C221.6,571 224,577.1344 224,584.632 L224,628.368 C224,635.8656 221.6,642 218.666667,642 Z"
           id="path139"
           fill="#FFFFFF"
           fill-rule="nonzero" />
        <g
           id="Peer-1"
           transform="translate(155.000000, 580.000000)"
           fill="#000000"
           font-family="Helvetica"
           font-size="22"
           font-weight="normal">
          <text
             id="text142"
             x="2">
            <tspan
               x="2"
               y="21"
               id="tspan144"><tspan
   style="font-family:SimHei;-inkscape-font-specification:SimHei"
   id="tspan3237">同级</tspan>

 1</tspan>
          </text>
        </g>
        <g
           id="g146"
           transform="translate(170,606)"
           font-size="20"
           font-weight="normal"
           style="font-size:20px;font-weight:normal;opacity:0.51706663;fill:#000000;font-family:Helvetica">
          <text
             id="text148"
             x="-10">
            <tspan
               x="-10"
               y="19"
               id="tspan150"><tspan
   style="font-family:SimHei;-inkscape-font-specification:SimHei"
   id="tspan3239">组织</tspan>
 1</tspan>
          </text>
        </g>
        <g
           id="g152"
           opacity="0.517066592"
           transform="translate(291.000000, 611.000000)"
           fill="#000000"
           font-family="Helvetica"
           font-size="18"
           font-weight="normal">
          <text
             id="text154">
            <tspan
               x="0"
               y="18"
               id="tspan156">(Raft)</tspan>
          </text>
        </g>
        <path
           d="M349.945946,642 L278.054054,642 C274.724324,642 272,635.8656 272,628.368 L272,584.632 C272,577.1344 274.724324,571 278.054054,571 L349.945946,571 C353.275676,571 356,577.1344 356,584.632 L356,628.368 C356,635.8656 353.275676,642 349.945946,642 Z"
           id="path158"
           fill="#FFFFFF"
           fill-rule="nonzero" />
        <g
           id="g160"
           transform="translate(276.000000, 571.000000)"
           fill="#000000"
           font-family="Helvetica"
           font-size="20"
           font-weight="normal">
          <text
             id="text162"
             x="12">
            <tspan
               x="12.410703"
               y="19"
               id="tspan164"
               style="font-family:SimHei;-inkscape-font-specification:SimHei">排序</tspan>
          </text>
          <text
             id="text166">
            <tspan
               x="12.365208"
               y="39"
               id="tspan168"><tspan
   style="-inkscape-font-specification:SimHei;font-family:SimHei"
   id="tspan3241">节点</tspan>

 1</tspan>
          </text>
        </g>
        <g
           id="g170"
           transform="translate(289,611)"
           font-size="18"
           font-weight="normal"
           style="font-size:18px;font-weight:normal;opacity:0.51706663;fill:#000000;font-family:Helvetica">
          <text
             id="text172">
            <tspan
               x="0"
               y="18"
               id="tspan174">(Raft)</tspan>
          </text>
        </g>
        <path
           d="M350.945946,727 L279.054054,727 C275.724324,727 273,720.8656 273,713.368 L273,669.632 C273,662.1344 275.724324,656 279.054054,656 L350.945946,656 C354.275676,656 357,662.1344 357,669.632 L357,713.368 C357,720.8656 354.275676,727 350.945946,727 Z"
           id="path176"
           fill="#FFFFFF"
           fill-rule="nonzero" />
        <g
           id="Ordering-Node-2"
           transform="translate(276.000000, 655.000000)"
           fill="#000000"
           font-family="Helvetica"
           font-size="20"
           font-weight="normal">
          <text
             id="text179"
             x="12">
            <tspan
               x="12.410703"
               y="19"
               id="tspan181"
               style="-inkscape-font-specification:SimHei;font-family:SimHei">排序</tspan>
          </text>
          <text
             id="Node-2">
            <tspan
               x="12.365208"
               y="41"
               id="tspan184"><tspan
   style="-inkscape-font-specification:SimHei;font-family:SimHei"
   id="tspan3245">节点</tspan>

 2</tspan>
          </text>
        </g>
        <g
           id="g186"
           opacity="0.517066592"
           transform="translate(295.000000, 697.000000)"
           fill="#000000"
           font-family="Helvetica"
           font-size="18"
           font-weight="normal">
          <text
             id="text188"
             x="-6">
            <tspan
               x="-6"
               y="18"
               id="tspan190">(Raft)</tspan>
          </text>
        </g>
        <path
           d="M349.945946,810 L278.054054,810 C274.724324,810 272,803.8656 272,796.368 L272,752.632 C272,745.1344 274.724324,739 278.054054,739 L349.945946,739 C353.275676,739 356,745.1344 356,752.632 L356,796.368 C356,803.8656 353.275676,810 349.945946,810 Z"
           id="path192"
           fill="#FFFFFF"
           fill-rule="nonzero" />
        <g
           id="Ordering-Node-3"
           transform="translate(276.000000, 742.000000)"
           fill="#000000"
           font-family="Helvetica"
           font-size="20"
           font-weight="normal">
          <text
             id="text195"
             x="14">
            <tspan
               x="14.410702"
               y="19"
               id="tspan197"
               style="font-family:SimHei;-inkscape-font-specification:SimHei">排序</tspan>
          </text>
          <text
             id="Node-3"
             x="-4">
            <tspan
               x="12.365208"
               y="40"
               id="tspan200"
               style="font-family:SimHei;-inkscape-font-specification:SimHei">节点</tspan>
            <tspan
               x="62.975479"
               y="40"
               id="tspan204">3</tspan>
          </text>
        </g>
        <g
           id="g206"
           transform="translate(290,782)"
           font-size="18"
           font-weight="normal"
           style="font-size:18px;font-weight:normal;opacity:0.51706675;fill:#000000;font-family:Helvetica">
          <text
             id="text208">
            <tspan
               x="0"
               y="18"
               id="tspan210">(Raft)</tspan>
          </text>
        </g>
        <path
           d="M349.945946,896 L278.054054,896 C274.724324,896 272,889.8656 272,882.368 L272,838.632 C272,831.1344 274.724324,825 278.054054,825 L349.945946,825 C353.275676,825 356,831.1344 356,838.632 L356,882.368 C356,889.8656 353.275676,896 349.945946,896 Z"
           id="path212"
           fill="#FFFFFF"
           fill-rule="nonzero" />
        <g
           id="Ordering-Node-4"
           transform="translate(276.000000, 827.000000)"
           fill="#000000"
           font-family="Helvetica"
           font-size="20"
           font-weight="normal">
          <text
             id="text215"
             x="12">
            <tspan
               x="12.410702"
               y="19"
               id="tspan217"
               style="font-family:SimHei;-inkscape-font-specification:SimHei">排序</tspan>
          </text>
          <text
             id="Node-4"
             x="-2">
            <tspan
               x="11.365208"
               y="40"
               id="tspan220"><tspan
   style="font-family:SimHei;-inkscape-font-specification:SimHei"
   id="tspan3247">节点</tspan>
 4</tspan>
          </text>
        </g>
        <g
           id="g222"
           transform="translate(291,872)"
           font-size="16"
           font-weight="normal"
           style="font-size:16px;font-weight:normal;opacity:0.51706675;fill:#000000;font-family:Helvetica">
          <text
             id="text224">
            <tspan
               x="0"
               y="15"
               id="tspan226">(Raft)</tspan>
          </text>
        </g>
        <path
           d="M349.945946,986 L278.054054,986 C274.724324,986 272,979.8656 272,972.368 L272,928.632 C272,921.1344 274.724324,915 278.054054,915 L349.945946,915 C353.275676,915 356,921.1344 356,928.632 L356,972.368 C356,979.8656 353.275676,986 349.945946,986 Z"
           id="path228"
           fill="#FFFFFF"
           fill-rule="nonzero" />
        <g
           id="Ordering-Node-5"
           transform="translate(276.000000, 916.000000)"
           font-size="20"
           font-weight="normal"
           font-family="Helvetica"
           fill="#000000">
          <text
             id="text231"
             x="10">
            <tspan
               x="10.410703"
               y="19"
               id="tspan233"
               style="font-family:SimHei;-inkscape-font-specification:SimHei">排序</tspan>
          </text>
          <text
             id="Node-5"
             x="-2">
            <tspan
               x="9.3652077"
               y="41"
               id="tspan236"><tspan
   style="font-family:SimHei;-inkscape-font-specification:SimHei"
   id="tspan3249">节点</tspan>
 5</tspan>
          </text>
        </g>
        <g
           id="g238"
           transform="translate(290,960)"
           font-size="16"
           font-weight="normal"
           style="font-size:16px;font-weight:normal;opacity:0.51706681;fill:#000000;font-family:Helvetica">
          <text
             id="text240">
            <tspan
               x="0"
               y="15"
               id="tspan242">(Raft)</tspan>
          </text>
        </g>
        <g
           id="Group-4"
           transform="translate(150.000000, 656.000000)">
          <path
             d="M68.6666667,71 L5.33333333,71 C2.4,71 0,64.8656 0,57.368 L0,13.632 C0,6.1344 2.4,0 5.33333333,0 L68.6666667,0 C71.6,0 74,6.1344 74,13.632 L74,57.368 C74,64.8656 71.6,71 68.6666667,71 Z"
             id="path245"
             fill="#FFFFFF"
             fill-rule="nonzero" />
          <g
             id="g247"
             transform="translate(6,33)"
             font-size="20"
             font-weight="normal"
             style="font-size:20px;font-weight:normal;opacity:0.51706699;fill:#000000;font-family:Helvetica">
            <text
               id="text249"
               y="2">
              <tspan
                 x="0.92307693"
                 y="21.34"
                 id="tspan251"><tspan
   style="font-family:SimHei;-inkscape-font-specification:SimHei"
   id="tspan3243">组织</tspan>
 1</tspan>
            </text>
          </g>
        </g>
        <text
           id="Peer-2"
           fill="#000000"
           font-family="Helvetica"
           font-size="22"
           font-weight="normal">
          <tspan
             x="155"
             y="688"
             id="tspan254"><tspan
   style="-inkscape-font-specification:SimHei;font-family:SimHei"
   id="tspan3277">同级</tspan>

 2</tspan>
        </text>
        <g
           id="Group-2"
           transform="translate(150.000000, 786.000000)">
          <path
             d="M68.6666667,71 L5.33333333,71 C2.4,71 0,64.8656 0,57.368 L0,13.632 C0,6.1344 2.4,0 5.33333333,0 L68.6666667,0 C71.6,0 74,6.1344 74,13.632 L74,57.368 C74,64.8656 71.6,71 68.6666667,71 Z"
             id="path257"
             fill="#FFFFFF"
             fill-rule="nonzero" />
          <g
             id="g259"
             transform="translate(13.000000, 6.000000)"
             fill="#000000"
             font-family="Helvetica"
             font-size="22"
             font-weight="normal">
            <text
               id="text261">
              <tspan
                 x="0.9230769"
                 y="21.88"
                 id="tspan263">CA 1</tspan>
            </text>
          </g>
          <g
             id="g265"
             opacity="0.517066592"
             transform="translate(11.000000, 34.000000)"
             fill="#000000"
             font-family="Helvetica"
             font-size="20"
             font-weight="normal">
            <text
               id="text267"
               x="-8">
              <tspan
                 x="-7.6538463"
                 y="19.34"
                 id="tspan269">（</tspan>
              <tspan
                 x="9"
                 y="19.34"
                 font-size="15"
                 id="tspan271"
                 style="font-size:15px;font-family:SimHei;-inkscape-font-specification:SimHei">同级</tspan>
              <tspan
                 x="38.19088"
                 y="19.34"
                 id="tspan273">）</tspan>
            </text>
          </g>
        </g>
        <g
           id="Group-3"
           transform="translate(150.000000, 870.000000)">
          <path
             d="M68.6666667,71 L5.33333333,71 C2.4,71 0,64.8656 0,57.368 L0,13.632 C0,6.1344 2.4,0 5.33333333,0 L68.6666667,0 C71.6,0 74,6.1344 74,13.632 L74,57.368 C74,64.8656 71.6,71 68.6666667,71 Z"
             id="path276"
             fill="#FFFFFF"
             fill-rule="nonzero" />
          <g
             id="CA-2"
             transform="translate(11.000000, 1.000000)"
             fill="#000000"
             font-family="Helvetica"
             font-size="22"
             font-weight="normal">
            <text
               id="text279">
              <tspan
                 x="0.5"
                 y="21.36"
                 id="tspan281">CA 2</tspan>
            </text>
          </g>
          <g
             id="Ordering-Service"
             opacity="0.517066592"
             transform="translate(1.000000, 24.000000)"
             fill="#000000"
             font-family="Helvetica"
             font-size="18"
             font-weight="normal">
            <text
               id="(Ordering-Service)"
               y="6">
              <tspan
                 x="0.72567868"
                 y="24.24"
                 id="tspan285">（</tspan>
              <tspan
                 x="6.7198195"
                 y="24.24"
                 font-size="16"
                 id="tspan287"
                 style="font-size:16px;font-family:SimHei;-inkscape-font-specification:SimHei">排序服务</tspan>
              <tspan
                 x="59.078217"
                 y="24"
                 id="tspan295">）</tspan>
            </text>
          </g>
        </g>
        <g
           id="g297"
           transform="translate(693.000000, 129.000000)"
           fill="#000000"
           font-family="Helvetica"
           font-size="30"
           font-weight="normal">
          <text
             id="text299"
             x="32">
            <tspan
               x="32"
               y="29"
               id="tspan301"
               style="font-family:SimHei;-inkscape-font-specification:SimHei">单个集群</tspan>
          </text>
        </g>
        <g
           id="Group"
           transform="translate(656.000000, 576.000000)">
          <path
             d="M267.81407,206.96619 L17.3291457,206.96619 C7.87688442,206.96619 0.14321608,199.258484 0.14321608,189.837954 L0.14321608,17.6991777 C0.14321608,8.27864761 7.87688442,0.570941215 17.3291457,0.570941215 L267.81407,0.570941215 C277.266332,0.570941215 285,8.27864761 285,17.6991777 L285,189.837954 C285,199.258484 277.266332,206.96619 267.81407,206.96619 Z"
             id="XMLID_248_"
             fill="#4278BD"
             fill-rule="nonzero" />
          <rect
             id="XMLID_247_"
             x="23.3442211"
             y="35.8265612"
             width="238.454774"
             height="33.2573257" />
          <g
             id="XMLID_246_"
             transform="translate(26.000000, 21.000000)"
             fill="#FFFFFF"
             font-family="Helvetica"
             font-size="30"
             font-weight="normal">
            <text
               id="Worker-Node-2"
               x="18">
              <tspan
                 x="18.562859"
                 y="29.957989"
                 id="tspan308"><tspan
   style="font-family:SimHei;-inkscape-font-specification:SimHei"
   id="tspan3263">工作程序节点</tspan>

 2</tspan>
            </text>
          </g>
        </g>
        <path
           d="M929.945946,735 L858.054054,735 C854.724324,735 852,728.8656 852,721.368 L852,677.632 C852,670.1344 854.724324,664 858.054054,664 L929.945946,664 C933.275676,664 936,670.1344 936,677.632 L936,721.368 C936,728.8656 933.275676,735 929.945946,735 Z"
           id="path310"
           fill="#FFFFFF"
           fill-rule="nonzero" />
        <g
           id="g312"
           transform="translate(854.000000, 665.000000)"
           fill="#000000"
           font-family="Helvetica"
           font-size="20"
           font-weight="normal">
          <text
             id="text314"
             x="18">
            <tspan
               x="18.410702"
               y="19"
               id="tspan316"
               style="font-family:SimHei;-inkscape-font-specification:SimHei">排序</tspan>
          </text>
          <text
             id="text318">
            <tspan
               x="16.365208"
               y="40"
               id="tspan320"
               style="-inkscape-font-specification:SimHei;font-family:SimHei">节点</tspan>
            <tspan
               x="66.9754766"
               y="40"
               id="tspan324">3</tspan>
          </text>
        </g>
        <text
           id="text326"
           font-size="18"
           font-weight="normal"
           x="-2"
           style="font-size:18px;font-weight:normal;fill:#000000;font-family:Helvetica">
          <tspan
             x="874"
             y="725"
             id="tspan328">(Raft)</tspan>
        </text>
        <path
           d="M923.80543,1028 L673.19457,1028 C663.737557,1028 656,1020.30705 656,1010.90456 L656,839.095436 C656,829.692946 663.737557,822 673.19457,822 L923.80543,822 C933.262443,822 941,829.692946 941,839.095436 L941,1010.90456 C941,1020.30705 933.262443,1028 923.80543,1028 Z"
           id="XMLID_240_"
           fill="#4278BD"
           fill-rule="nonzero" />
        <path
           d="M895.945946,979 L824.054054,979 C820.724324,979 818,972.8656 818,965.368 L818,921.632 C818,914.1344 820.724324,908 824.054054,908 L895.945946,908 C899.275676,908 902,914.1344 902,921.632 L902,965.368 C902,972.8656 899.275676,979 895.945946,979 Z"
           id="path331"
           fill="#FFFFFF"
           fill-rule="nonzero" />
        <g
           id="g333"
           transform="translate(822.000000, 909.000000)"
           fill="#000000"
           font-family="Helvetica"
           font-size="20"
           font-weight="normal">
          <text
             id="text335"
             x="12">
            <tspan
               x="12.410703"
               y="19"
               id="tspan337"
               style="font-family:SimHei;-inkscape-font-specification:SimHei">排序</tspan>
          </text>
          <text
             id="text339">
            <tspan
               x="11.365208"
               y="41"
               id="tspan341"><tspan
   style="-inkscape-font-specification:SimHei;font-family:SimHei"
   id="tspan3275">节点</tspan>

 5</tspan>
          </text>
        </g>
        <g
           id="g343"
           transform="translate(838,953)"
           font-size="16"
           font-weight="normal"
           style="font-size:16px;font-weight:normal;opacity:0.51706699;fill:#000000;font-family:Helvetica">
          <text
             id="text345">
            <tspan
               x="0"
               y="15"
               id="tspan347">(Raft)</tspan>
          </text>
        </g>
        <path
           d="M776.945946,979 L705.054054,979 C701.724324,979 699,972.8656 699,965.368 L699,921.632 C699,914.1344 701.724324,908 705.054054,908 L776.945946,908 C780.275676,908 783,914.1344 783,921.632 L783,965.368 C783,972.8656 780.275676,979 776.945946,979 Z"
           id="path349"
           fill="#FFFFFF"
           fill-rule="nonzero" />
        <g
           id="g351"
           transform="translate(703.000000, 910.000000)"
           fill="#000000"
           font-family="Helvetica"
           font-size="20"
           font-weight="normal">
          <text
             id="text353"
             x="16">
            <tspan
               x="16.410702"
               y="19"
               id="tspan355"
               style="font-family:SimHei;-inkscape-font-specification:SimHei">排序</tspan>
          </text>
          <text
             id="text357"
             x="2">
            <tspan
               x="15.365208"
               y="40"
               id="tspan359"><tspan
   style="font-family:SimHei;-inkscape-font-specification:SimHei"
   id="tspan3273">节点</tspan>

 4</tspan>
          </text>
        </g>
        <g
           id="g361"
           transform="translate(722,955)"
           font-size="16"
           font-weight="normal"
           style="font-size:16px;font-weight:normal;opacity:0.51706663;fill:#000000;font-family:Helvetica">
          <text
             id="text363">
            <tspan
               x="0"
               y="15"
               id="tspan365">(Raft)</tspan>
          </text>
        </g>
        <rect
           id="XMLID_239_"
           x="680"
           y="942"
           width="238"
           height="34" />
        <g
           id="XMLID_238_"
           transform="translate(700,842)"
           font-size="30"
           font-weight="normal"
           style="font-size:30px;font-weight:normal;fill:#ffffff;font-family:Helvetica">
          <text
             id="Worker-Node-3">
            <tspan
               x="0"
               y="29"
               id="tspan370"><tspan
   style="font-family:SimHei;-inkscape-font-specification:SimHei"
   id="tspan3271">工作程序节点</tspan>

 3</tspan>
          </text>
        </g>
        <rect
           id="rect372"
           x="671"
           y="778"
           width="53"
           height="54" />
        <g
           id="+-anti-affinity"
           transform="translate(709,179)"
           font-size="26"
           font-style="italic"
           font-weight="bold"
           style="font-size:26px;font-style:italic;font-weight:bold;fill:#000000;font-family:'Helvetica-BoldOblique, Helvetica'">
          <text
             id="text375">
            <tspan
               x="0"
               y="25"
               id="tspan377">+ <tspan
   style="font-family:SimHei;-inkscape-font-specification:SimHei"
   id="tspan3253">反亲缘关系</tspan>
</tspan>
          </text>
        </g>
      </g>
      <path
         d="M1506.66667,745 L1443.33333,745 C1440.4,745 1438,738.8656 1438,731.368 L1438,687.632 C1438,680.1344 1440.4,674 1443.33333,674 L1506.66667,674 C1509.6,674 1512,680.1344 1512,687.632 L1512,731.368 C1512,738.8656 1509.6,745 1506.66667,745 Z"
         id="path379"
         fill="#FFFFFF"
         fill-rule="nonzero" />
      <g
         id="g381"
         transform="translate(1444.000000, 683.000000)"
         fill="#000000"
         font-family="Helvetica"
         font-size="22"
         font-weight="normal">
        <text
           id="text383">
          <tspan
             x="0"
             y="21"
             id="tspan385"><tspan
   style="-inkscape-font-specification:SimHei;font-family:SimHei"
   id="tspan3265">同级</tspan>

 2</tspan>
        </text>
      </g>
      <g
         id="g387"
         transform="translate(1459,709)"
         font-size="20"
         font-weight="normal"
         style="font-size:20px;font-weight:normal;opacity:0.51706663;fill:#000000;font-family:Helvetica">
        <text
           id="text389"
           x="-12">
          <tspan
             x="-12"
             y="19"
             id="tspan391"><tspan
   style="font-family:SimHei;-inkscape-font-specification:SimHei"
   id="tspan3267">组织</tspan>
 1</tspan>
        </text>
      </g>
      <path
         d="M1498.66667,498 L1435.33333,498 C1432.4,498 1430,491.8656 1430,484.368 L1430,440.632 C1430,433.1344 1432.4,427 1435.33333,427 L1498.66667,427 C1501.6,427 1504,433.1344 1504,440.632 L1504,484.368 C1504,491.8656 1501.6,498 1498.66667,498 Z"
         id="path393"
         fill="#FFFFFF"
         fill-rule="nonzero" />
      <g
         id="g395"
         transform="translate(1435.000000, 436.000000)"
         fill="#000000"
         font-family="Helvetica"
         font-size="22"
         font-weight="normal">
        <text
           id="text397">
          <tspan
             x="0"
             y="21"
             id="tspan399"><tspan
   style="-inkscape-font-specification:SimHei;font-family:SimHei"
   id="tspan3257">同级</tspan>

 1</tspan>
        </text>
      </g>
      <g
         id="g401"
         transform="translate(1438,462)"
         font-size="20"
         font-weight="normal"
         style="font-size:20px;font-weight:normal;opacity:0.51706699;fill:#000000;font-family:Helvetica">
        <text
           id="text403">
          <tspan
             x="0"
             y="19"
             id="tspan405"><tspan
   style="font-family:SimHei;-inkscape-font-specification:SimHei"
   id="tspan3259">组织</tspan>
 1</tspan>
        </text>
      </g>
    </g>
    <path
       d="M1595.94595,744 L1524.05405,744 C1520.72432,744 1518,737.8656 1518,730.368 L1518,686.632 C1518,679.1344 1520.72432,673 1524.05405,673 L1595.94595,673 C1599.27568,673 1602,679.1344 1602,686.632 L1602,730.368 C1602,737.8656 1599.27568,744 1595.94595,744 Z"
       id="path407"
       fill="#FFFFFF"
       fill-rule="nonzero" />
    <g
       id="g409"
       transform="translate(1521.000000, 672.000000)"
       fill="#000000"
       font-family="Helvetica"
       font-size="20"
       font-weight="normal">
      <text
         id="text411"
         x="16">
        <tspan
           x="16.410702"
           y="19"
           id="tspan413"
           style="font-family:SimHei;-inkscape-font-specification:SimHei">排序</tspan>
      </text>
      <text
         id="text415"
         x="2">
        <tspan
           x="14.365208"
           y="41"
           id="tspan417"><tspan
   style="font-family:SimHei;-inkscape-font-specification:SimHei"
   id="tspan3269">节点</tspan>

 2</tspan>
      </text>
    </g>
    <g
       id="g419"
       opacity="0.517066592"
       transform="translate(1540.000000, 714.000000)"
       fill="#000000"
       font-family="Helvetica"
       font-size="18"
       font-weight="normal">
      <text
         id="text421">
        <tspan
           x="0"
           y="18"
           id="tspan423">(Raft)</tspan>
      </text>
    </g>
  </g>
</svg>
