<?xml version="1.0" encoding="UTF-8" standalone="no"?>
<!-- Generator: Adobe Illustrator 22.0.0, SVG Export Plug-In . SVG Version: 6.00 Build 0)  -->

<svg
   xmlns:dc="http://purl.org/dc/elements/1.1/"
   xmlns:cc="http://creativecommons.org/ns#"
   xmlns:rdf="http://www.w3.org/1999/02/22-rdf-syntax-ns#"
   xmlns:svg="http://www.w3.org/2000/svg"
   xmlns="http://www.w3.org/2000/svg"
   xmlns:sodipodi="http://sodipodi.sourceforge.net/DTD/sodipodi-0.dtd"
   xmlns:inkscape="http://www.inkscape.org/namespaces/inkscape"
   version="1.1"
   id="Layer_1"
   x="0px"
   y="0px"
   viewBox="0 0 1018.6 774"
   style="enable-background:new 0 0 1018.6 774;"
   xml:space="preserve"
   inkscape:version="0.47 r22583"
   width="100%"
   height="100%"
   sodipodi:docname="ibp2-simple-network.svg"><metadata
   id="metadata154"><rdf:RDF><cc:Work
       rdf:about=""><dc:format>image/svg+xml</dc:format><dc:type
         rdf:resource="http://purl.org/dc/dcmitype/StillImage" /><dc:title>ibp-v2-build-network_Raft</dc:title></cc:Work></rdf:RDF></metadata><defs
   id="defs152"><inkscape:perspective
     sodipodi:type="inkscape:persp3d"
     inkscape:vp_x="0 : 387 : 1"
     inkscape:vp_y="0 : 1000 : 0"
     inkscape:vp_z="1018.6 : 387 : 1"
     inkscape:persp3d-origin="509.3 : 258 : 1"
     id="perspective156" /></defs><sodipodi:namedview
   pagecolor="#ffffff"
   bordercolor="#666666"
   borderopacity="1"
   objecttolerance="10"
   gridtolerance="10"
   guidetolerance="10"
   inkscape:pageopacity="0"
   inkscape:pageshadow="2"
   inkscape:window-width="1440"
   inkscape:window-height="838"
   id="namedview150"
   showgrid="false"
   inkscape:zoom="0.60981912"
   inkscape:cx="509.3"
   inkscape:cy="452.59322"
   inkscape:window-x="-8"
   inkscape:window-y="-8"
   inkscape:window-maximized="1"
   inkscape:current-layer="Layer_1" />
<style
   type="text/css"
   id="style3">
	.st0{fill:#DCDCDC;stroke:#DCDCDC;}
	.st1{fill:#5A6872;}
	.st2{fill:#011688;stroke:#857B7B;}
	.st3{fill:#FFFFFF;}
	.st4{font-family:'IBMPlexSans-Medium';}
	.st5{font-size:19px;}
	.st6{fill:#FFFFFF;stroke:#FFFFFF;}
	.st7{fill:#010F5E;}
	.st8{font-size:16px;}
	.st9{fill:#0CCAEB;}
	.st10{font-size:14px;}
	.st11{fill:#FFFFFF;stroke:#979797;}
	.st12{fill:#011688;}
	.st13{fill:none;stroke:#001588;}
	.st14{fill:none;stroke:#FFFFFF;}
	.st15{fill:none;stroke:#12C3F4;stroke-width:2;}
	.st16{font-size:12px;}
</style>
<title
   id="title5">ibp-v2-build-network_Raft</title>
<rect
   id="Rectangle"
   x="89.2"
   y="120.1"
   class="st0"
   width="847"
   height="548" />
<g
   id="UI-Icon_checkmark--outline_ui-05">
	<path
   id="Oval-2"
   class="st1"
   d="M355.6,276.1c3.6,0,6.5-2.9,6.5-6.5s-2.9-6.5-6.5-6.5s-6.5,2.9-6.5,6.5l0,0   C349.1,273.2,352,276.1,355.6,276.1L355.6,276.1z M355.6,277.6c-4.4,0-8-3.6-8-8s3.6-8,8-8s8,3.6,8,8S360.1,277.6,355.6,277.6z" />
	<polygon
   id="check"
   class="st1"
   points="359,266.3 360.4,267.7 354.5,273.6 351,270.2 352.4,268.8 354.5,270.8  " />
</g>
<rect
   id="Rectangle-2"
   x="113.2"
   y="157.1"
   class="st2"
   width="347"
   height="151" />
<text
   transform="matrix(1 0 0 1 131.86 191.59)"
   class="st3 st4 st5"
   id="text12">O</text>

<text
   transform="matrix(1 0 0 1 145.39 191.59)"
   class="st3 st4 st5"
   id="text14">r</text>

<text
   transform="matrix(1 0 0 1 152.3 191.59)"
   class="st3 st4 st5"
   id="text16">g 1</text>

<rect
   id="Rectangle-3"
   x="396.1"
   y="145.1"
   class="st6"
   width="105"
   height="35" />
<text
   transform="matrix(1 0 0 1 418.83 168.59)"
   class="st7 st4 st8"
   id="text19">O</text>

<text
   transform="matrix(1 0 0 1 430.22 168.59)"
   class="st7 st4 st8"
   id="text21">r</text>

<text
   transform="matrix(1 0 0 1 436.05 168.59)"
   class="st7 st4 st8"
   id="text23">g1 </text>

<text
   transform="matrix(1 0 0 1 458.01 168.59)"
   class="st7 st4 st8"
   id="text25">C</text>

<text
   transform="matrix(1 0 0 1 468.11 168.59)"
   class="st7 st4 st8"
   id="text27">A</text>

<rect
   id="Rectangle-4"
   x="338.1"
   y="213.1"
   class="st6"
   width="105"
   height="55" />
<text
   transform="matrix(1 0 0 1 353.02 236.59)"
   class="st7 st4 st8"
   id="text30">O</text>

<text
   transform="matrix(1 0 0 1 364.41 236.59)"
   class="st7 st4 st8"
   id="text32">r</text>

<text
   transform="matrix(1 0 0 1 370.24 236.59)"
   class="st7 st4 st8"
   id="text34">g1 MSP</text>

<text
   transform="matrix(1 0 0 1 356.27 256.59)"
   class="st7 st4 st8"
   id="text36"><tspan
     style="-inkscape-font-specification:SimHei;font-family:SimHei"
     id="tspan2962">定义</tspan></text>

<rect
   id="Rectangle-9"
   x="134.1"
   y="211.1"
   class="st6"
   width="105"
   height="61" />
<g
   id="Group-3">
	<path
   id="Fill-1"
   class="st9"
   d="M235.6,233.6h51v39c-25.5,0-25.5,14.9-51,6.4V233.6z" />
</g>
<text
   transform="matrix(1 0 0 1 146.77 247.59)"
   class="st7 st4 st8"
   id="text41">P</text>

<text
   transform="matrix(1 0 0 1 156.48 247.59)"
   class="st7 st4 st8"
   id="text43">eer O</text>

<text
   transform="matrix(1 0 0 1 195.57 247.59)"
   class="st7 st4 st8"
   id="text45">r</text>

<text
   transform="matrix(1 0 0 1 201.39 247.59)"
   class="st7 st4 st8"
   id="text47">g1</text>

<text
   transform="matrix(1 0 0 1 239.65 257.59)"
   class="st3 st4 st10"
   id="text49">L</text>

<text
   transform="matrix(1 0 0 1 246.69 257.59)"
   class="st3 st4 st10"
   id="text51">ed</text>

<text
   transform="matrix(1 0 0 1 262.76 257.59)"
   class="st3 st4 st10"
   id="text53">g</text>

<text
   transform="matrix(1 0 0 1 270.2 257.59)"
   class="st3 st4 st10"
   id="text55">er</text>

<text
   transform="matrix(1 0 0 1 239.65 272.59)"
   class="st3 st4 st10"
   id="text57">X</text>

<ellipse
   id="Oval"
   class="st11"
   cx="350.1"
   cy="395.1"
   rx="194.5"
   ry="51.5" />
<text
   transform="matrix(1 0 0 1 307.4 406.59)"
   class="st7 st4 st5"
   id="text60">Channel 1</text>

<rect
   id="Rectangle-10"
   x="524.2"
   y="286.6"
   class="st2"
   width="347"
   height="214.5" />
<text
   transform="matrix(1 0 0 1 544.1 321.09)"
   class="st3 st4 st5"
   id="text63"><tspan
     style="-inkscape-font-specification:SimHei;font-family:SimHei"
     id="tspan2964">排</tspan></text>

<text
   class="st3 st4 st5"
   id="text65"
   x="563.63"
   y="321.09"
   style="font-size:19px;fill:#ffffff;font-family:IBMPlexSans-Medium"><tspan
     style="font-family:SimHei;-inkscape-font-specification:SimHei"
     id="tspan2966">序</tspan></text>

<text
   class="st3 st4 st5"
   id="text67"
   x="582.81"
   y="321.09"
   style="font-size:19px;fill:#ffffff;font-family:IBMPlexSans-Medium"><tspan
     style="font-family:SimHei;-inkscape-font-specification:SimHei"
     id="tspan2968">服</tspan></text>

<text
   class="st3 st4 st5"
   id="text69"
   x="602.56989"
   y="321.09"
   style="font-size:19px;fill:#ffffff;font-family:IBMPlexSans-Medium"><tspan
     style="font-family:SimHei;-inkscape-font-specification:SimHei"
     id="tspan2970">务</tspan></text>

<text
   transform="matrix(1 0 0 1 654.01 321.09)"
   class="st3 st4 st5"
   id="text71" />

<text
   transform="matrix(1 0 0 1 668.78 321.09)"
   class="st3 st4 st5"
   id="text73" />

<text
   class="st3 st4 st5"
   id="text75"
   x="621.98981"
   y="320.72983"
   style="font-size:19px;fill:#ffffff;font-family:IBMPlexSans-Medium"><tspan
     style="font-family:SimHei;-inkscape-font-specification:SimHei"
     id="tspan2972">组</tspan></text>

<text
   class="st3 st4 st5"
   id="text77"
   x="642.92999"
   y="321.09"
   style="font-size:19px;fill:#ffffff;font-family:IBMPlexSans-Medium"><tspan
     style="font-family:SimHei;-inkscape-font-specification:SimHei"
     id="tspan2974">织</tspan></text>

<text
   transform="matrix(1 0 0 1 713.84 321.09)"
   class="st3 st4 st5"
   id="text79" />

<rect
   id="Rectangle-11"
   x="738.6"
   y="274.6"
   class="st6"
   width="173.6"
   height="35" />
<text
   class="st7 st4 st8"
   id="text82"
   x="774.02002"
   y="298.09"
   style="font-size:16px;fill:#010f5e;font-family:IBMPlexSans-Medium"><tspan
     style="-inkscape-font-specification:SimHei;font-family:SimHei"
     id="tspan2986">排</tspan></text>

<text
   class="st7 st4 st8"
   id="text84"
   x="791.40997"
   y="298.09"
   style="font-size:16px;fill:#010f5e;font-family:IBMPlexSans-Medium"><tspan
     style="-inkscape-font-specification:SimHei;font-family:SimHei"
     id="tspan2988">序</tspan></text>

<text
   class="st7 st4 st8"
   id="text86"
   x="807.46002"
   y="298.09"
   style="font-size:16px;fill:#010f5e;font-family:IBMPlexSans-Medium"><tspan
     style="-inkscape-font-specification:SimHei;font-family:SimHei"
     id="tspan2990">服</tspan></text>

<text
   class="st7 st4 st8"
   id="text88"
   x="824.64001"
   y="298.09"
   style="font-size:16px;fill:#010f5e;font-family:IBMPlexSans-Medium"><tspan
     style="font-family:SimHei;-inkscape-font-specification:SimHei"
     id="tspan2992">务 </tspan></text>

<text
   transform="matrix(1 0 0 1 844.91 298.09)"
   class="st7 st4 st8"
   id="text90" />

<text
   transform="matrix(1 0 0 1 857.35 298.09)"
   class="st7 st4 st8"
   id="text92" />

<text
   transform="matrix(1 0 0 1 865.41 298.09)"
   class="st7 st4 st8"
   id="text94" />

<text
   class="st7 st4 st8"
   id="text96"
   x="846.08002"
   y="298.09"
   style="font-size:16px;fill:#010f5e;font-family:IBMPlexSans-Medium">C</text>

<text
   class="st7 st4 st8"
   id="text98"
   x="858.18011"
   y="298.09"
   style="font-size:16px;fill:#010f5e;font-family:IBMPlexSans-Medium">A</text>

<rect
   id="Rectangle-12"
   x="721.2"
   y="371.6"
   class="st6"
   width="135.8"
   height="55" />
<text
   class="st7 st4 st8"
   id="text101"
   x="752.19"
   y="395.44"
   style="font-size:16px;fill:#010f5e;font-family:IBMPlexSans-Medium"><tspan
     style="-inkscape-font-specification:SimHei;font-family:SimHei"
     id="tspan2994">排</tspan></text>

<text
   class="st7 st4 st8"
   id="text103"
   x="769.58002"
   y="395.44"
   style="font-size:16px;fill:#010f5e;font-family:IBMPlexSans-Medium"><tspan
     style="-inkscape-font-specification:SimHei;font-family:SimHei"
     id="tspan2996">序</tspan></text>

<text
   class="st7 st4 st8"
   id="text105"
   x="787.63"
   y="395.44"
   style="font-size:16px;fill:#010f5e;font-family:IBMPlexSans-Medium"><tspan
     style="-inkscape-font-specification:SimHei;font-family:SimHei"
     id="tspan2998">服</tspan></text>

<text
   class="st7 st4 st8"
   id="text107"
   x="804.81"
   y="395.44"
   style="font-size:16px;fill:#010f5e;font-family:IBMPlexSans-Medium"><tspan
     style="-inkscape-font-specification:SimHei;font-family:SimHei"
     id="tspan3000">务</tspan></text>

<text
   transform="matrix(1 0 0 1 819.08 395.44)"
   class="st7 st4 st8"
   id="text109" />

<text
   transform="matrix(1 0 0 1 831.52 395.44)"
   class="st7 st4 st8"
   id="text111" />

<text
   transform="matrix(1 0 0 1 839.58 395.44)"
   class="st7 st4 st8"
   id="text113" />

<text
   class="st7 st4 st8"
   id="text115"
   x="752.89001"
   y="415.44"
   style="font-size:16px;fill:#010f5e;font-family:IBMPlexSans-Medium">MSP <tspan
   style="font-family:SimHei;-inkscape-font-specification:SimHei"
   id="tspan3002">定义</tspan></text>

<rect
   id="Rectangle-13"
   x="552.7"
   y="408.6"
   class="st12"
   width="10"
   height="10" />
<g
   id="Group-18">
	<g
   id="Group-5">
		<polygon
   id="Fill-1-3"
   class="st3"
   points="546.2,337.6 705.7,337.6 705.7,474.1 546.2,474.1   " />
		<polygon
   id="Stroke-3"
   class="st13"
   points="546.2,474.1 705.7,474.1 705.7,337.6 546.2,337.6   " />
	</g>
</g>
<line
   class="st14"
   x1="182.6"
   y1="272.1"
   x2="182.6"
   y2="367.1"
   id="line122" />
<circle
   class="st15"
   cx="625.9"
   cy="419.1"
   r="32.1"
   id="circle124" />
<circle
   class="st7"
   cx="595"
   cy="412.6"
   r="8.3"
   id="circle126" />
<circle
   class="st7"
   cx="625.9"
   cy="389.1"
   r="8.3"
   id="circle128" />
<circle
   class="st7"
   cx="656.6"
   cy="412.6"
   r="8.3"
   id="circle130" />
<circle
   class="st7"
   cx="607.7"
   cy="446.9"
   r="8.3"
   id="circle132" />
<circle
   class="st7"
   cx="642.6"
   cy="446.9"
   r="8.3"
   id="circle134" />
<text
   transform="matrix(1 0 0 1 562.65 363.52)"
   class="st7 st4 st16"
   id="text136"><tspan
     style="-inkscape-font-specification:SimHei;font-family:SimHei"
     id="tspan2976">排</tspan></text>

<text
   class="st7 st4 st16"
   id="text138"
   x="575.19"
   y="363.51999"
   style="font-size:12px;fill:#010f5e;font-family:IBMPlexSans-Medium"><tspan
     style="-inkscape-font-specification:SimHei;font-family:SimHei"
     id="tspan2978">序</tspan></text>

<text
   class="st7 st4 st16"
   id="text140"
   x="587.72998"
   y="363.51999"
   style="font-size:12px;fill:#010f5e;font-family:IBMPlexSans-Medium"><tspan
     style="-inkscape-font-specification:SimHei;font-family:SimHei"
     id="tspan2980">服</tspan></text>

<text
   class="st7 st4 st16"
   id="text142"
   x="600.12"
   y="363.51999"
   style="font-size:12px;fill:#010f5e;font-family:IBMPlexSans-Medium"><tspan
     style="-inkscape-font-specification:SimHei;font-family:SimHei"
     id="tspan2982">务</tspan></text>

<text
   transform="matrix(1 0 0 1 630.82 363.52)"
   class="st7 st4 st16"
   id="text144" />

<text
   transform="matrix(1 0 0 1 640.15 363.52)"
   class="st7 st4 st16"
   id="text146" />

<text
   class="st7 st4 st16"
   id="text148"
   x="612.19"
   y="363.51999"
   style="font-size:12px;fill:#010f5e;font-family:IBMPlexSans-Medium"><tspan
     style="font-family:SimHei;-inkscape-font-specification:SimHei"
     id="tspan2984">节点</tspan></text>

</svg>
