<?xml version="1.0" encoding="UTF-8" standalone="no"?>
<!-- Generator: Adobe Illustrator 22.0.0, SVG Export Plug-In . SVG Version: 6.00 Build 0)  -->

<svg
   xmlns:dc="http://purl.org/dc/elements/1.1/"
   xmlns:cc="http://creativecommons.org/ns#"
   xmlns:rdf="http://www.w3.org/1999/02/22-rdf-syntax-ns#"
   xmlns:svg="http://www.w3.org/2000/svg"
   xmlns="http://www.w3.org/2000/svg"
   xmlns:sodipodi="http://sodipodi.sourceforge.net/DTD/sodipodi-0.dtd"
   xmlns:inkscape="http://www.inkscape.org/namespaces/inkscape"
   version="1.1"
   id="Layer_1"
   x="0px"
   y="0px"
   viewBox="0 0 997 774"
   style="enable-background:new 0 0 997 774;"
   xml:space="preserve"
   inkscape:version="0.47 r22583"
   width="100%"
   height="100%"
   sodipodi:docname="ibp2-join-network.svg"><metadata
   id="metadata99"><rdf:RDF><cc:Work
       rdf:about=""><dc:format>image/svg+xml</dc:format><dc:type
         rdf:resource="http://purl.org/dc/dcmitype/StillImage" /><dc:title>Build your network Copy 2</dc:title></cc:Work></rdf:RDF></metadata><defs
   id="defs97"><inkscape:perspective
     sodipodi:type="inkscape:persp3d"
     inkscape:vp_x="0 : 387 : 1"
     inkscape:vp_y="0 : 1000 : 0"
     inkscape:vp_z="997 : 387 : 1"
     inkscape:persp3d-origin="498.5 : 258 : 1"
     id="perspective101" /></defs><sodipodi:namedview
   pagecolor="#ffffff"
   bordercolor="#666666"
   borderopacity="1"
   objecttolerance="10"
   gridtolerance="10"
   guidetolerance="10"
   inkscape:pageopacity="0"
   inkscape:pageshadow="2"
   inkscape:window-width="1440"
   inkscape:window-height="838"
   id="namedview95"
   showgrid="false"
   inkscape:zoom="0.60981912"
   inkscape:cx="275.1652"
   inkscape:cy="467.2093"
   inkscape:window-x="-8"
   inkscape:window-y="-8"
   inkscape:window-maximized="1"
   inkscape:current-layer="Layer_1" />
<style
   type="text/css"
   id="style3">
	.st0{fill:#DCDCDC;}
	.st1{fill:#FFFFFF;}
	.st2{fill:none;stroke:#001588;stroke-width:3;}
	.st3{fill:#001588;}
	.st4{fill:#C5C5C5;}
	.st5{fill:#767171;}
	.st6{fill:#5A6872;}
	.st7{fill:#A2A3A2;}
	.st8{font-family:'IBMPlexSans-Medium';}
	.st9{font-size:19px;}
	.st10{fill:#565656;}
	.st11{font-size:16px;}
	.st12{fill:#011688;stroke:#857B7B;}
	.st13{fill:#FFFFFF;stroke:#FFFFFF;}
	.st14{fill:#010F5E;}
	.st15{fill:#0CCAEB;}
	.st16{fill:#A2A3A2;stroke:#777777;stroke-miterlimit:10;}
	.st17{font-size:14px;}
	.st18{fill:none;stroke:#000000;stroke-width:2;stroke-miterlimit:10;}
	.st19{fill:#979797;stroke:#A2A3A2;}
</style>
<title
   id="title5">Build your network Copy 2</title>
<desc
   id="desc7">Created with Sketch.</desc>
<rect
   id="Rectangle"
   x="56"
   y="108"
   class="st0"
   width="848"
   height="549" />
<g
   id="Group-18"
   transform="translate(518.000000, 357.000000)">
	<g
   id="Group-5">
		<polygon
   id="Fill-1"
   class="st1"
   points="-4.5,-3.5 129.5,-3.5 129.5,55.5 -4.5,55.5   " />
		<g
   id="Clip-4">
		</g>
		<polygon
   id="Stroke-3"
   class="st2"
   points="-4.5,55.5 129.5,55.5 129.5,-3.5 -4.5,-3.5   " />
	</g>
	<polygon
   id="Fill-6"
   class="st3"
   points="2,49 40,49 40,32 2,32  " />
	<polygon
   id="Fill-7"
   class="st3"
   points="83,49 121,49 121,32 83,32  " />
	<polygon
   id="Fill-8"
   class="st3"
   points="43,49 80,49 80,32 43,32  " />
	<polygon
   id="Fill-9"
   class="st4"
   points="46,44 53,44 53,36 46,36  " />
	<polygon
   id="Fill-10"
   class="st4"
   points="54,44 61,44 61,36 54,36  " />
	<polygon
   id="Fill-11"
   class="st4"
   points="62,44 69,44 69,36 62,36  " />
	<polygon
   id="Fill-12"
   class="st4"
   points="70,44 77,44 77,36 70,36  " />
	<path
   id="Fill-13"
   class="st5"
   d="M50.5,31.2h0.3l-0.5,0.5v-6.9l0.5,0.5H50v-1h1.3v7.9h-0.8V31.2z M38.9,25.3h8v-1h-8V25.3z    M27.9,25.3h8v-1h-8C27.9,24.3,27.9,25.3,27.9,25.3z M24.9,25.3h-5.4l0.5-0.5v1.7h-1v-2.2h5.9V25.3z M22.5,25.5l-3,6l-3-6H22.5z" />
	<path
   id="Fill-14"
   class="st5"
   d="M106.5,31.2h0.3l-0.5,0.5v-6.9l0.5,0.5H106v-1h1.3v7.9h-0.8V31.2z M94.9,25.3h8v-1h-8V25.3z    M83.9,25.3h8v-1h-8V25.3z M80.9,25.3h-5.4l0.5-0.5v1.7h-1v-2.2h5.9V25.3z M78.5,25.5l-3,6l-3-6H78.5z" />
	<polygon
   id="Fill-15"
   class="st4"
   points="87,44 94,44 94,36 87,36  " />
	<polygon
   id="Fill-16"
   class="st4"
   points="95,44 102,44 102,36 95,36  " />
	<polygon
   id="Fill-17"
   class="st4"
   points="103,44 110,44 110,36 103,36  " />
</g>
<g
   id="UI-Icon_x2F_checkmark--outline_x2F__x24_ui-05"
   transform="translate(321.000000, 255.000000)">
	<path
   id="Oval-2"
   class="st6"
   d="M2,9.5c3.6,0,6.5-2.9,6.5-6.5S5.6-3.5,2-3.5S-4.5-0.6-4.5,3S-1.6,9.5,2,9.5z M2,11   c-4.4,0-8-3.6-8-8s3.6-8,8-8s8,3.6,8,8S6.4,11,2,11z" />
	<polygon
   id="check"
   class="st6"
   points="5.3,-0.3 6.7,1.1 0.8,7 -2.7,3.6 -1.3,2.2 0.8,4.2  " />
</g>
<rect
   id="Rectangle_1_"
   x="80"
   y="145"
   class="st7"
   width="348"
   height="152" />
<text
   transform="matrix(1 0 0 1 99.206 180)"
   class="st1 st8 st9"
   id="text31">Org 1</text>

<rect
   id="Rectangle_2_"
   x="363"
   y="133"
   class="st4"
   width="106"
   height="36" />
<text
   transform="matrix(1 0 0 1 386.176 157)"
   class="st10 st8 st11"
   id="text34">Org1 CA</text>

<rect
   id="Rectangle_3_"
   x="305"
   y="201"
   class="st4"
   width="106"
   height="56" />
<text
   transform="matrix(1 0 0 1 322.256 225)"
   class="st10 st8 st11"
   id="text37">Org1 MSP</text>

<text
   class="st10 st8 st11"
   id="text39"
   x="343.616"
   y="245"
   style="font-size:16px;fill:#565656;font-family:IBMPlexSans-Medium"><tspan
     style="font-family:SimHei;-inkscape-font-specification:SimHei"
     id="tspan2909">定义</tspan></text>

<rect
   id="Rectangle_4_"
   x="78.5"
   y="466.5"
   class="st12"
   width="347"
   height="151" />
<text
   transform="matrix(1 0 0 1 97.206 501)"
   class="st1 st8 st9"
   id="text42">Org 2</text>

<rect
   id="Rectangle_5_"
   x="97.5"
   y="524.5"
   class="st13"
   width="105"
   height="61" />
<text
   transform="matrix(1 0 0 1 110.124 561)"
   class="st14 st8 st11"
   id="text45">Peer Org2</text>

<rect
   id="Rectangle_6_"
   x="361.5"
   y="454.5"
   class="st13"
   width="105"
   height="35" />
<text
   transform="matrix(1 0 0 1 384.176 478)"
   class="st14 st8 st11"
   id="text48">Org2 CA</text>

<rect
   id="Rectangle_7_"
   x="305.5"
   y="525.5"
   class="st13"
   width="105"
   height="55" />
<text
   transform="matrix(1 0 0 1 322.256 549)"
   class="st14 st8 st11"
   id="text51">Org2 MSP</text>

<text
   class="st14 st8 st11"
   id="text53"
   x="339.616"
   y="569"
   style="font-size:16px;fill:#010f5e;font-family:IBMPlexSans-Medium"><tspan
     style="font-family:SimHei;-inkscape-font-specification:SimHei"
     id="tspan2913">定义</tspan></text>

<rect
   id="Rectangle_8_"
   x="101"
   y="199"
   class="st4"
   width="106"
   height="62" />
<text
   transform="matrix(1 0 0 1 114.124 236)"
   class="st10 st8 st11"
   id="text56">Peer Org1</text>

<g
   id="Group-3-Copy"
   transform="translate(202.000000, 558.000000)">
	<g
   id="Clip-2_1_">
	</g>
	<path
   id="Fill-1_2_"
   class="st15"
   d="M-5.1-5h51v39c-25.5,0-25.5,14.9-51,6.4C-5.1,40.4-5.1-5-5.1-5z" />
</g>
<g
   id="Group-3"
   transform="translate(209.000000, 227.000000)">
	<g
   id="Clip-2">
	</g>
	<path
   id="Fill-1_1_"
   class="st16"
   d="M-9-5h52v39.8c-26,0-26,15.2-52,6.5V-5z" />
</g>
<text
   transform="scale(0.72150462,1.3859925)"
   class="st1 st8 st17"
   id="text64"
   x="276.39395"
   y="177.49013"
   style="font-size:10.10106373px;fill:#ffffff;font-family:IBMPlexSans-Medium"><tspan
   style="font-family:SimHei;-inkscape-font-specification:SimHei"
   id="tspan2907">分类帐</tspan> (Ledger)</text>

<text
   transform="matrix(1 0 0 1 250.6936 246)"
   class="st1 st8 st17"
   id="text66"> </text>

<line
   class="st18"
   x1="177"
   y1="261"
   x2="177"
   y2="523.5"
   id="line68" />
<ellipse
   id="Oval"
   class="st19"
   cx="317.5"
   cy="383.5"
   rx="194.5"
   ry="51.5" />
<text
   transform="matrix(1 0 0 1 207 261)"
   class="st1 st8 st17"
   id="text71">X</text>

<rect
   id="Rectangle_9_"
   x="491"
   y="302"
   class="st7"
   width="348"
   height="152" />
<text
   transform="scale(0.72731008,1.3749294)"
   class="st1 st8 st17"
   id="text74"
   x="271.4277"
   y="419.65793"
   style="font-size:10.18234158px;fill:#ffffff;font-family:IBMPlexSans-Medium"><tspan
   style="font-family:SimHei;-inkscape-font-specification:SimHei"
   id="tspan2911">分类帐</tspan> (Ledger)</text>

<text
   transform="matrix(1 0 0 1 244.6936 577)"
   class="st1 st8 st17"
   id="text76"> </text>

<text
   transform="matrix(1 0 0 1 201 592)"
   class="st1 st8 st17"
   id="text78">X</text>

<text
   transform="matrix(1 0 0 1 719.116 400)"
   class="st10 st8 st11"
   id="text80">定义</text>

<text
   transform="matrix(1 0 0 1 272.7465 395)"
   class="st10 st8 st9"
   id="text82">channel1</text>

<rect
   id="Rectangle_10_"
   x="774"
   y="290"
   class="st4"
   width="106"
   height="36" />
<text
   class="st10 st8 st11"
   id="text85"
   x="783.22803"
   y="314"
   style="font-size:16px;fill:#565656;font-family:IBMPlexSans-Medium"><tspan
   style="font-family:SimHei;-inkscape-font-specification:SimHei"
   id="tspan2921">排序节点</tspan> CA</text>

<text
   transform="matrix(1 0 0 1 511.447 337)"
   class="st1 st8 st9"
   id="text87"><tspan
     style="-inkscape-font-specification:SimHei;font-family:SimHei"
     id="tspan2915">排序节点组织</tspan></text>

<rect
   id="Rectangle_11_"
   x="688"
   y="356"
   class="st4"
   width="125"
   height="56" />
<rect
   id="Rectangle-Copy"
   x="518"
   y="355"
   class="st4"
   width="125"
   height="56" />
<text
   class="st10 st8 st11"
   id="text91"
   x="695.30798"
   y="380"
   style="font-size:16px;fill:#565656;font-family:IBMPlexSans-Medium"><tspan
   style="font-family:SimHei;-inkscape-font-specification:SimHei"
   id="tspan2919">排序节点</tspan> MSP</text>

<text
   class="st10 st8 st11"
   id="text93"
   x="544.11255"
   y="361.07321"
   style="font-size:15.24319649px;fill:#565656;font-family:IBMPlexSans-Medium"
   transform="scale(0.95269978,1.0496486)"><tspan
   style="font-family:SimHei;-inkscape-font-specification:SimHei"
   id="tspan2917">排序节点</tspan> (Orderer)</text>

</svg>
