<?xml version="1.0" encoding="UTF-8" standalone="no"?>
<!-- Generator: Adobe Illustrator 22.0.0, SVG Export Plug-In . SVG Version: 6.00 Build 0)  -->

<svg
   xmlns:dc="http://purl.org/dc/elements/1.1/"
   xmlns:cc="http://creativecommons.org/ns#"
   xmlns:rdf="http://www.w3.org/1999/02/22-rdf-syntax-ns#"
   xmlns:svg="http://www.w3.org/2000/svg"
   xmlns="http://www.w3.org/2000/svg"
   xmlns:xlink="http://www.w3.org/1999/xlink"
   xmlns:sodipodi="http://sodipodi.sourceforge.net/DTD/sodipodi-0.dtd"
   xmlns:inkscape="http://www.inkscape.org/namespaces/inkscape"
   version="1.1"
   id="Layer_1"
   x="0px"
   y="0px"
   viewBox="0 0 1400 1548"
   style="enable-background:new 0 0 1400 1548;"
   xml:space="preserve"
   inkscape:version="0.47 r22583"
   width="100%"
   height="100%"
   sodipodi:docname="IBP_V2_Architecture.svg"><metadata
   id="metadata191"><rdf:RDF><cc:Work
       rdf:about=""><dc:format>image/svg+xml</dc:format><dc:type
         rdf:resource="http://purl.org/dc/dcmitype/StillImage" /><dc:title>IBP_V2_Architecture</dc:title></cc:Work></rdf:RDF></metadata><defs
   id="defs189"><inkscape:perspective
     sodipodi:type="inkscape:persp3d"
     inkscape:vp_x="0 : 774 : 1"
     inkscape:vp_y="0 : 1000 : 0"
     inkscape:vp_z="1400 : 774 : 1"
     inkscape:persp3d-origin="700 : 516 : 1"
     id="perspective193" /></defs><sodipodi:namedview
   pagecolor="#ffffff"
   bordercolor="#666666"
   borderopacity="1"
   objecttolerance="10"
   gridtolerance="10"
   guidetolerance="10"
   inkscape:pageopacity="0"
   inkscape:pageshadow="2"
   inkscape:window-width="1440"
   inkscape:window-height="838"
   id="namedview187"
   showgrid="false"
   inkscape:zoom="0.43120724"
   inkscape:cx="700"
   inkscape:cy="959.52564"
   inkscape:window-x="-8"
   inkscape:window-y="-8"
   inkscape:window-maximized="1"
   inkscape:current-layer="IBP_V2_Architecture" />
<style
   type="text/css"
   id="style3">
	.st0{fill:#FFFFFF;stroke:#979797;}
	.st1{opacity:0.2003;}
	.st2{fill:#DCDCDC;}
	.st3{fill:#161515;}
	.st4{font-family:'IBMPlexSans-Medium';}
	.st5{font-size:21px;}
	.st6{opacity:0.4463;}
	.st7{opacity:0.4519;}
	.st8{opacity:0.2022;}
	.st9{opacity:0.2023;}
	.st10{fill:#565656;stroke:#B4ADAD;}
	.st11{fill:#FFFFFF;}
	.st12{font-size:19px;}
	.st13{fill:none;stroke:#5A5A5A;stroke-linecap:round;stroke-linejoin:round;}
	.st14{opacity:0.4474;}
	.st15{fill:none;stroke:#565656;stroke-linecap:round;stroke-linejoin:round;}
	.st16{fill:#010F5E;stroke:#857B7B;}
	.st17{fill:#FFFFFF;stroke:#857B7B;}
	.st18{fill:#010F5E;}
	.st19{fill:#0039C8;stroke:#857B7B;}
	.st20{fill:#565656;}
	.st21{fill:#08CAEB;stroke:#857B7B;}
	.st22{fill:#979797;}
	.st23{font-size:24px;}
	.st24{font-family:'IBMPlexSans';}
	.st25{font-size:20px;}
</style>
<title
   id="title5">IBP_V2_Architecture</title>
<desc
   id="desc7">Created with Sketch.</desc>
<g
   id="IBP_V2_Architecture">
	<rect
   id="Rectangle"
   x="1.5"
   y="0.5"
   class="st0"
   width="1398"
   height="1546" />
	<g
   id="Group-14-Copy"
   transform="translate(165.000000, 579.000000)"
   class="st1">
		<rect
   id="Rectangle-Copy-8"
   y="69"
   class="st2"
   width="757"
   height="805" />
		<text
   transform="matrix(1 0 0 1 0 22)"
   class="st3 st4 st5"
   id="text13">Kubernetes <tspan
   style="-inkscape-font-specification:SimHei;font-family:SimHei"
   id="tspan3023">集群</tspan> - </text>


		<text
   transform="matrix(1 0 0 1 0 50)"
   class="st3 st4 st5"
   id="text15"><tspan
   style="-inkscape-font-specification:SimHei;font-family:SimHei"
   id="tspan3025">服务实例</tspan> 3</text>


	</g>
	<g
   id="Group-14"
   transform="translate(311.000000, 506.000000)"
   class="st6">
		<rect
   id="Rectangle-Copy-8_1_"
   y="69"
   class="st2"
   width="757"
   height="805" />
		<text
   transform="matrix(1 0 0 1 0 22)"
   class="st3 st4 st5"
   id="text19">Kubernetes <tspan
   style="-inkscape-font-specification:SimHei;font-family:SimHei"
   id="tspan3019">集群</tspan> - </text>


		<text
   transform="matrix(1 0 0 1 0 50)"
   class="st3 st4 st5"
   id="text21"><tspan
   style="-inkscape-font-specification:SimHei;font-family:SimHei"
   id="tspan3021">服务实例</tspan> 2</text>


	</g>
	<g
   id="Group-13-Copy"
   transform="translate(308.000000, 194.000000)"
   class="st7">
		<g
   id="Group">
		</g>
	</g>
	<g
   id="Group-13-Copy-2"
   transform="translate(513.000000, 310.000000)"
   class="st8">
	</g>
	<g
   id="Group-17"
   transform="translate(165.000000, 189.000000)"
   class="st9">
		<g
   id="Group_1_"
   transform="translate(0.000000, 69.000000)">
			<rect
   id="Rectangle_1_"
   class="st2"
   width="757"
   height="128" />
		</g>
		<text
   transform="matrix(1 0 0 1 0 22)"
   class="st3 st4 st5"
   id="text29">IBM Blockchain Platform Kubernetes 集群 - </text>


		<text
   transform="matrix(1 0 0 1 0 50)"
   class="st3 st4 st5"
   id="text31"><tspan
     style="-inkscape-font-specification:SimHei;font-family:SimHei"
     id="tspan3009">操作工具</tspan></text>


		<g
   id="Group-2"
   transform="translate(64.000000, 87.000000)">
			<rect
   id="Rectangle_2_"
   x="0.5"
   y="0.5"
   class="st10"
   width="308"
   height="88" />
			<text
   transform="matrix(1 0 0 1 81 39)"
   class="st11 st4 st12"
   id="text35">操作工具</text>


			<text
   transform="matrix(1 0 0 1 81 63)"
   class="st11 st4 st12"
   id="text37"><tspan
     style="-inkscape-font-specification:SimHei;font-family:SimHei"
     id="tspan3013">控制台</tspan></text>


			<g
   id="_x39_658-200">

					<image
   style="overflow:visible;enable-background:new    ;"
   width="200"
   height="200"
   xlink:href="D:\project\stella\BM140\artwork\CHS\BM140ABD141\en new\C9FED2EB5474981B.png"
   transform="matrix(0.135 0 0 0.135 28 31)"
   id="image40"
   sodipodi:absref="D:\project\stella\BM140\artwork\CHS\BM140ABD141\en new\C9FED2EB5474981B.png">
				</image>
				<g
   id="g42">
					<rect
   id="rect-1"
   x="28"
   y="31"
   class="st11"
   width="27"
   height="27" />
				</g>
			</g>
		</g>
		<path
   id="Path-Copy"
   class="st13"
   d="M430,686h-21.5c-11,0-20-9-20-20V141c0-11-9-20-20-20H348" />
	</g>
	<g
   id="Group-18"
   transform="translate(308.000000, 125.000000)"
   class="st14">
		<g
   id="Group-16">
			<rect
   id="Rectangle_3_"
   y="69"
   class="st2"
   width="757"
   height="128" />
			<text
   transform="matrix(1 0 0 1 0 22)"
   class="st3 st4 st5"
   id="text49">IBM Blockchain Platform Kubernetes 集群 - </text>


			<text
   transform="matrix(1 0 0 1 0 50)"
   class="st3 st4 st5"
   id="text51"><tspan
     style="-inkscape-font-specification:SimHei;font-family:SimHei"
     id="tspan3003">操作工具</tspan></text>


			<g
   id="Group-2_1_"
   transform="translate(64.000000, 87.000000)">
				<rect
   id="Rectangle_4_"
   x="0.5"
   y="0.5"
   class="st10"
   width="308"
   height="88" />
				<text
   transform="matrix(1 0 0 1 81 39)"
   class="st11 st4 st12"
   id="text55">区块链操作</text>


				<text
   transform="matrix(1 0 0 1 81 63)"
   class="st11 st4 st12"
   id="text57"><tspan
     style="-inkscape-font-specification:SimHei;font-family:SimHei"
     id="tspan3011">控制台</tspan></text>


				<g
   id="_x39_658-200_1_">

						<image
   style="overflow:visible;enable-background:new    ;"
   width="200"
   height="200"
   xlink:href="D:\project\stella\BM140\artwork\CHS\BM140ABD141\en new\C9FED2EB5474981C.png"
   transform="matrix(0.135 0 0 0.135 28 31)"
   id="image60"
   sodipodi:absref="D:\project\stella\BM140\artwork\CHS\BM140ABD141\en new\C9FED2EB5474981C.png">
					</image>
					<g
   id="g62">
						<rect
   id="rect-2"
   x="28"
   y="31"
   class="st11"
   width="27"
   height="27" />
					</g>
				</g>
			</g>
		</g>
		<path
   id="Path-Copy_1_"
   class="st13"
   d="M430,658h-21.5c-11,0-20-9-20-20V113c0-11-9-20-20-20H348" />
	</g>
	<g
   id="Group-14_1_"
   transform="translate(449.000000, 438.000000)">
		<rect
   id="Rectangle_5_"
   y="69"
   class="st2"
   width="757"
   height="805" />
		<text
   transform="matrix(1 0 0 1 0 22)"
   class="st3 st4 st5"
   id="text68">Kubernetes <tspan
   style="-inkscape-font-specification:SimHei;font-family:SimHei"
   id="tspan3015">集群</tspan> - </text>


		<text
   transform="matrix(1 0 0 1 0 50)"
   class="st3 st4 st5"
   id="text70"><tspan
   style="-inkscape-font-specification:SimHei;font-family:SimHei"
   id="tspan3017">服务实例</tspan> 1</text>


	</g>
	<path
   id="Path"
   class="st15"
   d="M689,1049V927c0-11,8.9-20,20-20h138" />
	<g
   id="Group-8"
   transform="translate(513.000000, 731.000000)">
		<g
   id="Group-7">
			<rect
   id="Rectangle_6_"
   x="0.5"
   y="0.5"
   class="st16"
   width="642"
   height="104" />
			<g
   id="Group-4"
   transform="translate(253.342000, 44.000000)">
				<rect
   id="Rectangle-Copy-7"
   x="0.5"
   y="0.5"
   class="st17"
   width="135.3"
   height="47" />
				<text
   transform="matrix(1 0 0 1 36.311 31)"
   class="st18 st4 st12"
   id="text78">Ingress</text>


			</g>
			<text
   class="st11 st4 st12"
   id="text80"
   x="239.92551"
   y="35"
   style="font-size:19px;fill:#ffffff;font-family:IBMPlexSans-Medium"><tspan
     style="font-family:SimHei;-inkscape-font-specification:SimHei"
     id="tspan3029">服务实例名称空间</tspan></text>


		</g>
		<g
   id="Group-6"
   transform="translate(0.000000, 145.000000)">
			<rect
   id="Rectangle_7_"
   x="0.5"
   y="0.5"
   class="st19"
   width="642"
   height="104" />
			<g
   id="Group-5"
   transform="translate(253.342000, 45.000000)">
				<rect
   id="Rectangle-Copy-5"
   x="0.5"
   y="0.5"
   class="st17"
   width="135.3"
   height="47" />
				<text
   transform="matrix(1 0 0 1 44.3195 31)"
   class="st18 st4 st12"
   id="text86"><tspan
     style="-inkscape-font-specification:SimHei;font-family:SimHei"
     id="tspan3033">代理</tspan></text>


			</g>
			<text
   class="st11 st4 st12"
   id="text88"
   x="177.8985"
   y="35"
   style="font-size:19px;fill:#ffffff;font-family:IBMPlexSans-Medium">IBM Blockchain Platform <tspan
   style="font-family:SimHei;-inkscape-font-specification:SimHei"
   id="tspan3031">名称空间</tspan></text>


		</g>
		<path
   id="Line-2"
   class="st20"
   d="M321.5,136.5V105v-0.5h1v0.5v31.5h4l-4.5,9l-4.5-9H321.5z" />
	</g>
	<g
   id="Group-10"
   transform="translate(895.000000, 1061.000000)">
		<rect
   id="Rectangle_8_"
   x="0.5"
   y="0.5"
   class="st19"
   width="259"
   height="131" />
		<g
   id="Group-9"
   transform="translate(77.000000, 73.000000)">
			<rect
   id="Rectangle-Copy-6"
   x="0.5"
   y="0.5"
   class="st17"
   width="105"
   height="47" />
			<text
   transform="matrix(1 0 0 1 28.49 31)"
   class="st18 st4 st12"
   id="text95">RBAC</text>


		</g>
		<text
   transform="matrix(1 0 0 1 63.05 39)"
   class="st11 st4 st12"
   id="text97">IBM Blockchain</text>


		<text
   class="st11 st4 st12"
   id="text99"
   x="53.304501"
   y="63"
   style="font-size:19px;fill:#ffffff;font-family:IBMPlexSans-Medium">Platform <tspan
   style="font-family:SimHei;-inkscape-font-specification:SimHei"
   id="tspan3043">名称空间</tspan></text>


	</g>
	<rect
   id="Rectangle_9_"
   x="513.5"
   y="1061.5"
   class="st16"
   width="105"
   height="61" />
	<text
   transform="matrix(1 0 0 1 536.0975 1111)"
   class="st11 st4 st12"
   id="text102"><tspan
   style="-inkscape-font-specification:SimHei;font-family:SimHei"
   id="tspan3035">同级</tspan> 1</text>


	<rect
   id="Rectangle_10_"
   x="753.5"
   y="1061.5"
   class="st16"
   width="105"
   height="61" />
	<text
   transform="matrix(1 0 0 1 763.041 1107)"
   class="st11 st4 st12"
   id="text105"><tspan
   style="-inkscape-font-specification:SimHei;font-family:SimHei"
   id="tspan3037">排序节点</tspan> 1</text>


	<g
   id="Group-12"
   transform="translate(856.000000, 546.000000)">
		<rect
   id="Rectangle-Copy-4"
   x="0.5"
   y="28.5"
   class="st21"
   width="270"
   height="122" />
		<rect
   id="Rectangle-Copy-3"
   x="14.5"
   y="14.5"
   class="st21"
   width="270"
   height="122" />
		<g
   id="Group-11"
   transform="translate(28.000000, 0.000000)">
			<rect
   id="Rectangle-Copy"
   x="0.5"
   y="0.5"
   class="st21"
   width="270"
   height="122" />
			<g
   id="Group-3"
   transform="translate(83.000000, 62.000000)">
				<rect
   id="Rectangle-Copy-2"
   x="0.5"
   y="0.5"
   class="st17"
   width="105"
   height="47" />
				<text
   transform="matrix(1 0 0 1 31.0075 31)"
   class="st18 st4 st12"
   id="text114">Tiller</text>


			</g>
			<text
   transform="matrix(1 0 0 1 79.26 30)"
   class="st11 st4 st12"
   id="text116">kube-system</text>


			<text
   transform="matrix(1 0 0 1 192.3468 30)"
   class="st11 st4 st12"
   id="text118"> </text>


			<text
   class="st11 st4 st12"
   id="text120"
   x="51.947998"
   y="54"
   style="font-size:19px;fill:#ffffff;font-family:IBMPlexSans-Medium"><tspan
   style="font-family:SimHei;-inkscape-font-specification:SimHei"
   id="tspan3027">名称空间</tspan> (namespace)</text>


		</g>
	</g>
	<rect
   id="Rectangle_11_"
   x="514.5"
   y="1131.5"
   class="st16"
   width="105"
   height="61" />
	<text
   transform="matrix(1 0 0 1 537.0975 1180)"
   class="st11 st4 st12"
   id="text123"><tspan
   style="-inkscape-font-specification:SimHei;font-family:SimHei"
   id="tspan3039">同级</tspan> 2</text>


	<rect
   id="Rectangle_12_"
   x="514.5"
   y="1200.5"
   class="st16"
   width="105"
   height="61" />
	<text
   transform="matrix(1 0 0 1 537.0975 1249)"
   class="st11 st4 st12"
   id="text126"><tspan
   style="-inkscape-font-specification:SimHei;font-family:SimHei"
   id="tspan3041">同级</tspan> 3</text>


	<rect
   id="Rectangle_13_"
   x="631.5"
   y="1061.5"
   class="st16"
   width="105"
   height="61" />
	<text
   transform="matrix(1 0 0 1 662.378 1110)"
   class="st11 st4 st12"
   id="text129">CA-1</text>


	<rect
   id="Rectangle_14_"
   x="632.5"
   y="1131.5"
   class="st16"
   width="105"
   height="61" />
	<text
   transform="matrix(1 0 0 1 663.378 1179)"
   class="st11 st4 st12"
   id="text132">CA-2</text>


	<path
   id="Line-2_1_"
   class="st20"
   d="M688.5,1051.5V999v-0.5h1v0.5v52.5h4l-4.5,9l-4.5-9H688.5z" />
	<path
   id="Path_1_"
   class="st15"
   d="M565,1056v-36c0-11,9-20,20-20h209c11.1,0,20,9,20,20v36" />

		<g
   id="tip-type"
   transform="translate(813.000000, 1053.000000) rotate(90.000000) translate(-813.000000, -1053.000000) translate(809.000000, 1049.000000)">
		<polygon
   id="Triangle"
   class="st20"
   points="8,4 0,8 0,0   " />
	</g>

		<g
   id="tip-type_1_"
   transform="translate(835.000000, 727.000000) rotate(90.000000) translate(-835.000000, -727.000000) translate(831.000000, 723.000000)">
		<polygon
   id="Triangle_1_"
   class="st20"
   points="8,4 0,8 0,0   " />
	</g>

		<g
   id="tip-type_2_"
   transform="translate(824.000000, 197.000000) scale(1, -1) rotate(180.000000) translate(-824.000000, -197.000000) translate(820.000000, 193.000000)">
		<polygon
   id="Triangle_2_"
   class="st20"
   points="8,4 0,8 0,0   " />
	</g>

		<g
   id="tip-type_3_"
   transform="translate(564.000000, 1053.000000) rotate(90.000000) translate(-564.000000, -1053.000000) translate(560.000000, 1049.000000)">
		<polygon
   id="Triangle_3_"
   class="st20"
   points="8,4 0,8 0,0   " />
	</g>

		<image
   style="overflow:visible;enable-background:new    ;"
   width="48"
   height="48"
   id="IBM_Cloud-Copy"
   xlink:href="D:\project\stella\BM140\artwork\CHS\BM140ABD141\en new\C9FED2EB5474981D.png"
   transform="matrix(0.7708 0 0 0.7708 527 740)"
   sodipodi:absref="D:\project\stella\BM140\artwork\CHS\BM140ABD141\en new\C9FED2EB5474981D.png">
	</image>

		<image
   style="overflow:visible;enable-background:new    ;"
   width="48"
   height="48"
   id="IBM_Cloud-Copy-2"
   xlink:href="D:\project\stella\BM140\artwork\CHS\BM140ABD141\en new\C9FED2EB5474981F.png"
   transform="matrix(0.5417 0 0 0.5417 553 1067)"
   sodipodi:absref="D:\project\stella\BM140\artwork\CHS\BM140ABD141\en new\C9FED2EB5474981F.png">
	</image>

		<image
   style="overflow:visible;enable-background:new    ;"
   width="48"
   height="48"
   id="IBM_Cloud-Copy-5"
   xlink:href="D:\project\stella\BM140\artwork\CHS\BM140ABD141\en new\C9FED2EB5474981A.png"
   transform="matrix(0.5417 0 0 0.5417 553 1137)"
   sodipodi:absref="D:\project\stella\BM140\artwork\CHS\BM140ABD141\en new\C9FED2EB5474981A.png">
	</image>

		<image
   style="overflow:visible;enable-background:new    ;"
   width="48"
   height="48"
   id="IBM_Cloud-Copy-7"
   xlink:href="D:\project\stella\BM140\artwork\CHS\BM140ABD141\en new\C9FED2EB54749808.png"
   transform="matrix(0.5417 0 0 0.5417 553 1206)"
   sodipodi:absref="D:\project\stella\BM140\artwork\CHS\BM140ABD141\en new\C9FED2EB54749808.png">
	</image>

		<image
   style="overflow:visible;enable-background:new    ;"
   width="48"
   height="48"
   id="IBM_Cloud-Copy-3"
   xlink:href="D:\project\stella\BM140\artwork\CHS\BM140ABD141\en new\C9FED2EB54749809.png"
   transform="matrix(0.5417 0 0 0.5417 671 1065)"
   sodipodi:absref="D:\project\stella\BM140\artwork\CHS\BM140ABD141\en new\C9FED2EB54749809.png">
	</image>

		<image
   style="overflow:visible;enable-background:new    ;"
   width="48"
   height="48"
   id="IBM_Cloud-Copy-6"
   xlink:href="D:\project\stella\BM140\artwork\CHS\BM140ABD141\en new\C9FED2EB5474980A.png"
   transform="matrix(0.5417 0 0 0.5417 671 1135)"
   sodipodi:absref="D:\project\stella\BM140\artwork\CHS\BM140ABD141\en new\C9FED2EB5474980A.png">
	</image>

		<image
   style="overflow:visible;enable-background:new    ;"
   width="48"
   height="48"
   id="IBM_Cloud-Copy-4"
   xlink:href="D:\project\stella\BM140\artwork\CHS\BM140ABD141\en new\C9FED2EB5474980B.png"
   transform="matrix(0.5417 0 0 0.5417 793 1066)"
   sodipodi:absref="D:\project\stella\BM140\artwork\CHS\BM140ABD141\en new\C9FED2EB5474980B.png">
	</image>
	<g
   id="Group-13"
   transform="translate(449.000000, 62.000000)">
		<g
   id="Group_2_"
   transform="translate(0.000000, 69.000000)">
			<rect
   id="Rectangle_15_"
   class="st2"
   width="757"
   height="128" />
			<path
   id="Path_2_"
   class="st13"
   d="M427,627h-21.5c-11,0-20-9-20-20V82c0-11-9-20-20-20H345" />
		</g>
		<text
   transform="matrix(1 0 0 1 0 22)"
   class="st3 st4 st5"
   id="text155">IBM Blockchain Platform Kubernetes <tspan
   style="-inkscape-font-specification:SimHei;font-family:SimHei"
   id="tspan2999">集群</tspan> - </text>


		<text
   transform="matrix(1 0 0 1 0 50)"
   class="st3 st4 st5"
   id="text157"><tspan
     style="-inkscape-font-specification:SimHei;font-family:SimHei"
     id="tspan3001">操作工具</tspan></text>


		<g
   id="Group-2_2_"
   transform="translate(64.000000, 87.000000)">
			<rect
   id="Rectangle_16_"
   x="0.5"
   y="0.5"
   class="st10"
   width="308"
   height="88" />
			<text
   transform="matrix(1 0 0 1 81 39)"
   class="st11 st4 st12"
   id="text161"><tspan
     style="-inkscape-font-specification:SimHei;font-family:SimHei"
     id="tspan3005">操作工具</tspan></text>


			<text
   transform="matrix(1 0 0 1 81 63)"
   class="st11 st4 st12"
   id="text163"><tspan
     style="-inkscape-font-specification:SimHei;font-family:SimHei"
     id="tspan3007">控制台</tspan></text>


			<g
   id="_x39_658-200_2_">

					<image
   style="overflow:visible;enable-background:new    ;"
   width="200"
   height="200"
   xlink:href="D:\project\stella\BM140\artwork\CHS\BM140ABD141\en new\31D47C0334D9FAE4.png"
   transform="matrix(0.135 0 0 0.135 28 31)"
   id="image166"
   sodipodi:absref="D:\project\stella\BM140\artwork\CHS\BM140ABD141\en new\31D47C0334D9FAE4.png">
				</image>
				<g
   id="g168">
					<rect
   id="rect-3"
   x="28"
   y="31"
   class="st11"
   width="27"
   height="27" />
				</g>
			</g>
		</g>
	</g>
	<g
   id="Group-15"
   transform="translate(43.000000, 1349.000000)">
		<rect
   id="Rectangle_17_"
   class="st22"
   width="1308"
   height="166" />
		<text
   transform="matrix(1 0 0 1 21.112 44)"
   class="st11 st4 st23"
   id="text173"><tspan
     style="-inkscape-font-specification:SimHei;font-family:SimHei"
     id="tspan3045">服务实例集群详细信息</tspan></text>


		<text
   transform="matrix(1 0 0 1 30 93)"
   class="st11 st24 st25"
   id="text175">- <tspan
   style="-inkscape-font-specification:SimHei;font-family:SimHei"
   id="tspan3047">集群可以为单专区或</tspan></text>


		<text
   transform="matrix(1 0 0 1 366.4356 93)"
   class="st11 st24 st25"
   id="text177"> </text>


		<text
   transform="matrix(1 0 0 1 30 120)"
   class="st11 st24 st25"
   id="text179"><tspan
     style="-inkscape-font-specification:SimHei;font-family:SimHei"
     id="tspan3049">多专区</tspan></text>


		<text
   transform="matrix(1 0 0 1 463 93)"
   class="st11 st24 st25"
   id="text181">- <tspan
   style="-inkscape-font-specification:SimHei;font-family:SimHei"
   id="tspan3051">反亲缘关系规则将用于在多专区区域</tspan> (MZR) <tspan
   style="-inkscape-font-specification:SimHei;font-family:SimHei"
   id="tspan3053">上</tspan></text>


		<text
   transform="matrix(1 0 0 1 463 120)"
   class="st11 st24 st25"
   id="text183"><tspan
     style="-inkscape-font-specification:SimHei;font-family:SimHei"
     id="tspan3057">部署节点</tspan></text>


		<text
   transform="matrix(1 0 0 1 904.43 94)"
   class="st11 st24 st25"
   id="text185">- <tspan
   style="-inkscape-font-specification:SimHei;font-family:SimHei"
   id="tspan3055">客户供应所选计算</tspan></text>


	</g>
</g>
</svg>
