<?xml version="1.0" encoding="utf-8"?>
<!-- Generator: Adobe Illustrator 22.0.0, SVG Export Plug-In . SVG Version: 6.00 Build 0)  -->
<svg version="1.1" id="Layer_1" xmlns="http://www.w3.org/2000/svg" xmlns:xlink="http://www.w3.org/1999/xlink" x="0px" y="0px"
	 viewBox="0 0 1018.6 774" style="enable-background:new 0 0 1018.6 774;" xml:space="preserve">
<style type="text/css">
	.st0{fill:#DCDCDC;stroke:#DCDCDC;}
	.st1{fill:#5A6872;}
	.st2{fill:#011688;stroke:#857B7B;}
	.st3{fill:#FFFFFF;}
	.st4{font-family:'IBMPlexSans-Medium';}
	.st5{font-size:19px;}
	.st6{fill:#FFFFFF;stroke:#FFFFFF;}
	.st7{fill:#010F5E;}
	.st8{font-size:16px;}
	.st9{fill:#0CCAEB;}
	.st10{font-size:14px;}
	.st11{fill:#FFFFFF;stroke:#979797;}
	.st12{fill:#011688;}
	.st13{fill:none;stroke:#001588;}
	.st14{fill:none;stroke:#FFFFFF;}
	.st15{fill:none;stroke:#12C3F4;stroke-width:2;}
	.st16{font-size:12px;}
</style>
<title>ibp-v2-build-network_Raft</title>
<rect id="Rectangle" x="89.2" y="120.1" class="st0" width="847" height="548"/>
<g id="UI-Icon_checkmark--outline_ui-05">
	<path id="Oval-2" class="st1" d="M355.6,276.1c3.6,0,6.5-2.9,6.5-6.5s-2.9-6.5-6.5-6.5s-6.5,2.9-6.5,6.5l0,0
		C349.1,273.2,352,276.1,355.6,276.1L355.6,276.1z M355.6,277.6c-4.4,0-8-3.6-8-8s3.6-8,8-8s8,3.6,8,8S360.1,277.6,355.6,277.6z"/>
	<polygon id="check" class="st1" points="359,266.3 360.4,267.7 354.5,273.6 351,270.2 352.4,268.8 354.5,270.8 	"/>
</g>
<rect id="Rectangle-2" x="113.2" y="157.1" class="st2" width="347" height="151"/>
<text transform="matrix(1 0 0 1 131.86 191.59)" class="st3 st4 st5">組</text>
<text transform="matrix(1 0 0 1 145.39 191.59)" class="st3 st4 st5">織</text>
<text transform="matrix(1 0 0 1 152.3 191.59)" class="st3 st4 st5">1</text>
<rect id="Rectangle-3" x="396.1" y="145.1" class="st6" width="105" height="35"/>
<text transform="matrix(1 0 0 1 418.83 168.59)" class="st7 st4 st8">組</text>
<text transform="matrix(1 0 0 1 430.22 168.59)" class="st7 st4 st8">織</text>
<text transform="matrix(1 0 0 1 436.05 168.59)" class="st7 st4 st8"> 1 </text>
<text transform="matrix(1 0 0 1 458.01 168.59)" class="st7 st4 st8">C</text>
<text transform="matrix(1 0 0 1 468.11 168.59)" class="st7 st4 st8">A</text>
<rect id="Rectangle-4" x="338.1" y="213.1" class="st6" width="105" height="55"/>
<text transform="matrix(1 0 0 1 353.02 236.59)" class="st7 st4 st8">組</text>
<text transform="matrix(1 0 0 1 364.41 236.59)" class="st7 st4 st8">織</text>
<text transform="matrix(1 0 0 1 370.24 236.59)" class="st7 st4 st8"> 1 MSP</text>
<text transform="matrix(1 0 0 1 356.27 256.59)" class="st7 st4 st8">定義</text>
<rect id="Rectangle-9" x="134.1" y="211.1" class="st6" width="105" height="61"/>
<g id="Group-3">
	<path id="Fill-1" class="st9" d="M235.6,233.6h51v39c-25.5,0-25.5,14.9-51,6.4V233.6z"/>
</g>
<text transform="matrix(1 0 0 1 146.77 247.59)" class="st7 st4 st8">ピ</text>
<text transform="matrix(1 0 0 1 156.48 247.59)" class="st7 st4 st8">ア組</text>
<text transform="matrix(1 0 0 1 195.57 247.59)" class="st7 st4 st8">織</text>
<text transform="matrix(1 0 0 1 201.39 247.59)" class="st7 st4 st8">1</text>
<text transform="matrix(1 0 0 1 239.65 257.59)" class="st3 st4 st10"> </text>
<text transform="matrix(1 0 0 1 246.69 257.59)" class="st3 st4 st10">台</text>
<text transform="matrix(1 0 0 1 262.76 257.59)" class="st3 st4 st10">帳</text>
<text transform="matrix(1 0 0 1 270.2 257.59)" class="st3 st4 st10"> </text>
<text transform="matrix(1 0 0 1 239.65 272.59)" class="st3 st4 st10">X</text>
<ellipse id="Oval" class="st11" cx="350.1" cy="395.1" rx="194.5" ry="51.5"/>
<text transform="matrix(1 0 0 1 307.4 406.59)" class="st7 st4 st5">チャネル 1</text>
<rect id="Rectangle-10" x="524.2" y="286.6" class="st2" width="347" height="214.5"/>
<text transform="matrix(1 0 0 1 544.1 321.09)" class="st3 st4 st5">順</text>
<text transform="matrix(1 0 0 1 557.63 321.09)" class="st3 st4 st5">序</text>
<text transform="matrix(1 0 0 1 564.81 321.09)" class="st3 st4 st5">付け</text>
<text transform="matrix(1 0 0 1 646.5699 321.09)" class="st3 st4 st5">サ</text>
<text transform="matrix(1 0 0 1 654.01 321.09)" class="st3 st4 st5">ー</text>
<text transform="matrix(1 0 0 1 668.78 321.09)" class="st3 st4 st5">ビ</text>
<text transform="matrix(1 0 0 1 678.35 321.09)" class="st3 st4 st5">ス</text>
<text transform="matrix(1 0 0 1 706.93 321.09)" class="st3 st4 st5">組</text>
<text transform="matrix(1 0 0 1 713.84 321.09)" class="st3 st4 st5">織</text>
<rect id="Rectangle-11" x="738.6" y="274.6" class="st6" width="173.6" height="35"/>
<text transform="matrix(1 0 0 1 754.02 298.09)" class="st7 st4 st8">順</text>
<text transform="matrix(1 0 0 1 765.41 298.09)" class="st7 st4 st8">序</text>
<text transform="matrix(1 0 0 1 771.46 298.09)" class="st7 st4 st8">付け</text>
<text transform="matrix(1 0 0 1 838.64 298.09)" class="st7 st4 st8">サ</text>
<text transform="matrix(1 0 0 1 844.91 298.09)" class="st7 st4 st8">ー</text>
<text transform="matrix(1 0 0 1 857.35 298.09)" class="st7 st4 st8">ビ</text>
<text transform="matrix(1 0 0 1 865.41 298.09)" class="st7 st4 st8">ス</text>
<text transform="matrix(1 0 0 1 878.08 298.09)" class="st7 st4 st8">C</text>
<text transform="matrix(1 0 0 1 888.1801 298.09)" class="st7 st4 st8">A</text>
<rect id="Rectangle-12" x="721.2" y="371.6" class="st6" width="135.8" height="55"/>
<text transform="matrix(1 0 0 1 728.19 395.44)" class="st7 st4 st8">順</text>
<text transform="matrix(1 0 0 1 739.58 395.44)" class="st7 st4 st8">序</text>
<text transform="matrix(1 0 0 1 745.63 395.44)" class="st7 st4 st8">付け</text>
<text transform="matrix(1 0 0 1 812.81 395.44)" class="st7 st4 st8">サ</text>
<text transform="matrix(1 0 0 1 819.08 395.44)" class="st7 st4 st8">ー</text>
<text transform="matrix(1 0 0 1 831.52 395.44)" class="st7 st4 st8">ビ</text>
<text transform="matrix(1 0 0 1 839.58 395.44)" class="st7 st4 st8">ス</text>
<text transform="matrix(1 0 0 1 734.89 415.44)" class="st7 st4 st8">MSP 定義</text>
<rect id="Rectangle-13" x="552.7" y="408.6" class="st12" width="10" height="10"/>
<g id="Group-18">
	<g id="Group-5">
		<polygon id="Fill-1-3" class="st3" points="546.2,337.6 705.7,337.6 705.7,474.1 546.2,474.1 		"/>
		<polygon id="Stroke-3" class="st13" points="546.2,474.1 705.7,474.1 705.7,337.6 546.2,337.6 		"/>
	</g>
</g>
<line class="st14" x1="182.6" y1="272.1" x2="182.6" y2="367.1"/>
<circle class="st15" cx="625.9" cy="419.1" r="32.1"/>
<circle class="st7" cx="595" cy="412.6" r="8.3"/>
<circle class="st7" cx="625.9" cy="389.1" r="8.3"/>
<circle class="st7" cx="656.6" cy="412.6" r="8.3"/>
<circle class="st7" cx="607.7" cy="446.9" r="8.3"/>
<circle class="st7" cx="642.6" cy="446.9" r="8.3"/>
<text transform="matrix(1 0 0 1 562.65 363.52)" class="st7 st4 st16">順</text>
<text transform="matrix(1 0 0 1 571.19 363.52)" class="st7 st4 st16">序</text>
<text transform="matrix(1 0 0 1 575.73 363.52)" class="st7 st4 st16">付け</text>
<text transform="matrix(1 0 0 1 626.12 363.52)" class="st7 st4 st16">サ</text>
<text transform="matrix(1 0 0 1 630.82 363.52)" class="st7 st4 st16">ー</text>
<text transform="matrix(1 0 0 1 640.15 363.52)" class="st7 st4 st16">ビ</text>
<text transform="matrix(1 0 0 1 646.19 363.52)" class="st7 st4 st16">ス・ノード</text>
</svg>
