<?xml version="1.0" encoding="UTF-8" standalone="no"?>
<!-- Generator: Adobe Illustrator 22.0.0, SVG Export Plug-In . SVG Version: 6.00 Build 0)  -->

<svg
   xmlns:dc="http://purl.org/dc/elements/1.1/"
   xmlns:cc="http://creativecommons.org/ns#"
   xmlns:rdf="http://www.w3.org/1999/02/22-rdf-syntax-ns#"
   xmlns:svg="http://www.w3.org/2000/svg"
   xmlns="http://www.w3.org/2000/svg"
   xmlns:sodipodi="http://sodipodi.sourceforge.net/DTD/sodipodi-0.dtd"
   xmlns:inkscape="http://www.inkscape.org/namespaces/inkscape"
   version="1.1"
   id="Layer_1"
   x="0px"
   y="0px"
   viewBox="0 0 1070 932"
   style="enable-background:new 0 0 1070 932;"
   xml:space="preserve"
   sodipodi:docname="HA_Diagram_2.svg"
   inkscape:version="0.92.2 (5c3e80d, 2017-08-06)"><metadata
     id="metadata170"><rdf:RDF><cc:Work
         rdf:about=""><dc:format>image/svg+xml</dc:format><dc:type
           rdf:resource="http://purl.org/dc/dcmitype/StillImage" /></cc:Work></rdf:RDF></metadata><defs
     id="defs168" /><sodipodi:namedview
     pagecolor="#ffffff"
     bordercolor="#666666"
     borderopacity="1"
     objecttolerance="10"
     gridtolerance="10"
     guidetolerance="10"
     inkscape:pageopacity="0"
     inkscape:pageshadow="2"
     inkscape:window-width="3440"
     inkscape:window-height="1372"
     id="namedview166"
     showgrid="false"
     inkscape:zoom="1.0128755"
     inkscape:cx="477.26643"
     inkscape:cy="601.34431"
     inkscape:window-x="-4"
     inkscape:window-y="-4"
     inkscape:window-maximized="1"
     inkscape:current-layer="Layer_1" /><style
     type="text/css"
     id="style2">
	.st0{fill:#FFFFFF;}
	.st1{fill:#2D3F49;stroke:#2D3F49;}
	.st2{fill:#FFFFFF;stroke:#00B39F;stroke-width:2;stroke-dasharray:8;}
	.st3{fill:#FFFFFF;stroke:#6182BB;}
	.st4{fill:none;}
	.st5{font-family:'Helvetica';}
	.st6{font-size:24.0721px;}
	.st7{fill:#4278BD;}
	.st8{font-size:20.07px;}
	.st9{font-size:16.07px;}
	.st10{font-size:21.07px;}
	.st11{font-size:14.07px;}
	.st12{font-family:'Helvetica-BoldOblique';}
	.st13{font-size:21.6649px;}
	.st14{font-size:12.07px;}
</style><title
     id="title4">2</title><desc
     id="desc6">Created with Sketch.</desc><rect
     style="fill:#ffffff"
     y="0"
     x="0"
     id="rect8"
     height="932"
     width="1070"
     class="st0" /><path
     style="fill:#2d3f49;stroke:#2d3f49"
     inkscape:connector-curvature="0"
     d="M 1016.4,819 H 84.5 c -6.6,0 -12,-5 -12,-11.2 V 32.2 C 72.5,26 77.9,21 84.5,21 h 931.9 c 6.6,0 12,5 12,11.2 v 775.5 c 0,6.3 -5.4,11.3 -12,11.3 z"
     class="st1"
     id="XMLID_232_" /><path
     style="fill:#ffffff"
     inkscape:connector-curvature="0"
     d="M 685.1,798.5 H 409.5 c -6.6,0 -12,-5 -12,-11.1 V 89.6 c 0,-6.1 5.4,-11.1 12,-11.1 h 275.6 c 6.6,0 12,5 12,11.1 v 697.7 c 0,6.2 -5.4,11.2 -12,11.2 z"
     class="st0"
     id="XMLID_231_" /><path
     style="fill:#ffffff"
     inkscape:connector-curvature="0"
     d="M 375.3,798.5 H 101 c -6.6,0 -11.9,-5 -11.9,-11.1 V 89.6 c 0,-6.1 5.4,-11.1 11.9,-11.1 h 274.1 c 6.6,0 11.9,5 11.9,11.1 v 697.7 c 0.2,6.2 -5.2,11.2 -11.7,11.2 z"
     class="st0"
     id="XMLID_230_" /><path
     style="fill:#ffffff"
     inkscape:connector-curvature="0"
     d="M 995.6,798.5 H 720 c -6.6,0 -12,-5 -12,-11.1 V 89.6 c 0,-6.1 5.4,-11.1 12,-11.1 h 275.6 c 6.6,0 12,5 12,11.1 v 697.7 c 0,6.2 -5.4,11.2 -12,11.2 z"
     class="st0"
     id="XMLID_1_" /><path
     style="fill:#ffffff;stroke:#00b39f;stroke-width:2;stroke-dasharray:8"
     inkscape:connector-curvature="0"
     d="M 969.1,787 H 115.5 c -6.6,0 -12,-5 -12,-11.2 V 145.2 c 0,-6.2 5.4,-11.2 12,-11.2 h 853.6 c 6.6,0 12,5 12,11.2 v 630.7 c 0,6.1 -5.4,11.1 -12,11.1 z"
     class="st2"
     id="XMLID_229_" /><path
     style="fill:#ffffff;stroke:#6182bb"
     inkscape:connector-curvature="0"
     d="M 941.3,773.7 H 135.8 c -6.6,0 -12,-5.4 -12,-12.1 V 229.8 c 0,-6.6 5.4,-12.1 12,-12.1 h 805.5 c 6.6,0 12,5.4 12,12.1 v 531.9 c 0,6.6 -5.4,12 -12,12 z"
     class="st3"
     id="XMLID_228_" /><rect
     id="XMLID_45_"
     y="235"
     class="st4"
     width="235"
     height="23"
     x="428"
     style="fill:none" /><text
     class="st5 st6"
     id="text17"
     style="font-size:24.07209969px;font-family:Helvetica"
     x="478"
     y="253">Workerpool</text>
<rect
     style="fill:none"
     height="34"
     width="196.89999"
     class="st4"
     y="95.400002"
     x="140.5"
     id="XMLID_217_" /><text
     style="font-size:24.07209969px;font-family:Helvetica"
     id="text21"
     class="st5 st6"
     x="201.74271"
     y="113.1874">Zone 1</text>
<g
     transform="translate(455,35)"
     id="XMLID_201_"><rect
       style="fill:none"
       x="0"
       height="34"
       width="128"
       class="st4"
       y="6"
       id="XMLID_43_" /><text
       style="font-size:24.07209969px;font-family:Helvetica;fill:#ffffff"
       id="text24"
       class="st0 st5 st6"
       transform="translate(42,24)">Region 1</text>
</g><text
     style="font-size:24.07209969px;font-family:Helvetica"
     id="text27"
     class="st5 st6"
     x="452.79929"
     y="171">Mehrzonencluster</text>
<path
     style="fill:#4278bd;stroke-width:1.07534182"
     inkscape:connector-curvature="0"
     d="M 353.42367,419.9 H 151.17632 C 143.54434,419.9 137.3,414.5 137.3,407.9 V 287.4 c 0,-6.6 6.24434,-12 13.87632,-12 h 202.24735 c 7.63198,0 13.87633,5.4 13.87633,12 V 408 c 0,6.5 -6.24435,11.9 -13.87633,11.9 z"
     class="st7"
     id="XMLID_200_" /><rect
     style="fill:none"
     height="23.299999"
     width="166.5"
     class="st4"
     y="300"
     x="153.5"
     id="XMLID_199_" /><text
     style="font-size:24.07209969px;font-family:Helvetica;fill:#ffffff"
     id="text31"
     class="st0 st5 st6"
     x="169.48163"
     y="317.83099">Workerknoten 1</text>
<path
     style="fill:#4278bd;stroke-width:1.07534182"
     inkscape:connector-curvature="0"
     d="M 353.42367,591.4 H 151.17632 C 143.54434,591.4 137.3,586 137.3,579.4 V 458.9 c 0,-6.6 6.24434,-12 13.87632,-12 h 202.24735 c 7.63198,0 13.87633,5.4 13.87633,12 v 120.6 c 0,6.5 -6.24435,11.9 -13.87633,11.9 z"
     class="st7"
     id="XMLID_190_" /><rect
     style="fill:none"
     height="23.299999"
     width="166.5"
     class="st4"
     y="471.5"
     x="153.5"
     id="XMLID_189_" /><text
     style="font-size:24.07209969px;font-family:Helvetica;fill:#ffffff"
     id="text37"
     class="st0 st5 st6"
     x="167.69504"
     y="489.34369">Workerknoten 2</text>
<path
     style="fill:#4278bd;stroke-width:1.07534182"
     inkscape:connector-curvature="0"
     d="M 353.42367,762.9 H 151.17632 C 143.54434,762.9 137.3,757.5 137.3,750.9 V 630.4 c 0,-6.6 6.24434,-12 13.87632,-12 h 202.24735 c 7.63198,0 13.87633,5.4 13.87633,12 V 751 c 0,6.5 -6.24435,11.9 -13.87633,11.9 z"
     class="st7"
     id="XMLID_178_" /><rect
     style="fill:none"
     height="23.299999"
     width="166.5"
     class="st4"
     y="643"
     x="153.5"
     id="XMLID_177_" /><text
     style="font-size:24.07209969px;font-family:Helvetica;fill:#ffffff"
     id="text43"
     class="st0 st5 st6"
     x="167.51872"
     y="660.85931">Workerknoten 3</text>
<path
     id="XMLID_174_"
     class="st0"
     d="M 333.6063,738.9 H 170.9937 c -7.53154,0 -13.6937,-5.4 -13.6937,-12 v -38.5 c 0,-6.6 6.16216,-12 13.6937,-12 h 162.6126 c 7.53154,0 13.6937,5.4 13.6937,12 v 38.5 c 0,6.6 -6.16216,12 -13.6937,12 z"
     inkscape:connector-curvature="0"
     style="fill:#ffffff;stroke-width:1.06824207" /><rect
     style="fill:none"
     height="37.700001"
     width="163.60001"
     class="st4"
     y="694.79999"
     x="155"
     id="XMLID_36_" /><text
     style="font-size:20.06999969px;font-family:Helvetica"
     id="text47"
     class="st5 st8"
     x="161.45581"
     y="704">Anordnungsknoten 1</text>
<rect
     style="fill:none"
     height="34"
     width="196.89999"
     class="st4"
     y="95.400002"
     x="439.5"
     id="XMLID_148_" /><text
     style="font-size:24.07209969px;font-family:Helvetica"
     id="text56"
     class="st5 st6"
     x="500.71729"
     y="113.1874">Zone 2</text>
<path
     style="fill:#4278bd;stroke-width:1.06207526"
     inkscape:connector-curvature="0"
     d="M 637.19394,417.5 H 439.90606 c -7.44483,0 -13.53605,-5.4 -13.53605,-12 V 285 c 0,-6.6 6.09122,-12 13.53605,-12 h 197.28788 c 7.44483,0 13.53605,5.4 13.53605,12 v 120.6 c 0,6.5 -6.09122,11.9 -13.53605,11.9 z"
     class="st7"
     id="XMLID_146_" /><rect
     style="fill:none"
     height="23.299999"
     width="166.5"
     class="st4"
     y="321"
     x="454.5"
     id="XMLID_143_" /><text
     style="font-size:24.07209969px;font-family:Helvetica;fill:#ffffff"
     id="text60"
     class="st0 st5 st6"
     x="455.73163"
     y="317.43201">Workerknoten 1</text>
<path
     style="fill:#4278bd;stroke-width:1.06207526"
     inkscape:connector-curvature="0"
     d="M 637.19394,591.4 H 439.90606 c -7.44483,0 -13.53605,-5.4 -13.53605,-12 V 458.9 c 0,-6.6 6.09122,-12 13.53605,-12 h 197.28788 c 7.44483,0 13.53605,5.4 13.53605,12 v 120.6 c 0,6.5 -6.09122,11.9 -13.53605,11.9 z"
     class="st7"
     id="XMLID_128_" /><rect
     style="fill:none"
     height="23.299999"
     width="166.5"
     class="st4"
     y="510.5"
     x="454.5"
     id="XMLID_127_" /><text
     style="font-size:24.07209969px;font-family:Helvetica;fill:#ffffff"
     id="text64"
     class="st0 st5 st6"
     x="453.94504"
     y="489.34521">Workerknoten 2</text>
<g
     transform="translate(445,505)"
     id="Group_1_"><path
       style="fill:#ffffff"
       inkscape:connector-curvature="0"
       d="M 83.5,72 H 6.5 C 2.9,72 0,65.8 0,58.2 V 13.8 C 0,6.2 2.9,0 6.5,0 h 77 C 87.1,0 90,6.2 90,13.8 V 58.2 C 90,65.8 87.1,72 83.5,72 Z"
       class="st0"
       id="XMLID_124_" /></g><path
     style="fill:#4278bd;stroke-width:1.06207526"
     inkscape:connector-curvature="0"
     d="M 637.19394,759.5 H 439.90606 c -7.44483,0 -13.53605,-5.4 -13.53605,-12 V 627 c 0,-6.6 6.09122,-12 13.53605,-12 h 197.28788 c 7.44483,0 13.53605,5.4 13.53605,12 v 120.6 c 0,6.5 -6.09122,11.9 -13.53605,11.9 z"
     class="st7"
     id="XMLID_44_" /><rect
     style="fill:none"
     height="23.299999"
     width="166.5"
     class="st4"
     y="682"
     x="454.5"
     id="XMLID_42_" /><text
     style="font-size:24.07209969px;font-family:Helvetica;fill:#ffffff"
     id="text70"
     class="st0 st5 st6"
     x="453.76874"
     y="660.45929">Workerknoten 3</text>
<rect
     style="fill:none"
     height="34"
     width="196.89999"
     class="st4"
     y="98.199997"
     x="756.30005"
     id="XMLID_3_" /><text
     style="font-size:24.07209969px;font-family:Helvetica"
     id="text73"
     class="st5 st6"
     x="817.58447"
     y="116.0419">Zone 3</text>
<path
     style="fill:#4278bd;stroke-width:1.06468928"
     inkscape:connector-curvature="0"
     d="M 924.39724,417.5 H 726.13701 c -7.48151,0 -13.60276,-5.4 -13.60276,-12 V 285 c 0,-6.6 6.12125,-12 13.60276,-12 H 924.39724 C 931.87876,273 938,278.4 938,285 v 120.6 c 0,6.5 -6.12124,11.9 -13.60276,11.9 z"
     class="st7"
     id="XMLID_71_" /><rect
     style="fill:none"
     height="23.299999"
     width="166.5"
     class="st4"
     y="339"
     x="752.5"
     id="XMLID_70_" /><text
     style="font-size:24.07209969px;font-family:Helvetica;fill:#ffffff"
     id="text77"
     class="st0 st5 st6"
     x="742.44873"
     y="317.43201">Workerknoten 1</text>
<path
     style="fill:#ffffff;stroke-width:1.06824207"
     inkscape:connector-curvature="0"
     d="M 906.57344,393.5 H 743.96082 c -7.53153,0 -13.69369,-5.4 -13.69369,-12 V 343 c 0,-6.6 6.16216,-12 13.69369,-12 h 162.61262 c 7.53152,0 13.69368,5.4 13.69368,12 v 38.5 c 0,6.6 -6.16216,12 -13.69368,12 z"
     class="st0"
     id="XMLID_68_" /><path
     style="fill:#4278bd;stroke-width:1.06468928"
     inkscape:connector-curvature="0"
     d="M 919.86299,588.5 H 721.60276 C 714.12124,588.5 708,583.1 708,576.5 V 456 c 0,-6.6 6.12124,-12 13.60276,-12 h 198.26023 c 7.48151,0 13.60276,5.4 13.60276,12 v 120.6 c 0,6.5 -6.12125,11.9 -13.60276,11.9 z"
     class="st7"
     id="XMLID_63_" /><rect
     style="fill:none"
     height="23.299999"
     width="166.5"
     class="st4"
     y="510.5"
     x="752.5"
     id="XMLID_62_" /><text
     style="font-size:24.07209969px;font-family:Helvetica;fill:#ffffff"
     id="text82"
     class="st0 st5 st6"
     x="736.12793"
     y="490">Workerknoten 2</text>
<path
     style="fill:#ffffff"
     inkscape:connector-curvature="0"
     d="m 873,572 h -83 c -3.8,0 -7,-5.4 -7,-12.1 v -38.8 c 0,-6.7 3.1,-12.1 7,-12.1 h 83 c 3.8,0 7,5.4 7,12.1 v 38.8 c 0,6.7 -3.1,12.1 -7,12.1 z"
     class="st0"
     id="XMLID_59_" /><text
     style="font-size:16.06999969px;font-family:Helvetica"
     id="text85"
     class="st5 st9"
     x="232.20465"
     y="726">(Raft)</text>
<path
     style="fill:#4278bd;stroke-width:1.06468928"
     inkscape:connector-curvature="0"
     d="M 920.99655,759.5 H 722.73632 c -7.48151,0 -13.60276,-5.4 -13.60276,-12 V 627 c 0,-6.6 6.12125,-12 13.60276,-12 h 198.26023 c 7.48152,0 13.60276,5.4 13.60276,12 v 120.6 c 0,6.5 -6.12124,11.9 -13.60276,11.9 z"
     class="st7"
     id="XMLID_54_" /><rect
     style="fill:none"
     height="23.299999"
     width="166.5"
     class="st4"
     y="682"
     x="752.5"
     id="XMLID_26_" /><rect
     style="fill:none"
     height="37.700001"
     width="163.60001"
     class="st4"
     y="355"
     x="500.10001"
     id="XMLID_6_" /><g
     id="g1371"
     transform="translate(0.35)"><path
       style="fill:#ffffff"
       inkscape:connector-curvature="0"
       d="m 572,399.1 h -67.6 c -3.1,0 -5.7,-5.4 -5.7,-12 v -38.5 c 0,-6.6 2.6,-12 5.7,-12 H 572 c 3.1,0 5.7,5.4 5.7,12 v 38.5 c 0,6.6 -2.6,12 -5.7,12 z"
       class="st0"
       id="XMLID_5_" /><text
       y="366.70001"
       x="508.39999"
       class="st5 st10"
       id="text105"
       style="font-size:21.06999969px;font-family:Helvetica">Peer 3</text>
<text
       y="383.70001"
       x="520.40002"
       class="st5 st11"
       id="text107"
       style="font-size:14.06999969px;font-family:Helvetica">Org. 1</text>
</g><g
     transform="translate(190,508)"
     id="Group_4_"><path
       style="fill:#ffffff"
       inkscape:connector-curvature="0"
       d="M 83.5,62.5 H 6.5 C 2.9,62.5 0,57.1 0,50.5 V 12 C 0,5.4 2.9,0 6.5,0 h 77 C 87.1,0 90,5.4 90,12 v 38.5 c 0,6.6 -2.9,12 -6.5,12 z"
       class="st0"
       id="XMLID_9_" /><g
       transform="translate(5.7,11.1)"
       id="XMLID_12_"><rect
         style="fill:none"
         height="37.700001"
         width="163.60001"
         class="st4"
         y="8.3000002"
         x="0.69999999"
         id="XMLID_11_" /><text
         style="font-size:21.06999969px;font-family:Helvetica"
         id="text113"
         class="st5 st10"
         transform="translate(9,20)">Peer 2</text>
<text
         style="font-size:14.06999969px;font-family:Helvetica"
         id="text115"
         class="st5 st11"
         transform="translate(21,37)">Org. 1</text>
</g><rect
       style="fill:none"
       height="37.700001"
       width="163.60001"
       class="st4"
       y="19.299999"
       x="605.70001"
       id="XMLID_13_" /><text
       style="font-size:21.06999969px;font-family:Helvetica"
       id="text119"
       class="st5 st10"
       transform="translate(614,31)">Peer 4</text>
<text
       style="font-size:14.06999969px;font-family:Helvetica"
       id="text121"
       class="st5 st11"
       transform="translate(626,48)">Org. 1</text>
</g><path
     style="fill:#ffffff;stroke-width:1.06824207"
     inkscape:connector-curvature="0"
     d="M 619.85631,735.5 H 457.24369 c -7.53153,0 -13.69369,-5.4 -13.69369,-12 V 685 c 0,-6.6 6.16216,-12 13.69369,-12 h 162.61262 c 7.53153,0 13.69369,5.4 13.69369,12 v 38.5 c 0,6.6 -6.16216,12 -13.69369,12 z"
     class="st0"
     id="XMLID_14_" /><text
     style="font-size:24.07209969px;font-family:Helvetica;fill:#ffffff"
     id="text125"
     class="st0 st5 st6"
     x="737.08514"
     y="660">Workerknoten 3</text>
<rect
     id="XMLID_16_"
     x="457.70001"
     y="688.40002"
     class="st4"
     width="163.60001"
     height="37.700001"
     style="fill:none" /><text
     class="st5 st8"
     id="text128"
     style="font-size:20.06999969px;font-family:Helvetica"
     x="446.06924"
     y="697.59998">Anordnungsknoten 3</text>
<rect
     id="XMLID_18_"
     x="462"
     y="518"
     class="st4"
     width="109"
     height="38"
     style="fill:none" /><text
     class="st5 st9"
     id="text134"
     style="font-size:16.06999969px;font-family:Helvetica"
     x="443.8262"
     y="527">Anordnungs- </text>
<text
     class="st5 st9"
     id="text136"
     style="font-size:16.06999969px;font-family:Helvetica"
     x="459.0213"
     y="546">knoten 2</text>
<rect
     id="XMLID_20_"
     x="726.43036"
     y="347.39999"
     class="st4"
     width="163.60001"
     height="37.700001"
     style="fill:none" /><text
     style="font-size:21.66533407px;font-family:Helvetica;-inkscape-font-specification:'Helvetica, Bold Oblique Condensed';font-weight:bold;font-style:oblique;font-stretch:condensed;font-variant:normal;text-anchor:start;text-align:start;writing-mode:lr;font-variant-ligatures:normal;font-variant-caps:normal;font-variant-numeric:normal;font-feature-settings:normal;"
     id="text143"
     class="st12 st13"
     x="368"
     y="198">+ Anti-Affinität (für alle Workerknoten)</text>
<text
     style="font-size:16.06999969px;font-family:Helvetica"
     id="text145"
     class="st5 st9"
     x="518.45465"
     y="723.59998">(Raft)</text>
<g
     id="g1347"
     transform="translate(4.9999998e-6)"><path
       id="XMLID_8_"
       class="st0"
       d="M 903.17274,735.5 H 740.56012 c -7.53153,0 -13.69369,-5.4 -13.69369,-12 V 685 c 0,-6.6 6.16216,-12 13.69369,-12 h 162.61262 c 7.53153,0 13.69369,5.4 13.69369,12 v 38.5 c 0,6.6 -6.16216,12 -13.69369,12 z"
       inkscape:connector-curvature="0"
       style="fill:#ffffff;stroke-width:1.06824207" /><text
       y="697.59998"
       x="729.46405"
       style="font-size:20.06999969px;font-family:Helvetica"
       id="text130"
       class="st5 st8">Anordnungsknoten 5</text>
<text
       y="722.59998"
       x="801.77106"
       class="st5 st9"
       id="text147"
       style="font-size:16.06999969px;font-family:Helvetica">(Raft)</text>
</g><text
     style="font-size:16.06999969px;font-family:Helvetica"
     id="text149"
     class="st5 st9"
     x="469.90466"
     y="565">(Raft)</text>
<g
     id="g1377"
     transform="translate(-7.5282393)"><text
       y="356.60001"
       x="740.30481"
       style="font-size:20.06999969px;font-family:Helvetica"
       id="text140"
       class="st5 st8">Anordnungsknoten 4</text>
<text
       y="380.60001"
       x="812.70001"
       class="st5 st9"
       id="text151"
       style="font-size:16.06999969px;font-family:Helvetica">(Raft)</text>
</g><g
     id="g1358"
     transform="translate(15.499997)"><g
       id="Group_2_"
       transform="translate(154,335)"><path
         id="XMLID_255_"
         class="st0"
         d="M 73.6,63.4 H 6 C 2.9,63.4 0.3,58 0.3,51.4 V 12.9 C 0.3,6.3 2.9,0.9 6,0.9 h 67.6 c 3.1,0 5.7,5.4 5.7,12 v 38.5 c 0,6.6 -2.6,12 -5.7,12 z"
         inkscape:connector-curvature="0"
         style="fill:#ffffff" /><g
         id="XMLID_251_"
         transform="translate(1,1)"><rect
           id="XMLID_22_"
           x="0.69999999"
           y="18.299999"
           class="st4"
           width="163.60001"
           height="37.700001"
           style="fill:none" /><text
           transform="translate(9,30)"
           class="st5 st10"
           id="text94"
           style="font-size:21.06999969px;font-family:Helvetica">Peer 1</text>
<text
           transform="translate(21,47)"
           class="st5 st11"
           id="text96"
           style="font-size:14.06999969px;font-family:Helvetica">Org. 1</text>
<path
           id="XMLID_4_"
           class="st0"
           d="M 156.3,62.5 H 88.7 C 85.6,62.5 83,57.1 83,50.5 V 12 C 83,5.4 85.6,0 88.7,0 h 67.6 c 3.1,0 5.7,5.4 5.7,12 v 38.5 c 0,6.6 -2.6,12 -5.7,12 z"
           inkscape:connector-curvature="0"
           style="fill:#ffffff" /><text
           transform="translate(102,30)"
           class="st5 st10"
           id="text99"
           style="font-size:21.06999969px;font-family:Helvetica">CA 1</text>
</g></g><text
       y="383"
       x="260"
       class="st5 st11"
       id="text153"
       style="font-size:14.06999969px;font-family:Helvetica">Peers</text>
</g><path
     style="fill:#ffffff"
     inkscape:connector-curvature="0"
     d="m 621.8,577 h -73.6 c -3.4,0 -6.2,-6.2 -6.2,-13.8 v -44.4 c 0,-7.6 2.8,-13.8 6.2,-13.8 h 73.6 c 3.4,0 6.2,6.2 6.2,13.8 v 44.4 c 0,7.6 -2.8,13.8 -6.2,13.8 z"
     class="st0"
     id="XMLID_23_" /><text
     style="font-size:21.06999969px;font-family:Helvetica"
     id="text156"
     class="st5 st10"
     x="562"
     y="535">CA 2</text>
<text
     style="font-size:12.06999969px;font-family:Helvetica"
     id="text158"
     class="st5 st14"
     x="550.3194"
     y="552">Anordnungs- </text>
<text
     style="font-size:12.06999969px;font-family:Helvetica"
     id="text160"
     class="st5 st14"
     x="565.91962"
     y="566">service</text>
</svg>
