<?xml version="1.0" encoding="UTF-8" standalone="no"?>
<!-- Generator: Adobe Illustrator 22.0.0, SVG Export Plug-In . SVG Version: 6.00 Build 0)  -->

<svg
   xmlns:dc="http://purl.org/dc/elements/1.1/"
   xmlns:cc="http://creativecommons.org/ns#"
   xmlns:rdf="http://www.w3.org/1999/02/22-rdf-syntax-ns#"
   xmlns:svg="http://www.w3.org/2000/svg"
   xmlns="http://www.w3.org/2000/svg"
   xmlns:sodipodi="http://sodipodi.sourceforge.net/DTD/sodipodi-0.dtd"
   xmlns:inkscape="http://www.inkscape.org/namespaces/inkscape"
   version="1.1"
   id="Layer_1"
   x="0px"
   y="0px"
   viewBox="0 0 1070 932"
   style="enable-background:new 0 0 1070 932;"
   xml:space="preserve"
   sodipodi:docname="HA_Diagram_2.svg"
   inkscape:version="0.92.3 (2405546, 2018-03-11)"><metadata
   id="metadata170"><rdf:RDF><cc:Work
       rdf:about=""><dc:format>image/svg+xml</dc:format><dc:type
         rdf:resource="http://purl.org/dc/dcmitype/StillImage" /></cc:Work></rdf:RDF></metadata><defs
   id="defs168">
	
	

		
	
			
			
			
			
			
			
			
			
			
			
			
			
			
			
			
			
			
			
			
			
			
			
			
			
			
			
			
			
			
			
			
			
			
			
			
			
			
			
			
			
			
			
			
			
			
			
			
			
			
			
			
			
			
			
			
			
			
		
				
				
				
				
				
			
				
				
			
				
				
				
			</defs><sodipodi:namedview
   pagecolor="#ffffff"
   bordercolor="#666666"
   borderopacity="1"
   objecttolerance="10"
   gridtolerance="10"
   guidetolerance="10"
   inkscape:pageopacity="0"
   inkscape:pageshadow="2"
   inkscape:window-width="1920"
   inkscape:window-height="1001"
   id="namedview166"
   showgrid="false"
   inkscape:zoom="1.4324223"
   inkscape:cx="458.06222"
   inkscape:cy="424.41817"
   inkscape:window-x="-9"
   inkscape:window-y="51"
   inkscape:window-maximized="1"
   inkscape:current-layer="Layer_1" />
<style
   type="text/css"
   id="style2">
	.st0{fill:#FFFFFF;}
	.st1{fill:#2D3F49;stroke:#2D3F49;}
	.st2{fill:#FFFFFF;stroke:#00B39F;stroke-width:2;stroke-dasharray:8;}
	.st3{fill:#FFFFFF;stroke:#6182BB;}
	.st4{fill:none;}
	.st5{font-family:'Helvetica';}
	.st6{font-size:24.0721px;}
	.st7{fill:#4278BD;}
	.st8{font-size:20.07px;}
	.st9{font-size:16.07px;}
	.st10{font-size:21.07px;}
	.st11{font-size:14.07px;}
	.st12{font-family:'Helvetica-BoldOblique';}
	.st13{font-size:21.6649px;}
	.st14{font-size:12.07px;}
</style>
<title
   id="title4">2</title>
<desc
   id="desc6">Created with Sketch.</desc>
<rect
   style="fill:#ffffff"
   y="0"
   x="0"
   id="rect8"
   height="932"
   width="1070"
   class="st0" /><path
   style="fill:#2d3f49;stroke:#2d3f49"
   inkscape:connector-curvature="0"
   d="M 1016.4,819 H 84.5 c -6.6,0 -12,-5 -12,-11.2 V 32.2 C 72.5,26 77.9,21 84.5,21 h 931.9 c 6.6,0 12,5 12,11.2 v 775.5 c 0,6.3 -5.4,11.3 -12,11.3 z"
   class="st1"
   id="XMLID_232_" /><path
   style="fill:#ffffff"
   inkscape:connector-curvature="0"
   d="M 685.1,798.5 H 409.5 c -6.6,0 -12,-5 -12,-11.1 V 89.6 c 0,-6.1 5.4,-11.1 12,-11.1 h 275.6 c 6.6,0 12,5 12,11.1 v 697.7 c 0,6.2 -5.4,11.2 -12,11.2 z"
   class="st0"
   id="XMLID_231_" /><path
   style="fill:#ffffff"
   inkscape:connector-curvature="0"
   d="M 375.3,798.5 H 101 c -6.6,0 -11.9,-5 -11.9,-11.1 V 89.6 c 0,-6.1 5.4,-11.1 11.9,-11.1 h 274.1 c 6.6,0 11.9,5 11.9,11.1 v 697.7 c 0.2,6.2 -5.2,11.2 -11.7,11.2 z"
   class="st0"
   id="XMLID_230_" /><path
   style="fill:#ffffff"
   inkscape:connector-curvature="0"
   d="M 995.6,798.5 H 720 c -6.6,0 -12,-5 -12,-11.1 V 89.6 c 0,-6.1 5.4,-11.1 12,-11.1 h 275.6 c 6.6,0 12,5 12,11.1 v 697.7 c 0,6.2 -5.4,11.2 -12,11.2 z"
   class="st0"
   id="XMLID_1_" /><path
   style="fill:#ffffff;stroke:#00b39f;stroke-width:2;stroke-dasharray:8"
   inkscape:connector-curvature="0"
   d="M 969.1,787 H 115.5 c -6.6,0 -12,-5 -12,-11.2 V 145.2 c 0,-6.2 5.4,-11.2 12,-11.2 h 853.6 c 6.6,0 12,5 12,11.2 v 630.7 c 0,6.1 -5.4,11.1 -12,11.1 z"
   class="st2"
   id="XMLID_229_" /><path
   style="fill:#ffffff;stroke:#6182bb"
   inkscape:connector-curvature="0"
   d="M 941.3,773.7 H 135.8 c -6.6,0 -12,-5.4 -12,-12.1 V 229.8 c 0,-6.6 5.4,-12.1 12,-12.1 h 805.5 c 6.6,0 12,5.4 12,12.1 v 531.9 c 0,6.6 -5.4,12 -12,12 z"
   class="st3"
   id="XMLID_228_" /><g
   transform="translate(428,229)"
   id="XMLID_219_">
				<rect
   style="fill:none"
   x="0"
   height="23"
   width="235"
   class="st4"
   y="6"
   id="XMLID_45_" />
				<text
   style="font-size:24.07209969px;font-family:Helvetica"
   id="text17"
   class="st5 st6"
   transform="translate(50,24)">Pool worker</text>

			</g><rect
   style="fill:none"
   height="34"
   width="196.89999"
   class="st4"
   y="95.400002"
   x="140.5"
   id="XMLID_217_" /><text
   style="font-size:24.07209969px;font-family:Helvetica"
   id="text21"
   class="st5 st6"
   x="201.74271"
   y="113.1874">Zone 1</text>
<g
   transform="translate(455,35)"
   id="XMLID_201_">
				<rect
   style="fill:none"
   x="0"
   height="34"
   width="128"
   class="st4"
   y="6"
   id="XMLID_43_" />
				<text
   style="font-size:24.07209969px;font-family:Helvetica;fill:#ffffff"
   id="text24"
   class="st0 st5 st6"
   transform="translate(42,24)">Région 1</text>

			</g><text
   style="font-size:24.07209969px;font-family:Helvetica"
   id="text27"
   class="st5 st6"
   x="452.79929"
   y="171">Cluster à zones multiples</text>
<g
   transform="translate(137,275)"
   id="Group">
				<g
   id="g33">
					<path
   style="fill:#4278bd"
   inkscape:connector-curvature="0"
   d="M 187.2,144.9 H 12.3 c -6.6,0 -12,-5.4 -12,-12 V 12.4 c 0,-6.6 5.4,-12 12,-12 h 174.9 c 6.6,0 12,5.4 12,12 V 133 c 0,6.5 -5.4,11.9 -12,11.9 z"
   class="st7"
   id="XMLID_200_" />
					<rect
   style="fill:none"
   height="23.299999"
   width="166.5"
   class="st4"
   y="25"
   x="16.5"
   id="XMLID_199_" />
					<text
   style="font-size:24.07209969px;font-family:Helvetica;fill:#ffffff"
   id="text31"
   class="st0 st5 st6"
   transform="translate(18.7827,42.831)">Noeud worker 1</text>

				</g>
				<g
   id="g39"
   transform="translate(0,171)">
					<path
   style="fill:#4278bd"
   inkscape:connector-curvature="0"
   d="M 187.2,145.4 H 12.3 c -6.6,0 -12,-5.4 -12,-12 V 12.9 c 0,-6.6 5.4,-12 12,-12 h 174.9 c 6.6,0 12,5.4 12,12 v 120.6 c 0,6.5 -5.4,11.9 -12,11.9 z"
   class="st7"
   id="XMLID_190_" />
					<rect
   style="fill:none"
   height="23.299999"
   width="166.5"
   class="st4"
   y="25.5"
   x="16.5"
   id="XMLID_189_" />
					<text
   style="font-size:24.07209969px;font-family:Helvetica;fill:#ffffff"
   id="text37"
   class="st0 st5 st6"
   transform="translate(18.7827,43.3437)">Noeud worker 2</text>

				</g>
				<g
   id="g52"
   transform="translate(0,343)">
					<path
   style="fill:#4278bd"
   inkscape:connector-curvature="0"
   d="M 187.2,144.9 H 12.3 c -6.6,0 -12,-5.4 -12,-12 V 12.4 c 0,-6.6 5.4,-12 12,-12 h 174.9 c 6.6,0 12,5.4 12,12 V 133 c 0,6.5 -5.4,11.9 -12,11.9 z"
   class="st7"
   id="XMLID_178_" />
					<rect
   style="fill:none"
   height="23.299999"
   width="166.5"
   class="st4"
   y="25"
   x="16.5"
   id="XMLID_177_" />
					<text
   style="font-size:24.07209969px;font-family:Helvetica;fill:#ffffff"
   id="text43"
   class="st0 st5 st6"
   transform="translate(18.7827,42.8593)">Noeud worker 3</text>

					<g
   id="g50"
   transform="translate(9,58)">
						<path
   style="fill:#ffffff"
   inkscape:connector-curvature="0"
   d="M 162,62.9 H 19.5 c -6.6,0 -12,-5.4 -12,-12 V 12.4 c 0,-6.6 5.4,-12 12,-12 H 162 c 6.6,0 12,5.4 12,12 v 38.5 c 0,6.6 -5.4,12 -12,12 z"
   class="st0"
   id="XMLID_174_" />
						<g
   transform="translate(0,9)"
   id="XMLID_149_">
							<rect
   style="fill:none"
   height="37.700001"
   width="163.60001"
   class="st4"
   y="9.8000002"
   x="9"
   id="XMLID_36_" />
							<text
   style="font-size:20.06999969px;font-family:Helvetica"
   id="text47"
   class="st5 st8"
   transform="translate(21.9765,19)">Noeud de tri 1</text>

						</g>
					</g>
				</g>
			</g><rect
   style="fill:none"
   height="34"
   width="196.89999"
   class="st4"
   y="95.400002"
   x="439.5"
   id="XMLID_148_" /><text
   style="font-size:24.07209969px;font-family:Helvetica"
   id="text56"
   class="st5 st6"
   x="500.71729"
   y="113.1874">Zone 2</text>
<path
   style="fill:#4278bd"
   inkscape:connector-curvature="0"
   d="M 626.9,417.5 H 452 c -6.6,0 -12,-5.4 -12,-12 V 285 c 0,-6.6 5.4,-12 12,-12 h 174.9 c 6.6,0 12,5.4 12,12 v 120.6 c 0,6.5 -5.4,11.9 -12,11.9 z"
   class="st7"
   id="XMLID_146_" /><rect
   style="fill:none"
   height="23.299999"
   width="166.5"
   class="st4"
   y="321"
   x="454.5"
   id="XMLID_143_" /><text
   style="font-size:24.07209969px;font-family:Helvetica;fill:#ffffff"
   id="text60"
   class="st0 st5 st6"
   x="458.45731"
   y="317.43201">Noeud worker 1</text>
<path
   style="fill:#4278bd"
   inkscape:connector-curvature="0"
   d="M 622.2,591.4 H 447.3 c -6.6,0 -12,-5.4 -12,-12 V 458.9 c 0,-6.6 5.4,-12 12,-12 h 174.9 c 6.6,0 12,5.4 12,12 v 120.6 c 0,6.5 -5.4,11.9 -12,11.9 z"
   class="st7"
   id="XMLID_128_" /><rect
   style="fill:none"
   height="23.299999"
   width="166.5"
   class="st4"
   y="510.5"
   x="454.5"
   id="XMLID_127_" /><text
   style="font-size:24.07209969px;font-family:Helvetica;fill:#ffffff"
   id="text64"
   class="st0 st5 st6"
   x="453.75729"
   y="489.34521">Noeud worker 2</text>
<g
   transform="translate(445,505)"
   id="Group_1_">
				<path
   style="fill:#ffffff"
   inkscape:connector-curvature="0"
   d="M 83.5,72 H 6.5 C 2.9,72 0,65.8 0,58.2 V 13.8 C 0,6.2 2.9,0 6.5,0 h 77 C 87.1,0 90,6.2 90,13.8 V 58.2 C 90,65.8 87.1,72 83.5,72 Z"
   class="st0"
   id="XMLID_124_" />
			</g><path
   style="fill:#4278bd"
   inkscape:connector-curvature="0"
   d="M 621.9,759.5 H 447 c -6.6,0 -12,-5.4 -12,-12 V 627 c 0,-6.6 5.4,-12 12,-12 h 174.9 c 6.6,0 12,5.4 12,12 v 120.6 c 0,6.5 -5.4,11.9 -12,11.9 z"
   class="st7"
   id="XMLID_44_" /><rect
   style="fill:none"
   height="23.299999"
   width="166.5"
   class="st4"
   y="682"
   x="454.5"
   id="XMLID_42_" /><text
   style="font-size:24.07209969px;font-family:Helvetica;fill:#ffffff"
   id="text70"
   class="st0 st5 st6"
   x="453.45731"
   y="660.45929">Noeud worker 3</text>
<rect
   style="fill:none"
   height="34"
   width="196.89999"
   class="st4"
   y="98.199997"
   x="756.30005"
   id="XMLID_3_" /><text
   style="font-size:24.07209969px;font-family:Helvetica"
   id="text73"
   class="st5 st6"
   x="817.58447"
   y="116.0419">Zone 3</text>
<path
   style="fill:#4278bd"
   inkscape:connector-curvature="0"
   d="M 922.9,417.5 H 748 c -6.6,0 -12,-5.4 -12,-12 V 285 c 0,-6.6 5.4,-12 12,-12 h 174.9 c 6.6,0 12,5.4 12,12 v 120.6 c 0,6.5 -5.4,11.9 -12,11.9 z"
   class="st7"
   id="XMLID_71_" /><rect
   style="fill:none"
   height="23.299999"
   width="166.5"
   class="st4"
   y="339"
   x="752.5"
   id="XMLID_70_" /><text
   style="font-size:24.07209969px;font-family:Helvetica;fill:#ffffff"
   id="text77"
   class="st0 st5 st6"
   x="754.43402"
   y="317.43201">Noeud worker 1</text>
<path
   style="fill:#ffffff"
   inkscape:connector-curvature="0"
   d="M 906.7,393.5 H 764.2 c -6.6,0 -12,-5.4 -12,-12 V 343 c 0,-6.6 5.4,-12 12,-12 h 142.5 c 6.6,0 12,5.4 12,12 v 38.5 c 0,6.6 -5.4,12 -12,12 z"
   class="st0"
   id="XMLID_68_" /><path
   style="fill:#4278bd"
   inkscape:connector-curvature="0"
   d="M 918.9,588.5 H 744 c -6.6,0 -12,-5.4 -12,-12 V 456 c 0,-6.6 5.4,-12 12,-12 h 174.9 c 6.6,0 12,5.4 12,12 v 120.6 c 0,6.5 -5.4,11.9 -12,11.9 z"
   class="st7"
   id="XMLID_63_" /><rect
   style="fill:none"
   height="23.299999"
   width="166.5"
   class="st4"
   y="510.5"
   x="752.5"
   id="XMLID_62_" /><text
   style="font-size:24.07209969px;font-family:Helvetica;fill:#ffffff"
   id="text82"
   class="st0 st5 st6"
   x="755"
   y="490">Noeud worker 2</text>
<path
   style="fill:#ffffff;stroke-width:1.22335589"
   inkscape:connector-curvature="0"
   d="M 891.16546,572 H 766.94771 c -5.68708,0 -10.4762,-5.4 -10.4762,-12.1 v -38.8 c 0,-6.7 4.63946,-12.1 10.4762,-12.1 h 124.21775 c 5.68708,0 10.4762,5.4 10.4762,12.1 v 38.8 c 0,6.7 -4.63946,12.1 -10.4762,12.1 z"
   class="st0"
   id="XMLID_59_" /><text
   style="font-size:16.06999969px;font-family:Helvetica"
   id="text85"
   class="st5 st9"
   x="216"
   y="726">(Raft)</text>
<path
   style="fill:#4278bd"
   inkscape:connector-curvature="0"
   d="M 919.9,759.5 H 745 c -6.6,0 -12,-5.4 -12,-12 V 627 c 0,-6.6 5.4,-12 12,-12 h 174.9 c 6.6,0 12,5.4 12,12 v 120.6 c 0,6.5 -5.4,11.9 -12,11.9 z"
   class="st7"
   id="XMLID_54_" /><rect
   style="fill:none"
   height="23.299999"
   width="166.5"
   class="st4"
   y="682"
   x="752.5"
   id="XMLID_26_" /><path
   style="fill:#ffffff"
   inkscape:connector-curvature="0"
   d="M 903.7,735.5 H 761.2 c -6.6,0 -12,-5.4 -12,-12 V 685 c 0,-6.6 5.4,-12 12,-12 h 142.5 c 6.6,0 12,5.4 12,12 v 38.5 c 0,6.6 -5.4,12 -12,12 z"
   class="st0"
   id="XMLID_8_" /><g
   transform="matrix(1.1142375,0,0,1,145.58831,335)"
   id="Group_2_">
				<path
   style="fill:#ffffff"
   inkscape:connector-curvature="0"
   d="M 73.6,63.4 H 6 C 2.9,63.4 0.3,58 0.3,51.4 V 12.9 C 0.3,6.3 2.9,0.9 6,0.9 h 67.6 c 3.1,0 5.7,5.4 5.7,12 v 38.5 c 0,6.6 -2.6,12 -5.7,12 z"
   class="st0"
   id="XMLID_255_" />
				<g
   transform="translate(1,1)"
   id="XMLID_251_">
					<rect
   style="fill:none"
   height="37.700001"
   width="163.60001"
   class="st4"
   y="18.299999"
   x="0.69999999"
   id="XMLID_22_" />
					<text
   style="font-size:21.06999969px;font-family:Helvetica"
   y="30"
   x="1"
   id="text94"
   class="st5 st10"><tspan
   id="tspan172"
   style="font-size:14.66666698px">Homologue</tspan> 1</text>

					<text
   style="font-size:14.06999969px;font-family:Helvetica"
   id="text96"
   class="st5 st11"
   transform="translate(21,47)">Org 1</text>

					<path
   style="fill:#ffffff"
   inkscape:connector-curvature="0"
   d="M 156.3,62.5 H 88.7 C 85.6,62.5 83,57.1 83,50.5 V 12 C 83,5.4 85.6,0 88.7,0 h 67.6 c 3.1,0 5.7,5.4 5.7,12 v 38.5 c 0,6.6 -2.6,12 -5.7,12 z"
   class="st0"
   id="XMLID_4_" />
					<text
   style="font-size:20px;font-family:Helvetica"
   id="text99"
   class="st5 st10"
   transform="translate(102,30)">AC 1</text>

				</g>
			</g><path
   id="XMLID_5_"
   class="st0"
   d="m 598.53644,399.1 h -117.1823 c -5.37373,0 -9.88075,-5.4 -9.88075,-12 v -38.5 c 0,-6.6 4.50702,-12 9.88075,-12 h 117.1823 c 5.37374,0 9.88076,5.4 9.88076,12 v 38.5 c 0,6.6 -4.50702,12 -9.88076,12 z"
   inkscape:connector-curvature="0"
   style="fill:#ffffff;stroke-width:1.31661153" /><g
   id="XMLID_7_"
   transform="translate(469.4,346.7)">
					<rect
   id="XMLID_6_"
   x="0.69999999"
   y="8.3000002"
   class="st4"
   width="163.60001"
   height="37.700001"
   style="fill:none" />
					<text
   transform="translate(9,20)"
   class="st5 st10"
   id="text105"
   style="font-size:21.06999969px;font-family:Helvetica">Homologue 3</text>

					<text
   transform="translate(21,37)"
   class="st5 st11"
   id="text107"
   style="font-size:14.06999969px;font-family:Helvetica">Org 1</text>

				</g><path
   id="XMLID_9_"
   class="st0"
   d="M 293.75706,570.5 H 175.54482 c -5.5268,0 -9.97895,-5.4 -9.97895,-12 V 520 c 0,-6.6 4.45215,-12 9.97895,-12 h 118.21224 c 5.52681,0 9.97896,5.4 9.97896,12 v 38.5 c 0,6.6 -4.45215,12 -9.97896,12 z"
   inkscape:connector-curvature="0"
   style="fill:#ffffff;stroke-width:1.23904145" /><g
   id="XMLID_12_"
   transform="translate(167.7,519.1)">
					<rect
   id="XMLID_11_"
   x="0.69999999"
   y="8.3000002"
   class="st4"
   width="163.60001"
   height="37.700001"
   style="fill:none" />
					<text
   transform="translate(9,20)"
   class="st5 st10"
   id="text113"
   style="font-size:21.06999969px;font-family:Helvetica"><tspan
     style="font-size:20px"
     id="tspan176">Homologue 2</tspan></text>

					<text
   transform="translate(21,37)"
   class="st5 st11"
   id="text115"
   style="font-size:14.06999969px;font-family:Helvetica">Org 1</text>

				</g><rect
   id="XMLID_13_"
   x="795.70001"
   y="527.29999"
   class="st4"
   width="163.60001"
   height="37.700001"
   style="fill:none" /><text
   class="st5 st10"
   id="text119"
   style="font-size:21.06999969px;font-family:Helvetica"
   x="768"
   y="539">Homologue 4</text>
<text
   class="st5 st11"
   id="text121"
   style="font-size:14.06999969px;font-family:Helvetica"
   x="814"
   y="556">Org 1</text>
<path
   style="fill:#ffffff"
   inkscape:connector-curvature="0"
   d="M 609.7,735.5 H 467.2 c -6.6,0 -12,-5.4 -12,-12 V 685 c 0,-6.6 5.4,-12 12,-12 h 142.5 c 6.6,0 12,5.4 12,12 v 38.5 c 0,6.6 -5.4,12 -12,12 z"
   class="st0"
   id="XMLID_14_" /><text
   style="font-size:24.07209969px;font-family:Helvetica;fill:#ffffff"
   id="text125"
   class="st0 st5 st6"
   x="752"
   y="660">Noeud worker 3</text>
<rect
   id="XMLID_16_"
   x="457.70001"
   y="688.40002"
   class="st4"
   width="163.60001"
   height="37.700001"
   style="fill:none" /><text
   class="st5 st8"
   id="text128"
   style="font-size:20.06999969px;font-family:Helvetica"
   x="470.67651"
   y="697.59998">Noeud de tri 3</text>
<text
   class="st5 st8"
   id="text130"
   style="font-size:20.06999969px;font-family:Helvetica"
   x="768.67657"
   y="697.59998">Noeud de tri 5</text>
<g
   transform="translate(456,512)"
   id="XMLID_19_">
				<rect
   style="fill:none"
   height="38"
   width="109"
   class="st4"
   y="6"
   x="6"
   id="XMLID_18_" />
				<text
   style="font-size:16.06999969px;font-family:Helvetica"
   id="text134"
   class="st5 st9"
   transform="translate(2.2388,15)">Noeud de  </text>

				<text
   style="font-size:16.06999969px;font-family:Helvetica"
   id="text136"
   class="st5 st9"
   transform="translate(8.9242,34)">tri 2</text>

			</g><g
   transform="translate(747.7,337.6)"
   id="XMLID_21_">
				<rect
   style="fill:none"
   height="37.700001"
   width="163.60001"
   class="st4"
   y="9.8000002"
   x="9"
   id="XMLID_20_" />
				<text
   style="font-size:20.06999969px;font-family:Helvetica"
   id="text140"
   class="st5 st8"
   transform="translate(21.9766,19)">Noeud de tri 4</text>

			</g><text
   style="font-size:21.66489983px;font-family:Helvetica-BoldOblique"
   id="text143"
   class="st12 st13"
   x="368"
   y="198">+ anti-affinité (entre les noeuds worker)</text>
<text
   style="font-size:16.06999969px;font-family:Helvetica"
   id="text145"
   class="st5 st9"
   x="512.70001"
   y="723.59998">(Raft)</text>
<text
   style="font-size:16.06999969px;font-family:Helvetica"
   id="text147"
   class="st5 st9"
   x="809.70001"
   y="722.59998">(Raft)</text>
<text
   style="font-size:16.06999969px;font-family:Helvetica"
   id="text149"
   class="st5 st9"
   x="470"
   y="565">(Raft)</text>
<text
   style="font-size:16.06999969px;font-family:Helvetica"
   id="text151"
   class="st5 st9"
   x="812.70001"
   y="380.60001">(Raft)</text>
<text
   style="font-size:14.06999969px;font-family:Helvetica"
   y="383"
   x="244"
   id="text153"
   class="st5 st11">Homologues</text>
<path
   style="fill:#ffffff"
   inkscape:connector-curvature="0"
   d="m 621.8,577 h -73.6 c -3.4,0 -6.2,-6.2 -6.2,-13.8 v -44.4 c 0,-7.6 2.8,-13.8 6.2,-13.8 h 73.6 c 3.4,0 6.2,6.2 6.2,13.8 v 44.4 c 0,7.6 -2.8,13.8 -6.2,13.8 z"
   class="st0"
   id="XMLID_23_" /><text
   style="font-size:21.06999969px;font-family:Helvetica"
   id="text156"
   class="st5 st10"
   x="562"
   y="535">AC 2</text>
<text
   style="font-size:12.06999969px;font-family:Helvetica"
   id="text158"
   class="st5 st14"
   x="563.02002"
   y="552">Service de </text>
<text
   style="font-size:12.06999969px;font-family:Helvetica"
   id="text160"
   class="st5 st14"
   x="566.37653"
   y="566">tri</text>

</svg>
