<svg xmlns="http://www.w3.org/2000/svg" id="Layer_1" data-name="Layer 1" viewBox="0 0 793.03 617.77"><defs><style>.cls-1,.cls-12,.cls-26{fill:#fff}.cls-1{stroke:#f0f0f0}.cls-1,.cls-19,.cls-22,.cls-23,.cls-27{stroke-miterlimit:10}.cls-2{fill:#f0f0f0}.cls-4{font-size:8.13px}.cls-13,.cls-26,.cls-4,.cls-6{font-family:IBMPlexSans,IBM Plex Sans}.cls-18{font-family:IBMPlexSans-Bold,IBM Plex Sans;font-weight:700}.cls-6{font-size:6.39px}.cls-7{fill:#eb4b86}.cls-8{fill:#a11950}.cls-14,.cls-9{fill:#757575}.cls-10,.cls-29{fill:#0db5b3}.cls-16,.cls-17,.cls-19,.cls-20,.cls-22,.cls-23,.cls-24,.cls-27,.cls-28{fill:none}.cls-13{font-size:7px}.cls-14,.cls-15,.cls-16,.cls-17,.cls-19,.cls-22,.cls-23,.cls-24,.cls-27,.cls-28,.cls-29{stroke:#fff}.cls-14,.cls-15,.cls-17,.cls-19,.cls-23,.cls-24,.cls-28,.cls-29{stroke-linecap:round}.cls-14,.cls-15,.cls-16,.cls-17,.cls-20,.cls-24,.cls-28,.cls-29{stroke-linejoin:round}.cls-14,.cls-15,.cls-19,.cls-28,.cls-29{stroke-width:.75px}.cls-15{fill:#006161}.cls-16,.cls-17,.cls-22{stroke-width:.72px}.cls-18{font-size:10px}.cls-20{stroke:#a0a0a0}.cls-21{fill:#a0a0a0}.cls-23,.cls-24{stroke-width:.65px}.cls-26{font-size:10.08px}</style></defs><rect width="387.5" height="375.6" x="304.5" y="138.4" class="cls-1"/><rect width="387.5" height="375.6" x="312.5" y="130.94" class="cls-1"/><rect width="387.5" height="375.6" x="319.5" y="122.24" class="cls-2"/><polyline points="36.05 72.14 756.98 72.14 756.98 36.07 36.05 36.07" style="stroke:#000;stroke-width:.35px;stroke-miterlimit:10;fill:#fff"/><text class="cls-4" transform="translate(35.47 30.13)">IBM Blockchain Platform</text><text class="cls-4" transform="translate(425.8 30.13)">Legend</text><text transform="translate(35.47 60.59)" style="font-family:IBMPlexSans-Bold,IBM Plex Sans;font-weight:700;font-size:18.1px">IBM Cloud Kubernetes</text><text class="cls-6" transform="translate(443.17 48.63)">RBAC</text><circle cx="431.42" cy="45.91" r="5.35"/><circle cx="431.42" cy="61.48" r="5.35" class="cls-7"/><text class="cls-6" transform="translate(442.69 63.7)">Console</text><circle cx="574.42" cy="45.91" r="5.35" class="cls-8"/><text class="cls-6" transform="translate(585.69 48.13)">Proxy</text><circle cx="497.45" cy="61.48" r="5.35" class="cls-9"/><text class="cls-6" transform="translate(508.72 63.7)">Ingress</text><text class="cls-6" transform="translate(508.62 48.63)">Infrastructure</text><circle cx="497.45" cy="45.91" r="5.35" class="cls-10"/><line x1="414.54" x2="414.54" y1="72.14" y2="36.07" style="fill:none;stroke:#000;stroke-width:.35px;stroke-miterlimit:10"/><rect width="148" height="78.21" x="354.19" y="131.79" class="cls-12"/><text class="cls-13" transform="translate(358.51 142.68)">Kube-system namespace</text><g><text class="cls-13" transform="translate(415.87 198.69)">Ingress</text><circle cx="427.75" cy="170.55" r="18" class="cls-9"/><polyline points="437.15 168.22 419.49 168.22 419.49 170.24" class="cls-14"/><polyline points="420.23 180.26 437.15 180.26 437.15 168.22" class="cls-14"/><line x1="427.21" x2="427.21" y1="162.24" y2="180.26" class="cls-15"/><circle cx="427.21" cy="162.24" r="1.1" class="cls-14"/><line x1="432.36" x2="432.36" y1="159.3" y2="180.26" class="cls-15"/><circle cx="432.36" cy="159.3" r="1.1" class="cls-14"/><line x1="422.06" x2="422.06" y1="165.37" y2="180.26" class="cls-15"/><circle cx="422.06" cy="165.18" r="1.1" class="cls-14"/><polygon points="414.34 170.33 420.04 180.26 437.15 180.26 431.35 170.33 414.34 170.33" class="cls-14"/></g><rect width="148" height="78.21" x="354.19" y="218.79" class="cls-12"/><g><text class="cls-13" transform="translate(419.36 286.54)">Proxy</text><circle cx="428.19" cy="258.57" r="18" class="cls-8"/><rect width="2.87" height="8.53" x="433.18" y="265.03" class="cls-16" transform="rotate(-90.01 434.634 269.29)"/><rect width="2.87" height="8.53" x="433.18" y="254.46" class="cls-16" transform="rotate(-90.01 434.63 258.725)"/><rect width="2.87" height="8.53" x="433.18" y="243.9" class="cls-16" transform="rotate(-90.01 434.625 248.161)"/><line x1="425.11" x2="430.35" y1="258.73" y2="258.73" class="cls-16"/><polyline points="430.35 248.16 420 248.16 420 252.73" class="cls-16"/><polyline points="430.35 269.3 420 269.3 420 264.75" class="cls-16"/><rect width="10.23" height="12.01" x="414.88" y="252.73" class="cls-17"/></g><text class="cls-18" transform="translate(56.68 110.35)">IBM Blockchain Platform Kubernetes Cluster<tspan x="0" y="12">Operational Tooling</tspan></text><text class="cls-18" transform="translate(318.68 110.35)">Kubernetes Cluster Service Instance 1</text><rect width="148" height="78.21" x="542.66" y="233.79" class="cls-12"/><text class="cls-13" transform="translate(547.83 244.68)">IBM Blockchain Platform namespace</text><g><rect width="128.55" height="74.21" x="62.06" y="153.24" class="cls-1"/><rect width="128.55" height="74.21" x="67.06" y="148.24" class="cls-1"/><rect width="128.55" height="74.21" x="71.68" y="142.79" class="cls-2"/><text class="cls-13" transform="translate(104.26 197.66)">Operational Tooling <tspan x="17.83" y="8.4">Instance</tspan></text><circle cx="135.83" cy="169.41" r="18" class="cls-7"/></g><g><text class="cls-13" transform="translate(607.72 301.27)">RBAC</text><circle cx="616.66" cy="273.49" r="18"/><path d="M621.43,267.53a4.85,4.85,0,1,1-4.85-4.85,4.85,4.85,0,0,1,4.85,4.85" class="cls-19"/><path d="M607.13,284.34a9.69,9.69,0,0,1,19-.13" class="cls-19"/><circle cx="616.64" cy="273.63" r="14.32" class="cls-19"/></g><g><path d="M428,296v9.68c0,2.84,3.18,5.15,7.11,5.15H482.6c3.93,0,7.11,2.3,7.11,5.14v5.52" class="cls-20"/><polygon points="487.22 320.76 489.71 325.08 492.21 320.76 487.22 320.76" class="cls-21"/><line x1="427.57" x2="427.57" y1="321.49" y2="296" class="cls-20"/><polygon points="430.06 320.76 427.57 325.08 425.08 320.76 430.06 320.76" class="cls-21"/><text class="cls-13" transform="translate(351.52 376.26)">Peer-1</text><circle cx="362.59" cy="348.49" r="18" class="cls-10"/><line x1="365.97" x2="369.28" y1="354.72" y2="360.48" class="cls-17"/><path d="M366.5,352.67a5.46,5.46,0,1,0-9.39-3.78,5.4,5.4,0,0,0,1.51,3.76l1.22,1-4,6.82" class="cls-17"/><path d="M367.22,334.62A15,15,0,0,0,353.7,361" class="cls-17"/><path d="M371.43,361A15,15,0,0,0,370,335.83" class="cls-17"/><circle cx="365.29" cy="353.55" r="1.36" class="cls-22"/><circle cx="370.18" cy="361.84" r="1.36" class="cls-22"/><circle cx="368.59" cy="335.14" r="1.36" class="cls-22"/><path d="M353.9,361.13a1,1,0,0,1,.2-.25,1.35,1.35,0,1,1-.2.25" class="cls-22"/><g><text class="cls-13" transform="translate(351.52 427.28)">Peer-2</text><circle cx="362.59" cy="399.51" r="18" class="cls-10"/><g><line x1="365.97" x2="369.28" y1="405.74" y2="411.49" class="cls-17"/><path d="M366.5,403.69a5.46,5.46,0,1,0-9.39-3.79,5.41,5.41,0,0,0,1.51,3.77l1.22,1-4,6.81" class="cls-17"/><path d="M367.22,385.64A15,15,0,0,0,353.7,412" class="cls-17"/><path d="M371.43,412A15,15,0,0,0,370,386.85" class="cls-17"/><circle cx="365.29" cy="404.56" r="1.36" class="cls-22"/><circle cx="370.18" cy="412.86" r="1.36" class="cls-22"/><circle cx="368.59" cy="386.15" r="1.36" class="cls-22"/><path d="M353.9,412.15a1.21,1.21,0,0,1,.2-.26,1.36,1.36,0,0,1,1.93,1.93,1.36,1.36,0,0,1-2.13-1.67" class="cls-22"/></g></g><g><text class="cls-13" transform="translate(351.52 478.51)">Peer-3</text><circle cx="362.59" cy="450.74" r="18" class="cls-10"/><g><line x1="365.97" x2="369.28" y1="456.97" y2="462.72" class="cls-17"/><path d="M366.5,454.91a5.45,5.45,0,1,0-7.88,0l1.22,1-4,6.81" class="cls-17"/><path d="M367.22,436.87a15,15,0,0,0-13.52,26.36" class="cls-17"/><path d="M371.43,463.24A15,15,0,0,0,370,438.07" class="cls-17"/><circle cx="365.29" cy="455.79" r="1.36" class="cls-22"/><circle cx="370.18" cy="464.09" r="1.36" class="cls-22"/><circle cx="368.59" cy="437.38" r="1.36" class="cls-22"/><path d="M353.9,463.38a1.21,1.21,0,0,1,.2-.26,1.38,1.38,0,1,1-.2.26" class="cls-22"/></g></g><g><text class="cls-13" transform="translate(472.69 376.35)">Orderer-1</text><circle cx="488.42" cy="348.49" r="18" class="cls-10"/><g><line x1="491.72" x2="495.03" y1="354.59" y2="360.34" class="cls-17"/><path d="M492.25,352.53a5.45,5.45,0,1,0-7.88,0l1.22,1-4,6.81" class="cls-17"/><path d="M493,334.49a15,15,0,0,0-13.53,26.36" class="cls-17"/><path d="M497.18,360.86a15,15,0,0,0-1.48-25.17" class="cls-17"/><circle cx="491.04" cy="353.41" r="1.36" class="cls-22"/><circle cx="495.93" cy="361.71" r="1.36" class="cls-22"/><circle cx="494.34" cy="335" r="1.36" class="cls-22"/><path d="M479.65,361a1.64,1.64,0,0,1,.2-.26,1.38,1.38,0,1,1-.2.26" class="cls-22"/></g></g><g><text class="cls-13" transform="translate(419 376.15)">CA-1</text><circle cx="426.57" cy="348.49" r="18" class="cls-10"/><g><line x1="429.75" x2="433.06" y1="354.72" y2="360.48" class="cls-17"/><path d="M430.27,352.67a5.45,5.45,0,1,0-7.87,0l1.21,1-4,6.82" class="cls-17"/><path d="M431,334.62A15,15,0,0,0,417.48,361" class="cls-17"/><path d="M435.21,361a15,15,0,0,0-1.48-25.16" class="cls-17"/><circle cx="429.07" cy="353.55" r="1.36" class="cls-22"/><circle cx="433.96" cy="361.84" r="1.36" class="cls-22"/><circle cx="432.37" cy="335.14" r="1.36" class="cls-22"/><path d="M417.68,361.13a1,1,0,0,1,.2-.25,1.35,1.35,0,1,1-.2.25" class="cls-22"/></g></g><g><text class="cls-13" transform="translate(419 427.17)">CA-2</text><circle cx="426.57" cy="399.51" r="18" class="cls-10"/><g><line x1="429.75" x2="433.06" y1="405.74" y2="411.49" class="cls-17"/><path d="M430.27,403.69a5.45,5.45,0,1,0-7.87,0l1.21,1-4,6.81" class="cls-17"/><path d="M431,385.64A15,15,0,0,0,417.48,412" class="cls-17"/><path d="M435.21,412a15,15,0,0,0-1.48-25.16" class="cls-17"/><circle cx="429.07" cy="404.56" r="1.36" class="cls-22"/><circle cx="433.96" cy="412.86" r="1.36" class="cls-22"/><circle cx="432.37" cy="386.15" r="1.36" class="cls-22"/><path d="M417.68,412.15a1.21,1.21,0,0,1,.2-.26,1.36,1.36,0,0,1,1.93,1.93,1.36,1.36,0,0,1-2.13-1.67" class="cls-22"/></g></g><g><path d="M426.71,296v9.68c0,2.84-3.18,5.15-7.11,5.15H372.11c-3.93,0-7.11,2.3-7.11,5.14v5.52" class="cls-20"/><polygon points="362.51 320.76 365 325.08 367.49 320.76 362.51 320.76" class="cls-21"/></g></g><g><line x1="398.41" x2="159" y1="179.31" y2="179.31" class="cls-20"/><polygon points="397.68 176.81 402 179.31 397.68 181.8 397.68 176.81" class="cls-21"/></g><g><path d="M132.4,176.36c1.09-.06,2.24-.1,3.43-.1a46.9,46.9,0,0,1,8.68.72c2.22.45,3.6,1.06,3.6,1.74s-1.38,1.29-3.6,1.73a46,46,0,0,1-8.68.72c-.85,0-1.68,0-2.49,0l-.94-.05" class="cls-23"/><path d="M125.65,180.09c-1.32-.39-2.09-.87-2.09-1.37,0-.68,1.37-1.29,3.59-1.74.79-.15,1.68-.29,2.65-.4" class="cls-23"/><path d="M132.4,171.45c1.09-.06,2.24-.1,3.43-.1a46.9,46.9,0,0,1,8.68.72c2.22.45,3.6,1.06,3.6,1.74s-1.38,1.29-3.6,1.73a46,46,0,0,1-8.68.72c-.85,0-1.68,0-2.49,0l-.94,0" class="cls-23"/><path d="M125.65,175.18c-1.32-.39-2.09-.86-2.09-1.37,0-.68,1.37-1.29,3.59-1.74.79-.15,1.68-.29,2.65-.4" class="cls-23"/><path d="M132.4,166.54c1.09-.06,2.24-.1,3.43-.1a46.9,46.9,0,0,1,8.68.72c2.22.45,3.6,1.06,3.6,1.74s-1.38,1.29-3.6,1.73a46,46,0,0,1-8.68.72c-.85,0-1.68,0-2.49,0l-.94,0" class="cls-23"/><path d="M125.65,170.27c-1.32-.39-2.09-.86-2.09-1.37,0-.68,1.37-1.29,3.59-1.74.79-.15,1.68-.29,2.65-.4" class="cls-23"/><path d="M132.4,161.63c1.09-.06,2.24-.09,3.43-.09a47,47,0,0,1,8.68.71c2.22.45,3.6,1.06,3.6,1.74s-1.38,1.29-3.6,1.74a47,47,0,0,1-8.68.71c-.85,0-1.68,0-2.49-.05l-.94,0" class="cls-23"/><path d="M125.65,165.36c-1.32-.39-2.09-.86-2.09-1.37,0-.68,1.37-1.29,3.59-1.74.79-.15,1.68-.29,2.65-.4" class="cls-23"/><circle cx="131.03" cy="166.24" r="1.23" class="cls-24"/><path d="M125.65,160.45c-1.32-.39-2.09-.86-2.09-1.37,0-.68,1.37-1.29,3.59-1.73a52.68,52.68,0,0,1,17.36,0c2.22.44,3.6,1.05,3.6,1.73s-1.38,1.29-3.6,1.74a46.9,46.9,0,0,1-8.68.72c-.85,0-1.68,0-2.49,0l-1-.05" class="cls-23"/><circle cx="131.03" cy="161.33" r="1.23" class="cls-24"/><circle cx="131.03" cy="171.15" r="1.23" class="cls-24"/><circle cx="131.03" cy="176.06" r="1.23" class="cls-24"/><circle cx="131.03" cy="180.97" r="1.23" class="cls-24"/></g><text class="cls-13" transform="translate(359.84 229.68)">IBM Blockchain Platform namespace</text><g><line x1="426.13" x2="426.13" y1="215.25" y2="209" class="cls-20"/><polygon points="428.62 214.52 426.13 218.83 423.63 214.52 428.62 214.52" class="cls-21"/></g><g><rect width="727" height="56" x="33.01" y="535" class="cls-9"/><text transform="translate(45.68 558.35)" style="font-size:14.4px;font-family:IBMPlexSans-Bold,IBM Plex Sans;font-weight:700;fill:#fff">Service instance cluster<tspan x="0" y="17.28">details:</tspan></text><text class="cls-26" transform="translate(241.84 559.45)">Clusters can either be single <tspan x="0" y="12.1">or multi-zone</tspan></text><text class="cls-26" transform="translate(417.06 559.45)">Anti-affinity rules will be used to deploy <tspan x="0" y="12.1">node across Multi Zone Region (MZR)</tspan></text><text class="cls-26" transform="translate(643.84 559.45)">Customer provisions <tspan x="0" y="12.1">compute of choice</tspan></text><line x1="236" x2="236" y1="552" y2="573" class="cls-27"/><line x1="410.5" x2="410.5" y1="552" y2="573" class="cls-27"/><line x1="638.5" x2="638.5" y1="552" y2="573" class="cls-27"/></g><g><rect width="148" height="78" x="542.66" y="132" class="cls-12"/><text class="cls-13" transform="translate(547.31 143.68)">Service instance namespace</text><text class="cls-13" transform="translate(600.87 199.82)">Operator</text><circle cx="614.99" cy="171.23" r="18" class="cls-10"/><line x1="614.87" x2="614.87" y1="173.42" y2="157.9" class="cls-28"/><line x1="619.65" x2="619.65" y1="171.03" y2="157.9" class="cls-28"/><line x1="610.1" x2="610.1" y1="171.03" y2="157.9" class="cls-28"/><polyline points="626.28 172.02 614.9 165.46 603.53 172.02 603.53 177.59 614.9 184.16 626.28 177.59 626.28 172.02" class="cls-28"/><polyline points="603.53 172.02 614.9 178.59 626.28 172.02" class="cls-28"/><circle cx="614.87" cy="173.42" r="1.19" class="cls-29"/><circle cx="610.1" cy="171.03" r="1.19" class="cls-29"/><circle cx="619.65" cy="171.03" r="1.19" class="cls-29"/></g></svg>