<svg id="a6d988d0-3898-4907-8995-32789e2ac362" data-name="Layer 1" xmlns="http://www.w3.org/2000/svg" width="30.72" height="30.72" viewBox="0 0 30.72 30.72"><title>gear</title><path id="fc742fa1-b688-430d-8125-e11ae12b7c62" data-name="gear" d="M694.13,387,693,389.77l2.75,2.75-4.18,4.18L688.78,394,686,395.12V399H680v-3.87L677.23,394l-2.75,2.75-4.18-4.18,2.74-2.74L671.88,387H668V381h3.87l1.18-2.81-2.75-2.75,4.18-4.18,2.74,2.74,2.82-1.16V369H686v3.87l2.81,1.18,2.75-2.75,4.18,4.18L693,378.22l1.16,2.82H698V387ZM683,377a7,7,0,1,0,7,7A7,7,0,0,0,683,377Z" transform="translate(-667.64 -368.64)" fill="none" stroke="#000" stroke-linecap="round" stroke-linejoin="round" stroke-width="0.72"/></svg>