<svg xmlns="http://www.w3.org/2000/svg" width="1046.86" height="1000" data-name="Layer 1"><path fill="#979797" fill-rule="evenodd" d="M159.26 898.94h701.55v-23l22.44 46-22.44 46.1v-23H159.26v-46.1z"/><text style="isolation:isolate" fill="#fff" data-name="Blockchain-high-avai" font-family="IBMPlexSans, IBM Plex Sans" font-size="20" transform="translate(299.28 930.71)">Increasing blockchain high availability</text><path fill="#010f5e" fill-rule="evenodd" d="M491.86 855.81h-308.8c-6.6 0-12-4.84-12-10.74V227.56c0-5.91 5.4-10.74 12-10.74H492c6.6 0 12 4.83 12 10.74v617.51c-.14 5.93-5.54 10.74-12.14 10.74z"/><ellipse cx="170.89" cy="217.51" fill="#08caeb" rx="19.9" ry="20.5"/><text style="isolation:isolate" font-family="IBMPlexSans, IBM Plex Sans" font-size="24.07" transform="translate(163.85 225.9)">1</text><path fill="#010f5e" fill-rule="evenodd" d="M869.15 855.81h-308.9c-6.6 0-12-5-12-11V81.61c0-6.06 5.4-11 12-11h308.9c6.6 0 12 5 12 11v763.08c0 6.16-5.4 11.12-12 11.12z"/><path fill="#fff" fill-rule="evenodd" d="M852.55 835h-275.7c-6.6 0-12-4.92-12-10.94V138.45c0-6 5.4-10.93 12-10.93h275.6c6.6 0 12 4.92 12 10.93v685.62c.1 6.02-5.3 10.93-11.9 10.93z"/><path fill="none" stroke="#08caeb" stroke-dasharray="8" d="M838.15 814.31h-246.9c-6.6 0-12-5.09-12-11.31V165.62c0-6.22 5.4-11.31 12-11.31h246.9c6.6 0 12 5.09 12 11.31v637.47c0 6.13-5.4 11.22-12 11.22z"/><path fill="#fff" fill-rule="evenodd" stroke="#6182bb" d="M825.11 794.61h-221c-7.06 0-12.85-5.4-12.85-12v-528.8c0-6.6 5.79-12 12.85-12h221c7.07 0 12.85 5.4 12.85 12v528.8c.04 6.6-5.78 12-12.85 12z"/><path fill="none" d="M599.45 253.91h230.4v23.3h-230.4z"/><text style="isolation:isolate" font-family="IBMPlexSans, IBM Plex Sans" font-size="24.07" transform="translate(648.55 271.76)">Worker Pool</text><path fill="none" d="M616.25 75.31h196.9v34h-196.9zM632.25 310.5h166.5v23.3h-166.5zM633.65 362.2h163.6v37.7h-163.6z"/><path fill="#fff" fill-rule="evenodd" d="M475.26 835h-275.6c-6.6 0-12-4.71-12-10.47V283.1c0-5.75 5.4-10.46 12-10.46h275.6c6.6 0 12 4.71 12 10.46v541.44c0 5.76-5.4 10.46-12 10.46z"/><path fill="none" stroke="#08caeb" stroke-dasharray="8" d="M460.86 814.31h-246.8c-6.6 0-12-4.84-12-10.75V307.94c0-5.91 5.4-10.75 12-10.75H461c6.6 0 12 4.84 12 10.75v495.62c-.14 5.91-5.54 10.75-12.14 10.75z"/><path fill="none" d="M222.26 371.52h230.4v23.3h-230.4z"/><text data-name="Worker-Pool" font-family="IBMPlexSans, IBM Plex Sans" font-size="24.07" transform="translate(271.34 389.36)" style="isolation:isolate">Worker Pool</text><path fill="none" d="M233.51 238.22h214.6v34h-214.6z"/><g fill="#fff" data-name="Region-US-Dallas" font-family="IBMPlexSans, IBM Plex Sans" font-size="24.07" style="isolation:isolate"><text style="isolation:isolate" letter-spacing="-.02em" transform="translate(294.59 253.14)">Region 1</text></g><text data-name="Single-Zone-Cluster" font-family="IBMPlexSans, IBM Plex Sans" font-size="24.07" transform="translate(263.62 337.04)" style="isolation:isolate">Single Cluster</text><path fill="#0039c8" fill-rule="evenodd" d="M438.33 781.66H236.09c-7.64 0-13.88-6-13.88-13.28l-1-354.76c0-7.3 6.25-13.27 13.88-13.27h202.28c7.63 0 13.87 6 13.87 13.27l1 354.76c-.03 7.3-6.24 13.28-13.91 13.28z"/><text style="isolation:isolate" fill="#fff" font-family="IBMPlexSans, IBM Plex Sans" font-size="17" transform="translate(280.56 425.9)">Worker Node</text><path fill="none" d="M251.66 631.73h163.6v37.7h-163.6z"/><text style="isolation:isolate" font-family="IBMPlexSans, IBM Plex Sans" font-size="24.07" transform="translate(638.55 195.41)">Single Cluster</text><ellipse cx="547.43" cy="68.5" fill="#08caeb" rx="19.9" ry="20.5"/><text style="isolation:isolate" font-family="IBMPlexSans, IBM Plex Sans" font-size="24.07" transform="translate(540.43 76.94)">2</text><path fill="none" d="M632.25 482h166.5v23.3h-166.5zM632.25 653.5h166.5v23.3h-166.5zM626.65 538.2h37v37.7h-37z"/><text style="isolation:isolate" font-family="IBMPlexSans, IBM Plex Sans" font-size="18" transform="translate(649.36 223.96)">+ anti-affinity</text><path fill="#0039c8" fill-rule="evenodd" d="M815.78 443.14H613.54c-7.64 0-13.88-6-13.88-13.28V296.42c0-7.31 6.24-13.28 13.88-13.28h202.24c7.64 0 13.88 6 13.88 13.28v133.44c0 7.3-6.24 13.28-13.88 13.28z"/><path fill="none" stroke="#6182bb" d="M447.81 793.94h-221c-7.07 0-12.85-4.24-12.85-9.42v-415c0-5.18 5.78-9.42 12.85-9.42h221c7.07 0 12.85 4.24 12.85 9.42v415c0 5.18-5.78 9.42-12.85 9.42z"/><text style="isolation:isolate" fill="#fff" font-family="IBMPlexSans, IBM Plex Sans" font-size="17" transform="translate(658.01 304.47)">Worker Node 1</text><g opacity=".5"><path fill="#fff" fill-rule="evenodd" d="M728.15 372.11h-48.78c-2.26 0-4.11-4.32-4.11-9.6v-30.8c0-5.28 1.85-9.6 4.11-9.6h48.78c2.26 0 4.11 4.32 4.11 9.6v30.8c0 5.28-1.85 9.6-4.11 9.6z"/><text data-name="Peers" font-family="IBMPlexSans, IBM Plex Sans" font-size="9.07" transform="translate(681.45 349.53)" style="isolation:isolate"><tspan letter-spacing="-.02em">P</tspan><tspan x="5.31" y="0">eers</tspan></text><text data-name="Peers" font-family="IBMPlexSans-Bold, IBM Plex Sans" font-size="10" font-weight="700" transform="translate(681.45 366.27)" style="isolation:isolate">R2</text><text style="isolation:isolate" font-family="IBMPlexSans, IBM Plex Sans" font-size="12.07" transform="translate(681.45 337.11)">CA 1</text></g><path fill="#fff" fill-rule="evenodd" d="M746 366h-48.77c-2.26 0-4.11-4.32-4.11-9.6v-30.8c0-5.28 1.85-9.6 4.11-9.6H746c2.26 0 4.11 4.32 4.11 9.6v30.8c.01 5.25-1.84 9.6-4.11 9.6z"/><text data-name="Peers" font-family="IBMPlexSans, IBM Plex Sans" font-size="9.07" transform="translate(699.31 343.39)" style="isolation:isolate"><tspan letter-spacing="-.02em">P</tspan><tspan x="5.31" y="0">eers</tspan></text><text data-name="Peers" font-family="IBMPlexSans-Bold, IBM Plex Sans" font-size="10" font-weight="700" transform="translate(699.31 360.13)" style="isolation:isolate">R1</text><text style="isolation:isolate" font-family="IBMPlexSans, IBM Plex Sans" font-size="12.07" transform="translate(699.31 330.97)">CA 1</text><path fill="#fff" fill-rule="evenodd" d="M668.06 366h-48.79c-2.26 0-4.11-4.32-4.11-9.6v-30.8c0-5.28 1.85-9.6 4.11-9.6h48.79c2.26 0 4.1 4.32 4.1 9.6v30.8c0 5.25-1.84 9.6-4.1 9.6z"/><text data-name="Peers" font-family="IBMPlexSans, IBM Plex Sans" font-size="9.07" transform="translate(621.35 343.39)" style="isolation:isolate">Org1</text><text style="isolation:isolate" font-family="IBMPlexSans, IBM Plex Sans" font-size="12.07" letter-spacing="-.02em" transform="translate(621.35 330.97)">Peer1</text><path fill="#fff" fill-rule="evenodd" d="M824 366h-48.81c-2.26 0-4.11-4.32-4.11-9.6v-30.8c0-5.28 1.85-9.6 4.11-9.6H824c2.26 0 4.11 4.32 4.11 9.6v30.8c-.03 5.25-1.88 9.6-4.11 9.6z"/><text data-name="Peers" font-family="IBMPlexSans, IBM Plex Sans" font-size="9.07" transform="translate(777.27 357.67)" style="isolation:isolate">(Raft)</text><text style="isolation:isolate" font-family="IBMPlexSans, IBM Plex Sans" font-size="10" transform="translate(777.26 328.65)">Ordering<tspan x="0" y="12">Node 1</tspan></text><g opacity=".5"><path fill="#fff" fill-rule="evenodd" d="M348 499.37h-48.74c-2.26 0-4.11-4.32-4.11-9.6V459c0-5.28 1.85-9.6 4.11-9.6H348c2.26 0 4.11 4.32 4.11 9.6v30.8c.04 5.25-1.81 9.57-4.11 9.57z"/><text data-name="Peers" font-family="IBMPlexSans, IBM Plex Sans" font-size="9.07" transform="translate(301.33 476.79)" style="isolation:isolate">Peers</text><text data-name="Peers" font-family="IBMPlexSans-Bold, IBM Plex Sans" font-size="10" font-weight="700" transform="translate(301.33 493.53)" style="isolation:isolate">R2</text><text style="isolation:isolate" font-family="IBMPlexSans, IBM Plex Sans" font-size="12.07" transform="translate(301.33 464.36)">CA 1</text></g><path fill="#fff" fill-rule="evenodd" d="M365.9 493.23h-48.78c-2.26 0-4.11-4.32-4.11-9.6v-30.8c0-5.28 1.85-9.6 4.11-9.6h48.78c2.26 0 4.11 4.32 4.11 9.6v30.8c-.01 5.28-1.85 9.6-4.11 9.6z"/><text data-name="Peers" font-family="IBMPlexSans, IBM Plex Sans" font-size="9.07" transform="translate(319.19 470.65)" style="isolation:isolate">Peers</text><text data-name="Peers" font-family="IBMPlexSans-Bold, IBM Plex Sans" font-size="10" font-weight="700" transform="translate(319.19 487.39)" style="isolation:isolate">R1</text><text style="isolation:isolate" font-family="IBMPlexSans, IBM Plex Sans" font-size="12.07" transform="translate(319.19 458.22)">CA 1</text><path fill="#fff" fill-rule="evenodd" d="M287.94 493.23h-48.78c-2.26 0-4.11-4.32-4.11-9.6v-30.8c0-5.28 1.85-9.6 4.11-9.6h48.78c2.26 0 4.11 4.32 4.11 9.6v30.8c0 5.28-1.85 9.6-4.11 9.6z"/><text data-name="Peers" font-family="IBMPlexSans, IBM Plex Sans" font-size="9.07" transform="translate(241.24 470.65)" style="isolation:isolate">Org1</text><text style="isolation:isolate" font-family="IBMPlexSans, IBM Plex Sans" font-size="12.07" letter-spacing="-.02em" transform="translate(241.24 458.22)">Peer1</text><path fill="#fff" fill-rule="evenodd" d="M445 493.23h-48.81c-2.26 0-4.11-4.32-4.11-9.6v-30.8c0-5.28 1.85-9.6 4.11-9.6H445c2.26 0 4.11 4.32 4.11 9.6v30.8c-.03 5.28-1.88 9.6-4.11 9.6z"/><text data-name="Peers" font-family="IBMPlexSans, IBM Plex Sans" font-size="9.07" transform="translate(398.27 484.93)" style="isolation:isolate">(Raft)</text><text style="isolation:isolate" font-family="IBMPlexSans, IBM Plex Sans" font-size="10" transform="translate(398.27 455.91)">Ordering<tspan x="0" y="12">Node 1</tspan></text><path fill="#0039c8" fill-rule="evenodd" d="M815.78 612.53H613.54c-7.64 0-13.88-6-13.88-13.28V465.81c0-7.3 6.24-13.28 13.88-13.28h202.24c7.64 0 13.88 6 13.88 13.28v133.44c0 7.31-6.24 13.28-13.88 13.28z"/><text style="isolation:isolate" fill="#fff" font-family="IBMPlexSans, IBM Plex Sans" font-size="17" transform="translate(658.01 473.86)">Worker Node 2</text><g opacity=".5"><path fill="#fff" fill-rule="evenodd" d="M728.15 541.51h-48.78c-2.26 0-4.11-4.32-4.11-9.6v-30.8c0-5.28 1.85-9.6 4.11-9.6h48.78c2.26 0 4.11 4.32 4.11 9.6v30.8c0 5.28-1.85 9.6-4.11 9.6z"/><text data-name="Peers" font-family="IBMPlexSans, IBM Plex Sans" font-size="9.07" transform="translate(681.45 518.92)" style="isolation:isolate">Peers</text><text data-name="Peers" font-family="IBMPlexSans-Bold, IBM Plex Sans" font-size="10" font-weight="700" transform="translate(681.45 535.67)" style="isolation:isolate">R2</text><text style="isolation:isolate" font-family="IBMPlexSans, IBM Plex Sans" font-size="12.07" transform="translate(681.45 506.5)">CA 1</text></g><path fill="#fff" fill-rule="evenodd" d="M746 535.37h-48.77c-2.26 0-4.11-4.32-4.11-9.6V495c0-5.28 1.85-9.6 4.11-9.6H746c2.26 0 4.11 4.32 4.11 9.6v30.8c.01 5.25-1.84 9.57-4.11 9.57z"/><text data-name="Peers" font-family="IBMPlexSans, IBM Plex Sans" font-size="9.07" transform="translate(699.31 512.79)" style="isolation:isolate">Peers</text><text data-name="Peers" font-family="IBMPlexSans-Bold, IBM Plex Sans" font-size="10" font-weight="700" transform="translate(699.31 529.53)" style="isolation:isolate">R1</text><text style="isolation:isolate" font-family="IBMPlexSans, IBM Plex Sans" font-size="12.07" transform="translate(699.31 500.36)">CA 2</text><path fill="#fff" fill-rule="evenodd" d="M668.06 535.37h-48.79c-2.26 0-4.11-4.32-4.11-9.6V495c0-5.28 1.85-9.6 4.11-9.6h48.79c2.26 0 4.1 4.32 4.1 9.6v30.8c0 5.25-1.84 9.57-4.1 9.57z"/><text data-name="Peers" font-family="IBMPlexSans, IBM Plex Sans" font-size="9.07" transform="translate(621.35 512.79)" style="isolation:isolate">Org1</text><text style="isolation:isolate" font-family="IBMPlexSans, IBM Plex Sans" font-size="12.07" letter-spacing="-.02em" transform="translate(621.35 500.36)">Peer2</text><g opacity=".5"><path fill="#fff" fill-rule="evenodd" d="M348 558.66h-48.74c-2.26 0-4.11-4.32-4.11-9.6v-30.8c0-5.28 1.85-9.6 4.11-9.6H348c2.26 0 4.11 4.32 4.11 9.6v30.8c.04 5.28-1.81 9.6-4.11 9.6z"/><text data-name="Peers" font-family="IBMPlexSans, IBM Plex Sans" font-size="9.07" transform="translate(301.33 536.08)" style="isolation:isolate">Peers</text><text data-name="Peers" font-family="IBMPlexSans-Bold, IBM Plex Sans" font-size="10" font-weight="700" transform="translate(301.33 552.82)" style="isolation:isolate">R2</text><text style="isolation:isolate" font-family="IBMPlexSans, IBM Plex Sans" font-size="12.07" transform="translate(301.33 523.65)">CA 1</text></g><path fill="#fff" fill-rule="evenodd" d="M365.9 552.52h-48.78c-2.26 0-4.11-4.32-4.11-9.6v-30.8c0-5.28 1.85-9.6 4.11-9.6h48.78c2.26 0 4.11 4.32 4.11 9.6v30.8c-.01 5.28-1.85 9.6-4.11 9.6z"/><text data-name="Peers" font-family="IBMPlexSans, IBM Plex Sans" font-size="9.07" transform="translate(319.19 529.94)" style="isolation:isolate">Peers</text><text data-name="Peers" font-family="IBMPlexSans-Bold, IBM Plex Sans" font-size="10" font-weight="700" transform="translate(319.19 546.68)" style="isolation:isolate">R1</text><text style="isolation:isolate" font-family="IBMPlexSans, IBM Plex Sans" font-size="12.07" transform="translate(319.19 517.52)">CA 2</text><path fill="#fff" fill-rule="evenodd" d="M287.94 552.52h-48.78c-2.26 0-4.11-4.32-4.11-9.6v-30.8c0-5.28 1.85-9.6 4.11-9.6h48.78c2.26 0 4.11 4.32 4.11 9.6v30.8c0 5.28-1.85 9.6-4.11 9.6z"/><text data-name="Peers" font-family="IBMPlexSans, IBM Plex Sans" font-size="9.07" transform="translate(241.24 529.94)" style="isolation:isolate">Org1</text><text style="isolation:isolate" font-family="IBMPlexSans, IBM Plex Sans" font-size="12.07" letter-spacing="-.02em" transform="translate(241.24 517.52)">Peer2</text><path fill="#fff" fill-rule="evenodd" d="M824 535.37h-48.81c-2.26 0-4.11-4.32-4.11-9.6V495c0-5.28 1.85-9.6 4.11-9.6H824c2.26 0 4.11 4.32 4.11 9.6v30.8c-.03 5.25-1.88 9.57-4.11 9.57z"/><text data-name="Peers" font-family="IBMPlexSans, IBM Plex Sans" font-size="9.07" transform="translate(777.26 527.07)" style="isolation:isolate">(Raft)</text><text style="isolation:isolate" font-family="IBMPlexSans, IBM Plex Sans" font-size="10" transform="translate(777.26 498.05)">Ordering<tspan x="0" y="12">Node 3</tspan></text><path fill="#fff" fill-rule="evenodd" d="M445 609.52h-48.81c-2.26 0-4.11-4.32-4.11-9.6v-30.8c0-5.28 1.85-9.6 4.11-9.6H445c2.26 0 4.11 4.32 4.11 9.6v30.8c-.03 5.28-1.88 9.6-4.11 9.6z"/><text data-name="Peers" font-family="IBMPlexSans, IBM Plex Sans" font-size="9.07" transform="translate(398.27 601.22)" style="isolation:isolate">(Raft)</text><text style="isolation:isolate" font-family="IBMPlexSans, IBM Plex Sans" font-size="10" transform="translate(398.27 572.2)">Ordering<tspan x="0" y="12">Node 3</tspan></text><path fill="#fff" fill-rule="evenodd" d="M824 596.76h-48.81c-2.26 0-4.11-4.32-4.11-9.6v-30.8c0-5.28 1.85-9.6 4.11-9.6H824c2.26 0 4.11 4.32 4.11 9.6v30.8c-.03 5.28-1.88 9.6-4.11 9.6z"/><text style="isolation:isolate" font-family="IBMPlexSans, IBM Plex Sans" font-size="10" transform="translate(777.26 559.44)">Ordering<tspan x="0" y="12">Node 2</tspan></text><text data-name="Peers" font-family="IBMPlexSans, IBM Plex Sans" font-size="9.07" transform="translate(777.26 588.63)" style="isolation:isolate">(Raft)</text><path fill="#fff" fill-rule="evenodd" d="M445 551.38h-48.81c-2.26 0-4.11-4.32-4.11-9.6V511c0-5.28 1.85-9.6 4.11-9.6H445c2.26 0 4.11 4.32 4.11 9.6v30.8c-.03 5.26-1.88 9.58-4.11 9.58z"/><text style="isolation:isolate" font-family="IBMPlexSans, IBM Plex Sans" font-size="10" transform="translate(398.27 514.06)">Ordering<tspan x="0" y="12">Node 2</tspan></text><text data-name="Peers" font-family="IBMPlexSans, IBM Plex Sans" font-size="9.07" transform="translate(396.6 543.53)" style="isolation:isolate">(Raft)</text><path fill="#0039c8" fill-rule="evenodd" d="M815.78 781.93H613.54c-7.64 0-13.88-6-13.88-13.28V635.21c0-7.31 6.24-13.28 13.88-13.28h202.24c7.64 0 13.88 6 13.88 13.28v133.44c0 7.35-6.24 13.28-13.88 13.28z"/><text style="isolation:isolate" fill="#fff" font-family="IBMPlexSans, IBM Plex Sans" font-size="17" transform="translate(658.01 643.26)">Worker Node 3</text><path fill="#fff" fill-rule="evenodd" d="M824 704.76h-48.81c-2.26 0-4.11-4.32-4.11-9.6v-30.8c0-5.28 1.85-9.6 4.11-9.6H824c2.26 0 4.11 4.32 4.11 9.6v30.8c-.03 5.28-1.88 9.6-4.11 9.6z"/><text data-name="Peers" font-family="IBMPlexSans, IBM Plex Sans" font-size="9.07" transform="translate(777.26 696.46)" style="isolation:isolate">(Raft)</text><text style="isolation:isolate" font-family="IBMPlexSans, IBM Plex Sans" font-size="10" transform="translate(777.26 667.44)">Ordering<tspan x="0" y="12">Node 4</tspan></text><path fill="#fff" fill-rule="evenodd" d="M445 667.67h-48.81c-2.26 0-4.11-4.32-4.11-9.6v-30.8c0-5.28 1.85-9.6 4.11-9.6H445c2.26 0 4.11 4.32 4.11 9.6v30.8c-.03 5.28-1.88 9.6-4.11 9.6z"/><text data-name="Peers" font-family="IBMPlexSans, IBM Plex Sans" font-size="9.07" transform="translate(398.27 659.37)" style="isolation:isolate">(Raft)</text><text style="isolation:isolate" font-family="IBMPlexSans, IBM Plex Sans" font-size="10" transform="translate(398.27 630.35)">Ordering<tspan x="0" y="12">Node 4</tspan></text><path fill="#fff" fill-rule="evenodd" d="M824 766.16h-48.81c-2.26 0-4.11-4.32-4.11-9.6v-30.8c0-5.28 1.85-9.6 4.11-9.6H824c2.26 0 4.11 4.32 4.11 9.6v30.8c-.03 5.28-1.88 9.6-4.11 9.6z"/><text style="isolation:isolate" font-family="IBMPlexSans, IBM Plex Sans" font-size="10" transform="translate(777.26 728.84)">Ordering<tspan x="0" y="12">Node 5</tspan></text><text data-name="Peers" font-family="IBMPlexSans, IBM Plex Sans" font-size="9.07" transform="translate(777.26 758.25)" style="isolation:isolate">(Raft)</text><path fill="#fff" fill-rule="evenodd" d="M445 725.82h-48.81c-2.26 0-4.11-4.32-4.11-9.6v-30.8c0-5.28 1.85-9.6 4.11-9.6H445c2.26 0 4.11 4.32 4.11 9.6v30.8c-.03 5.28-1.88 9.6-4.11 9.6z"/><text style="isolation:isolate" font-family="IBMPlexSans, IBM Plex Sans" font-size="10" transform="translate(398.27 688.5)">Ordering<tspan x="0" y="12">Node 5</tspan></text><text data-name="Peers" font-family="IBMPlexSans, IBM Plex Sans" font-size="9.07" transform="translate(398.27 717.56)" style="isolation:isolate">(Raft)</text><path fill="none" d="M601.27 91.87h214.6v34h-214.6z"/><g fill="#fff" data-name="Region-US-Dallas" font-family="IBMPlexSans, IBM Plex Sans" font-size="24.07" style="isolation:isolate"><text style="isolation:isolate" letter-spacing="-.02em" transform="translate(662.34 106.8)">Region 1</text></g></svg>