<svg data-name="Layer 1" xmlns="http://www.w3.org/2000/svg" width="1046.86" height="1000">
  <path d="M993.26 928.94H61.36a12 12 0 0 1-12-12V86a12 12 0 0 1 12-12h931.9a12 12 0 0 1 12 12v830.8a12.06 12.06 0 0 1-12 12.14z" fill="#010f5e" fill-rule="evenodd"/>
  <path d="M662 908.14H386.36a12 12 0 0 1-12-12v-752.6a12 12 0 0 1 12-12H662a12 12 0 0 1 12 12v752.6a12 12 0 0 1-12 12zM353.66 908.14H78a12 12 0 0 1-12-12v-752.6a12 12 0 0 1 12-12h275.6a12 12 0 0 1 12 12v752.6a11.89 11.89 0 0 1-11.94 12zM972.46 908.14h-275.6a12 12 0 0 1-12-12v-752.6a12 12 0 0 1 12-12h275.6a12 12 0 0 1 12 12v752.6a12 12 0 0 1-12 12z" fill="#fff" fill-rule="evenodd"/>
  <path d="M946 887.44H92.36a12 12 0 0 1-12-12V199a12 12 0 0 1 12-12H946a12 12 0 0 1 12 12v676.5a12 12 0 0 1-12 11.94z" fill="#fff" stroke="#08caeb" stroke-dasharray="8" fill-rule="evenodd"/>
  <path d="M918.16 867.74h-805.5a12 12 0 0 1-12-12v-528.8a12 12 0 0 1 12-12h805.5a12 12 0 0 1 12 12v528.8a12 12 0 0 1-12 12z" fill="#fff" stroke="#6182bb" fill-rule="evenodd"/>
  <path fill="none" d="M409.36 328.14h230.4v23.3h-230.4z"/>
  <text transform="translate(458.41 345.95)" font-size="24.07" font-family="IBMPlexSans, IBM Plex Sans" style="isolation:isolate">
    WorkerPool
  </text>
  <path fill="none" d="M117.36 148.44h196.9v34h-196.9z"/>
  <text transform="translate(180.61 166.23)" font-size="24.07" font-family="IBMPlexSans, IBM Plex Sans" style="isolation:isolate">
    Zone 1
  </text>
  <path fill="none" d="M416.36 94.14h214.6v34h-214.6z"/>
  <text transform="translate(484.39 111.99)" font-size="24.07" fill="#fff" font-family="IBMPlexSans, IBM Plex Sans" letter-spacing="-.02em" style="isolation:isolate">
    Region 1
  </text>
  <text transform="translate(429.66 237.57)" font-size="24.07" font-family="IBMPlexSans, IBM Plex Sans" style="isolation:isolate" data-name="Multizone-Cluster">
    Multizone Cluster
  </text>
  <ellipse cx="43.96" cy="74.04" rx="19.9" ry="20.5" fill="#08caeb"/>
  <path d="M304.06 511.94h-174.9a12 12 0 0 1-12-12v-120.5a12 12 0 0 1 12-12h174.9a12 12 0 0 1 12 12V500a12 12 0 0 1-12 11.94z" fill="#0039c8" fill-rule="evenodd"/>
  <path fill="#0039c8" d="M133.36 392.04h166.5v23.3h-166.5z"/>
  <text transform="translate(157.42 404.85)" font-size="17" fill="#fff" font-family="IBMPlexSans, IBM Plex Sans" style="isolation:isolate">
    Worker Node 1
  </text>
  <path d="M304.06 683.44h-174.9a12 12 0 0 1-12-12v-120.5a12 12 0 0 1 12-12h174.9a12 12 0 0 1 12 12v120.6a12 12 0 0 1-12 11.9z" fill="#0039c8" fill-rule="evenodd"/>
  <path fill="none" d="M133.36 563.54h166.5v23.3h-166.5z"/>
  <text transform="translate(157.42 576.36)" font-size="17" fill="#fff" font-family="IBMPlexSans, IBM Plex Sans" style="isolation:isolate">
    Worker Node 2
  </text>
  <path d="M304.06 854.94h-174.9a12 12 0 0 1-12-12v-120.5a12 12 0 0 1 12-12h174.9a12 12 0 0 1 12 12V843a12 12 0 0 1-12 11.94z" fill="#0039c8" fill-rule="evenodd"/>
  <path fill="none" d="M133.36 735.04h166.5v23.3h-166.5z"/>
  <text transform="translate(157.42 747.88)" font-size="17" fill="#fff" font-family="IBMPlexSans, IBM Plex Sans" style="isolation:isolate">
    Worker Node 3
  </text>
  <path fill="none" d="M416.36 148.44h196.9v34h-196.9z"/>
  <text transform="translate(479.58 166.23)" font-size="24.07" font-family="IBMPlexSans, IBM Plex Sans" style="isolation:isolate">
    Zone 2
  </text>
  <path d="M602.06 511.94h-174.9a12 12 0 0 1-12-12v-120.5a12 12 0 0 1 12-12h174.9a12 12 0 0 1 12 12V500a12 12 0 0 1-12 11.94z" fill="#0039c8" fill-rule="evenodd"/>
  <path fill="none" d="M431.36 392.04h166.5v23.3h-166.5z"/>
  <text transform="translate(455.39 404.85)" font-size="17" fill="#fff" font-family="IBMPlexSans, IBM Plex Sans" style="isolation:isolate">
    Worker Node 1
  </text>
  <path d="M602.06 683.44h-174.9a12 12 0 0 1-12-12v-120.5a12 12 0 0 1 12-12h174.9a12 12 0 0 1 12 12v120.6a12 12 0 0 1-12 11.9z" fill="#0039c8" fill-rule="evenodd"/>
  <path fill="none" d="M431.36 563.54h166.5v23.3h-166.5z"/>
  <text transform="translate(455.39 576.36)" font-size="17" fill="#fff" font-family="IBMPlexSans, IBM Plex Sans" style="isolation:isolate">
    Worker Node 2
  </text>
  <path d="M602.06 854.94h-174.9a12 12 0 0 1-12-12v-120.5a12 12 0 0 1 12-12h174.9a12 12 0 0 1 12 12V843a12 12 0 0 1-12 11.94z" fill="#0039c8" fill-rule="evenodd"/>
  <path fill="none" d="M431.36 735.04h166.5v23.3h-166.5z"/>
  <text transform="translate(455.39 747.88)" font-size="17" fill="#fff" font-family="IBMPlexSans, IBM Plex Sans" style="isolation:isolate">
    Worker Node 3
  </text>
  <path fill="none" d="M733.16 151.24h196.9v34h-196.9z"/>
  <text transform="translate(796.45 169.08)" font-size="24.07" font-family="IBMPlexSans, IBM Plex Sans" style="isolation:isolate">
    Zone 3
  </text>
  <path d="M900.29 520.11H698.05c-7.64 0-13.88-6-13.88-13.28V373.38c0-7.3 6.24-13.27 13.88-13.27h202.24c7.64 0 13.88 6 13.88 13.27v133.45c0 7.3-6.24 13.28-13.88 13.28z" fill="#0039c8" fill-rule="evenodd"/>
  <text transform="translate(742.52 381.44)" font-size="17" fill="#fff" font-family="IBMPlexSans, IBM Plex Sans" style="isolation:isolate">
    Worker Node 1
  </text>
  <path d="M332.67 520.11H130.42c-7.63 0-13.88-6-13.88-13.28V373.38c0-7.3 6.25-13.27 13.88-13.27h202.25c7.63 0 13.87 6 13.87 13.27v133.45c0 7.3-6.24 13.28-13.87 13.28z" fill="#0039c8" fill-rule="evenodd"/>
  <text transform="translate(174.89 381.44)" font-size="17" fill="#fff" font-family="IBMPlexSans, IBM Plex Sans" style="isolation:isolate">
    Worker Node 1
  </text>
  <path d="M616.48 520.11H414.23c-7.63 0-13.87-6-13.87-13.28V373.38c0-7.3 6.24-13.27 13.87-13.27h202.25c7.63 0 13.88 6 13.88 13.27v133.45c0 7.3-6.25 13.28-13.88 13.28z" fill="#0039c8" fill-rule="evenodd"/>
  <text transform="translate(458.71 381.44)" font-size="17" fill="#fff" font-family="IBMPlexSans, IBM Plex Sans" style="isolation:isolate">
    Worker Node 1
  </text>
  <path d="M900.29 688.38H698.05c-7.64 0-13.88-6-13.88-13.27V541.66c0-7.3 6.24-13.28 13.88-13.28h202.24c7.64 0 13.88 6 13.88 13.28v133.45c0 7.3-6.24 13.27-13.88 13.27z" fill="#0039c8" fill-rule="evenodd"/>
  <text transform="translate(742.52 549.71)" font-size="17" fill="#fff" font-family="IBMPlexSans, IBM Plex Sans" style="isolation:isolate">
    Worker Node 2
  </text>
  <path d="M332.67 688.38H130.42c-7.63 0-13.88-6-13.88-13.27V541.66c0-7.3 6.25-13.28 13.88-13.28h202.25c7.63 0 13.87 6 13.87 13.28v133.45c0 7.3-6.24 13.27-13.87 13.27z" fill="#0039c8" fill-rule="evenodd"/>
  <text transform="translate(174.89 549.71)" font-size="17" fill="#fff" font-family="IBMPlexSans, IBM Plex Sans" style="isolation:isolate">
    Worker Node 2
  </text>
  <path d="M616.48 688.38H414.23c-7.63 0-13.87-6-13.87-13.27V541.66c0-7.3 6.24-13.28 13.87-13.28h202.25c7.63 0 13.88 6 13.88 13.28v133.45c0 7.3-6.25 13.27-13.88 13.27z" fill="#0039c8" fill-rule="evenodd"/>
  <text transform="translate(458.71 549.71)" font-size="17" fill="#fff" font-family="IBMPlexSans, IBM Plex Sans" style="isolation:isolate">
    Worker Node 2
  </text>
  <path d="M900.29 856.66H698.05c-7.64 0-13.88-6-13.88-13.28V709.94c0-7.3 6.24-13.28 13.88-13.28h202.24c7.64 0 13.88 6 13.88 13.28v133.44c0 7.31-6.24 13.28-13.88 13.28z" fill="#0039c8" fill-rule="evenodd"/>
  <text transform="translate(742.52 717.99)" font-size="17" fill="#fff" font-family="IBMPlexSans, IBM Plex Sans" style="isolation:isolate">
    Worker Node 3
  </text>
  <path d="M332.67 856.66H130.42c-7.63 0-13.88-6-13.88-13.28V709.94c0-7.3 6.25-13.28 13.88-13.28h202.25c7.63 0 13.87 6 13.87 13.28v133.44c0 7.31-6.24 13.28-13.87 13.28z" fill="#0039c8" fill-rule="evenodd"/>
  <text transform="translate(174.89 717.99)" font-size="17" fill="#fff" font-family="IBMPlexSans, IBM Plex Sans" style="isolation:isolate">
    Worker Node 3
  </text>
  <path d="M616.48 856.66H414.23c-7.63 0-13.87-6-13.87-13.28V709.94c0-7.3 6.24-13.28 13.87-13.28h202.25c7.63 0 13.88 6 13.88 13.28v133.44c0 7.31-6.25 13.28-13.88 13.28z" fill="#0039c8" fill-rule="evenodd"/>
  <text transform="translate(458.71 717.99)" font-size="17" fill="#fff" font-family="IBMPlexSans, IBM Plex Sans" style="isolation:isolate">
    Worker Node 3
  </text>
  <path fill="none" d="M729.36 392.04h166.5v23.3h-166.5zM729.36 563.54h166.5v23.3h-166.5z"/>
  <text transform="translate(38.35 81.69)" font-size="21.66" font-family="Helvetica" style="isolation:isolate">
    3
  </text>
  <text transform="translate(370.2 277.62)" font-size="18" font-family="IBMPlexSans, IBM Plex Sans" style="isolation:isolate">
    + anti-affinity (across worker nodes)
  </text>
  <path d="M239 802.16h-48.76c-2.26 0-4.11-4.32-4.11-9.6v-30.8c0-5.28 1.85-9.6 4.11-9.6H239c2.26 0 4.11 4.32 4.11 9.6v30.8c.02 5.28-1.83 9.6-4.11 9.6z" fill="#fff" fill-rule="evenodd"/>
  <text transform="translate(192.32 793.86)" font-size="9.07" font-family="IBMPlexSans, IBM Plex Sans" style="isolation:isolate" data-name="Peers">
    (Raft)
  </text>
  <text transform="translate(192.32 764.84)" font-size="10" font-family="IBMPlexSans, IBM Plex Sans" style="isolation:isolate">
    Ordering<tspan x="0" y="12">Node 1</tspan>
  </text>
  <path d="M174.08 633.44H125.3c-2.26 0-4.11-4.32-4.11-9.6V593c0-5.28 1.85-9.6 4.11-9.6h48.78c2.26 0 4.11 4.32 4.11 9.6v30.8c0 5.32-1.85 9.64-4.11 9.64z" fill="#fff" fill-rule="evenodd"/>
  <text transform="translate(127.38 612.06)" font-size="9.07" font-family="IBMPlexSans, IBM Plex Sans" style="isolation:isolate" data-name="Peers">
    Org 1
  </text>
  <text transform="translate(127.38 599.64)" font-size="12.07" font-family="IBMPlexSans, IBM Plex Sans" letter-spacing="-.02em" style="isolation:isolate">
    Peer 2
  </text>
  <path d="M174.92 466.23h-48.78c-2.26 0-4.11-4.32-4.11-9.6v-30.8c0-5.28 1.85-9.6 4.11-9.6h48.78c2.26 0 4.11 4.32 4.11 9.6v30.8c-.03 5.28-1.85 9.6-4.11 9.6z" fill="#fff" fill-rule="evenodd"/>
  <text transform="translate(128.22 443.64)" font-size="9.07" font-family="IBMPlexSans, IBM Plex Sans" style="isolation:isolate" data-name="Peers">
    Org 1
  </text>
  <text transform="translate(128.22 431.22)" font-size="12.07" font-family="IBMPlexSans, IBM Plex Sans" letter-spacing="-.02em" style="isolation:isolate">
    Peer 1
  </text>
  <path d="M742.55 633.44h-48.79c-2.25 0-4.1-4.32-4.1-9.6V593c0-5.28 1.85-9.6 4.1-9.6h48.79c2.26 0 4.11 4.32 4.11 9.6v30.8c0 5.32-1.85 9.64-4.11 9.64z" fill="#fff" fill-rule="evenodd"/>
  <text transform="translate(695.84 610.86)" font-size="9.07" font-family="IBMPlexSans, IBM Plex Sans" style="isolation:isolate" data-name="Peers">
    Org 1
  </text>
  <text transform="translate(695.84 598.44)" font-size="12.07" font-family="IBMPlexSans, IBM Plex Sans" letter-spacing="-.02em" style="isolation:isolate">
    Peer 4
  </text>
  <path d="M458.74 466.23H410c-2.26 0-4.11-4.32-4.11-9.6v-30.8c0-5.28 1.85-9.6 4.11-9.6h48.79c2.25 0 4.1 4.32 4.1 9.6v30.8c-.05 5.28-1.89 9.6-4.15 9.6z" fill="#fff" fill-rule="evenodd"/>
  <text transform="translate(412.03 443.64)" font-size="9.07" font-family="IBMPlexSans, IBM Plex Sans" style="isolation:isolate" data-name="Peers">
    Org 1
  </text>
  <text transform="translate(412.03 431.22)" font-size="12.07" font-family="IBMPlexSans, IBM Plex Sans" letter-spacing="-.02em" style="isolation:isolate">
    Peer 3
  </text>
  <path d="M539.7 801.24h-48.78c-2.26 0-4.11-4.32-4.11-9.6v-30.8c0-5.28 1.85-9.6 4.11-9.6h48.78c2.26 0 4.11 4.32 4.11 9.6v30.8c0 5.28-1.81 9.6-4.11 9.6z" fill="#fff" fill-rule="evenodd"/>
  <text transform="translate(493 792.94)" font-size="9.07" font-family="IBMPlexSans, IBM Plex Sans" style="isolation:isolate" data-name="Peers">
    (Raft)
  </text>
  <text transform="translate(493 763.92)" font-size="10" font-family="IBMPlexSans, IBM Plex Sans" style="isolation:isolate">
        Ordering<tspan x="0" y="12">Node 3</tspan>
  </text>
  <path d="M539.7 633.44h-48.78c-2.26 0-4.11-4.32-4.11-9.6V593c0-5.28 1.85-9.6 4.11-9.6h48.78c2.26 0 4.11 4.32 4.11 9.6v30.8c0 5.32-1.81 9.64-4.11 9.64z" fill="#fff" fill-rule="evenodd"/>
  <text transform="translate(493 596.12)" font-size="10" font-family="IBMPlexSans, IBM Plex Sans" style="isolation:isolate">
    Ordering<tspan x="0" y="12">Node 2</tspan>
  </text>
  <text transform="translate(491.32 625.59)" font-size="9.07" font-family="IBMPlexSans, IBM Plex Sans" style="isolation:isolate" data-name="Peers">
    (<tspan x="3.04" y="0" letter-spacing="-.01em">R</tspan><tspan x="8.75" y="0">aft)</tspan>
  </text>
  <g opacity=".5">
    <path d="M903.83 633.44h-48.78c-2.26 0-4.11-4.32-4.11-9.6V593c0-5.28 1.85-9.6 4.11-9.6h48.78c2.26 0 4.11 4.32 4.11 9.6v30.8c0 5.32-1.85 9.64-4.11 9.64z" fill="#fff" fill-rule="evenodd"/>
    <text transform="translate(857.12 610.86)" font-size="9.07" font-family="IBMPlexSans, IBM Plex Sans" style="isolation:isolate" data-name="Peers">
      <tspan letter-spacing="-.02em">P</tspan><tspan x="5.31" y="0">eers</tspan>
    </text>
    <text transform="translate(857.12 627.6)" font-size="10" font-family="IBMPlexSans-Bold, IBM Plex Sans" font-weight="700" style="isolation:isolate" data-name="Peers">
      R2
    </text>
    <text transform="translate(857.12 598.44)" font-size="12.07" font-family="IBMPlexSans, IBM Plex Sans" style="isolation:isolate">
      CA 2
    </text>
  </g>
  <path d="M620.15 633.44h-48.78c-2.26 0-4.11-4.32-4.11-9.6V593c0-5.28 1.85-9.6 4.11-9.6h48.78c2.26 0 4.11 4.32 4.11 9.6v30.8c0 5.32-1.85 9.64-4.11 9.64z" fill="#fff" fill-rule="evenodd"/>
  <text transform="translate(573.45 610.86)" font-size="9.07" font-family="IBMPlexSans, IBM Plex Sans" style="isolation:isolate" data-name="Peers">
    <tspan letter-spacing="-.02em">P</tspan><tspan x="5.31" y="0">eers</tspan>
  </text>
  <text transform="translate(573.45 627.6)" font-size="10" font-family="IBMPlexSans-Bold, IBM Plex Sans" font-weight="700" style="isolation:isolate" data-name="Peers">
    R1
  </text>
  <text transform="translate(573.45 598.44)" font-size="12.07" font-family="IBMPlexSans, IBM Plex Sans" style="isolation:isolate">
    CA 2
  </text>
  <g opacity=".5">
    <path d="M620.15 466.23h-48.78c-2.26 0-4.11-4.32-4.11-9.6v-30.8c0-5.28 1.85-9.6 4.11-9.6h48.78c2.26 0 4.11 4.32 4.11 9.6v30.8c0 5.28-1.85 9.6-4.11 9.6z" fill="#fff" fill-rule="evenodd"/>
    <text transform="translate(573.45 443.64)" font-size="9.07" font-family="IBMPlexSans, IBM Plex Sans" style="isolation:isolate" data-name="Peers">
      <tspan letter-spacing="-.02em">P</tspan><tspan x="5.31" y="0">eers</tspan>
    </text>
    <text transform="translate(573.45 460.39)" font-size="10" font-family="IBMPlexSans-Bold, IBM Plex Sans" font-weight="700" style="isolation:isolate" data-name="Peers">
      R2
    </text>
    <text transform="translate(573.45 431.22)" font-size="12.07" font-family="IBMPlexSans, IBM Plex Sans" style="isolation:isolate">
      CA 1
    </text>
  </g>
  <path d="M335.16 466.23h-48.79c-2.26 0-4.11-4.32-4.11-9.6v-30.8c0-5.28 1.85-9.6 4.11-9.6h48.79c2.25 0 4.1 4.32 4.1 9.6v30.8c0 5.28-1.85 9.6-4.1 9.6z" fill="#fff" fill-rule="evenodd"/>
  <text transform="translate(288.45 443.64)" font-size="9.07" font-family="IBMPlexSans, IBM Plex Sans" style="isolation:isolate" data-name="Peers">
    <tspan letter-spacing="-.02em">P</tspan><tspan x="5.31" y="0">eers</tspan>
  </text>
  <text transform="translate(288.45 460.39)" font-size="10" font-family="IBMPlexSans-Bold, IBM Plex Sans" font-weight="700" style="isolation:isolate" data-name="Peers">
    R1
  </text>
  <text transform="translate(288.45 431.22)" font-size="12.07" font-family="IBMPlexSans, IBM Plex Sans" style="isolation:isolate">
    CA 1
  </text>
  <path d="M823.59 466.23h-48.78c-2.26 0-4.11-4.32-4.11-9.6v-30.8c0-5.28 1.85-9.6 4.11-9.6h48.78c2.26 0 4.11 4.32 4.11 9.6v30.8c0 5.28-1.85 9.6-4.11 9.6z" fill="#fff" fill-rule="evenodd"/>
  <text transform="translate(776.89 457.92)" font-size="9.07" font-family="IBMPlexSans, IBM Plex Sans" style="isolation:isolate" data-name="Peers">
    (<tspan x="3.04" y="0" letter-spacing="-.01em">R</tspan><tspan x="8.75" y="0">aft)</tspan>
  </text>
  <text transform="translate(776.89 428.91)" font-size="10" font-family="IBMPlexSans, IBM Plex Sans" style="isolation:isolate">
    Ordering<tspan x="0" y="12">Node 4</tspan>
  </text>
  <path d="M823.39 802h-48.78c-2.26 0-4.11-4.32-4.11-9.6v-30.8c0-5.28 1.85-9.6 4.11-9.6h48.78c2.26 0 4.11 4.32 4.11 9.6v30.8c0 5.28-1.85 9.6-4.11 9.6z" fill="#fff" fill-rule="evenodd"/>
  <text transform="translate(776.69 764.68)" font-size="10" font-family="IBMPlexSans, IBM Plex Sans" style="isolation:isolate">
    Ordering<tspan x="0" y="12">Node 5</tspan>
  </text>
  <text transform="translate(776.69 793.74)" font-size="9.07" font-family="IBMPlexSans, IBM Plex Sans" style="isolation:isolate" data-name="Peers">
    (Raft)
  </text>
</svg>
