<svg id="Layer_1" data-name="Layer 1" xmlns="http://www.w3.org/2000/svg" viewBox="0 0 793.03 429.77">
  <defs>
    <style>
      .cls-1{fill:#f0f0f0}.cls-13,.cls-14,.cls-17,.cls-2{fill:none}.cls-2{stroke:#a0a0a0}.cls-13,.cls-17,.cls-18,.cls-2{stroke-linejoin:round}.cls-3{fill:#a0a0a0}.cls-20{fill:#fff}.cls-14,.cls-20{stroke-miterlimit:10}.cls-5{font-size:8.13px}.cls-15,.cls-5,.cls-7{font-family:IBMPlexSans, IBM Plex Sans}.cls-7{font-size:6.39px}.cls-8{fill:#eb4b86}.cls-9{fill:#757575}.cls-10,.cls-18{fill:#0db5b3}.cls-11{fill:#0f6dff}.cls-13,.cls-14,.cls-17,.cls-18,.cls-20{stroke:#fff}.cls-13,.cls-17,.cls-18{stroke-linecap:round}.cls-13,.cls-14,.cls-20{stroke-width:0.72px}.cls-15{font-size:7px}.cls-17,.cls-18{stroke-width:0.75px}
    </style>
  </defs>
  <rect class="cls-1" x="206.87" y="107.8" width="126.13" height="61.56"/>
  <rect class="cls-1" x="491.59" y="122.71" width="60" height="91.29"/>
  <rect class="cls-1" x="206.87" y="178.82" width="126.13" height="61.56"/>
  <rect class="cls-1" x="206.87" y="256.87" width="126.13" height="61.56"/>
  <rect class="cls-1" x="206.87" y="328.72" width="126.13" height="61.56"/>
  <path class="cls-2" d="M336,197.3h48.16c14.76,0,26.73-10.83,26.73-24.2V158.21c0-13.37,12-24.21,26.72-24.21h45.79"/>
  <polygon class="cls-3" points="482.68 136.49 487 134 482.68 131.51 482.68 136.49"/>
  <path class="cls-2" d="M338.77,289.5h39.4c5.39-.35,21.58-1.78,35.65-9,16.05-8.24,18.32-18.36,18.77-21l3.75-102a8.3,8.3,0,0,1,1.87-6c5.6-7.09,23.41-11.26,45.2-11.07"/>
  <polygon class="cls-3" points="482.67 142.97 487 140.5 482.69 137.99 482.67 142.97"/>
  <path class="cls-2" d="M339,365.5c8.46-.29,42.11-1.94,69.58-16,23.77-12.17,28.61-26.32,29.81-31l6-140c.16-2.32,1.07-6.54,6-11a30,30,0,0,1,11.93-7,62.55,62.55,0,0,1,20.21-2.66"/>
  <polygon class="cls-3" points="481.59 160.32 486 158 481.78 155.34 481.59 160.32"/>
  <polyline points="36.05 72.14 756.98 72.14 756.98 36.07 36.05 36.07" style="stroke-miterlimit:10;stroke:#000;stroke-width:0.35px;fill:#fff"/>
  <text class="cls-5" transform="translate(35.47 30.13)">
    IBM Blockchain Platform
  </text>
  <text class="cls-5" transform="translate(425.8 30.13)">
    Legend
  </text>
  <text transform="translate(35.47 60.59)" style="font-size:18.1px;font-family:IBMPlexSans-Bold, IBM Plex Sans;font-weight:700">
    HSM
  </text>
  <text class="cls-7" transform="translate(440.65 48.68)">
    Infrastructure
  </text>
  <circle class="cls-8" cx="508.45" cy="46.75" r="5.35"/>
  <text class="cls-7" transform="translate(519.72 49.42)">
    HSM
  </text>
  <text class="cls-7" transform="translate(440.69 64.54)">
    HSM Client
  </text>
  <circle class="cls-9" cx="429.42" cy="62.61" r="5.35"/>
  <circle class="cls-10" cx="429.49" cy="46.75" r="5.35"/>
  <text class="cls-7" transform="translate(519.62 64.17)">
    Partition
  </text>
  <circle class="cls-11" cx="508.45" cy="62.24" r="5.35"/>
  <line x1="414.54" y1="72.14" x2="414.54" y2="36.07" style="stroke-miterlimit:10;stroke:#000;stroke-width:0.35px;fill:none"/>
  <circle class="cls-10" cx="246.21" cy="199.65" r="18"/>
  <line class="cls-13" x1="249.62" y1="205.89" x2="252.93" y2="211.64"/>
  <path class="cls-13" d="M250.14,203.83a5.46,5.46,0,1,0-7.87,0l1.21,1-4,6.82"/>
  <path class="cls-13" d="M250.87,185.79a15,15,0,0,0-13.53,26.36"/>
  <path class="cls-13" d="M255.07,212.15A15,15,0,0,0,253.6,187"/>
  <circle class="cls-14" cx="248.94" cy="204.71" r="1.36"/>
  <circle class="cls-14" cx="253.82" cy="213" r="1.36"/>
  <circle class="cls-14" cx="252.23" cy="186.3" r="1.36"/>
  <path class="cls-14" d="M237.54,212.3a1.79,1.79,0,0,1,.2-.26,1.37,1.37,0,0,1,1.93,0,1.35,1.35,0,0,1,0,1.93,1.36,1.36,0,0,1-2.13-1.67"/>
  <circle class="cls-10" cx="246.21" cy="351.51" r="18"/>
  <line class="cls-13" x1="249.62" y1="357.61" x2="252.93" y2="363.36"/>
  <path class="cls-13" d="M250.14,355.55a5.45,5.45,0,1,0-7.87,0l1.21,1-4,6.81"/>
  <path class="cls-13" d="M250.87,337.51a15,15,0,0,0-13.52,26.36"/>
  <path class="cls-13" d="M255.08,363.87a15,15,0,0,0-1.48-25.16"/>
  <circle class="cls-14" cx="248.94" cy="356.43" r="1.36"/>
  <circle class="cls-14" cx="253.83" cy="364.73" r="1.36"/>
  <circle class="cls-14" cx="252.23" cy="338.02" r="1.36"/>
  <path class="cls-14" d="M237.54,364a1.71,1.71,0,0,1,.21-.26,1.34,1.34,0,1,1-.21.26"/>
  <g>
    <circle class="cls-10" cx="246.21" cy="277.77" r="18"/>
    <line class="cls-13" x1="249.62" y1="284" x2="252.93" y2="289.75"/>
    <path class="cls-13" d="M250.14,282a5.45,5.45,0,1,0-7.87,0l1.21,1-4,6.81"/>
    <path class="cls-13" d="M250.87,263.9a15,15,0,0,0-13.52,26.37"/>
    <path class="cls-13" d="M255.08,290.27a15,15,0,0,0-1.48-25.16"/>
    <circle class="cls-14" cx="248.94" cy="282.82" r="1.36"/>
    <circle class="cls-14" cx="253.83" cy="291.12" r="1.36"/>
    <circle class="cls-14" cx="252.23" cy="264.41" r="1.36"/>
    <path class="cls-14" d="M237.54,290.41a1.71,1.71,0,0,1,.21-.26,1.34,1.34,0,1,1-.21.26"/>
  </g>
  <g>
    <line class="cls-2" x1="483.41" y1="126.86" x2="336.15" y2="126.86"/>
    <polygon class="cls-3" points="482.68 124.37 487 126.86 482.68 129.36 482.68 124.37"/>
  </g>
  <text class="cls-15" transform="translate(232.15 160.61)">
    Operator
  </text>
  <text class="cls-15" transform="translate(215.37 227.61)">
    Hyperledger Fabric <tspan x="23.59" y="8.4">Peer</tspan>
  </text>
  <text class="cls-15" transform="translate(215.37 305.61)">
    Hyperledger Fabric <tspan x="26.42" y="8.4">CA</tspan>
  </text>
  <text class="cls-15" transform="translate(215.37 378.61)">
    Hyperledger Fabric <tspan x="18.64" y="8.4">Orderer</tspan>
  </text>
  <path d="M251.23,126.87a4.85,4.85,0,1,1-4.85-4.85,4.85,4.85,0,0,1,4.85,4.85" style="stroke-width:0.75px;stroke-linecap:round;stroke:#fff;stroke-miterlimit:10;fill:none"/>
  <g>
    <circle class="cls-10" cx="246.21" cy="132.42" r="18"/>
    <line class="cls-17" x1="246.09" y1="134.6" x2="246.09" y2="119.08"/>
    <line class="cls-17" x1="250.87" y1="132.21" x2="250.87" y2="119.08"/>
    <line class="cls-17" x1="241.32" y1="132.21" x2="241.32" y2="119.08"/>
    <polyline class="cls-17" points="257.5 133.21 246.13 126.64 234.75 133.21 234.75 138.78 246.13 145.35 257.5 138.78 257.5 133.21"/>
    <polyline class="cls-17" points="234.75 133.21 246.13 139.78 257.5 133.21"/>
    <circle class="cls-18" cx="246.09" cy="134.6" r="1.19"/>
    <circle class="cls-18" cx="241.32" cy="132.21" r="1.19"/>
    <circle class="cls-18" cx="250.87" cy="132.21" r="1.19"/>
  </g>
  <text class="cls-15" transform="translate(505.24 194.48)">
    Partition 1
  </text>
  <circle class="cls-11" cx="521.59" cy="175.35" r="9.35"/>
  <text class="cls-15" transform="translate(287.74 151.51)">
    HSM Client
  </text>
  <circle class="cls-9" cx="305.01" cy="128.54" r="11"/>
  <text class="cls-15" transform="translate(286.99 222.53)">
    HSM Client
  </text>
  <circle class="cls-9" cx="304.26" cy="199.55" r="11"/>
  <text class="cls-15" transform="translate(286.99 300.58)">
    HSM Client
  </text>
  <circle class="cls-9" cx="304.26" cy="277.61" r="11"/>
  <text class="cls-15" transform="translate(286.99 372.42)">
    HSM Client
  </text>
  <circle class="cls-9" cx="304.26" cy="349.45" r="11"/>
  <text transform="translate(501.19 153.03)" style="font-size:8.05px;font-family:IBMPlexSans-SemiBold, IBM Plex Sans;font-weight:600">
    Cloud HSM
  </text>
  <circle class="cls-8" cx="521.59" cy="121.08" r="20.69"/>
  <g>
    <circle class="cls-20" cx="525.9" cy="111.39" r=".82"/>
    <circle class="cls-20" cx="525.9" cy="131.81" r=".82"/>
    <circle class="cls-20" cx="525.9" cy="121.6" r=".82"/>
    <rect class="cls-13" x="515.94" y="122.11" width="6.81" height="19.41" transform="rotate(-90 519.345 131.805)"/>
    <rect class="cls-13" x="515.95" y="111.9" width="6.8" height="19.41" transform="rotate(-90 519.34 121.6)"/>
    <rect class="cls-13" x="515.94" y="101.69" width="6.8" height="19.41" transform="rotate(-90 519.345 111.395)"/>
    <path class="cls-13" d="M531.28,131.81h2.64a1.12,1.12,0,0,0,1.12-1.12V112.51a1.12,1.12,0,0,0-1.12-1.12h-2.64"/>
    <line class="cls-13" x1="535" y1="121.6" x2="531.32" y2="121.6"/>
  </g>
</svg>
