<svg id="Layer_1" data-name="Layer 1" xmlns="http://www.w3.org/2000/svg" viewBox="0 0 793.03 482.77">
  <defs>
    <style>
      .cls-15,.cls-16,.cls-18,.cls-2,.cls-20{fill:none}.cls-2{stroke:#a0a0a0}.cls-15,.cls-18,.cls-19,.cls-2,.cls-20{stroke-linejoin:round}.cls-3{fill:#a0a0a0}.cls-22{fill:#fff}.cls-16,.cls-22{stroke-miterlimit:10}.cls-5{font-size:8.13px}.cls-13,.cls-5,.cls-7{font-family:IBMPlexSans,IBM Plex Sans}.cls-7{font-size:6.39px}.cls-8{fill:#a11950}.cls-9{fill:#eb4b86}.cls-10{fill:#757575}.cls-11,.cls-19{fill:#0db5b3}.cls-12{fill:#0f6dff}.cls-13{font-size:7px}.cls-15,.cls-16,.cls-18,.cls-19,.cls-20,.cls-22{stroke:#fff}.cls-15,.cls-18,.cls-19{stroke-linecap:round}.cls-15,.cls-16,.cls-20,.cls-22{stroke-width:.72px}.cls-18,.cls-19{stroke-width:.75px}
    </style>
  </defs>
  <path d="M151.87 96.8H278v61.56H151.87zm214.93 1.11h126.13v69.56H366.8zm0 146.22h126.13v61.56H366.8zM151.87 393H278v61.56H151.87zm214.93-47.37h126.13v61.56H366.8zm201.79-165.92h60V346h-60zm-416.72-11.89H278v61.56H151.87zm0 78.05H278v61.56H151.87zm0 72.51H278v61.56H151.87z" fill="#f0f0f0"/>
  <path class="cls-2" d="M281 186.3h25.83c7.92 0 14.34-10.83 14.34-24.2v-14.89c0-13.37 6.42-24.21 14.34-24.21h22.9"/>
  <path class="cls-3" d="M357.69 125.49L362 123l-4.31-2.49v4.98z"/>
  <path class="cls-2" d="M494 377.3h22.66c6.94 0 12.57-11.18 12.57-25V337c0-13.79 5.63-25 12.57-25h19.64"/>
  <path class="cls-3" d="M560.68 314.49L565 312l-4.32-2.49v4.98z"/>
  <path class="cls-2" d="M282.51 278.5h21a33 33 0 0029-30l2-102a13.5 13.5 0 011-6c2.83-6.74 11.56-10.85 22.41-11.07"/>
  <path class="cls-3" d="M357.17 131.96l4.33-2.46-4.29-2.53-.04 4.99z"/>
  <path class="cls-2" d="M281.51 427.5a54.89 54.89 0 0020.37-2c23.52-7 33.54-27.66 34.63-30a55.71 55.71 0 005-20l1.12-79a13.26 13.26 0 011-6.5c2.3-5.3 8.37-8.78 15.83-9.42"/>
  <path class="cls-3" d="M358.79 283.17l4.21-2.67-4.41-2.31.2 4.98z"/>
  <path class="cls-2" d="M282.61 354.5c4.57-.29 22.74-1.94 37.57-16a53 53 0 0016.1-31l3.22-140a23.19 23.19 0 013.22-11 18.61 18.61 0 016.44-7 19 19 0 019.26-2.66"/>
  <path class="cls-3" d="M357.62 149.37L362 147l-4.24-2.62-.14 4.99z"/>
  <path stroke-miterlimit="10" stroke="#000" stroke-width=".35" fill="#fff" d="M36.05 72.14h720.93V36.07H36.05"/>
  <text class="cls-5" transform="translate(35.47 30.13)">
    IBM Blockchain Platform
  </text>
  <text class="cls-5" transform="translate(425.8 30.13)">
    Legend
  </text>
  <text transform="translate(35.47 60.59)" font-size="18.1" font-family="IBMPlexSans-Bold,IBM Plex Sans" font-weight="700">
    HSM
  </text>
  <text class="cls-7" transform="translate(440.65 48.7)">
    Infrastructure
  </text>
  <circle class="cls-8" cx="508.45" cy="46.77" r="5.35"/>
  <circle class="cls-9" cx="508.45" cy="61.71" r="5.35"/>
  <text class="cls-7" transform="translate(519.72 64.38)">
    HSM
  </text>
  <text class="cls-7" transform="translate(440.69 64.38)">
    HSM Client
  </text>
  <circle class="cls-10" cx="429.42" cy="61.71" r="5.35"/>
  <circle class="cls-11" cx="429.49" cy="46.77" r="5.35"/>
  <text class="cls-7" transform="translate(619.65 48.7)">
    Partition
  </text>
  <circle class="cls-12" cx="608.49" cy="46.77" r="5.35"/>
  <text class="cls-13" transform="translate(519.54 48.88)">
    PKCS #11 Proxy Client
  </text>
  <path stroke-miterlimit="10" stroke="#000" stroke-width=".35" fill="none" d="M414.54 72.14V36.07"/>
  <path d="M164 214.21h-2.47v2.22H161v-4.89h.59v2.15H164v-2.15h.59v4.89H164zm4.08-1.4h.55l-1.63 4.46c-.16.43-.3.56-.84.56h-.28v-.49h.56l.28-.77-1.35-3.76h.56l.86 2.46.17.59.19-.59zm1.26 0h.56v.59a1.06 1.06 0 011.06-.67c.9 0 1.47.73 1.47 1.89s-.57 1.89-1.47 1.89a1.09 1.09 0 01-1.06-.67v2h-.56zm2.52 2.12v-.62a1 1 0 00-1-1.08c-.51 0-.94.3-.94.7v1.34c0 .47.43.74.94.74a1 1 0 001-1.08zm1.28-.31c0-1.15.64-1.89 1.62-1.89a1.58 1.58 0 011.57 1.76v.27h-2.6v.17a1 1 0 001.07 1.07 1 1 0 001-.62l.4.28a1.52 1.52 0 01-1.43.83c-.99.02-1.63-.72-1.63-1.87zm.59-.33v.05h2v-.08a1 1 0 00-1-1.06 1 1 0 00-1 1.09zm3.52 2.14v-3.62h.56v.67a1 1 0 011-.67h.21v.56h-.33c-.6 0-1 .26-1 .6v2.46zm3.16 0a.55.55 0 01-.59-.59v-4.6h.56v4.7h.53v.49zm1.04-1.81a1.67 1.67 0 011.63-1.89 1.58 1.58 0 011.56 1.76v.27H182v.17a1 1 0 001.07 1.09 1 1 0 001-.62l.4.28a1.52 1.52 0 01-1.43.83 1.67 1.67 0 01-1.59-1.89zm.59-.33v.05h2v-.08a1 1 0 00-1-1.06 1 1 0 00-1.04 1.09zm5.83 1.55a1.09 1.09 0 01-1.06.67c-.9 0-1.47-.74-1.47-1.89s.57-1.89 1.47-1.89a1.06 1.06 0 011.06.67v-2.16h.56v5.19h-.56zm0-.57v-1.34c0-.4-.42-.7-.93-.7a1 1 0 00-1 1.08v.62a1 1 0 001 1.08c.51-.01.93-.27.93-.74zm3.05 2.64c-1.13 0-1.59-.32-1.59-.89a.68.68 0 01.57-.7v-.08a.52.52 0 01-.32-.5c0-.36.26-.54.63-.63a1.17 1.17 0 01-.68-1.11 1.23 1.23 0 011.35-1.24 1.63 1.63 0 01.69.14v-.07c0-.28.12-.48.42-.48h.54v.49h-.69v.16a1.22 1.22 0 01.42.93 1.24 1.24 0 01-1.37 1.25 2 2 0 01-.35 0c-.24.06-.48.18-.48.4s.23.28.56.28h.77c.9 0 1.28.36 1.28 1s-.59 1.05-1.75 1.05zm.48-1.52h-1.21a.52.52 0 00-.34.49c0 .32.22.58.79.58h.52c.62 0 1-.2 1-.59s-.16-.48-.76-.48zm.27-2.32v-.19c0-.48-.3-.7-.78-.7s-.78.22-.78.7v.19c0 .48.31.7.78.7s.78-.22.78-.7zm1.38.55a1.67 1.67 0 011.63-1.89 1.58 1.58 0 011.56 1.76v.27h-2.6v.17a1 1 0 001.07 1.09 1 1 0 001-.62l.4.28a1.52 1.52 0 01-1.43.83 1.67 1.67 0 01-1.63-1.89zm.59-.33v.05h2v-.08a1 1 0 00-1-1.06 1 1 0 00-1 1.09zm3.52 2.14v-3.62h.56v.67a1 1 0 011-.67h.28v.56h-.33c-.6 0-1 .26-1 .6v2.46zm4.28 0v-4.89h2.91v.52H202v1.63h2.12v.52H202v2.22zm6.48 0a.59.59 0 01-.62-.59 1 1 0 01-1 .67 1.07 1.07 0 01-1.21-1.09c0-.68.49-1.06 1.54-1.06h.71V214c0-.51-.28-.79-.85-.79a1 1 0 00-.92.54l-.33-.31a1.36 1.36 0 011.28-.71c.87 0 1.39.45 1.39 1.22v2h.41v.49zm-.66-1.05v-.6h-.74c-.64 0-.92.2-.92.55v.14c0 .36.28.56.71.56s.95-.28.95-.65zm1.74-4.14h.56v2.16a1.06 1.06 0 011.06-.67c.9 0 1.47.73 1.47 1.89s-.57 1.89-1.47 1.89a1.09 1.09 0 01-1.06-.67v.59H209zm2.52 3.69v-.62a1 1 0 00-1-1.08c-.52 0-.94.3-.94.7v1.34c0 .47.42.74.94.74a1 1 0 001.03-1.08zm1.57 1.5v-3.62h.56v.67a1 1 0 011-.67h.35v.56h-.33c-.6 0-1 .26-1 .6v2.46zm2.51-4.78v-.09a.3.3 0 01.34-.32c.24 0 .35.13.35.32v.09c0 .19-.11.31-.35.31s-.34-.12-.34-.31zm.06 1.16h.56v3.62h-.56zm1.49 1.81c0-1.16.59-1.89 1.61-1.89a1.35 1.35 0 011.35.85l-.47.23a.87.87 0 00-.88-.59 1 1 0 00-1 1.09v.62a1 1 0 001 1.08 1 1 0 001-.63l.4.28a1.43 1.43 0 01-1.38.85c-1.04 0-1.63-.74-1.63-1.89zm-33.42 10.21v-4.89h1.94a1.4 1.4 0 010 2.8h-1.36v2.09zm.58-2.61h1.36a.65.65 0 00.74-.7v-.36a.65.65 0 00-.74-.7h-1.36zm3.34.78c0-1.15.64-1.89 1.62-1.89a1.58 1.58 0 011.56 1.76v.27h-2.59v.17a1 1 0 001.07 1.09 1 1 0 001-.62l.4.28a1.52 1.52 0 01-1.43.83c-.99.02-1.63-.72-1.63-1.89zm.59-.33v.05h2v-.08a1 1 0 00-1-1.06 1 1 0 00-1 1.11zm3.25.33c0-1.15.64-1.89 1.62-1.89a1.58 1.58 0 011.57 1.76v.27h-2.6v.17a1.08 1.08 0 002.06.47l.4.28a1.52 1.52 0 01-1.43.83c-.98.02-1.62-.72-1.62-1.89zm.59-.33v.05h2v-.08a1 1 0 00-1-1.06 1 1 0 00-1 1.11zm3.52 2.16v-3.62h.56v.67a1 1 0 011.05-.67h.21v.56h-.33c-.6 0-1 .26-1 .61v2.45z"/>
  <circle class="cls-11" cx="190.32" cy="188.65" r="18"/>
  <path class="cls-15" d="M193.73 194.89l3.31 5.75m-2.79-7.81a5.45 5.45 0 10-7.87 0l1.22 1-4 6.82m11.4-25.86a15 15 0 00-13.52 26.36m17.71 0a15 15 0 00-1.48-25.15"/>
  <circle class="cls-16" cx="193.05" cy="193.71" r="1.36"/>
  <circle class="cls-16" cx="197.94" cy="202" r="1.36"/>
  <circle class="cls-16" cx="196.35" cy="175.3" r="1.36"/>
  <path class="cls-16" d="M181.66 201.3a1 1 0 01.2-.26 1.36 1.36 0 110 1.93 1.35 1.35 0 01-.2-1.67"/>
  <path d="M164 440.58h-2.47v2.21H161v-4.88h.59v2.15H164v-2.15h.59v4.88H164zm4.08-1.4h.55l-1.63 4.45c-.16.44-.3.56-.84.56h-.28v-.49h.56l.28-.77-1.35-3.75h.56l.86 2.46.17.59.19-.59zm1.26 0h.56v.59a1 1 0 011.06-.67c.9 0 1.47.73 1.47 1.89s-.57 1.89-1.47 1.89a1.1 1.1 0 01-1.06-.67v2h-.56zm2.52 2.11v-.61a1 1 0 00-1-1.08c-.51 0-.94.29-.94.69v1.35c0 .47.43.73.94.73a1 1 0 001-1.08zm1.28-.29c0-1.15.64-1.89 1.62-1.89a1.58 1.58 0 011.57 1.76v.27h-2.6v.16a1 1 0 001.07 1.1 1.05 1.05 0 001-.63l.4.29a1.52 1.52 0 01-1.43.83c-.99-.01-1.63-.75-1.63-1.89zm.59-.33h2v-.08a1 1 0 00-1-1.06 1 1 0 00-1 1.13zm3.52 2.12v-3.61h.56v.67a1 1 0 011-.67h.21v.56h-.33c-.6 0-1 .26-1 .6v2.45zm3.16 0a.54.54 0 01-.59-.58v-4.6h.56v4.69h.53v.49zm1.04-1.79a1.67 1.67 0 011.63-1.89 1.58 1.58 0 011.56 1.76v.27H182v.16a1 1 0 001.07 1.1 1.06 1.06 0 001-.63l.4.29a1.52 1.52 0 01-1.43.83 1.67 1.67 0 01-1.59-1.89zm.59-.33h2v-.08a1 1 0 00-1-1.06 1 1 0 00-1.04 1.13zm5.83 1.54a1.1 1.1 0 01-1.06.67c-.9 0-1.47-.74-1.47-1.89s.57-1.89 1.47-1.89a1 1 0 011.06.67v-2.16h.56v5.18h-.56zm0-.57v-1.35c0-.4-.42-.69-.93-.69a1 1 0 00-1 1.08v.61a1 1 0 001 1.08c.51 0 .93-.26.93-.73zm3.05 2.64c-1.13 0-1.59-.32-1.59-.89a.68.68 0 01.57-.7v-.08a.53.53 0 01-.32-.5c0-.37.26-.54.63-.63a1.17 1.17 0 01-.68-1.11 1.23 1.23 0 011.35-1.24 1.49 1.49 0 01.69.14v-.07c0-.28.12-.48.42-.48h.54v.49h-.69v.23a1.2 1.2 0 01.42.93 1.24 1.24 0 01-1.37 1.25 1.34 1.34 0 01-.35 0c-.24.07-.48.19-.48.41s.23.27.56.27h.77c.9 0 1.28.37 1.28 1 0 .64-.59.98-1.75.98zm.48-1.52h-1.21a.51.51 0 00-.34.49c0 .31.22.57.79.57h.52c.62 0 1-.19 1-.58s-.16-.48-.76-.48zm.27-2.32v-.2c0-.47-.3-.7-.78-.7s-.78.23-.78.7v.2c0 .48.31.7.78.7s.78-.22.78-.7zm1.38.56a1.67 1.67 0 011.63-1.89 1.58 1.58 0 011.56 1.76v.27h-2.6v.16a1 1 0 001.07 1.1 1.06 1.06 0 001-.63l.4.29a1.52 1.52 0 01-1.43.83 1.67 1.67 0 01-1.63-1.89zm.59-.33h2v-.08a1 1 0 00-1-1.06 1 1 0 00-1 1.13zm3.52 2.12v-3.61h.56v.67a1 1 0 011-.67h.28v.56h-.33c-.6 0-1 .26-1 .6v2.45zm4.28 0v-4.88h2.91v.51H202v1.64h2.12v.52H202v2.21zm6.48 0a.58.58 0 01-.62-.58 1 1 0 01-1 .67 1.07 1.07 0 01-1.21-1.09c0-.68.49-1.06 1.54-1.06h.71v-.36c0-.51-.28-.79-.85-.79a1 1 0 00-.92.54l-.33-.32a1.37 1.37 0 011.28-.7c.87 0 1.39.45 1.39 1.21v2h.41v.49zm-.66-1.05v-.59h-.74c-.64 0-.92.19-.92.54v.15c0 .36.28.56.71.56s.95-.29.95-.66zm1.74-4.13h.56v2.16a1 1 0 011.06-.67c.9 0 1.47.73 1.47 1.89s-.57 1.89-1.47 1.89a1.1 1.1 0 01-1.06-.67v.58H209zm2.52 3.68v-.61a1 1 0 00-1-1.08c-.52 0-.94.29-.94.69v1.35c0 .47.42.73.94.73a1 1 0 001.03-1.08zm1.57 1.5v-3.61h.56v.67a1 1 0 011-.67h.35v.56h-.33c-.6 0-1 .26-1 .6v2.45zm2.51-4.79v-.09a.3.3 0 01.34-.32c.24 0 .35.13.35.32v.09c0 .19-.11.31-.35.31s-.34-.1-.34-.31zm.06 1.16h.56v3.61h-.56zm1.49 1.84c0-1.16.59-1.89 1.61-1.89a1.36 1.36 0 011.35.84l-.47.24a.87.87 0 00-.88-.59 1 1 0 00-1 1.09v.61a1 1 0 001 1.09 1 1 0 001-.63l.4.27a1.42 1.42 0 01-1.38.86c-1.04-.01-1.63-.75-1.63-1.89zm-33.42 10.19v-4.88h1.94a1.4 1.4 0 010 2.8h-1.36v2.08zm.58-2.6h1.36a.65.65 0 00.74-.7v-.37a.66.66 0 00-.74-.7h-1.36zm3.34.8c0-1.15.64-1.89 1.62-1.89a1.58 1.58 0 011.56 1.76v.27h-2.59v.17a1 1 0 001.07 1.09 1.06 1.06 0 001-.62l.4.28a1.52 1.52 0 01-1.43.83c-.99 0-1.63-.74-1.63-1.89zm.59-.33v.05h2V449a1 1 0 00-1-1.06 1 1 0 00-1 1.12zm3.25.33c0-1.15.64-1.89 1.62-1.89a1.58 1.58 0 011.57 1.76v.27h-2.6v.17a1 1 0 001.07 1.09 1 1 0 001-.62l.4.28a1.52 1.52 0 01-1.43.83c-.99 0-1.63-.74-1.63-1.89zm.59-.33v.05h2V449a1 1 0 00-1-1.06 1 1 0 00-1 1.12zm3.52 2.13v-3.61h.56v.67a1 1 0 011.05-.67h.21v.56h-.33c-.6 0-1 .26-1 .6v2.45z"/>
  <circle class="cls-11" cx="190.65" cy="415.02" r="18"/>
  <path class="cls-15" d="M194.03 421.25l3.31 5.76m-2.79-7.81a5.41 5.41 0 001.53-3.78 5.46 5.46 0 10-9.4 3.77l1.21 1-4 6.82m11.39-25.85a15 15 0 00-13.52 26.36m17.73 0a15 15 0 00-1.49-25.16"/>
  <circle class="cls-16" cx="193.35" cy="420.08" r="1.36"/>
  <circle class="cls-16" cx="198.24" cy="428.37" r="1.36"/>
  <circle class="cls-16" cx="196.65" cy="401.67" r="1.36"/>
  <path class="cls-16" d="M182 427.66a1.16 1.16 0 01.2-.25 1.35 1.35 0 11-.2.25"/>
  <path d="M164 364.82h-2.47V367H161v-4.89h.59v2.16H164v-2.16h.59V367H164zm4.08-1.4h.55l-1.63 4.45c-.16.44-.3.56-.84.56h-.28v-.49h.56l.28-.77-1.35-3.75h.56l.86 2.46.17.59.19-.59zm1.26 0h.56v.58a1.06 1.06 0 011.06-.68c.9 0 1.47.74 1.47 1.9s-.57 1.89-1.47 1.89a1.1 1.1 0 01-1.06-.67v2h-.56zm2.52 2.11v-.61a1 1 0 00-1-1.08c-.51 0-.94.29-.94.69v1.35c0 .47.43.73.94.73a1 1 0 001-1.08zm1.28-.3c0-1.15.64-1.9 1.62-1.9a1.59 1.59 0 011.57 1.77v.27h-2.6v.16a1 1 0 001.07 1.1 1.05 1.05 0 001-.63l.4.29a1.52 1.52 0 01-1.43.83c-.99 0-1.63-.74-1.63-1.89zm.59-.33v.1h2v-.08a1 1 0 00-1-1.07 1 1 0 00-1 1.05zm3.52 2.1v-3.61h.56v.66a1.05 1.05 0 011-.66h.21v.61h-.33c-.6 0-1 .26-1 .6v2.4zm3.16 0a.54.54 0 01-.59-.58v-4.6h.56v4.69h.53v.49zm1.04-1.77a1.67 1.67 0 011.63-1.9 1.58 1.58 0 011.56 1.77v.27H182v.16a1 1 0 001.07 1.1 1.06 1.06 0 001-.63l.4.29a1.52 1.52 0 01-1.43.83 1.67 1.67 0 01-1.59-1.89zm.59-.33v.1h2v-.08a1 1 0 00-1-1.07 1 1 0 00-1.04 1.05zm5.83 1.55a1.1 1.1 0 01-1.06.67c-.9 0-1.47-.74-1.47-1.89s.57-1.9 1.47-1.9a1.06 1.06 0 011.06.68v-2.16h.56V367h-.56zm0-.57v-1.35c0-.4-.42-.69-.93-.69a1 1 0 00-1 1.08v.61a1 1 0 001 1.08c.51 0 .93-.26.93-.73zm3.05 2.64c-1.13 0-1.59-.32-1.59-.89a.68.68 0 01.57-.7v-.08a.53.53 0 01-.32-.5c0-.37.26-.54.63-.63a1.17 1.17 0 01-.68-1.11 1.24 1.24 0 011.35-1.25 1.49 1.49 0 01.69.15v-.07c0-.28.12-.48.42-.48h.54v.49h-.69v.23a1.2 1.2 0 01.42.93 1.24 1.24 0 01-1.37 1.25 2 2 0 01-.35 0c-.24.07-.48.19-.48.41s.23.27.56.27h.77c.9 0 1.28.37 1.28 1s-.59.98-1.75.98zm.48-1.52h-1.21a.5.5 0 00-.34.49c0 .31.22.57.79.57h.52c.62 0 1-.19 1-.59s-.16-.47-.76-.47zm.27-2.32v-.2c0-.47-.3-.7-.78-.7s-.78.23-.78.7v.2c0 .48.31.7.78.7s.78-.22.78-.7zm1.38.55a1.67 1.67 0 011.63-1.9 1.59 1.59 0 011.56 1.77v.27h-2.6v.16a1 1 0 001.07 1.1 1.06 1.06 0 001-.63l.4.29a1.52 1.52 0 01-1.43.83 1.67 1.67 0 01-1.63-1.89zm.59-.33v.1h2v-.08a1 1 0 00-1-1.07 1 1 0 00-1 1.05zm3.52 2.1v-3.61h.56v.66a1 1 0 011-.66h.28v.61h-.33c-.6 0-1 .26-1 .6v2.4zm4.28 0v-4.89h2.91v.52H202v1.64h2.12v.52H202V367zm6.48 0a.58.58 0 01-.62-.58 1 1 0 01-1 .67A1.07 1.07 0 01205 366c0-.67.49-1 1.54-1h.71v-.36c0-.51-.28-.79-.85-.79a1 1 0 00-.92.54l-.33-.32a1.38 1.38 0 011.28-.71c.87 0 1.39.46 1.39 1.22v2h.41v.42zm-.66-1v-.59h-.74c-.64 0-.92.19-.92.54v.15c0 .36.28.56.71.56s.95-.31.95-.66zm1.74-4.15h.56V364a1.06 1.06 0 011.06-.68c.9 0 1.47.74 1.47 1.9s-.57 1.89-1.47 1.89a1.1 1.1 0 01-1.06-.67v.56H209zm2.52 3.68v-.61a1 1 0 00-1-1.08c-.52 0-.94.29-.94.69v1.35c0 .47.42.73.94.73a1 1 0 001.03-1.08zm1.57 1.47v-3.61h.56v.66a1 1 0 011-.66h.35v.61h-.33c-.6 0-1 .26-1 .6v2.4zm2.51-4.74v-.09a.3.3 0 01.34-.32c.24 0 .35.13.35.32v.09c0 .19-.11.31-.35.31s-.34-.12-.34-.31zm.06 1.16h.56V367h-.56zm1.49 1.81c0-1.16.59-1.9 1.61-1.9a1.37 1.37 0 011.35.85l-.47.24a.87.87 0 00-.88-.59 1 1 0 00-1 1.09v.61a1 1 0 001 1.09 1 1 0 001-.63l.4.27a1.42 1.42 0 01-1.38.86c-1.04 0-1.63-.74-1.63-1.89zM178.53 373c0-1.64.81-2.53 2.07-2.53s2.07.89 2.07 2.53-.81 2.53-2.07 2.53-2.07-.9-2.07-2.53zm3.51.41v-.82a1.45 1.45 0 10-2.88 0v.82a1.45 1.45 0 102.88 0zm1.63 2.02v-3.61h.56v.67a1 1 0 011-.67h.22v.56h-.33c-.61 0-1 .26-1 .6v2.45zm4.88-.58a1.1 1.1 0 01-1.06.67c-.9 0-1.47-.74-1.47-1.89s.57-1.89 1.47-1.89a1 1 0 011.06.67v-2.16h.56v5.18h-.56zm0-.57v-1.35c0-.4-.42-.69-.93-.69a1 1 0 00-1 1.08v.61a1 1 0 001 1.08c.51-.01.93-.26.93-.73zm1.45-.65a1.67 1.67 0 011.63-1.89 1.58 1.58 0 011.56 1.76v.27h-2.6v.16a1 1 0 001.07 1.1 1.06 1.06 0 001-.63l.4.29a1.52 1.52 0 01-1.43.83 1.67 1.67 0 01-1.63-1.89zm.59-.33v.05h2v-.08a1 1 0 00-1-1.06 1 1 0 00-.97 1.09zm3.55 2.13v-3.61h.56v.67a1 1 0 011-.67h.3v.56h-.33c-.6 0-1 .26-1 .6v2.45zm2.31-1.8c0-1.15.64-1.89 1.62-1.89a1.58 1.58 0 011.56 1.76v.27H197v.16a1 1 0 001.08 1.1 1.05 1.05 0 001-.63l.4.29a1.52 1.52 0 01-1.43.83c-.96 0-1.6-.74-1.6-1.89zm.58-.33v.05h2v-.08a1 1 0 00-1-1.06 1 1 0 00-1.03 1.09zm3.52 2.13v-3.61h.56v.67a1 1 0 011-.67h.22v.56H202c-.6 0-1 .26-1 .6v2.45z"/>
  <circle class="cls-11" cx="190.32" cy="339.17" r="18"/>
  <path class="cls-15" d="M193.73 345.28l3.31 5.75m-2.79-7.81a5.41 5.41 0 001.53-3.78 5.46 5.46 0 10-9.4 3.77l1.22 1-4 6.82m11.4-25.85a15 15 0 00-13.52 26.36m17.71 0a15 15 0 00-1.48-25.16"/>
  <circle class="cls-16" cx="193.05" cy="344.1" r="1.36"/>
  <circle class="cls-16" cx="197.94" cy="352.39" r="1.36"/>
  <circle class="cls-16" cx="196.35" cy="325.69" r="1.36"/>
  <path class="cls-16" d="M181.66 351.68a1.16 1.16 0 01.2-.25 1.35 1.35 0 11-.2.25"/>
  <path d="M164 292.21h-2.47v2.21H161v-4.88h.59v2.15H164v-2.15h.59v4.88H164zm4.08-1.4h.55l-1.63 4.46c-.16.43-.3.56-.84.56h-.28v-.5h.56l.28-.77-1.35-3.75h.56l.86 2.46.17.59.19-.59zm1.26 0h.56v.59a1 1 0 011.06-.67c.9 0 1.47.73 1.47 1.89s-.57 1.89-1.47 1.89a1.09 1.09 0 01-1.06-.67v2h-.56zm2.52 2.12v-.62a1 1 0 00-1-1.08c-.51 0-.94.3-.94.69v1.35c0 .47.43.73.94.73a1 1 0 001-1.07zm1.28-.31c0-1.15.64-1.89 1.62-1.89a1.58 1.58 0 011.57 1.76v.27h-2.6v.17a1 1 0 001.07 1.07 1.06 1.06 0 001-.62l.4.28a1.52 1.52 0 01-1.43.83c-.99.02-1.63-.72-1.63-1.87zm.59-.33h2v-.08a1 1 0 00-1-1.06 1 1 0 00-1 1.14zm3.52 2.13v-3.61h.56v.67a1 1 0 011-.67h.21v.56h-.33c-.6 0-1 .26-1 .6v2.45zm3.16 0a.54.54 0 01-.59-.58v-4.6h.56v4.69h.53v.49zm1.04-1.8a1.67 1.67 0 011.63-1.89 1.58 1.58 0 011.56 1.76v.27H182v.17a1 1 0 001.07 1.09 1.06 1.06 0 001-.62l.4.28a1.52 1.52 0 01-1.43.83 1.67 1.67 0 01-1.59-1.89zm.59-.33h2v-.08a1 1 0 00-1-1.06 1 1 0 00-1.04 1.14zm5.83 1.55a1.09 1.09 0 01-1.06.67c-.9 0-1.47-.74-1.47-1.89s.57-1.89 1.47-1.89a1 1 0 011.06.67v-2.16h.56v5.18h-.56zm0-.57v-1.35c0-.39-.42-.69-.93-.69a1 1 0 00-1 1.08v.62a1 1 0 001 1.07c.51 0 .93-.26.93-.73zm3.05 2.64c-1.13 0-1.59-.32-1.59-.89a.68.68 0 01.57-.7v-.08a.53.53 0 01-.32-.5c0-.37.26-.54.63-.63a1.17 1.17 0 01-.68-1.11 1.23 1.23 0 011.35-1.24 1.63 1.63 0 01.69.14v-.07c0-.28.12-.48.42-.48h.54v.49h-.69v.16a1.22 1.22 0 01.42.93 1.24 1.24 0 01-1.37 1.25 2 2 0 01-.35 0c-.24.06-.48.18-.48.4s.23.27.56.27h.77c.9 0 1.28.37 1.28 1 0 .72-.59 1.06-1.75 1.06zm.48-1.52h-1.21a.52.52 0 00-.34.49c0 .32.22.57.79.57h.52c.62 0 1-.19 1-.58s-.16-.48-.76-.48zm.27-2.32v-.19c0-.48-.3-.71-.78-.71s-.78.23-.78.71v.19c0 .48.31.7.78.7s.78-.22.78-.7zm1.38.55a1.67 1.67 0 011.63-1.89 1.58 1.58 0 011.56 1.76v.27h-2.6v.17a1 1 0 001.07 1.09 1.06 1.06 0 001-.62l.4.28a1.52 1.52 0 01-1.43.83 1.67 1.67 0 01-1.63-1.89zm.59-.33h2v-.08a1 1 0 00-1-1.06 1 1 0 00-1 1.14zm3.52 2.13v-3.61h.56v.67a1 1 0 011-.67h.28v.56h-.33c-.6 0-1 .26-1 .6v2.45zm4.28 0v-4.88h2.91v.51H202v1.64h2.12v.52H202v2.21zm6.48 0a.58.58 0 01-.62-.58 1 1 0 01-1 .67 1.07 1.07 0 01-1.21-1.09c0-.68.49-1.06 1.54-1.06h.71V292c0-.51-.28-.79-.85-.79a1 1 0 00-.92.54l-.33-.32a1.37 1.37 0 011.28-.7c.87 0 1.39.45 1.39 1.22v2h.41v.49zm-.66-1.05v-.59h-.74c-.64 0-.92.19-.92.55v.14c0 .36.28.56.71.56s.95-.28.95-.66zm1.74-4.13h.56v2.16a1 1 0 011.06-.67c.9 0 1.47.73 1.47 1.89s-.57 1.89-1.47 1.89a1.09 1.09 0 01-1.06-.67v.58H209zm2.52 3.69v-.62a1 1 0 00-1-1.08c-.52 0-.94.3-.94.69v1.35c0 .47.42.73.94.73a1 1 0 001.03-1.07zm1.57 1.49v-3.61h.56v.67a1 1 0 011-.67h.35v.56h-.33c-.6 0-1 .26-1 .6v2.45zm2.51-4.77v-.09a.3.3 0 01.34-.32c.24 0 .35.13.35.32v.09c0 .19-.11.31-.35.31s-.34-.12-.34-.31zm.06 1.16h.56v3.61h-.56zm1.49 1.81c0-1.16.59-1.89 1.61-1.89a1.36 1.36 0 011.35.84l-.47.24a.87.87 0 00-.88-.59 1 1 0 00-1 1.09v.62a1 1 0 001 1.08 1 1 0 001-.63l.4.27a1.42 1.42 0 01-1.38.86c-1.04 0-1.63-.74-1.63-1.89zm-30.84 7.79c0-1.63.74-2.56 2-2.56a1.74 1.74 0 011.68 1.07l-.47.29a1.24 1.24 0 00-1.21-.83c-.84 0-1.34.66-1.34 1.66v.73c0 1 .5 1.61 1.34 1.61a1.28 1.28 0 001.25-.88l.47.3a1.82 1.82 0 01-1.72 1.11c-1.26 0-2-.91-2-2.5zm7.69 2.42l-.49-1.45h-2l-.49 1.45h-.6l1.71-4.89h.75l1.71 4.89zm-1.46-4.35l-.83 2.38h1.69z"/>
  <circle class="cls-11" cx="190.32" cy="266.77" r="18"/>
  <path class="cls-15" d="M193.73 273l3.31 5.75m-2.79-7.75a5.45 5.45 0 10-7.87 0l1.22 1-4 6.81M195 252.9a15 15 0 00-13.52 26.37m17.71 0a15 15 0 00-1.48-25.16"/>
  <circle class="cls-16" cx="193.05" cy="271.82" r="1.36"/>
  <circle class="cls-16" cx="197.94" cy="280.12" r="1.36"/>
  <circle class="cls-16" cx="196.35" cy="253.41" r="1.36"/>
  <path class="cls-16" d="M181.66 279.41a1.21 1.21 0 01.2-.26 1.36 1.36 0 110 1.93 1.35 1.35 0 01-.2-1.67"/>
  <path class="cls-2" d="M494 123.3h22.66c6.94 0 12.57 19 12.57 42.33v26c0 23.38 5.62 42.33 12.57 42.33h19.6"/>
  <path class="cls-3" d="M560.67 236.49l4.32-2.49-4.32-2.49v4.98z"/>
  <path class="cls-2" d="M359.42 115.86h-78.34"/>
  <path class="cls-3" d="M358.69 113.37l4.31 2.49-4.31 2.5v-4.99z"/>
  <path class="cls-2" d="M561.41 271.86h-65.65"/>
  <path class="cls-3" d="M560.68 269.37l4.32 2.49-4.32 2.5v-4.99z"/>
  <circle class="cls-10" cx="460.27" cy="370.65" r="11.33"/>
  <text class="cls-13" transform="translate(442.41 391.8)">
    HSM Client
  </text>
  <circle class="cls-10" cx="460.27" cy="270.53" r="11.33"/>
  <text class="cls-13" transform="translate(442.41 291.68)">
    HSM Client
  </text>
  <circle class="cls-10" cx="460.27" cy="126.92" r="11.33"/>
  <text class="cls-13" transform="translate(442.41 148.07)">
    HSM Client
  </text>
  <text class="cls-13" transform="translate(176.82 149.61)">
    Operator
  </text>
  <path d="M195.89 115.87A4.85 4.85 0 11191 111a4.85 4.85 0 014.85 4.85" stroke-width=".75" stroke-linecap="round" stroke="#fff" stroke-miterlimit="10" fill="none"/>
  <circle class="cls-11" cx="190.87" cy="121.42" r="18"/>
  <path class="cls-18" d="M190.76 123.6v-15.52m4.77 13.13v-13.13m-9.55 13.13v-13.13m16.18 14.13l-11.37-6.57-11.38 6.57v5.57l11.38 6.57 11.37-6.57v-5.57"/>
  <path class="cls-18" d="M179.41 122.21l11.38 6.57 11.37-6.57"/>
  <circle class="cls-19" cx="190.76" cy="123.6" r="1.19"/>
  <circle class="cls-19" cx="185.98" cy="121.21" r="1.19"/>
  <circle class="cls-19" cx="195.53" cy="121.21" r="1.19"/>
  <text class="cls-13" transform="translate(582.24 251.48)">
    Partition 1
  </text>
  <circle class="cls-12" cx="598.59" cy="232.35" r="9.35"/>
  <text class="cls-13" transform="rotate(-.4 41773.1 -83256.03)">
    Partition 2
  </text>
  <circle class="cls-12" cx="599.31" cy="270.35" r="9.35"/>
  <text class="cls-13" transform="rotate(-.4 47072.939 -83237.53)">
    Partition 3
  </text>
  <circle class="cls-12" cx="598.59" cy="307.35" r="9.35"/>
  <text class="cls-13" transform="translate(233.16 138.51)">
    PKCS #11 <tspan x="-1.96" y="8.4">Proxy Client</tspan>
  </text>
  <circle class="cls-8" cx="250.01" cy="117.54" r="11"/>
  <text class="cls-13" transform="translate(232.41 209.53)">
    PKCS #11 <tspan x="-1.96" y="8.4">Proxy Client</tspan>
  </text>
  <circle class="cls-8" cx="249.26" cy="188.55" r="11"/>
  <text class="cls-13" transform="translate(232.41 287.58)">
    PKCS #11 <tspan x="-1.96" y="8.4">Proxy Client</tspan>
  </text>
  <circle class="cls-8" cx="249.26" cy="266.61" r="11"/>
  <text class="cls-13" transform="translate(232.41 360.09)">
    PKCS #11 <tspan x="-1.96" y="8.4">Proxy Client</tspan>
  </text>
  <circle class="cls-8" cx="249.26" cy="339.12" r="11"/>
  <text class="cls-13" transform="translate(232.41 435.97)">
    PKCS #11 <tspan x="-1.96" y="8.4">Proxy Client</tspan>
  </text>
  <circle class="cls-8" cx="249.26" cy="415" r="11"/>
  <text class="cls-13" transform="translate(379.58 154.81)">
    PKCS #11 Proxy
  </text>
  <circle class="cls-8" cx="405.31" cy="126.84" r="18"/>
  <path class="cls-20" transform="rotate(-90 411.735 137.565)" d="M410.3 133.3h2.87v8.53h-2.87z"/>
  <path class="cls-20" transform="rotate(-90 411.74 127)" d="M410.3 122.74h2.87v8.53h-2.87z"/>
  <path class="cls-20" transform="rotate(-90 411.735 116.435)" d="M410.3 112.17h2.87v8.53h-2.87z"/>
  <path class="cls-20" d="M402.23 127h5.24m0-10.57h-10.35V121m10.35 16.57h-10.35v-4.56"/>
  <path class="cls-15" d="M392 121h10.23v12.01H392z"/>
  <text class="cls-13" transform="translate(379.58 298.43)">
    PKCS #11 Proxy
  </text>
  <circle class="cls-8" cx="405.31" cy="270.45" r="18"/>
  <path class="cls-20" transform="rotate(-90 411.735 281.175)" d="M410.3 276.91h2.87v8.53h-2.87z"/>
  <path class="cls-20" transform="rotate(-90 411.735 270.615)" d="M410.3 266.35h2.87v8.53h-2.87z"/>
  <path class="cls-20" transform="rotate(-90 411.735 260.045)" d="M410.3 255.78h2.87v8.53h-2.87z"/>
  <path class="cls-20" d="M402.23 270.61h5.24m0-10.57h-10.35v4.57m10.35 16.57h-10.35v-4.55"/>
  <path class="cls-15" d="M392 264.61h10.23v12.01H392z"/>
  <text class="cls-13" transform="translate(379.58 398.54)">
    PKCS #11 Proxy
  </text>
  <circle class="cls-8" cx="405.31" cy="370.57" r="18"/>
  <path class="cls-20" transform="rotate(-90 411.735 381.295)" d="M410.3 377.03h2.87v8.53h-2.87z"/>
  <path class="cls-20" transform="rotate(-90 411.74 370.73)" d="M410.3 366.47h2.87V375h-2.87z"/>
  <path class="cls-20" transform="rotate(-90 411.735 360.165)" d="M410.3 355.9h2.87v8.53h-2.87z"/>
  <path class="cls-20" d="M402.23 370.73h5.24m0-10.57h-10.35v4.57m10.35 16.57h-10.35v-4.56"/>
  <path class="cls-15" d="M392 364.73h10.23v12.01H392z"/>
  <text transform="translate(578.2 210.03)" font-size="8.05" font-family="IBMPlexSans-SemiBold,IBM Plex Sans" font-weight="600">
    Cloud HSM
  </text>
  <circle class="cls-9" cx="598.59" cy="178.08" r="20.69"/>
  <circle class="cls-22" cx="602.9" cy="168.39" r=".82"/>
  <circle class="cls-22" cx="602.9" cy="188.81" r=".82"/>
  <circle class="cls-22" cx="602.9" cy="178.6" r=".82"/>
  <path class="cls-15" transform="rotate(-90 596.345 188.805)" d="M592.94 179.11h6.81v19.41h-6.81z"/>
  <path class="cls-15" transform="rotate(-90 596.34 178.6)" d="M592.95 168.9h6.8v19.41h-6.8z"/>
  <path class="cls-15" transform="rotate(-90 596.345 168.395)" d="M592.94 158.69h6.8v19.41h-6.8z"/>
  <path class="cls-15" d="M608.28 188.81h2.64a1.12 1.12 0 001.12-1.12v-18.18a1.12 1.12 0 00-1.12-1.12h-2.64M612 178.6h-3.68"/>
  <path d="M423.99 128.11H451m-27.01 143H451m-27.01 101H451" stroke-dasharray="0 4 0 4 0 4" stroke-linecap="round" stroke-linejoin="round" stroke="#a0a0a0" fill="none"/>
</svg>
