<svg id="Layer_1" data-name="Layer 1" xmlns="http://www.w3.org/2000/svg" viewBox="0 0 793.03 429.77">
  <defs>
    <style>
      .cls-1{fill:#f0f0f0}.cls-15,.cls-16,.cls-18,.cls-2,.cls-20{fill:none}.cls-2{stroke:#a0a0a0}.cls-15,.cls-18,.cls-19,.cls-2,.cls-20{stroke-linejoin:round}.cls-3{fill:#a0a0a0}.cls-22{fill:#fff}.cls-16,.cls-22{stroke-miterlimit:10}.cls-5{font-size:8.13px}.cls-13,.cls-5,.cls-7{font-family:IBMPlexSans, IBM Plex Sans}.cls-7{font-size:6.39px}.cls-8{fill:#a11950}.cls-9{fill:#eb4b86}.cls-10{fill:#757575}.cls-11,.cls-19{fill:#0db5b3}.cls-12{fill:#0f6dff}.cls-13{font-size:7px}.cls-15,.cls-16,.cls-18,.cls-19,.cls-20,.cls-22{stroke:#fff}.cls-15,.cls-18,.cls-19{stroke-linecap:round}.cls-15,.cls-16,.cls-20,.cls-22{stroke-width:0.72px}.cls-18,.cls-19{stroke-width:0.75px}
    </style>
  </defs>
  <rect class="cls-1" x="140.87" y="107.8" width="126.13" height="61.56"/>
  <rect class="cls-1" x="355.8" y="108.91" width="126.13" height="69.56"/>
  <rect class="cls-1" x="557.59" y="122.71" width="60" height="91.29"/>
  <rect class="cls-1" x="140.87" y="178.82" width="126.13" height="61.56"/>
  <rect class="cls-1" x="140.87" y="256.87" width="126.13" height="61.56"/>
  <rect class="cls-1" x="140.87" y="328.72" width="126.13" height="61.56"/>
  <path class="cls-2" d="M270,197.3h25.83c7.92,0,14.34-10.83,14.34-24.2V158.21c0-13.37,6.42-24.21,14.34-24.21h22.9"/>
  <polygon class="cls-3" points="346.69 136.49 351 134 346.69 131.51 346.69 136.49"/>
  <path class="cls-2" d="M485,141.3h22c6.75,0,12.22,5.77,12.22,12.89v7.92c0,7.12,5.46,12.89,12.21,12.89h19"/>
  <polygon class="cls-3" points="549.68 177.49 554 175 549.68 172.51 549.68 177.49"/>
  <path class="cls-2" d="M271.51,289.5h21a33,33,0,0,0,29-30q1-51,2-102a13.5,13.5,0,0,1,1-6c2.83-6.74,11.56-10.85,22.41-11.07"/>
  <polygon class="cls-3" points="346.17 142.96 350.5 140.5 346.21 137.97 346.17 142.96"/>
  <path class="cls-2" d="M271.61,365.5c4.57-.29,22.74-1.94,37.57-16a53,53,0,0,0,16.1-31q1.61-70,3.22-140a23.19,23.19,0,0,1,3.22-11,18.61,18.61,0,0,1,6.44-7,19,19,0,0,1,9.26-2.66"/>
  <polygon class="cls-3" points="346.62 160.37 351 158 346.76 155.38 346.62 160.37"/>
  <polyline points="36.05 72.14 756.98 72.14 756.98 36.07 36.05 36.07" style="stroke-miterlimit:10;stroke:#000;stroke-width:0.35px;fill:#fff"/>
  <text class="cls-5" transform="translate(35.47 30.13)">
    IBM Blockchain Platform
  </text>
  <text class="cls-5" transform="translate(425.8 30.13)">
    Legend
  </text>
  <text transform="translate(35.47 60.59)" style="font-size:18.1px;font-family:IBMPlexSans-Bold, IBM Plex Sans;font-weight:700">
    HSM
  </text>
  <text class="cls-7" transform="translate(440.65 48.7)">
    Infrastructure
  </text>
  <circle class="cls-8" cx="508.45" cy="46.77" r="5.35"/>
  <circle class="cls-9" cx="508.45" cy="61.71" r="5.35"/>
  <text class="cls-7" transform="translate(519.72 64.38)">
    HSM
  </text>
  <text class="cls-7" transform="translate(440.69 64.38)">
    HSM Client
  </text>
  <circle class="cls-10" cx="429.42" cy="61.71" r="5.35"/>
  <circle class="cls-11" cx="429.49" cy="46.77" r="5.35"/>
  <text class="cls-7" transform="translate(619.65 48.7)">
    Partition
  </text>
  <circle class="cls-12" cx="608.49" cy="46.77" r="5.35"/>
  <text class="cls-13" transform="translate(519.54 48.88)">
    PKCS #11 Proxy Client
  </text>
  <line x1="414.54" y1="72.14" x2="414.54" y2="36.07" style="stroke-miterlimit:10;stroke:#000;stroke-width:0.35px;fill:none"/>
  <circle class="cls-11" cx="180.21" cy="199.65" r="18"/>
  <line class="cls-15" x1="183.62" y1="205.89" x2="186.93" y2="211.64"/>
  <path class="cls-15" d="M184.14,203.83a5.46,5.46,0,1,0-7.87,0l1.21,1-4,6.82"/>
  <path class="cls-15" d="M184.87,185.79a15,15,0,0,0-13.53,26.36"/>
  <path class="cls-15" d="M189.07,212.15A15,15,0,0,0,187.6,187"/>
  <circle class="cls-16" cx="182.94" cy="204.71" r="1.36"/>
  <circle class="cls-16" cx="187.82" cy="213" r="1.36"/>
  <circle class="cls-16" cx="186.23" cy="186.3" r="1.36"/>
  <path class="cls-16" d="M171.54,212.3a1.79,1.79,0,0,1,.2-.26,1.37,1.37,0,0,1,1.93,0,1.35,1.35,0,0,1,0,1.93,1.36,1.36,0,0,1-2.13-1.67"/>
  <circle class="cls-11" cx="180.21" cy="349.51" r="18"/>
  <line class="cls-15" x1="183.62" y1="355.61" x2="186.93" y2="361.36"/>
  <path class="cls-15" d="M184.14,353.55a5.45,5.45,0,1,0-7.87,0l1.21,1-4,6.81"/>
  <path class="cls-15" d="M184.87,335.51a15,15,0,0,0-13.52,26.36"/>
  <path class="cls-15" d="M189.08,361.87a15,15,0,0,0-1.48-25.16"/>
  <circle class="cls-16" cx="182.94" cy="354.43" r="1.36"/>
  <circle class="cls-16" cx="187.83" cy="362.73" r="1.36"/>
  <circle class="cls-16" cx="186.23" cy="336.02" r="1.36"/>
  <path class="cls-16" d="M171.54,362a1.71,1.71,0,0,1,.21-.26,1.34,1.34,0,1,1-.21.26"/>
  <circle class="cls-11" cx="180.21" cy="277.77" r="18"/>
  <line class="cls-15" x1="183.62" y1="284" x2="186.93" y2="289.75"/>
  <path class="cls-15" d="M184.14,282a5.45,5.45,0,1,0-7.87,0l1.21,1-4,6.81"/>
  <path class="cls-15" d="M184.87,263.9a15,15,0,0,0-13.52,26.37"/>
  <path class="cls-15" d="M189.08,290.27a15,15,0,0,0-1.48-25.16"/>
  <circle class="cls-16" cx="182.94" cy="282.82" r="1.36"/>
  <circle class="cls-16" cx="187.83" cy="291.12" r="1.36"/>
  <circle class="cls-16" cx="186.23" cy="264.41" r="1.36"/>
  <path class="cls-16" d="M171.54,290.41a1.71,1.71,0,0,1,.21-.26,1.34,1.34,0,1,1-.21.26"/>
  <g>
    <line class="cls-2" x1="348.42" y1="126.86" x2="270.08" y2="126.86"/>
    <polygon class="cls-3" points="347.69 124.37 352 126.86 347.69 129.36 347.69 124.37"/>
  </g>
  <circle class="cls-10" cx="449.27" cy="137.92" r="11.33"/>
  <text class="cls-13" transform="translate(431.41 159.07)">
    HSM Client
  </text>
  <text class="cls-13" transform="translate(166.15 160.61)">
    Operator
  </text>
  <path d="M185.23,126.87a4.85,4.85,0,1,1-4.85-4.85,4.85,4.85,0,0,1,4.85,4.85" style="stroke-width:0.75px;stroke-linecap:round;stroke:#fff;stroke-miterlimit:10;fill:none"/>
  <g>
    <circle class="cls-11" cx="180.21" cy="132.42" r="18"/>
    <line class="cls-18" x1="180.09" y1="134.6" x2="180.09" y2="119.08"/>
    <line class="cls-18" x1="184.87" y1="132.21" x2="184.87" y2="119.08"/>
    <line class="cls-18" x1="175.32" y1="132.21" x2="175.32" y2="119.08"/>
    <polyline class="cls-18" points="191.5 133.21 180.13 126.64 168.75 133.21 168.75 138.78 180.13 145.35 191.5 138.78 191.5 133.21"/>
    <polyline class="cls-18" points="168.75 133.21 180.13 139.78 191.5 133.21"/>
    <circle class="cls-19" cx="180.09" cy="134.6" r="1.19"/>
    <circle class="cls-19" cx="175.32" cy="132.21" r="1.19"/>
    <circle class="cls-19" cx="184.87" cy="132.21" r="1.19"/>
  </g>
  <text class="cls-13" transform="translate(571.24 194.48)">
    Partition 1
  </text>
  <circle class="cls-12" cx="587.59" cy="175.35" r="9.35"/>
  <text class="cls-13" transform="translate(222.16 149.51)">
    PKCS #11 <tspan x="-1.96" y="8.4">Proxy Client</tspan>
  </text>
  <circle class="cls-8" cx="239.01" cy="128.54" r="11"/>
  <text class="cls-13" transform="translate(221.41 220.53)">
    PKCS #11 <tspan x="-1.96" y="8.4">Proxy Client</tspan>
  </text>
  <text class="cls-13" transform="translate(149.29 227.53)">
    Hyperledger Fabric<tspan x="22.77" y="8.4">Peer</tspan>
  </text>
  <text class="cls-13" transform="translate(149.29 306.53)">
    Hyperledger Fabric<tspan x="25.6" y="8.4">CA</tspan>
  </text>
  <text class="cls-13" transform="translate(149.29 377.53)">
    Hyperledger Fabric<tspan x="17.81" y="8.4">Orderer</tspan>
  </text>
  <circle class="cls-8" cx="238.26" cy="199.55" r="11"/>
  <text class="cls-13" transform="translate(221.41 298.58)">
    PKCS #11 <tspan x="-1.96" y="8.4">Proxy Client</tspan>
  </text>
  <circle class="cls-8" cx="238.26" cy="277.61" r="11"/>
  <text class="cls-13" transform="translate(221.41 370.42)">
    PKCS #11 <tspan x="-1.96" y="8.4">Proxy Client</tspan>
  </text>
  <circle class="cls-8" cx="238.26" cy="349.45" r="11"/>
  <text class="cls-13" transform="translate(368.58 165.81)">
    PKCS #11 Proxy
  </text>
  <circle class="cls-8" cx="394.31" cy="137.84" r="18"/>
  <g>
    <rect class="cls-20" x="399.3" y="144.3" width="2.87" height="8.53" transform="rotate(-90 400.735 148.565)"/>
    <rect class="cls-20" x="399.3" y="133.74" width="2.87" height="8.53" transform="rotate(-90 400.74 138)"/>
    <rect class="cls-20" x="399.3" y="123.17" width="2.87" height="8.53" transform="rotate(-90 400.735 127.435)"/>
    <line class="cls-20" x1="391.23" y1="138" x2="396.47" y2="138"/>
    <polyline class="cls-20" points="396.47 127.43 386.12 127.43 386.12 132"/>
    <polyline class="cls-20" points="396.47 148.57 386.12 148.57 386.12 144.01"/>
    <rect class="cls-15" x="381" y="132" width="10.23" height="12.01"/>
  </g>
  <text transform="translate(567.2 153.03)" style="font-size:8.05px;font-family:IBMPlexSans-SemiBold, IBM Plex Sans;font-weight:600">
    Cloud HSM
  </text>
  <circle class="cls-9" cx="587.59" cy="121.08" r="20.69"/>
  <g>
    <circle class="cls-22" cx="591.9" cy="111.39" r=".82"/>
    <circle class="cls-22" cx="591.9" cy="131.81" r=".82"/>
    <circle class="cls-22" cx="591.9" cy="121.6" r=".82"/>
    <rect class="cls-15" x="581.94" y="122.11" width="6.81" height="19.41" transform="rotate(-90 585.345 131.805)"/>
    <rect class="cls-15" x="581.95" y="111.9" width="6.8" height="19.41" transform="rotate(-90 585.34 121.6)"/>
    <rect class="cls-15" x="581.94" y="101.69" width="6.8" height="19.41" transform="rotate(-90 585.345 111.395)"/>
    <path class="cls-15" d="M597.28,131.81h2.64a1.12,1.12,0,0,0,1.12-1.12V112.51a1.12,1.12,0,0,0-1.12-1.12h-2.64"/>
    <line class="cls-15" x1="601" y1="121.6" x2="597.32" y2="121.6"/>
  </g>
  <line x1="412.99" y1="139.11" x2="440" y2="139.11" style="stroke-dasharray:0 4 0 4 0 4;stroke-linecap:round;stroke-linejoin:round;stroke:#a0a0a0;fill:none"/>
</svg>
