<svg id="Layer_1" data-name="Layer 1" xmlns="http://www.w3.org/2000/svg" viewBox="0 0 793.03 429.77">
  <defs>
    <style>
      .cls-15,.cls-16,.cls-18,.cls-2,.cls-20{fill:none}.cls-2{stroke:#a0a0a0}.cls-15,.cls-18,.cls-19,.cls-2,.cls-20{stroke-linejoin:round}.cls-3{fill:#a0a0a0}.cls-22{fill:#fff}.cls-16,.cls-22{stroke-miterlimit:10}.cls-5{font-size:8.13px}.cls-13,.cls-5,.cls-7{font-family:IBMPlexSans,IBM Plex Sans}.cls-7{font-size:6.39px}.cls-8{fill:#a11950}.cls-9{fill:#eb4b86}.cls-10{fill:#757575}.cls-11,.cls-19{fill:#0db5b3}.cls-12{fill:#0f6dff}.cls-13{font-size:7px}.cls-15,.cls-16,.cls-18,.cls-19,.cls-20,.cls-22{stroke:#fff}.cls-15,.cls-18,.cls-19{stroke-linecap:round}.cls-15,.cls-16,.cls-20,.cls-22{stroke-width:.72px}.cls-18,.cls-19{stroke-width:.75px}
    </style>
  </defs>
  <path d="M140.87 107.8H267v61.56H140.87zm214.93 1.11h126.13v69.56H355.8zm201.79 13.8h60V214h-60zm-416.72 56.11H267v61.56H140.87zm0 78.05H267v61.56H140.87zm0 71.85H267v61.56H140.87z" fill="#f0f0f0"/>
  <path class="cls-2" d="M270 197.3h25.83c7.92 0 14.34-10.83 14.34-24.2v-14.89c0-13.37 6.42-24.21 14.34-24.21h22.9"/>
  <path class="cls-3" d="M346.69 136.49L351 134l-4.31-2.49v4.98z"/>
  <path class="cls-2" d="M485 141.3h22c6.75 0 12.22 5.77 12.22 12.89v7.92c0 7.12 5.46 12.89 12.21 12.89h19"/>
  <path class="cls-3" d="M549.68 177.49L554 175l-4.32-2.49v4.98z"/>
  <path class="cls-2" d="M271.51 289.5h21a33 33 0 0029-30l2-102a13.5 13.5 0 011-6c2.83-6.74 11.56-10.85 22.41-11.07"/>
  <path class="cls-3" d="M346.17 142.96l4.33-2.46-4.29-2.53-.04 4.99z"/>
  <path class="cls-2" d="M271.61 365.5c4.57-.29 22.74-1.94 37.57-16a53 53 0 0016.1-31l3.22-140a23.19 23.19 0 013.22-11 18.61 18.61 0 016.44-7 19 19 0 019.26-2.66"/>
  <path class="cls-3" d="M346.62 160.37L351 158l-4.24-2.62-.14 4.99z"/>
  <path stroke-miterlimit="10" stroke="#000" stroke-width=".35" fill="#fff" d="M36.05 72.14h720.93V36.07H36.05"/>
  <text class="cls-5" transform="translate(35.47 30.13)">
    IBM Blockchain Platform
  </text>
  <text class="cls-5" transform="translate(425.8 30.13)">
    Legend
  </text>
  <text transform="translate(35.47 60.59)" font-size="18.1" font-family="IBMPlexSans-Bold,IBM Plex Sans" font-weight="700">
    HSM
  </text>
  <text class="cls-7" transform="translate(440.65 48.7)">
    Infrastructure
  </text>
  <circle class="cls-8" cx="508.45" cy="46.77" r="5.35"/>
  <circle class="cls-9" cx="508.45" cy="61.71" r="5.35"/>
  <text class="cls-7" transform="translate(519.72 64.38)">
    HSM
  </text>
  <text class="cls-7" transform="translate(440.69 64.38)">
    HSM Client
  </text>
  <circle class="cls-10" cx="429.42" cy="61.71" r="5.35"/>
  <circle class="cls-11" cx="429.49" cy="46.77" r="5.35"/>
  <text class="cls-7" transform="translate(619.65 48.7)">
    Partition
  </text>
  <circle class="cls-12" cx="608.49" cy="46.77" r="5.35"/>
  <text class="cls-13" transform="translate(519.54 48.88)">
    PKCS #11 Proxy Client
  </text>
  <path stroke-miterlimit="10" stroke="#000" stroke-width=".35" fill="none" d="M414.54 72.14V36.07"/>
  <path d="M153.91 225.21h-2.48v2.22h-.58v-4.89h.58v2.15h2.48v-2.15h.59v4.89h-.59zm4.09-1.4h.55l-1.62 4.46c-.16.43-.31.56-.84.56h-.29v-.49h.57l.27-.77-1.35-3.76h.56l.87 2.46.17.59.2-.59zm1.23 0h.56v.59a1.06 1.06 0 011.06-.67c.9 0 1.47.73 1.47 1.89s-.57 1.89-1.47 1.89a1.09 1.09 0 01-1.06-.67v2h-.56zm2.52 2.12v-.62a1 1 0 00-1-1.08c-.51 0-.93.3-.93.7v1.34c0 .47.42.74.93.74a1 1 0 001-1.08zm1.25-.31c0-1.15.64-1.89 1.62-1.89a1.58 1.58 0 011.56 1.76v.27h-2.6v.17a1 1 0 001.08 1.09 1 1 0 001-.62l.4.28a1.52 1.52 0 01-1.43.83c-.96 0-1.63-.74-1.63-1.89zm.58-.33v.05h2v-.08a1 1 0 00-1-1.06 1 1 0 00-.97 1.09zm3.55 2.14v-3.62h.56v.67a1 1 0 011-.67h.31v.56h-.33c-.6 0-1 .26-1 .6v2.46zm3.17 0a.55.55 0 01-.6-.59v-4.6h.56v4.7h.54v.49zm1.04-1.81a1.67 1.67 0 011.63-1.89 1.58 1.58 0 011.56 1.76v.27h-2.6v.17A1 1 0 00173 227a1 1 0 001-.62l.39.28a1.5 1.5 0 01-1.42.83 1.67 1.67 0 01-1.63-1.87zm.59-.33v.05h2v-.08a1 1 0 00-.95-1.06 1 1 0 00-1.05 1.09zm5.83 1.55a1.08 1.08 0 01-1 .67c-.91 0-1.47-.74-1.47-1.89s.56-1.89 1.47-1.89a1.06 1.06 0 011 .67v-2.16h.56v5.19h-.56zm0-.57v-1.34c0-.4-.42-.7-.93-.7a1 1 0 00-1 1.08v.62a1 1 0 001 1.08c.51-.01.93-.27.93-.74zm3.05 2.64c-1.13 0-1.59-.32-1.59-.89a.67.67 0 01.57-.7v-.08a.52.52 0 01-.32-.5c0-.36.26-.54.62-.63a1.17 1.17 0 01-.68-1.11 1.24 1.24 0 011.36-1.24 1.67 1.67 0 01.69.14v-.07c0-.28.12-.48.42-.48h.54v.49h-.69v.16a1.21 1.21 0 01.41.93 1.24 1.24 0 01-1.36 1.25 1.9 1.9 0 01-.35 0c-.24.06-.48.18-.48.4s.23.28.55.28h.78c.89 0 1.28.36 1.28 1s-.56 1.05-1.75 1.05zm.47-1.52h-1.2a.52.52 0 00-.34.49c0 .32.22.58.79.58h.47c.63 0 1-.2 1-.59s-.16-.48-.72-.48zm.28-2.32v-.19c0-.48-.31-.7-.78-.7s-.78.22-.78.7v.19c0 .48.3.7.78.7s.78-.22.78-.7zm1.38.55c0-1.15.64-1.89 1.62-1.89a1.58 1.58 0 011.57 1.76v.27h-2.6v.17a1.08 1.08 0 002.06.47l.4.28a1.52 1.52 0 01-1.43.83c-.98 0-1.62-.74-1.62-1.89zm.59-.33v.05h2v-.08a1 1 0 00-1-1.06 1 1 0 00-1 1.09zm3.52 2.14v-3.62h.56v.67a1 1 0 011.05-.67h.22v.56h-.33c-.61 0-1 .26-1 .6v2.46zm4.28 0v-4.89h2.91v.52h-2.33v1.63H194v.52h-2.13v2.22zm6.48 0a.59.59 0 01-.62-.59 1 1 0 01-1 .67 1.06 1.06 0 01-1.21-1.09c0-.68.49-1.06 1.54-1.06h.71V225c0-.51-.28-.79-.85-.79a1 1 0 00-.92.54l-.34-.31a1.38 1.38 0 011.29-.71c.86 0 1.38.45 1.38 1.22v2h.41v.49zm-.66-1.05v-.6h-.74c-.64 0-.93.2-.93.55v.14c0 .36.28.56.72.56s.95-.28.95-.65zm1.77-4.14h.56v2.16a1.06 1.06 0 011.06-.67c.9 0 1.47.73 1.47 1.89s-.57 1.89-1.47 1.89a1.09 1.09 0 01-1.06-.67v.59h-.56zm2.51 3.69v-.62a1 1 0 00-1-1.08c-.51 0-.93.3-.93.7v1.34c0 .47.42.74.93.74a1 1 0 001-1.08zm1.57 1.5v-3.62h.56v.67a1 1 0 011-.67h.22v.56h-.33c-.6 0-1 .26-1 .6v2.46zm2.49-4.78v-.09a.34.34 0 01.68 0v.09c0 .19-.1.31-.34.31s-.34-.12-.34-.31zm.06 1.16h.56v3.62h-.56zm1.45 1.81c0-1.16.6-1.89 1.61-1.89a1.36 1.36 0 011.36.85l-.47.23a.89.89 0 00-.89-.59 1 1 0 00-1 1.09v.62a1 1 0 001 1.08 1 1 0 001-.63l.41.28a1.43 1.43 0 01-1.39.85c-1 0-1.63-.74-1.63-1.89zm-33.39 10.21v-4.89h1.95a1.4 1.4 0 010 2.8h-1.36v2.09zm.59-2.61h1.36a.66.66 0 00.74-.7v-.36a.66.66 0 00-.74-.7h-1.36zm3.33.78a1.67 1.67 0 011.63-1.89 1.58 1.58 0 011.56 1.76v.27h-2.6v.17a1 1 0 001.07 1.09 1 1 0 001-.62l.4.28a1.52 1.52 0 01-1.43.83 1.67 1.67 0 01-1.63-1.89zm.59-.33v.05h2v-.08a1 1 0 00-1-1.06 1 1 0 00-1 1.11zm3.26.33c0-1.15.64-1.89 1.62-1.89a1.58 1.58 0 011.56 1.76v.27H182v.17a1 1 0 001.08 1.09 1 1 0 001-.62l.4.28a1.52 1.52 0 01-1.43.83c-1.05.02-1.67-.72-1.67-1.89zm.58-.33v.05h2v-.08a1 1 0 00-1-1.06 1 1 0 00-.96 1.11zm3.53 2.16v-3.62h.51v.67a1 1 0 011-.67h.22v.56H187c-.6 0-1 .26-1 .61v2.45z"/>
  <circle class="cls-11" cx="180.21" cy="199.65" r="18"/>
  <path class="cls-15" d="M183.62 205.89l3.31 5.75m-2.79-7.81a5.46 5.46 0 10-7.87 0l1.21 1-4 6.82m11.39-25.86a15 15 0 00-13.53 26.36m17.73 0A15 15 0 00187.6 187"/>
  <circle class="cls-16" cx="182.94" cy="204.71" r="1.36"/>
  <circle class="cls-16" cx="187.82" cy="213" r="1.36"/>
  <circle class="cls-16" cx="186.23" cy="186.3" r="1.36"/>
  <path class="cls-16" d="M171.54 212.3a1.79 1.79 0 01.2-.26 1.37 1.37 0 011.93 0 1.35 1.35 0 010 1.93 1.36 1.36 0 01-2.13-1.67"/>
  <path d="M153.91 375.15h-2.48v2.22h-.58v-4.89h.58v2.16h2.48v-2.16h.59v4.89h-.59zm4.09-1.4h.55l-1.62 4.46c-.16.43-.31.56-.84.56h-.29v-.49h.57l.28-.77-1.36-3.76h.56l.87 2.46.17.59.19-.59zm1.23 0h.56v.59a1.06 1.06 0 011.06-.67c.9 0 1.47.73 1.47 1.89s-.57 1.89-1.47 1.89a1.09 1.09 0 01-1.06-.67v2h-.56zm2.52 2.12v-.62a1 1 0 00-1-1.08c-.51 0-.93.3-.93.7v1.34c0 .47.42.74.93.74a1 1 0 001-1.08zm1.25-.31c0-1.15.64-1.89 1.62-1.89a1.58 1.58 0 011.56 1.76v.27h-2.59v.17a1 1 0 001.07 1.09 1 1 0 001-.62l.4.28a1.5 1.5 0 01-1.43.83c-.96 0-1.63-.74-1.63-1.89zm.59-.33h2v-.08a1 1 0 00-1-1.06 1 1 0 00-.97 1.14zm3.55 2.14v-3.62h.56v.67a1.05 1.05 0 011-.67h.3v.56h-.33c-.6 0-1 .26-1 .61v2.45zm3.16 0a.55.55 0 01-.59-.58v-4.61h.55v4.7h.54v.49zm1.04-1.81a1.67 1.67 0 011.63-1.89 1.58 1.58 0 011.56 1.76v.27h-2.6v.17A1 1 0 00173 377a1 1 0 001-.62l.4.28a1.51 1.51 0 01-1.43.83 1.67 1.67 0 01-1.63-1.93zm.59-.33h2v-.08a1 1 0 00-1-1.06 1 1 0 00-1 1.14zm5.83 1.55a1.08 1.08 0 01-1 .67c-.91 0-1.47-.73-1.47-1.89s.56-1.89 1.47-1.89a1.06 1.06 0 011 .67v-2.16h.56v5.19h-.56zm0-.57v-1.34c0-.4-.42-.7-.93-.7a1 1 0 00-1 1.08v.62a1 1 0 001 1.08c.51.05.93-.27.93-.74zm3.05 2.64c-1.13 0-1.59-.32-1.59-.89a.67.67 0 01.57-.7v-.07a.53.53 0 01-.32-.51c0-.36.26-.54.62-.63a1.18 1.18 0 01-.68-1.1 1.24 1.24 0 011.36-1.25 1.67 1.67 0 01.69.14v-.06c0-.28.12-.49.42-.49h.54v.49h-.69v.22a1.22 1.22 0 01.41.94 1.23 1.23 0 01-1.36 1.24 1.9 1.9 0 01-.35 0c-.24.06-.48.18-.48.4s.23.28.56.28h.77c.89 0 1.28.36 1.28 1s-.56.99-1.75.99zm.47-1.52h-1.2a.52.52 0 00-.34.49c0 .32.22.58.79.58h.47c.63 0 1-.2 1-.59s-.16-.48-.72-.48zm.28-2.32v-.19c0-.48-.31-.7-.78-.7s-.78.22-.78.7v.18c0 .48.3.7.78.7s.78-.21.78-.7zm1.38.55c0-1.15.64-1.89 1.63-1.89a1.58 1.58 0 011.56 1.76v.27h-2.6v.17a1.08 1.08 0 002.06.47l.4.28a1.49 1.49 0 01-1.42.83c-.99 0-1.63-.74-1.63-1.89zm.59-.33h2v-.08a1 1 0 00-1-1.06 1 1 0 00-1 1.14zm3.52 2.14v-3.62h.56v.67a1 1 0 011-.67h.22v.56h-.33c-.61 0-1 .26-1 .61v2.45zm4.28 0v-4.89h2.91v.52h-2.32v1.64H194v.51h-2.12v2.22zm6.48 0a.58.58 0 01-.62-.59 1 1 0 01-1 .67 1.07 1.07 0 01-1.21-1.09c0-.68.49-1.06 1.54-1.06h.71v-.36c0-.51-.28-.79-.85-.79a1 1 0 00-.92.54l-.34-.31a1.38 1.38 0 011.29-.71c.86 0 1.38.45 1.38 1.22v2h.42v.49zm-.66-1.05v-.6h-.74c-.64 0-.92.2-.92.55v.15c0 .35.28.55.71.55s.95-.28.95-.65zm1.77-4.14h.56v2.16a1.06 1.06 0 011.06-.67c.9 0 1.47.73 1.47 1.89s-.57 1.89-1.47 1.89a1.09 1.09 0 01-1.06-.67v.59h-.56zm2.52 3.69v-.62a1 1 0 00-1-1.08c-.51 0-.93.3-.93.7v1.34c0 .47.42.74.93.74a1 1 0 001-1.08zm1.56 1.5v-3.62h.56v.67a1 1 0 011-.67h.22v.56h-.33c-.6 0-1 .26-1 .61v2.45zm2.49-4.78v-.09a.34.34 0 01.68 0v.09a.34.34 0 01-.68 0zm.06 1.16h.56v3.62h-.56zm1.45 1.81c0-1.16.6-1.89 1.62-1.89a1.35 1.35 0 011.35.85l-.47.23a.87.87 0 00-.88-.58 1 1 0 00-1 1.08v.62a1 1 0 001 1.08 1 1 0 001-.63l.4.28a1.41 1.41 0 01-1.38.85c-1.01 0-1.64-.73-1.64-1.89zm-38.59 7.76c0-1.64.82-2.53 2.08-2.53s2.07.89 2.07 2.53-.81 2.53-2.07 2.53-2.08-.85-2.08-2.53zm3.52.41v-.81a1.45 1.45 0 10-2.89 0v.81a1.45 1.45 0 102.89 0zm1.63 2.04v-3.62h.56v.67a1.06 1.06 0 011-.67h.21v.56H175c-.6 0-1 .26-1 .61v2.45zm4.88-.59a1.09 1.09 0 01-1.06.67c-.9 0-1.47-.73-1.47-1.89s.57-1.89 1.47-1.89a1.06 1.06 0 011.06.67v-2.16h.56v5.19h-.56zm0-.57v-1.34c0-.4-.42-.7-.93-.7a1 1 0 00-1 1.08v.62a1 1 0 001 1.08c.49 0 .93-.27.93-.74zm1.48-.61a1.67 1.67 0 011.63-1.89 1.58 1.58 0 011.56 1.76v.27h-2.6v.17a1 1 0 001.07 1.09 1 1 0 001-.62l.39.29a1.5 1.5 0 01-1.42.82 1.67 1.67 0 01-1.63-1.89zm.59-.33v.05h2v-.08a1 1 0 00-1-1.06 1 1 0 00-1 1.05zm3.49 2.1v-3.62h.56v.67a1.06 1.06 0 011-.67h.22v.56h-.33c-.61 0-1 .26-1 .61v2.45zm2.33-1.77a1.67 1.67 0 011.63-1.89 1.58 1.58 0 011.56 1.76v.27h-2.6v.17a1 1 0 001.07 1.09 1 1 0 001-.62l.4.29a1.51 1.51 0 01-1.43.82 1.67 1.67 0 01-1.63-1.89zm.59-.33v.05h2v-.08a1 1 0 00-1-1.06 1 1 0 00-1 1.05zm3.52 2.1v-3.62h.56v.67a1 1 0 011-.67h.22v.56H192c-.6 0-1 .26-1 .61v2.45z"/>
  <circle class="cls-11" cx="180.21" cy="349.51" r="18"/>
  <path class="cls-15" d="M183.62 355.61l3.31 5.75m-2.79-7.81a5.45 5.45 0 10-7.87 0l1.21 1-4 6.81m11.39-25.85a15 15 0 00-13.52 26.36m17.73 0a15 15 0 00-1.48-25.16"/>
  <circle class="cls-16" cx="182.94" cy="354.43" r="1.36"/>
  <circle class="cls-16" cx="187.83" cy="362.73" r="1.36"/>
  <circle class="cls-16" cx="186.23" cy="336.02" r="1.36"/>
  <path class="cls-16" d="M171.54 362a1.71 1.71 0 01.21-.26 1.34 1.34 0 11-.21.26"/>
  <path d="M153.91 303.21h-2.48v2.21h-.58v-4.88h.58v2.15h2.48v-2.15h.59v4.88h-.59zm4.09-1.4h.55l-1.62 4.46c-.16.43-.31.56-.84.56h-.29v-.5h.57l.28-.77-1.36-3.75h.56l.87 2.46.17.59.19-.59zm1.23 0h.56v.59a1 1 0 011.06-.67c.9 0 1.47.73 1.47 1.89s-.57 1.89-1.47 1.89a1.09 1.09 0 01-1.06-.67v2h-.56zm2.52 2.12v-.62a1 1 0 00-1-1.08c-.51 0-.93.3-.93.69v1.35c0 .47.42.73.93.73a1 1 0 001-1.07zm1.25-.31c0-1.15.64-1.89 1.62-1.89a1.58 1.58 0 011.56 1.76v.27h-2.59v.17a1 1 0 001.07 1.09 1.06 1.06 0 001-.62l.4.28a1.52 1.52 0 01-1.43.83c-.96 0-1.63-.74-1.63-1.89zm.59-.33h2v-.08a1 1 0 00-1-1.06 1 1 0 00-.97 1.14zm3.55 2.13v-3.61h.56v.67a1 1 0 011-.67h.3v.56h-.33c-.6 0-1 .26-1 .6v2.45zm3.16 0a.54.54 0 01-.59-.58v-4.6h.55v4.69h.54v.49zm1.04-1.8a1.67 1.67 0 011.63-1.89 1.58 1.58 0 011.56 1.76v.27h-2.6v.17A1 1 0 00173 305a1.06 1.06 0 001-.62l.4.28a1.53 1.53 0 01-1.43.83 1.67 1.67 0 01-1.63-1.87zm.59-.33h2v-.08a1 1 0 00-1-1.06 1 1 0 00-1 1.14zm5.83 1.55a1.08 1.08 0 01-1 .67c-.91 0-1.47-.74-1.47-1.89s.56-1.89 1.47-1.89a1 1 0 011 .67v-2.16h.56v5.18h-.56zm0-.57v-1.35c0-.39-.42-.69-.93-.69a1 1 0 00-1 1.08v.62a1 1 0 001 1.07c.51 0 .93-.26.93-.73zm3.05 2.64c-1.13 0-1.59-.32-1.59-.89a.67.67 0 01.57-.7v-.08a.53.53 0 01-.32-.5c0-.37.26-.54.62-.63a1.18 1.18 0 01-.68-1.11 1.24 1.24 0 011.36-1.24 1.67 1.67 0 01.69.14v-.07c0-.28.12-.48.42-.48h.54v.49h-.69v.16a1.21 1.21 0 01.41.93 1.23 1.23 0 01-1.36 1.25 1.9 1.9 0 01-.35 0c-.24.06-.48.18-.48.4s.23.27.56.27h.77c.89 0 1.28.37 1.28 1 0 .72-.56 1.06-1.75 1.06zm.47-1.52h-1.2a.52.52 0 00-.34.49c0 .32.22.57.79.57h.47c.63 0 1-.19 1-.58s-.16-.48-.72-.48zm.28-2.32v-.19c0-.48-.31-.71-.78-.71s-.78.23-.78.71v.19c0 .48.3.7.78.7s.78-.22.78-.7zm1.38.55c0-1.15.64-1.89 1.63-1.89a1.58 1.58 0 011.56 1.76v.27h-2.6v.17a1 1 0 001.07 1.07 1 1 0 001-.62l.4.28a1.5 1.5 0 01-1.42.83c-1 .02-1.64-.72-1.64-1.87zm.59-.33h2v-.08a1 1 0 00-1-1.06 1 1 0 00-1 1.14zm3.52 2.13v-3.61h.56v.67a1 1 0 011-.67h.22v.56h-.33c-.61 0-1 .26-1 .6v2.45zm4.28 0v-4.88h2.91v.51h-2.32v1.64H194v.52h-2.12v2.21zm6.48 0a.58.58 0 01-.62-.58 1 1 0 01-1 .67 1.07 1.07 0 01-1.21-1.09c0-.68.49-1.06 1.54-1.06h.71V303c0-.51-.28-.79-.85-.79a1 1 0 00-.92.54l-.34-.32a1.39 1.39 0 011.29-.7c.86 0 1.38.45 1.38 1.22v2h.42v.49zm-.66-1.05v-.59h-.74c-.64 0-.92.19-.92.55v.14c0 .36.28.56.71.56s.95-.28.95-.66zm1.77-4.13h.56v2.16a1 1 0 011.06-.67c.9 0 1.47.73 1.47 1.89s-.57 1.89-1.47 1.89a1.09 1.09 0 01-1.06-.67v.58h-.56zm2.52 3.69v-.62a1 1 0 00-1-1.08c-.51 0-.93.3-.93.69v1.35c0 .47.42.73.93.73a1 1 0 001-1.07zm1.56 1.49v-3.61h.56v.67a1 1 0 011-.67h.22v.56h-.33c-.6 0-1 .26-1 .6v2.45zm2.49-4.77v-.09a.34.34 0 01.68 0v.09c0 .19-.1.31-.34.31s-.34-.12-.34-.31zm.06 1.16h.56v3.61h-.56zm1.45 1.81c0-1.16.6-1.89 1.62-1.89a1.36 1.36 0 011.35.84l-.47.24a.88.88 0 00-.88-.59 1 1 0 00-1 1.09v.62a1 1 0 001 1.08 1 1 0 001-.63l.4.27a1.42 1.42 0 01-1.38.86c-1.01 0-1.64-.74-1.64-1.89zm-30.8 7.79c0-1.63.74-2.56 2-2.56a1.74 1.74 0 011.68 1.07l-.48.29a1.22 1.22 0 00-1.2-.83c-.84 0-1.34.66-1.34 1.66v.73c0 1 .5 1.61 1.34 1.61a1.28 1.28 0 001.25-.88l.46.3a1.79 1.79 0 01-1.71 1.11c-1.26 0-2-.91-2-2.5zm7.65 2.42l-.49-1.45h-2l-.49 1.45h-.6l1.71-4.89h.75l1.71 4.89zm-1.46-4.35l-.82 2.38h1.68z"/>
  <circle class="cls-11" cx="180.21" cy="277.77" r="18"/>
  <path class="cls-15" d="M183.62 284l3.31 5.75m-2.79-7.75a5.45 5.45 0 10-7.87 0l1.21 1-4 6.81m11.39-25.91a15 15 0 00-13.52 26.37m17.73 0a15 15 0 00-1.48-25.16"/>
  <circle class="cls-16" cx="182.94" cy="282.82" r="1.36"/>
  <circle class="cls-16" cx="187.83" cy="291.12" r="1.36"/>
  <circle class="cls-16" cx="186.23" cy="264.41" r="1.36"/>
  <path class="cls-16" d="M171.54 290.41a1.71 1.71 0 01.21-.26 1.34 1.34 0 11-.21.26"/>
  <path class="cls-2" d="M348.42 126.86h-78.34"/>
  <path class="cls-3" d="M347.69 124.37l4.31 2.49-4.31 2.5v-4.99z"/>
  <circle class="cls-10" cx="449.27" cy="137.92" r="11.33"/>
  <text class="cls-13" transform="translate(431.41 159.07)">
    HSM Client
  </text>
  <text class="cls-13" transform="translate(166.15 160.61)">
    Operator
  </text>
  <path d="M185.23 126.87a4.85 4.85 0 11-4.85-4.85 4.85 4.85 0 014.85 4.85" stroke-width=".75" stroke-linecap="round" stroke="#fff" stroke-miterlimit="10" fill="none"/>
  <circle class="cls-11" cx="180.21" cy="132.42" r="18"/>
  <path class="cls-18" d="M180.09 134.6v-15.52m4.78 13.13v-13.13m-9.55 13.13v-13.13m16.18 14.13l-11.37-6.57-11.38 6.57v5.57l11.38 6.57 11.37-6.57v-5.57"/>
  <path class="cls-18" d="M168.75 133.21l11.38 6.57 11.37-6.57"/>
  <circle class="cls-19" cx="180.09" cy="134.6" r="1.19"/>
  <circle class="cls-19" cx="175.32" cy="132.21" r="1.19"/>
  <circle class="cls-19" cx="184.87" cy="132.21" r="1.19"/>
  <text class="cls-13" transform="translate(571.24 194.48)">
    Partition 1
  </text>
  <circle class="cls-12" cx="587.59" cy="175.35" r="9.35"/>
  <text class="cls-13" transform="translate(222.16 149.51)">
    PKCS #11 <tspan x="-1.96" y="8.4">Proxy Client</tspan>
  </text>
  <circle class="cls-8" cx="239.01" cy="128.54" r="11"/>
  <text class="cls-13" transform="translate(221.41 220.53)">
    PKCS #11 <tspan x="-1.96" y="8.4">Proxy Client</tspan>
  </text>
  <circle class="cls-8" cx="238.26" cy="199.55" r="11"/>
  <text class="cls-13" transform="translate(221.41 298.58)">
    PKCS #11 <tspan x="-1.96" y="8.4">Proxy Client</tspan>
  </text>
  <circle class="cls-8" cx="238.26" cy="277.61" r="11"/>
  <text class="cls-13" transform="translate(221.41 370.42)">
    PKCS #11 <tspan x="-1.96" y="8.4">Proxy Client</tspan>
  </text>
  <circle class="cls-8" cx="238.26" cy="349.45" r="11"/>
  <text class="cls-13" transform="translate(368.58 165.81)">
    PKCS #11 Proxy
  </text>
  <circle class="cls-8" cx="394.31" cy="137.84" r="18"/>
  <path class="cls-20" transform="rotate(-90 400.735 148.565)" d="M399.3 144.3h2.87v8.53h-2.87z"/>
  <path class="cls-20" transform="rotate(-90 400.74 138)" d="M399.3 133.74h2.87v8.53h-2.87z"/>
  <path class="cls-20" transform="rotate(-90 400.735 127.435)" d="M399.3 123.17h2.87v8.53h-2.87z"/>
  <path class="cls-20" d="M391.23 138h5.24m0-10.57h-10.35V132m10.35 16.57h-10.35v-4.56"/>
  <path class="cls-15" d="M381 132h10.23v12.01H381z"/>
  <text transform="translate(567.2 153.03)" font-size="8.05" font-family="IBMPlexSans-SemiBold,IBM Plex Sans" font-weight="600">
    Cloud HSM
  </text>
  <circle class="cls-9" cx="587.59" cy="121.08" r="20.69"/>
  <circle class="cls-22" cx="591.9" cy="111.39" r=".82"/>
  <circle class="cls-22" cx="591.9" cy="131.81" r=".82"/>
  <circle class="cls-22" cx="591.9" cy="121.6" r=".82"/>
  <path class="cls-15" transform="rotate(-90 585.345 131.805)" d="M581.94 122.11h6.81v19.41h-6.81z"/>
  <path class="cls-15" transform="rotate(-90 585.34 121.6)" d="M581.95 111.9h6.8v19.41h-6.8z"/>
  <path class="cls-15" transform="rotate(-90 585.345 111.395)" d="M581.94 101.69h6.8v19.41h-6.8z"/>
  <path class="cls-15" d="M597.28 131.81h2.64a1.12 1.12 0 001.12-1.12v-18.18a1.12 1.12 0 00-1.12-1.12h-2.64M601 121.6h-3.68"/>
  <path stroke-dasharray="0 4 0 4 0 4" stroke-linecap="round" stroke-linejoin="round" stroke="#a0a0a0" fill="none" d="M412.99 139.11H440"/>
</svg>
