<svg id="Layer_1" data-name="Layer 1" xmlns="http://www.w3.org/2000/svg" viewBox="0 0 793.03 482.77">
  <defs>
    <style>
      .cls-1{fill:#f0f0f0}.cls-15,.cls-16,.cls-18,.cls-2,.cls-20,.cls-23{fill:none}.cls-2,.cls-23{stroke:#a0a0a0}.cls-15,.cls-18,.cls-19,.cls-2,.cls-20,.cls-23{stroke-linejoin:round}.cls-3{fill:#a0a0a0}.cls-22{fill:#fff}.cls-16,.cls-22{stroke-miterlimit:10}.cls-5{font-size:8.13px}.cls-13,.cls-5,.cls-7{font-family:IBMPlexSans, IBM Plex Sans}.cls-7{font-size:6.39px}.cls-8{fill:#a11950}.cls-9{fill:#eb4b86}.cls-10{fill:#757575}.cls-11,.cls-19{fill:#0db5b3}.cls-12{fill:#0f6dff}.cls-13{font-size:7px}.cls-15,.cls-16,.cls-18,.cls-19,.cls-20,.cls-22{stroke:#fff}.cls-15,.cls-18,.cls-19,.cls-23{stroke-linecap:round}.cls-15,.cls-16,.cls-20,.cls-22{stroke-width:0.72px}.cls-18,.cls-19{stroke-width:0.75px}.cls-23{stroke-dasharray:0 4 0 4 0 4}
    </style>
  </defs>
  <rect class="cls-1" x="151.87" y="96.8" width="126.13" height="61.56"/>
  <rect class="cls-1" x="366.8" y="97.91" width="126.13" height="69.56"/>
  <rect class="cls-1" x="366.8" y="244.13" width="126.13" height="61.56"/>
  <rect class="cls-1" x="151.87" y="393" width="126.13" height="61.56"/>
  <rect class="cls-1" x="366.8" y="345.63" width="126.13" height="61.56"/>
  <rect class="cls-1" x="568.59" y="179.71" width="60" height="166.29"/>
  <rect class="cls-1" x="151.87" y="167.82" width="126.13" height="61.56"/>
  <rect class="cls-1" x="151.87" y="245.87" width="126.13" height="61.56"/>
  <rect class="cls-1" x="151.87" y="318.38" width="126.13" height="61.56"/>
  <path class="cls-2" d="M281,186.3h25.83c7.92,0,14.34-10.83,14.34-24.2V147.21c0-13.37,6.42-24.21,14.34-24.21h22.9"/>
  <polygon class="cls-3" points="357.69 125.49 362 123 357.69 120.51 357.69 125.49"/>
  <path class="cls-2" d="M494,377.3h22.66c6.94,0,12.57-11.18,12.57-25V337c0-13.79,5.63-25,12.57-25h19.64"/>
  <polygon class="cls-3" points="560.68 314.49 565 312 560.68 309.51 560.68 314.49"/>
  <path class="cls-2" d="M282.51,278.5h21a33,33,0,0,0,29-30q1-51,2-102a13.5,13.5,0,0,1,1-6c2.83-6.74,11.56-10.85,22.41-11.07"/>
  <polygon class="cls-3" points="357.17 131.96 361.5 129.5 357.21 126.97 357.17 131.96"/>
  <path class="cls-2" d="M281.51,427.5a54.89,54.89,0,0,0,20.37-2c23.52-7,33.54-27.66,34.63-30a55.71,55.71,0,0,0,5-20q.56-39.5,1.12-79a13.26,13.26,0,0,1,1-6.5c2.3-5.3,8.37-8.78,15.83-9.42"/>
  <polygon class="cls-3" points="358.79 283.17 363 280.5 358.59 278.19 358.79 283.17"/>
  <path class="cls-2" d="M282.61,354.5c4.57-.29,22.74-1.94,37.57-16a53,53,0,0,0,16.1-31q1.61-70,3.22-140a23.19,23.19,0,0,1,3.22-11,18.61,18.61,0,0,1,6.44-7,19,19,0,0,1,9.26-2.66"/>
  <polygon class="cls-3" points="357.62 149.37 362 147 357.76 144.38 357.62 149.37"/>
  <polyline points="36.05 72.14 756.98 72.14 756.98 36.07 36.05 36.07" style="stroke-miterlimit:10;stroke:#000;stroke-width:0.35px;fill:#fff"/>
  <text class="cls-5" transform="translate(35.47 30.13)">
    IBM Blockchain Platform
  </text>
  <text class="cls-5" transform="translate(425.8 30.13)">
    Legend
  </text>
  <text transform="translate(35.47 60.59)" style="font-size:18.1px;font-family:IBMPlexSans-Bold, IBM Plex Sans;font-weight:700">
    HSM
  </text>
  <text class="cls-7" transform="translate(440.65 48.7)">
    Infrastructure
  </text>
  <circle class="cls-8" cx="508.45" cy="46.77" r="5.35"/>
  <circle class="cls-9" cx="508.45" cy="61.71" r="5.35"/>
  <text class="cls-7" transform="translate(519.72 64.38)">
    HSM
  </text>
  <text class="cls-7" transform="translate(440.69 64.38)">
    HSM Client
  </text>
  <circle class="cls-10" cx="429.42" cy="61.71" r="5.35"/>
  <circle class="cls-11" cx="429.49" cy="46.77" r="5.35"/>
  <text class="cls-7" transform="translate(619.65 48.7)">
    Partition
  </text>
  <circle class="cls-12" cx="608.49" cy="46.77" r="5.35"/>
  <text class="cls-13" transform="translate(519.54 48.88)">
    PKCS #11 Proxy Client
  </text>
  <line x1="414.54" y1="72.14" x2="414.54" y2="36.07" style="stroke-miterlimit:10;stroke:#000;stroke-width:0.35px;fill:none"/>
  <circle class="cls-11" cx="190.36" cy="188.65" r="18"/>
  <line class="cls-15" x1="193.76" y1="194.89" x2="197.07" y2="200.64"/>
  <path class="cls-15" d="M194.29,192.83a5.45,5.45,0,1,0-7.88,0l1.22,1-4,6.82"/>
  <path class="cls-15" d="M195,174.79a15,15,0,0,0-13.53,26.36"/>
  <path class="cls-15" d="M199.22,201.15A15,15,0,0,0,197.74,176"/>
  <circle class="cls-16" cx="193.08" cy="193.71" r="1.36"/>
  <circle class="cls-16" cx="197.97" cy="202" r="1.36"/>
  <circle class="cls-16" cx="196.38" cy="175.3" r="1.36"/>
  <path class="cls-16" d="M181.69,201.3a1,1,0,0,1,.2-.26,1.38,1.38,0,1,1-.2.26"/>
  <circle class="cls-11" cx="190.36" cy="415.02" r="18"/>
  <line class="cls-15" x1="193.74" y1="421.25" x2="197.05" y2="427.01"/>
  <path class="cls-15" d="M194.26,419.2a5.41,5.41,0,0,0,1.53-3.78,5.46,5.46,0,1,0-9.4,3.77l1.21,1-4,6.82"/>
  <path class="cls-15" d="M195,401.16a15,15,0,0,0-13.52,26.36"/>
  <path class="cls-15" d="M199.2,427.52a15,15,0,0,0-1.48-25.16"/>
  <circle class="cls-16" cx="193.06" cy="420.08" r="1.36"/>
  <circle class="cls-16" cx="197.95" cy="428.37" r="1.36"/>
  <circle class="cls-16" cx="196.36" cy="401.67" r="1.36"/>
  <path class="cls-16" d="M181.67,427.66a1.16,1.16,0,0,1,.2-.25,1.35,1.35,0,1,1-.2.25"/>
  <circle class="cls-11" cx="190.36" cy="339.17" r="18"/>
  <line class="cls-15" x1="193.76" y1="345.28" x2="197.07" y2="351.03"/>
  <path class="cls-15" d="M194.29,343.22a5.45,5.45,0,1,0-7.88,0l1.22,1-4,6.82"/>
  <path class="cls-15" d="M195,325.18a15,15,0,0,0-13.53,26.36"/>
  <path class="cls-15" d="M199.22,351.54a15,15,0,0,0-1.48-25.16"/>
  <circle class="cls-16" cx="193.08" cy="344.1" r="1.36"/>
  <circle class="cls-16" cx="197.97" cy="352.39" r="1.36"/>
  <circle class="cls-16" cx="196.38" cy="325.69" r="1.36"/>
  <path class="cls-16" d="M181.69,351.68a1.16,1.16,0,0,1,.2-.25,1.35,1.35,0,1,1-.2.25"/>
  <g>
    <circle class="cls-11" cx="190.36" cy="266.77" r="18"/>
    <line class="cls-15" x1="193.76" y1="273" x2="197.07" y2="278.75"/>
    <path class="cls-15" d="M194.29,271a5.46,5.46,0,1,0-9.39-3.79,5.41,5.41,0,0,0,1.51,3.77l1.22,1-4,6.81"/>
    <path class="cls-15" d="M195,252.9a15,15,0,0,0-13.53,26.37"/>
    <path class="cls-15" d="M199.22,279.27a15,15,0,0,0-1.48-25.16"/>
    <circle class="cls-16" cx="193.08" cy="271.82" r="1.36"/>
    <circle class="cls-16" cx="197.97" cy="280.12" r="1.36"/>
    <circle class="cls-16" cx="196.38" cy="253.41" r="1.36"/>
    <path class="cls-16" d="M181.69,279.41a1.21,1.21,0,0,1,.2-.26,1.38,1.38,0,1,1-.2.26"/>
  </g>
  <g>
    <path class="cls-2" d="M494,123.3h22.66c6.94,0,12.57,19,12.57,42.33v26c0,23.38,5.62,42.33,12.57,42.33H561.4"/>
    <polygon class="cls-3" points="560.67 236.49 564.99 234 560.67 231.51 560.67 236.49"/>
  </g>
  <g>
    <line class="cls-2" x1="359.42" y1="115.86" x2="281.08" y2="115.86"/>
    <polygon class="cls-3" points="358.69 113.37 363 115.86 358.69 118.36 358.69 113.37"/>
  </g>
  <g>
    <line class="cls-2" x1="561.41" y1="271.86" x2="495.76" y2="271.86"/>
    <polygon class="cls-3" points="560.68 269.37 565 271.86 560.68 274.36 560.68 269.37"/>
  </g>
  <g>
    <circle class="cls-10" cx="460.27" cy="370.65" r="11.33"/>
    <text class="cls-13" transform="translate(442.41 391.8)">
      HSM Client
    </text>
  </g>
  <g>
    <circle class="cls-10" cx="460.27" cy="270.53" r="11.33"/>
    <text class="cls-13" transform="translate(442.41 291.68)">
      HSM Client
    </text>
  </g>
  <g>
    <circle class="cls-10" cx="460.27" cy="126.92" r="11.33"/>
    <text class="cls-13" transform="translate(442.41 148.07)">
      HSM Client
    </text>
  </g>
  <g>
    <text class="cls-13" transform="translate(176.82 149.61)">
      Operator
    </text>
    <path d="M195.89,115.87A4.85,4.85,0,1,1,191,111a4.85,4.85,0,0,1,4.85,4.85" style="stroke-width:0.75px;stroke-linecap:round;stroke:#fff;stroke-miterlimit:10;fill:none"/>
    <circle class="cls-11" cx="190.87" cy="121.42" r="18"/>
    <line class="cls-18" x1="190.76" y1="123.6" x2="190.76" y2="108.08"/>
    <line class="cls-18" x1="195.53" y1="121.21" x2="195.53" y2="108.08"/>
    <line class="cls-18" x1="185.98" y1="121.21" x2="185.98" y2="108.08"/>
    <polyline class="cls-18" points="202.16 122.21 190.79 115.64 179.41 122.21 179.41 127.78 190.79 134.35 202.16 127.78 202.16 122.21"/>
    <polyline class="cls-18" points="179.41 122.21 190.79 128.78 202.16 122.21"/>
    <circle class="cls-19" cx="190.76" cy="123.6" r="1.19"/>
    <circle class="cls-19" cx="185.98" cy="121.21" r="1.19"/>
    <circle class="cls-19" cx="195.53" cy="121.21" r="1.19"/>
  </g>
  <g>
    <text class="cls-13" transform="translate(582.24 251.48)">
      Partition 1
    </text>
    <circle class="cls-12" cx="598.59" cy="232.35" r="9.35"/>
  </g>
  <g>
    <text class="cls-13" transform="translate(582.32 289.6)">
      Partition 2
    </text>
    <circle class="cls-12" cx="599.31" cy="270.35" r="9.35"/>
  </g>
  <g>
    <text class="cls-13" transform="translate(582.32 326.6)">
      Partition 3
    </text>
    <circle class="cls-12" cx="598.59" cy="307.35" r="9.35"/>
  </g>
  <g>
    <text class="cls-13" transform="translate(233.16 138.51)">
      PKCS #11 <tspan x="-1.96" y="8.4">Proxy Client</tspan>
    </text>
    <circle class="cls-8" cx="250.01" cy="117.54" r="11"/>
  </g>
  <g>
    <text class="cls-13" transform="translate(232.41 209.53)">
      PKCS #11 <tspan x="-1.96" y="8.4">Proxy Client</tspan>
    </text>
    <circle class="cls-8" cx="249.26" cy="188.55" r="11"/>
  </g>
  <g>
    <text class="cls-13" transform="translate(232.41 287.58)">
      PKCS #11 <tspan x="-1.96" y="8.4">Proxy Client</tspan>
    </text>
    <circle class="cls-8" cx="249.26" cy="266.61" r="11"/>
  </g>
  <g>
    <text class="cls-13" transform="translate(232.41 360.09)">
      PKCS #11 <tspan x="-1.96" y="8.4">Proxy Client</tspan>
    </text>
    <circle class="cls-8" cx="249.26" cy="339.12" r="11"/>
  </g>
  <g>
    <text class="cls-13" transform="translate(232.41 435.97)">
      PKCS #11 <tspan x="-1.96" y="8.4">Proxy Client</tspan>
    </text>
    <circle class="cls-8" cx="249.26" cy="415" r="11"/>
  </g>
  <g>
    <text class="cls-13" transform="translate(379.58 154.81)">
      PKCS #11 Proxy
    </text>
    <circle class="cls-8" cx="405.31" cy="126.84" r="18"/>
    <rect class="cls-20" x="410.3" y="133.3" width="2.87" height="8.53" transform="rotate(-90 411.735 137.565)"/>
    <rect class="cls-20" x="410.3" y="122.74" width="2.87" height="8.53" transform="rotate(-90 411.74 127)"/>
    <rect class="cls-20" x="410.3" y="112.17" width="2.87" height="8.53" transform="rotate(-90 411.735 116.435)"/>
    <line class="cls-20" x1="402.23" y1="127" x2="407.47" y2="127"/>
    <polyline class="cls-20" points="407.47 116.43 397.12 116.43 397.12 121"/>
    <polyline class="cls-20" points="407.47 137.57 397.12 137.57 397.12 133.01"/>
    <rect class="cls-15" x="392" y="121" width="10.23" height="12.01"/>
  </g>
  <g>
    <text class="cls-13" transform="translate(379.58 298.43)">
      PKCS #11 Proxy
    </text>
    <circle class="cls-8" cx="405.31" cy="270.45" r="18"/>
    <rect class="cls-20" x="410.3" y="276.91" width="2.87" height="8.53" transform="rotate(-90 411.735 281.175)"/>
    <rect class="cls-20" x="410.3" y="266.35" width="2.87" height="8.53" transform="rotate(-90 411.735 270.615)"/>
    <rect class="cls-20" x="410.3" y="255.78" width="2.87" height="8.53" transform="rotate(-90 411.735 260.045)"/>
    <line class="cls-20" x1="402.23" y1="270.61" x2="407.47" y2="270.61"/>
    <polyline class="cls-20" points="407.47 260.04 397.12 260.04 397.12 264.61"/>
    <polyline class="cls-20" points="407.47 281.18 397.12 281.18 397.12 276.63"/>
    <rect class="cls-15" x="392" y="264.61" width="10.23" height="12.01"/>
  </g>
  <g>
    <text class="cls-13" transform="translate(379.58 398.54)">
      PKCS #11 Proxy
    </text>
    <circle class="cls-8" cx="405.31" cy="370.57" r="18"/>
    <rect class="cls-20" x="410.3" y="377.03" width="2.87" height="8.53" transform="rotate(-90 411.735 381.295)"/>
    <rect class="cls-20" x="410.3" y="366.47" width="2.87" height="8.53" transform="rotate(-90 411.74 370.73)"/>
    <rect class="cls-20" x="410.3" y="355.9" width="2.87" height="8.53" transform="rotate(-90 411.735 360.165)"/>
    <line class="cls-20" x1="402.23" y1="370.73" x2="407.47" y2="370.73"/>
    <polyline class="cls-20" points="407.47 360.16 397.12 360.16 397.12 364.73"/>
    <polyline class="cls-20" points="407.47 381.3 397.12 381.3 397.12 376.74"/>
    <rect class="cls-15" x="392" y="364.73" width="10.23" height="12.01"/>
  </g>
  <g>
    <text transform="translate(578.2 210.03)" style="font-size:8.05px;font-family:IBMPlexSans-SemiBold, IBM Plex Sans;font-weight:600">
      Cloud HSM
    </text>
    <circle class="cls-9" cx="598.59" cy="178.08" r="20.69"/>
    <circle class="cls-22" cx="602.9" cy="168.39" r=".82"/>
    <circle class="cls-22" cx="602.9" cy="188.81" r=".82"/>
    <circle class="cls-22" cx="602.9" cy="178.6" r=".82"/>
    <rect class="cls-15" x="592.94" y="179.11" width="6.81" height="19.41" transform="rotate(-90 596.345 188.805)"/>
    <rect class="cls-15" x="592.95" y="168.9" width="6.8" height="19.41" transform="rotate(-90 596.34 178.6)"/>
    <rect class="cls-15" x="592.94" y="158.69" width="6.8" height="19.41" transform="rotate(-90 596.345 168.395)"/>
    <path class="cls-15" d="M608.28,188.81h2.64a1.12,1.12,0,0,0,1.12-1.12V169.51a1.12,1.12,0,0,0-1.12-1.12h-2.64"/>
    <line class="cls-15" x1="612" y1="178.6" x2="608.32" y2="178.6"/>
  </g>
  <line class="cls-23" x1="423.99" y1="128.11" x2="451" y2="128.11"/>
  <line class="cls-23" x1="423.99" y1="271.11" x2="451" y2="271.11"/>
  <line class="cls-23" x1="423.99" y1="372.11" x2="451" y2="372.11"/>
  <text class="cls-13" transform="translate(160.34 217.53)">
    Hyperledger Fabric<tspan x="22.77" y="8.4">Peer</tspan>
  </text>
  <text class="cls-13" transform="translate(160.34 441.53)">
    Hyperledger Fabric<tspan x="22.77" y="8.4">Peer</tspan>
  </text>
  <text class="cls-13" transform="translate(160.34 296.53)">
    Hyperledger Fabric<tspan x="25.6" y="8.4">CA</tspan>
  </text>
  <text class="cls-13" transform="translate(160.34 367.53)">
    Hyperledger Fabric<tspan x="17.81" y="8.4">Orderer</tspan>
  </text>
</svg>
