<svg xmlns="http://www.w3.org/2000/svg" xmlns:xlink="http://www.w3.org/1999/xlink" width="2387" height="1160" version="1.1" viewBox="0 0 2387 1160"><title>IBP_Deployment_2.0</title><defs><rect id="path-1" width="1542" height="275" x="131" y="648"/><mask id="mask-2" width="1542" height="275" x="0" y="0" fill="#fff" maskContentUnits="userSpaceOnUse" maskUnits="objectBoundingBox"><use xlink:href="#path-1"/></mask></defs><g id="IBP_Deployment_2.0" fill="none" fill-rule="evenodd" stroke="none" stroke-width="1"><rect width="2387" height="1160" x="0" y="0" fill="#FFF"/><g id="Group" opacity=".867" transform="translate(50.000000, 105.000000)"><rect id="Rectangle" width="1124" height="1035" x=".5" y=".5" fill="#011688" stroke="#FFF"/><text id="IBM-Blockchain-Platf" fill="#FFF" font-family="IBMPlexSans-SemiBold, IBM Plex Sans" font-size="37.07" font-weight="500"><tspan x="193.977" y="83">IBM Blockchain Platform</tspan></text><text id="The-service-that-all" fill="#FFF" font-family="IBMPlexSans, IBM Plex Sans" font-size="28.07" font-weight="normal"><tspan x="192" y="128">The service that allows you to deploy and manage your </tspan> <tspan x="192" y="165">Hyperledger Fabric nodes.</tspan></text></g><g id="Group" transform="translate(100.000000, 151.000000)"><circle id="Oval" cx="51" cy="36" r="36" fill="#FFF" stroke="#979797"/><rect id="Rectangle" width="1021" height="109" x=".5" y="186.5" fill="#011688" stroke="#FFFCFC"/></g><g id="Group" fill="#011688" stroke="snow" transform="translate(100.000000, 989.000000)"><rect id="Rectangle" width="1021" height="109" x=".5" y=".5"/></g><g id="Group" fill="#011688" stroke="#FFFBFB" transform="translate(100.000000, 457.000000)"><rect id="Rectangle" width="1021" height="520" x=".5" y=".5"/></g><g id="Group" fill="#FFF" stroke="#979797" transform="translate(131.000000, 559.000000)"><rect id="Rectangle" width="224" height="393" x=".5" y=".5"/></g><g id="Group" fill="#FFF" stroke="#979797" transform="translate(376.000000, 559.000000)"><rect id="Rectangle" width="224" height="393" x=".5" y=".5"/></g><g id="Group" fill="#FFF" stroke="#979797" transform="translate(620.000000, 558.000000)"><rect id="Rectangle" width="224" height="393" x=".5" y=".5"/></g><g id="Group-Copy" fill="#FFF" stroke="#979797" transform="translate(865.000000, 558.000000)"><rect id="Rectangle" width="224" height="393" x=".5" y=".5"/></g><text id="Hyperledger-Fabric-v" fill="#FFF" font-family="Arial-BoldMT, Arial" font-size="37.07" font-weight="bold"><tspan x="292.929" y="520">Hyperledger Fabric v2.x Components</tspan></text><text id="Certificate-Authorit" fill="#000" font-family="Arial-BoldMT, Arial" font-size="25.07" font-weight="bold" line-spacing="32"><tspan x="183.196" y="596">Certificate </tspan> <tspan x="188.796" y="628">Authority</tspan></text><text id="CA" fill="#000" font-family="Arial-BoldMT, Arial" font-size="20.07" font-weight="bold" line-spacing="32"><tspan x="228" y="787">CA</tspan></text><g id="Group-2" transform="translate(432.000000, 669.000000)"><g id="Group" fill="#FFF" stroke="#011688"><rect id="Rectangle" width="112" height="72" x=".5" y=".5"/></g><text id="Peer" fill="#000" font-family="Arial-BoldMT, Arial" font-size="20.07" font-weight="bold" line-spacing="32"><tspan x="33.235" y="37">Peer</tspan></text></g><rect id="Rectangle" width="112" height="72" x="188.5" y="751.5" stroke="#011688"/><g id="Group-3" transform="translate(676.000000, 751.000000)"><rect id="Rectangle" width="112" height="72" x=".5" y=".5" stroke="#011688"/><text id="Orderer" fill="#000" font-family="Arial-BoldMT, Arial" font-size="20.07" font-weight="bold" line-spacing="32"><tspan x="21" y="38">Orderer</tspan></text></g><g id="Group-5" transform="translate(424.000000, 833.000000)"><g id="Group" fill="#FFF" stroke="#011688"><rect id="Rectangle" width="128" height="72" x=".5" y=".5"/></g><text id="chaincode-launcher" fill="#000" font-family="Arial-BoldMT, Arial" font-size="20.07" font-weight="bold" line-spacing="22"><tspan x="15.369" y="33">chaincode</tspan> <tspan x="19.833" y="55">-launcher</tspan></text></g><g id="Group-5-Copy" transform="translate(913.000000, 757.000000)"><g id="Group" fill="#FFF" stroke="#011688"><rect id="Rectangle" width="128" height="72" x=".5" y=".5"/></g><text id="Smart-contract" fill="#000" font-family="Arial-BoldMT, Arial" font-size="20.07" font-weight="bold" line-spacing="22"><tspan x="36.556" y="33">Smart </tspan> <tspan x="25.409" y="55">contract</tspan></text></g><g id="Group-4" transform="translate(432.000000, 751.000000)"><g id="Group" fill="#FFF" stroke="#011688"><rect id="Rectangle" width="112" height="72" x=".5" y=".5"/></g><text id="CouchDB" fill="#000" font-family="Arial-BoldMT, Arial" font-size="20.07" font-weight="bold" line-spacing="32"><tspan x="14" y="37">CouchDB</tspan></text></g><text id="Peer" fill="#000" font-family="Arial-BoldMT, Arial" font-size="25.07" font-weight="bold"><tspan x="461.318" y="617">Peer</tspan></text><text id="Ordering-Service" fill="#000" font-family="Arial-BoldMT, Arial" font-size="25.07" font-weight="bold" line-spacing="31"><tspan x="680.069" y="598">Ordering </tspan> <tspan x="688.393" y="629">Service</tspan></text><text id="Smart-contract(s)" fill="#000" font-family="Arial-BoldMT, Arial" font-size="25.07" font-weight="bold" line-spacing="31"><tspan x="942.47" y="598">Smart </tspan> <tspan x="917.4" y="629">contract(s)</tspan></text><g id="Group" transform="translate(1236.000000, 105.000000)"><rect id="Rectangle" width="1124" height="1035" x=".5" y=".5" fill="#1E1E1F" stroke="#979797" opacity=".704"/><g id="Group-6" transform="translate(481.000000, 236.000000)"><rect id="Rectangle" width="577" height="513" x=".5" y=".5" fill="#FFF" stroke="#FFFBFB"/><rect id="Rectangle" width="577" height="227" x=".5" y="546.5" fill="#C9C5C5" stroke="#FFFBFB"/><g id="Group" fill="#FFF" stroke="#979797" transform="translate(64.000000, 110.000000)"><rect id="Rectangle-2" width="460" height="348" x=".5" y=".5"/></g><text id="Cluster" fill="#2E2E2E" font-family="Arial-BoldMT, Arial" font-size="37.07" font-weight="bold"><tspan x="221.641" y="52">Cluster</tspan></text><text id="Persistent-storage" fill="#000" font-family="Arial-BoldMT, Arial" font-size="37.07" font-weight="bold"><tspan x="124.271" y="602">Persistent storage</tspan></text><text id="(ex:-2-CPU-x-4GB-RAM" fill="#2E2E2E" font-family="Arial-BoldMT, Arial" font-size="21.07" font-weight="bold" opacity=".625"><tspan x="174.508" y="79">(ex: 2 CPU x 4GB RAM)</tspan></text><text id="Separate,-physical-s" fill="#000" font-family="Arial-BoldMT, Arial" font-size="21.07" font-weight="bold" opacity=".826"><tspan x="148.997" y="629">Separate, physical storage</tspan></text><text id="Worker-node" fill="#000" font-family="Arial-BoldMT, Arial" font-size="25.07" font-weight="bold"><tspan x="214.115" y="166">Worker node</tspan></text><g id="Group" fill="#FFF" stroke="#979797" transform="translate(115.000000, 201.000000)"><rect id="Rectangle-2" width="365" height="223" x=".5" y=".5"/></g><g id="Group" fill="#FFF" stroke="#979797" transform="translate(167.000000, 278.000000)"><rect id="Rectangle-2" width="261" height="98" x=".5" y=".5"/></g><text id="Pod" fill="#000" font-family="Arial-BoldMT, Arial" font-size="25.07" font-weight="bold"><tspan x="266.825" y="249">Pod</tspan></text><text id="App-containers" fill="#000" font-family="Arial-BoldMT, Arial" font-size="25.07" font-weight="bold"><tspan x="206.76" y="332">App containers</tspan></text><g id="Group" fill="#FFF" stroke="#979797" transform="translate(105.000000, 662.000000)"><rect id="Rectangle-2" width="365" height="73" x=".5" y=".5"/></g><text id="File-storage-(defaul" fill="#000" font-family="Arial-BoldMT, Arial" font-size="25.07" font-weight="bold"><tspan x="164.725" y="706">File storage (default)</tspan></text></g></g><rect id="Rectangle" width="547" height="274" x="1122.5" y="648.5" fill="#BFEEF6" stroke="#FFFBFB"/><use id="Rectangle" stroke="#0A0909" stroke-dasharray="7" stroke-width="4" mask="url(#mask-2)" xlink:href="#path-1"/><text id="Containers" fill="#000" font-family="Arial-BoldMT, Arial" font-size="25.07" font-weight="bold"><tspan x="1149.028" y="711">Containers</tspan></text><text id="Blockchain-Service" fill="#000" font-family="Arial-BoldMT, Arial" font-size="37.07" font-weight="bold"><tspan x="48.508" y="77">Blockchain Service</tspan></text><text id="IBM-Blockchain-Conso" fill="#FFF" font-family="Arial-BoldMT, Arial" font-size="37.07" font-weight="bold"><tspan x="378.696" y="408">IBM Blockchain Console (UI)</tspan></text><text id="IBP-VS-Code-extensio" fill="#FFF" font-family="Arial-BoldMT, Arial" font-size="37.07" font-weight="bold"><tspan x="220.826" y="1057">IBP VS Code extension (Development Tools)</tspan></text><text id="Infrastructure-resou" fill="#000" font-family="Arial-BoldMT, Arial" font-size="37.07" font-weight="bold"><tspan x="1247.234" y="77">Infrastructure resources</tspan></text><text id="IBM-Cloud-Kubernetes" fill="#FFF" font-family="Arial-BoldMT, Arial" font-size="37.07" font-weight="bold"><tspan x="1393.647" y="177">IBM Cloud Kubernetes Service</tspan></text><text id="Your-compute-and-mem" fill="#FFF" font-family="ArialMT, Arial" font-size="28.07" font-weight="normal"><tspan x="1402" y="222">Your compute and memory that you allocate to your</tspan> <tspan x="1402" y="253">blockchain instance.</tspan></text><g id="container-service-logo-3aec89a836" fill-rule="nonzero" transform="translate(1297.000000, 151.000000)"><path id="Path" fill="#000" d="M0,20 C0,20.8749039 0.488889414,21.7501334 1.46567591,22.4139659 L24.445463,38.0296642 C26.3996976,39.3576549 29.597987,39.3579806 31.5525523,38.0296642 L54.5339933,22.416246 C55.5114414,21.7524135 56,20.8768582 56,20.0016286 L56,46.9760936 C56,47.8513231 55.5114414,48.7265527 54.5339933,49.3907109 L31.5525523,65.0041291 C29.597987,66.3321198 26.3996976,66.3317941 24.445463,65.0041291 L1.46567591,49.3881051 C0.488558636,48.7242726 0,47.849043 0,46.9734877 L0,20 Z"/><path id="Path" fill="#0F6FFF" d="M0,19.1721786 C0,20.0533282 0.488886526,20.9348058 1.46566725,21.6033772 L17.7626566,32.7558566 L24.4476341,28.1818179 C26.4021878,26.844347 29.6004584,26.8446751 31.5546814,28.1818179 L38.2376742,32.7565127 L54.534002,21.6060016 C55.5114442,20.9371021 56,20.0556245 56,19.174147 L56,19.161681 C56,18.2798753 55.5114442,17.3983977 54.5343327,16.7298263 L31.5560045,1.00265206 C29.6004584,-0.334162673 26.4025186,-0.334162673 24.4479648,1.00232401 L1.46665958,16.7272019 C0.489217302,17.3957733 0,18.2775789 0,19.1587285 L0,46 L0,19.1721786 Z"/></g><path id="Line" fill="#0CCAEB" fill-rule="nonzero" d="M1907.5,584.5 L1936.5,599 L1907.5,613.5 L1907.5,601.5 L1119.5,601.5 L1119.5,596.5 L1907.5,596.5 L1907.5,584.5 Z"/><path id="Line" fill="#0CCAEB" fill-rule="nonzero" d="M1907.5,584.5 L1936.5,599 L1907.5,613.5 L1907.5,601.5 L1119.5,601.5 L1119.5,596.5 L1907.5,596.5 L1907.5,584.5 Z"/><path id="Line" fill="#0CCAEB" fill-rule="nonzero" d="M1608.65348,804.966914 L1610.4858,806.667683 L1843.312,1022.778 L1851.47605,1013.9838 L1862.86646,1044.34015 L1831.74713,1035.23867 L1839.91,1026.443 L1607.08426,810.332317 L1605.25194,808.631548 L1608.65348,804.966914 Z"/><path id="Line" fill="#0CCAEB" fill-rule="nonzero" d="M1904.21736,681.483791 L1936.46787,684.82365 L1914.44568,708.620142 L1910.213,697.391 L1611.88175,809.839341 L1609.54241,810.721092 L1607.77891,806.042411 L1610.11825,805.160659 L1908.449,692.712 L1904.21736,681.483791 Z"/><circle id="Oval" cx="137" cy="565" r="19" fill="#0CCAEB" stroke="#979797"/><text id="1" fill="#000" font-family="ArialMT, Arial" font-size="21.07" font-weight="normal" line-spacing="32"><tspan x="131" y="567">1</tspan></text><circle id="Oval" cx="1709" cy="597" r="19" fill="#0CCAEB" stroke="#979797"/><text id="1" fill="#000" font-family="ArialMT, Arial" font-size="21.07" font-weight="normal" line-spacing="32"><tspan x="1703" y="599">1</tspan></text><circle id="Oval" cx="1709" cy="597" r="19" fill="#0CCAEB" stroke="#979797"/><circle id="Oval-Copy-2" cx="1660" cy="597" r="19" fill="#0CCAEB" stroke="#979797"/><text id="2" fill="#000" font-family="ArialMT, Arial" font-size="21.07" font-weight="normal" line-spacing="32"><tspan x="1703" y="599">2</tspan></text><text id="1-copy" fill="#000" font-family="ArialMT, Arial" font-size="21.07" font-weight="normal" line-spacing="32"><tspan x="1654" y="599">1</tspan></text><circle id="Oval" cx="1758" cy="597" r="19" fill="#0CCAEB" stroke="#979797"/><text id="3" fill="#000" font-family="ArialMT, Arial" font-size="21.07" font-weight="normal" line-spacing="32"><tspan x="1752" y="599">3</tspan></text><circle id="Oval" cx="1807" cy="597" r="19" fill="#0CCAEB" stroke="#979797"/><text id="4" fill="#000" font-family="ArialMT, Arial" font-size="21.07" font-weight="normal" line-spacing="32"><tspan x="1801" y="599">4</tspan></text><circle id="Oval" cx="381" cy="564" r="19" fill="#0CCAEB" stroke="#979797"/><text id="2" fill="#000" font-family="ArialMT, Arial" font-size="21.07" font-weight="normal" line-spacing="32"><tspan x="375" y="566">2</tspan></text><circle id="Oval" cx="626" cy="563" r="19" fill="#0CCAEB" stroke="#979797"/><circle id="Oval-Copy" cx="871" cy="563" r="19" fill="#0CCAEB" stroke="#979797"/><text id="3" fill="#000" font-family="ArialMT, Arial" font-size="21.07" font-weight="normal" line-spacing="32"><tspan x="620" y="565">3</tspan></text><text id="4" fill="#000" font-family="ArialMT, Arial" font-size="21.07" font-weight="normal" line-spacing="32"><tspan x="865" y="565">4</tspan></text><g id="IBP_2_0_Service_Tile_Icon" fill="#13171A" fill-rule="nonzero" transform="translate(111.000000, 150.000000)"><path id="Shape" d="M41.5,0 C18.5801829,0 0,18.5801829 0,41.5 C0,64.4198171 18.5801829,83 41.5,83 C64.4198171,83 83,64.4198171 83,41.5 C83,30.4935157 78.6276911,19.9378283 70.8449314,12.1550686 C63.0621717,4.37230888 52.5064843,0 41.5,0 Z M23.34375,57.0625 L18.15625,57.0625 L18.15625,25.9375 L23.34375,25.9375 L23.34375,57.0625 Z M57.0625,64.84375 L25.9375,64.84375 L25.9375,59.65625 L57.0625,59.65625 L57.0625,64.84375 Z M57.0625,23.34375 L25.9375,23.34375 L25.9375,18.15625 L57.0625,18.15625 L57.0625,23.34375 Z M64.84375,57.0625 L59.65625,57.0625 L59.65625,25.9375 L64.84375,25.9375 L64.84375,57.0625 Z"/></g><text id="Each-component-consi" fill="#000" font-family="ArialMT, Arial" font-size="20.07" font-weight="normal" line-spacing="32"><tspan x="1151" y="743">Each component consists of containers that are </tspan> <tspan x="1151" y="775">deployed within the kubernetes Pod and are</tspan> <tspan x="1151" y="807">visible within the kubernetes dashboard.</tspan></text><text id="*-Diagram-does-not-i" fill="#000" font-family="ArialMT, Arial" font-size="15.07" font-weight="normal" line-spacing="20"><tspan x="1152" y="865">* Diagram does not include containers for deployment, components</tspan> <tspan x="1152" y="885"> used to communicate with the console or collect logs.</tspan></text><rect id="Rectangle" width="391" height="156" x="1279.5" y="415.5" fill="#BFEEF6" stroke="#FFFBFB"/><text id="Pod" fill="#000" font-family="Arial-BoldMT, Arial" font-size="25.07" font-weight="bold"><tspan x="1305.825" y="462">Pod</tspan></text><rect id="Rectangle" width="162" height="48" x="1613.006" y="724.641" fill="#0CCAEB" transform="translate(1694.005872, 748.641444) rotate(-21.000000) translate(-1694.005872, -748.641444)"/><text id="CPU-&amp;-Memory" fill="#000" font-family="Arial-BoldMT, Arial" font-size="18.07" font-weight="bold" transform="translate(1693.421975, 749.491019) rotate(-21.000000) translate(-1693.421975, -749.491019)"><tspan x="1628.156" y="755.491">CPU &amp; Memory</tspan></text><rect id="Rectangle" width="127" height="43" x="1615.604" y="880.531" fill="#0CCAEB" transform="translate(1679.103925, 902.031000) rotate(43.000000) translate(-1679.103925, -902.031000)"/><text id="Storage" fill="#000" font-family="Arial-BoldMT, Arial" font-size="18.07" font-weight="bold" transform="translate(1678.010363, 903.311280) rotate(42.000000) translate(-1678.010363, -903.311280)"><tspan x="1644.372" y="909.311">Storage</tspan></text><text id="Each-Fabric-componen" fill="#000" font-family="ArialMT, Arial" font-size="20.07" font-weight="normal" line-spacing="32"><tspan x="1307" y="489">Each Fabric component is deployed</tspan> <tspan x="1307" y="521">into an individual pod.</tspan></text></g></svg>