<?xml version="1.0" encoding="utf-8"?>
<!-- Generator: Adobe Illustrator 24.1.3, SVG Export Plug-In . SVG Version: 6.00 Build 0)  -->
<svg version="1.1" id="Layer_1" xmlns="http://www.w3.org/2000/svg" xmlns:xlink="http://www.w3.org/1999/xlink" x="0px" y="0px"
	 viewBox="0 0 700 220" style="enable-background:new 0 0 700 220;" xml:space="preserve">
<style type="text/css">
	.st0{fill-rule:evenodd;clip-rule:evenodd;fill:#F3F3F3;stroke:#DCDCDC;}
	.st1{fill-rule:evenodd;clip-rule:evenodd;fill:#EDF4FF;stroke:#0062FF;}
	.st2{fill-rule:evenodd;clip-rule:evenodd;fill:#FFFFFF;stroke:#DCDCDC;}
	.st3{fill:#161616;}
	.st4{font-family:'IBMPlexSans';}
	.st5{font-size:12px;}
	.st6{fill-rule:evenodd;clip-rule:evenodd;fill:#FFFFFF;stroke:#0062FF;}
	.st7{font-family:'IBMPlexSans-Medium';}
	.st8{fill:#3D3D3D;}
	.st9{fill:#373D42;}
	.st10{fill:#252525;}
	.st11{font-size:15.84px;}
	.st12{font-family:'IBMPlexSans-Bold';}
</style>
<g id="Smart_Contract_Flow_1">
	<rect id="Rectangle-Copy" x="14.5" y="51.5" class="st0" width="539" height="151"/>
	<rect id="Rectangle-Copy-7" x="566.5" y="51.5" class="st1" width="124" height="151"/>
	<rect id="Rectangle-Copy-2" x="26.5" y="64.5" class="st2" width="115" height="49"/>
	<rect id="Rectangle-Copy-3" x="156.5" y="64.5" class="st2" width="125" height="65"/>
	<rect id="Rectangle-Copy-4" x="296.5" y="64.5" class="st2" width="115" height="49"/>
	<g id="Group" transform="translate(297.000000, 129.000000)">
		<rect id="Rectangle-Copy-6" x="-0.5" y="-0.5" class="st2" width="115" height="49"/>
		<text transform="matrix(1 0 0 1 9.868 20)" class="st3 st4 st5">Deploy locally to </text>
		<text transform="matrix(1 0 0 1 20.892 36)" class="st3 st4 st5">test &amp; debug</text>
	</g>
	<rect id="Rectangle-Copy-5" x="426.5" y="64.5" class="st2" width="115" height="49"/>
	<rect id="Rectangle-Copy-8" x="585.5" y="64.5" class="st6" width="87" height="49"/>
	<text transform="matrix(1 0 0 1 42.256 85)" class="st3 st4 st5">Create a smart </text>
	<text transform="matrix(1 0 0 1 38.732 101)" class="st3 st4 st5">contract project</text>
	<text transform="matrix(1 0 0 1 170.72 85)" class="st3 st4 st5">Develop contract </text>
	<text transform="matrix(1 0 0 1 168.532 101)" class="st3 st4 st5">code in developer </text>
	<text transform="matrix(1 0 0 1 204.844 117)" class="st3 st4 st5">tools</text>
	<text transform="matrix(1 0 0 1 319.456 85)" class="st3 st4 st5">Package the </text>
	<text transform="matrix(1 0 0 1 312.286 101)" class="st3 st4 st5">smart contract</text>
	<text transform="matrix(1 0 0 1 454.464 85)" class="st3 st4 st5">Export the </text>
	<text transform="matrix(1 0 0 1 460.416 101)" class="st3 st4 st5">package</text>
	<text transform="matrix(1 0 0 1 601.946 85)" class="st3 st4 st5">Deploy to</text>
	<text transform="matrix(1 0 0 1 656.0534 85)" class="st3 st4 st5"> </text>
	<text transform="matrix(1 0 0 1 599.348 101)" class="st3 st4 st5">IBM Cloud</text>
	<text transform="matrix(1 0 0 1 23 193)" class="st3 st7 st5">Developer tools</text>
	<text transform="matrix(1 0 0 1 575 193)" class="st3 st7 st5">IBM Cloud</text>
	<path id="Line" class="st8" d="M147,84l9,4.5l-9,4.5v-4h-6v-1h6V84z"/>
	<path id="Line-Copy" class="st8" d="M287.5,84l9,4.5l-9,4.5v-4h-6v-1h6V84z"/>
	<path id="Line-Copy-2" class="st8" d="M418,84l9,4.5l-9,4.5v-4h-6v-1h6V84z"/>
	<path id="Line-Copy-5" class="st8" d="M576,84l9,4.5l-9,4.5v-4h-35.5v-1H576V84z"/>
	<path id="Line-2" class="st9" d="M355,114v6h4l-4.5,9l-4.5-9h4v-6H355z"/>
	<path id="Line-3" class="st10" d="M213.4,130l4.5,9h-4v49H354v-10h1v11H212.9v-50h-4L213.4,130z"/>
	<text transform="matrix(1 0 0 1 14.6709 33.7034)"><tspan x="0" y="0" class="st4 st11">Typical </tspan><tspan x="54.6" y="0" class="st12 st11">smart contract</tspan><tspan x="164.2" y="0" class="st4 st11">development workflow with IBM Blockchain Platform</tspan></text>
</g>
</svg>
