<svg xmlns="http://www.w3.org/2000/svg" xmlns:xlink="http://www.w3.org/1999/xlink" id="Smart_Contracts" x="0" y="0" version="1.1" viewBox="0 0 831 210.6" xml:space="preserve" style="enable-background:new 0 0 831 210.6"><style type="text/css">.st0{fill:#dcdcdc;stroke:#dcdcdc}.st1{fill:#011688}.st2{fill:#fff;stroke:#857b7b}.st3{fill:#010f5e}.st4{font-family:&apos;IBMPlexSans&apos;}.st5{font-size:12px}.st6{enable-background:new}.st7{fill:#fff}.st8{fill:none;stroke:#857b7b}.st9{fill:#857b7b}.st10{font-family:&apos;IBMPlexSans-Bold&apos;}.st11{font-size:15px}.st12{font-family:&apos;IBMPlexSans-SemiBold&apos;}</style><path id="Rectangle" d="M0.5,32.6H649v177.5H0.5V32.6z" class="st0"/><path id="Rectangle-2" d="M660.3,32.6H831v177.5H660.3V32.6z" class="st1"/><path id="Rectangle-3" d="M17.9,55.3h135v55h-135L17.9,55.3z" class="st2"/><g><text class="st3 st4 st5" transform="matrix(1 0 0 1 44.49 78.87)">Create a smart</text><text class="st3 st4 st5" transform="matrix(1 0 0 1 42.64 93.27)">contract project</text></g><path id="Rectangle-4" d="M178.8,55.3h135v55h-135L178.8,55.3z" class="st2"/><g><text class="st3 st4 st5" transform="matrix(1 0 0 1 199.01 78.87)">Develop contract</text><text class="st6" transform="matrix(1 0 0 1 199.1106 93.27)"><tspan x="0" y="0" class="st3 st4 st5">code in developer</tspan><tspan x="34.5" y="14.4" class="st3 st4 st5">tools</tspan></text></g><path id="Rectangle-5" d="M338,55.3h135v55H338V55.3z" class="st2"/><g><text class="st3 st4 st5" transform="matrix(1 0 0 1 371.18 78.87)">Package the</text><text class="st3 st4 st5" transform="matrix(1 0 0 1 366 93.27)">smart contract</text></g><path id="Rectangle-6" d="M336.5,134.3h135v55h-135V134.3z" class="st2"/><g><text class="st3 st4 st5" transform="matrix(1 0 0 1 358.03 158.49)">Deploy locally to</text><text class="st3 st4 st5" transform="matrix(1 0 0 1 363.82 172.89)">test and debug</text></g><path id="Rectangle-7" d="M497.9,55.3h135v55h-135V55.3z" class="st2"/><g><text class="st3 st4 st5" transform="matrix(1 0 0 1 537.47 78.87)">Export the</text><text class="st3 st4 st5" transform="matrix(1 0 0 1 542.85 93.27)">package</text></g><path id="Rectangle-8" d="M678.9,55.3h135v55h-135V55.3z" class="st7"/><g><text class="st3 st4 st5" transform="matrix(1 0 0 1 720.78 78.87)">Deploy to</text><text class="st3 st4 st5" transform="matrix(1 0 0 1 718.2401 93.27)">IBM Cloud</text></g><path d="M153.7,82.8h16.8" class="st8"/><path d="M169,87.8l8.6-5l-8.6-5V87.8z" class="st9"/><path d="M312.7,82.8h16.8" class="st8"/><path d="M328,87.8l8.6-5l-8.6-5V87.8z" class="st9"/><path d="M245.2,161.8v-44.3" class="st8"/><path d="M250.2,118.9l-5-8.6l-5,8.6H250.2z" class="st9"/><path d="M471.4,82.8h16.8" class="st8"/><path d="M486.8,87.8l8.6-5l-8.6-5V87.8z" class="st9"/><path d="M630.7,82.8h40.8" class="st8"/><path d="M670,87.8l8.6-5l-8.6-5V87.8z" class="st9"/><path d="M245.2,161.8h91.5 M404.2,134.3v-24" class="st8"/><text class="st9 st10 st5" transform="matrix(1 0 0 1 17.79 194.43)">Developer Tools</text><text class="st7 st4 st5" transform="matrix(1 0 0 1 677.59 196.62)">Service on IBM Cloud</text><text class="st1 st4 st11" transform="matrix(1 0 0 1 0.5 12.74)">Typical</text><text class="st1 st12 st11" transform="matrix(1 0 0 1 52.19 12.74)">smart contract</text><text class="st1 st4 st11" transform="matrix(1 0 0 1 154.58 12.74)">development workflow with IBM Blockchain Platform</text></svg>