<?xml version="1.0" encoding="UTF-8" standalone="no"?>
<svg
   xmlns:dc="http://purl.org/dc/elements/1.1/"
   xmlns:cc="http://creativecommons.org/ns#"
   xmlns:rdf="http://www.w3.org/1999/02/22-rdf-syntax-ns#"
   xmlns:svg="http://www.w3.org/2000/svg"
   xmlns="http://www.w3.org/2000/svg"
   xmlns:sodipodi="http://sodipodi.sourceforge.net/DTD/sodipodi-0.dtd"
   xmlns:inkscape="http://www.inkscape.org/namespaces/inkscape"
   width="2805px"
   height="1295px"
   viewBox="0 0 2805 1295"
   version="1.1"
   id="svg2"
   inkscape:version="0.91 r13725"
   sodipodi:docname="HA_Diagram-1.svg">
  <metadata
     id="metadata284">
    <rdf:RDF>
      <cc:Work
         rdf:about="">
        <dc:format>image/svg+xml</dc:format>
        <dc:type
           rdf:resource="http://purl.org/dc/dcmitype/StillImage" />
      </cc:Work>
    </rdf:RDF>
  </metadata>
  <defs
     id="defs282" />
  <sodipodi:namedview
     pagecolor="#ffffff"
     bordercolor="#666666"
     borderopacity="1"
     objecttolerance="10"
     gridtolerance="10"
     guidetolerance="10"
     inkscape:pageopacity="0"
     inkscape:pageshadow="2"
     inkscape:window-width="1920"
     inkscape:window-height="1017"
     id="namedview280"
     showgrid="false"
     inkscape:zoom="1.378615"
     inkscape:cx="1379.9268"
     inkscape:cy="566.16614"
     inkscape:window-x="-8"
     inkscape:window-y="-8"
     inkscape:window-maximized="1"
     inkscape:current-layer="svg2" />
  <!-- Generator: Sketch 54.1 (76490) - https://sketchapp.com -->
  <title
     id="title4">IBP_Deployment 2 Copy</title>
  <desc
     id="desc6">Created with Sketch.</desc>
  <g
     id="IBP_Deployment-2-Copy"
     stroke-width="1"
     stroke="none"
     fill-rule="evenodd"
     fill="none">
    <rect
       x="0"
       y="0"
       width="2805"
       height="1295"
       id="rect9"
       fill="#FFFFFF" />
    <text
       id="IBM-Blockchain-Platf"
       font-size="37.07"
       font-weight="500"
       font-family="IBMPlexSans-SemiBold, IBM Plex Sans"
       fill="#FFFFFF">
      <tspan
         x="887.89699"
         y="409"
         id="tspan12">IBM Blockchain Platform 콘솔(UI)</tspan>
    </text>
    <text
       id="text14"
       font-size="37.07"
       font-weight="500"
       font-family="IBMPlexSans-SemiBold, IBM Plex Sans"
       fill="#FFFFFF">
      <tspan
         x="787.3421"
         y="866"
         id="tspan16">IBM Blockchain Platform Extension for VS Code  </tspan>
    </text>
    <g
       id="Group-5-Copy"
       transform="translate(862.000000, 9.000000)">
      <polygon
         id="XMLID_12_"
         points="0 1178.2139 1047.49618 1178.2139 1047.49618 1145 1081 1211.4278 1047.49618 1278 1047.49618 1244.7861 0 1244.7861"
         stroke-width="1.5"
         stroke="#5B6872"
         fill="#F2F5F7" />
      <text
         id="Increasing-Blockchai"
         font-size="20"
         font-weight="normal"
         x="128"
         style="font-weight:normal;font-size:20px;font-family:Helvetica;fill:#000000">
        <tspan
           x="408"
           y="1214"
           id="tspan21">Blockchain <tspan
   style="font-style:normal;font-variant:normal;font-weight:normal;font-stretch:normal;font-family:Gulim;-inkscape-font-specification:Gulim"
   id="tspan4412">고가용성 증가</tspan>
</tspan>
      </text>
      <path
         d="M458.698708,1139 L17.1583058,1139 C7.72123761,1139 0,1131.91245 0,1123.24989 L0,217.750105 C0,209.087547 7.72123761,202 17.1583058,202 L458.841694,202 C468.278762,202 476,209.087547 476,217.750105 L476,1123.24989 C475.857014,1131.91245 468.135777,1139 458.698708,1139 Z"
         id="XMLID_306_"
         stroke="#2D3F49"
         fill="#2D3F49" />
      <path
         d="M435.817089,1112 L41.1829105,1112 C31.7323097,1112 24,1104.96417 24,1096.36482 L24,287.635179 C24,279.035831 31.7323097,272 41.1829105,272 L435.817089,272 C445.26769,272 453,279.035831 453,287.635179 L453,1096.36482 C453,1104.96417 445.26769,1112 435.817089,1112 Z"
         id="XMLID_305_"
         fill="#FFFFFF" />
      <path
         d="M413.714286,1083 L61.1428571,1083 C51.7142857,1083 44,1075.64784 44,1066.66187 L44,313.338126 C44,304.352157 51.7142857,297 61.1428571,297 L413.857143,297 C423.285714,297 431,304.352157 431,313.338126 L431,1066.66187 C430.857143,1075.64784 423.142857,1083 413.714286,1083 Z"
         id="XMLID_304_"
         stroke-dasharray="8"
         stroke-width="2"
         stroke="#00B39F" />
      <path
         d="M384.864583,1049 L90.1354167,1049 C80.7109375,1049 73,1041.25351 73,1031.78559 L73,413.214411 C73,403.746485 80.7109375,396 90.1354167,396 L384.864583,396 C394.289063,396 402,403.746485 402,413.214411 L402,1031.64214 C402,1041.25351 394.289063,1049 384.864583,1049 Z"
         id="XMLID_303_"
         stroke="#6182BB"
         fill="#FFFFFF" />
      <path
         d="M369.80543,1026 L119.19457,1026 C109.737557,1026 102,1018.27156 102,1008.82569 L102,497.174312 C102,487.72844 109.737557,480 119.19457,480 L369.80543,480 C379.262443,480 387,487.72844 387,497.174312 L387,1008.82569 C387,1018.27156 379.262443,1026 369.80543,1026 Z"
         id="XMLID_302_"
         fill="#4278BD" />
      <g
         id="XMLID_298_"
         transform="translate(72.000000, 413.000000)">
        <rect
           id="XMLID_39_"
           x="0.428571429"
           y="9.44092742"
           width="329.142857"
           height="33.3293347" />
        <text
           id="Worker-Pool"
           font-size="24.0721"
           font-weight="normal"
           x="38"
           style="font-weight:normal;font-size:24.07209969px;font-family:Helvetica;fill:#000000">
          <tspan
             x="108.53986"
             y="24.631969"
             id="tspan31"
             style="font-style:normal;font-variant:normal;font-weight:normal;font-stretch:normal;font-family:Gulim;-inkscape-font-specification:Gulim">작업자 풀</tspan>
        </text>
      </g>
      <g
         id="XMLID_292_"
         transform="translate(85.000000, 212.000000)">
        <rect
           id="XMLID_38_"
           x="0.284651163"
           y="10.5714286"
           width="305.430698"
           height="48.5714286" />
        <text
           id="Region-1"
           font-size="24.0721"
           font-weight="normal"
           x="20"
           style="font-weight:normal;font-size:24.07209969px;font-family:Helvetica;fill:#ffffff">
          <tspan
             x="106.8186"
             y="24"
             id="tspan36"
             style="font-style:normal;font-variant:normal;font-weight:normal;font-stretch:normal;font-family:Gulim;-inkscape-font-specification:Gulim">지역 1</tspan>
        </text>
      </g>
      <rect
         id="XMLID_291_"
         x="119"
         y="599"
         width="238"
         height="34" />
      <text
         id="XMLID_290_"
         font-size="24.0721"
         font-weight="normal"
         font-family="Helvetica"
         fill="#FFFFFF">
        <tspan
           x="142"
           y="529"
           id="tspan42"
           style="-inkscape-font-specification:Gulim;font-family:Gulim;font-weight:normal;font-style:normal;font-stretch:normal;font-variant:normal">작업자 노드</tspan>
      </text>
      <text
         id="Single-Cluster"
         font-size="24.0721"
         font-weight="normal"
         x="6"
         style="font-weight:normal;font-size:24.07209969px;font-family:Helvetica;fill:#000000">
        <tspan
           x="144"
           y="352"
           id="tspan45"
           style="font-style:normal;font-variant:normal;font-weight:normal;font-stretch:normal;font-family:Gulim;-inkscape-font-specification:Gulim">단일 클러스터</tspan>
      </text>
      <path
         d="M349.945946,642 L278.054054,642 C274.724324,642 272,635.8656 272,628.368 L272,584.632 C272,577.1344 274.724324,571 278.054054,571 L349.945946,571 C353.275676,571 356,577.1344 356,584.632 L356,628.368 C356,635.8656 353.275676,642 349.945946,642 Z"
         id="XMLID_279_"
         fill="#FFFFFF" />
      <rect
         id="XMLID_25_"
         x="114"
         y="894"
         width="235"
         height="54" />
      <text
         id="Ordering-Node-1"
         font-size="10.07"
         font-weight="normal"
         x="-16"
         style="font-weight:normal;font-size:10.06999969px;font-family:Helvetica;fill:#000000"
         y="10">
        <tspan
           x="276.41071"
           y="600"
           id="tspan50"
           style="font-style:normal;font-variant:normal;font-weight:normal;font-stretch:normal;font-family:Gulim;-inkscape-font-specification:Gulim">순서 지정 노드 1</tspan>
      </text>
      <path
         d="M1017.84169,1139 L576.158306,1139 C566.721238,1139 559,1131.80547 559,1123.01217 L559,15.9878348 C559,7.19452568 566.721238,0 576.158306,0 L1017.84169,0 C1027.27876,0 1035,7.19452568 1035,15.9878348 L1035,1122.87893 C1035,1131.80547 1027.27876,1139 1017.84169,1139 Z"
         id="XMLID_272_"
         stroke="#2D3F49"
         fill="#2D3F49" />
      <path
         d="M995.958401,1112 L601.182832,1112 C591.732274,1112 584,1104.84497 584,1096.09992 L584,98.9000773 C584,90.1550348 591.732274,83 601.182832,83 L995.815211,83 C1005.26577,83 1012.99804,90.1550348 1012.99804,98.9000773 L1012.99804,1096.09992 C1013.14123,1104.84497 1005.40896,1112 995.958401,1112 Z"
         id="XMLID_271_"
         fill="#FFFFFF" />
      <path
         d="M972.857143,1083 L620.142857,1083 C610.714286,1083 603,1075.47516 603,1066.27813 L603,123.721873 C603,114.524843 610.714286,107 620.142857,107 L972.857143,107 C982.285714,107 990,114.524843 990,123.721873 L990,1066.41748 C990,1075.47516 982.285714,1083 972.857143,1083 Z"
         id="XMLID_270_"
         stroke-dasharray="8"
         stroke-width="2"
         stroke="#00B39F" />
      <path
         d="M944.864583,1049 L650.135417,1049 C640.710938,1049 633,1041.27315 633,1031.82923 L633,275.170767 C633,265.726845 640.710938,258 650.135417,258 L944.864583,258 C954.289062,258 962,265.726845 962,275.170767 L962,1031.82923 C962,1041.27315 954.289062,1049 944.864583,1049 Z"
         id="XMLID_269_"
         stroke="#6182BB"
         fill="#FFFFFF" />
      <g
         id="XMLID_265_"
         transform="translate(632.000000, 266.000000)">
        <rect
           id="XMLID_24_"
           x="0.714285714"
           y="8.78494624"
           width="329.142857"
           height="33.2171147" />
        <text
           id="text62"
           font-size="24.0721"
           font-weight="normal"
           x="30"
           style="font-weight:normal;font-size:24.07209969px;font-family:Helvetica;fill:#000000">
          <tspan
             x="100.85443"
             y="24.022329"
             id="tspan64"
             style="font-style:normal;font-variant:normal;font-weight:normal;font-stretch:normal;font-family:Gulim;-inkscape-font-specification:Gulim">작업자 풀</tspan>
        </text>
      </g>
      <rect
         id="XMLID_264_"
         x="656"
         y="105"
         width="283"
         height="49" />
      <g
         id="XMLID_259_"
         transform="translate(643.000000, 20.000000)">
        <rect
           id="XMLID_23_"
           x="0.569302326"
           y="10.1773567"
           width="305.430698"
           height="48.7366375" />
        <text
           id="text69"
           font-size="24.0721"
           font-weight="normal"
           x="20"
           style="font-weight:normal;font-size:24.07209969px;font-family:Helvetica;fill:#ffffff">
          <tspan
             x="101.12558"
             y="24"
             id="tspan71"
             style="font-style:normal;font-variant:normal;font-weight:normal;font-stretch:normal;font-family:Gulim;-inkscape-font-specification:Gulim">지역 1</tspan>
        </text>
      </g>
      <path
         d="M923.80543,536 L673.19457,536 C663.737557,536 656,528.307054 656,518.904564 L656,347.095436 C656,337.692946 663.737557,330 673.19457,330 L923.80543,330 C933.262443,330 941,337.692946 941,347.095436 L941,518.904564 C941,528.307054 933.262443,536 923.80543,536 Z"
         id="XMLID_258_"
         fill="#4278BD" />
      <rect
         id="XMLID_257_"
         x="680"
         y="451"
         width="238"
         height="34" />
      <text
         id="XMLID_256_"
         font-size="24.0721"
         font-weight="normal"
         font-family="Helvetica"
         fill="#FFFFFF">
        <tspan
           x="684"
           y="381"
           id="tspan76"
           style="-inkscape-font-specification:Gulim;font-family:Gulim;font-weight:normal;font-style:normal;font-stretch:normal;font-variant:normal">작업자 노드 1</tspan>
      </text>
      <path
         d="M747.666667,490 L684.333333,490 C681.4,490 679,483.8656 679,476.368 L679,432.632 C679,425.1344 681.4,419 684.333333,419 L747.666667,419 C750.6,419 753,425.1344 753,432.632 L753,476.368 C753,483.8656 750.6,490 747.666667,490 Z"
         id="XMLID_255_"
         fill="#FFFFFF" />
      <path
         d="M834.162162,490 L764.837838,490 C761.627027,490 759,483.8656 759,476.368 L759,432.632 C759,425.1344 761.627027,419 764.837838,419 L834.162162,419 C837.372973,419 840,425.1344 840,432.632 L840,476.368 C840,483.8656 837.372973,490 834.162162,490 Z"
         id="path79"
         fill="#FFFFFF" />
      <path
         d="M923.162162,490 L853.837838,490 C850.627027,490 848,483.8656 848,476.368 L848,432.632 C848,425.1344 850.627027,419 853.837838,419 L923.162162,419 C926.372973,419 929,425.1344 929,432.632 L929,476.368 C929,483.8656 926.372973,490 923.162162,490 Z"
         id="path81"
         fill="#FFFFFF" />
      <rect
         id="XMLID_22_"
         x="681"
         y="439"
         width="235"
         height="54" />
      <text
         id="Peer-1"
         font-size="12.07"
         font-weight="normal"
         x="8"
         style="font-weight:normal;font-size:12.06999969px;font-family:Helvetica;fill:#000000">
        <tspan
           x="697"
           y="449"
           id="tspan85"
           style="font-style:normal;font-variant:normal;font-weight:normal;font-stretch:normal;font-family:Gulim;-inkscape-font-specification:Gulim">피어 1</tspan>
      </text>
      <text
         id="Org-1"
         font-size="9.07"
         font-weight="normal"
         x="2"
         style="font-weight:normal;font-size:9.06999969px;font-family:Helvetica;opacity:0.51706663;fill:#000000">
        <tspan
           x="700"
           y="465"
           id="tspan88"
           style="font-style:normal;font-variant:normal;font-weight:normal;font-stretch:normal;font-family:Gulim;-inkscape-font-specification:Gulim">조직 1</tspan>
      </text>
      <text
         id="Peers"
         font-size="9.07"
         font-weight="normal"
         x="4"
         style="font-weight:normal;font-size:9.06999969px;font-family:Helvetica;opacity:0.51706669;fill:#000000">
        <tspan
           x="786"
           y="465"
           id="tspan91"
           style="font-style:normal;font-variant:normal;font-weight:normal;font-stretch:normal;font-family:Gulim;-inkscape-font-specification:Gulim">피어</tspan>
      </text>
      <path
         d="M218.666667,642 L155.333333,642 C152.4,642 150,635.8656 150,628.368 L150,584.632 C150,577.1344 152.4,571 155.333333,571 L218.666667,571 C221.6,571 224,577.1344 224,584.632 L224,628.368 C224,635.8656 221.6,642 218.666667,642 Z"
         id="path93"
         fill="#FFFFFF" />
      <text
         id="text95"
         font-size="12.07"
         font-weight="normal"
         x="6"
         style="font-weight:normal;font-size:12.06999969px;font-family:Helvetica;fill:#000000">
        <tspan
           x="169"
           y="601"
           id="tspan97"
           style="font-style:normal;font-variant:normal;font-weight:normal;font-stretch:normal;font-family:Gulim;-inkscape-font-specification:Gulim">피어 1</tspan>
      </text>
      <text
         id="text99"
         font-size="9.07"
         font-weight="normal"
         x="2"
         style="font-weight:normal;font-size:9.06999969px;font-family:Helvetica;opacity:0.51706663;fill:#000000">
        <tspan
           x="172"
           y="617"
           id="tspan101"
           style="font-style:normal;font-variant:normal;font-weight:normal;font-stretch:normal;font-family:Gulim;-inkscape-font-specification:Gulim">조직 1</tspan>
      </text>
      <text
         id="(Raft)"
         font-size="9.07"
         font-weight="normal"
         y="-12"
         style="font-weight:normal;font-size:9.06999969px;font-family:Helvetica;opacity:0.51706693;fill:#000000">
        <tspan
           x="298"
           y="613"
           id="tspan104">(Raft)</tspan>
      </text>
      <text
         id="text106"
         font-size="9.07"
         font-weight="normal"
         y="-10"
         style="font-weight:normal;font-size:9.06999969px;font-family:Helvetica;opacity:0.51706687;fill:#000000">
        <tspan
           x="874"
           y="461"
           id="tspan108">(Raft)</tspan>
      </text>
      <path
         d="M350.945946,727 L279.054054,727 C275.724324,727 273,720.8656 273,713.368 L273,669.632 C273,662.1344 275.724324,656 279.054054,656 L350.945946,656 C354.275676,656 357,662.1344 357,669.632 L357,713.368 C357,720.8656 354.275676,727 350.945946,727 Z"
         id="path110"
         fill="#FFFFFF" />
      <text
         id="Ordering-Node-2"
         font-size="10.07"
         font-weight="normal"
         x="-16"
         style="font-weight:normal;font-size:10.06999969px;font-family:Helvetica;fill:#000000"
         y="10">
        <tspan
           x="278.41071"
           y="684"
           id="tspan113"
           style="font-style:normal;font-variant:normal;font-weight:normal;font-stretch:normal;font-family:Gulim;-inkscape-font-specification:Gulim">순서 지정 노드 2</tspan>
      </text>
      <text
         id="text119"
         font-size="9.07"
         font-weight="normal"
         y="-12"
         style="font-weight:normal;font-size:9.06999969px;font-family:Helvetica;opacity:0.51706693;fill:#000000">
        <tspan
           x="299"
           y="697"
           id="tspan121">(Raft)</tspan>
      </text>
      <path
         d="M349.945946,810 L278.054054,810 C274.724324,810 272,803.8656 272,796.368 L272,752.632 C272,745.1344 274.724324,739 278.054054,739 L349.945946,739 C353.275676,739 356,745.1344 356,752.632 L356,796.368 C356,803.8656 353.275676,810 349.945946,810 Z"
         id="path123"
         fill="#FFFFFF" />
      <text
         id="Ordering-Node-3"
         font-size="10.07"
         font-weight="normal"
         x="-16"
         style="font-weight:normal;font-size:10.06999969px;font-family:Helvetica;fill:#000000"
         y="10">
        <tspan
           x="276.41071"
           y="771"
           id="tspan126"
           style="font-style:normal;font-variant:normal;font-weight:normal;font-stretch:normal;font-family:Gulim;-inkscape-font-specification:Gulim">순서 지정 노드 3</tspan>
      </text>
      <text
         id="text132"
         font-size="9.07"
         font-weight="normal"
         y="-12"
         style="font-weight:normal;font-size:9.06999969px;font-family:Helvetica;opacity:0.51706693;fill:#000000">
        <tspan
           x="298"
           y="782"
           id="tspan134">(Raft)</tspan>
      </text>
      <path
         d="M349.945946,896 L278.054054,896 C274.724324,896 272,889.8656 272,882.368 L272,838.632 C272,831.1344 274.724324,825 278.054054,825 L349.945946,825 C353.275676,825 356,831.1344 356,838.632 L356,882.368 C356,889.8656 353.275676,896 349.945946,896 Z"
         id="path136"
         fill="#FFFFFF" />
      <text
         id="Ordering-Node-4"
         font-size="10.07"
         font-weight="normal"
         x="-16"
         style="font-weight:normal;font-size:10.06999969px;font-family:Helvetica;fill:#000000"
         y="10">
        <tspan
           x="276.41071"
           y="856"
           id="tspan139"
           style="font-style:normal;font-variant:normal;font-weight:normal;font-stretch:normal;font-family:Gulim;-inkscape-font-specification:Gulim">순서 지정 노드 4</tspan>
      </text>
      <text
         id="text145"
         font-size="9.07"
         font-weight="normal"
         y="-12"
         style="font-weight:normal;font-size:9.06999969px;font-family:Helvetica;opacity:0.51706693;fill:#000000">
        <tspan
           x="298"
           y="868"
           id="tspan147">(Raft)</tspan>
      </text>
      <path
         d="M349.945946,986 L278.054054,986 C274.724324,986 272,979.8656 272,972.368 L272,928.632 C272,921.1344 274.724324,915 278.054054,915 L349.945946,915 C353.275676,915 356,921.1344 356,928.632 L356,972.368 C356,979.8656 353.275676,986 349.945946,986 Z"
         id="path149"
         fill="#FFFFFF" />
      <text
         id="Ordering-Node-5"
         font-size="10.07"
         font-weight="normal"
         x="-16"
         style="font-weight:normal;font-size:10.06999969px;font-family:Helvetica;fill:#000000"
         y="10">
        <tspan
           x="276.41071"
           y="945"
           id="tspan152"
           style="font-style:normal;font-variant:normal;font-weight:normal;font-stretch:normal;font-family:Gulim;-inkscape-font-specification:Gulim">순서 지정 노드 5</tspan>
      </text>
      <text
         id="text158"
         font-size="9.07"
         font-weight="normal"
         y="-12"
         style="font-weight:normal;font-size:9.06999969px;font-family:Helvetica;opacity:0.51706693;fill:#000000">
        <tspan
           x="298"
           y="958"
           id="tspan160">(Raft)</tspan>
      </text>
      <g
         id="Group-4"
         transform="translate(150.000000, 656.000000)">
        <path
           d="M68.6666667,71 L5.33333333,71 C2.4,71 0,64.8656 0,57.368 L0,13.632 C0,6.1344 2.4,0 5.33333333,0 L68.6666667,0 C71.6,0 74,6.1344 74,13.632 L74,57.368 C74,64.8656 71.6,71 68.6666667,71 Z"
           id="path163"
           fill="#FFFFFF" />
        <text
           id="Peer-2"
           font-size="12.07"
           font-weight="normal"
           x="6"
           style="font-weight:normal;font-size:12.06999969px;font-family:Helvetica;fill:#000000">
          <tspan
             x="18.807693"
             y="30.879999"
             id="tspan166"
             style="font-style:normal;font-variant:normal;font-weight:normal;font-stretch:normal;font-family:Gulim;-inkscape-font-specification:Gulim">피어 2</tspan>
        </text>
        <text
           id="text168"
           font-size="9.07"
           font-weight="normal"
           x="2"
           style="font-weight:normal;font-size:9.06999969px;font-family:Helvetica;opacity:0.51706663;fill:#000000">
          <tspan
             x="21.923077"
             y="47.34"
             id="tspan170"
             style="font-style:normal;font-variant:normal;font-weight:normal;font-stretch:normal;font-family:Gulim;-inkscape-font-specification:Gulim">조직 1</tspan>
        </text>
      </g>
      <g
         id="Group-2"
         transform="translate(150.000000, 786.000000)">
        <path
           d="M68.6666667,71 L5.33333333,71 C2.4,71 0,64.8656 0,57.368 L0,13.632 C0,6.1344 2.4,0 5.33333333,0 L68.6666667,0 C71.6,0 74,6.1344 74,13.632 L74,57.368 C74,64.8656 71.6,71 68.6666667,71 Z"
           id="path173"
           fill="#FFFFFF" />
        <text
           id="CA-1"
           font-size="12.07"
           font-weight="normal"
           x="4"
           style="font-weight:normal;font-size:12.06999969px;font-family:Helvetica;fill:#000000">
          <tspan
             x="23.923077"
             y="30.879999"
             id="tspan176">CA 1</tspan>
        </text>
        <text
           id="text178"
           font-size="9.07"
           font-weight="normal"
           x="4"
           style="font-weight:normal;font-size:9.06999969px;font-family:Helvetica;opacity:0.51706669;fill:#000000">
          <tspan
             x="25.346153"
             y="47.34"
             id="tspan180"
             style="font-style:normal;font-variant:normal;font-weight:normal;font-stretch:normal;font-family:Gulim;-inkscape-font-specification:Gulim">피어</tspan>
        </text>
      </g>
      <g
         id="Group-3"
         transform="translate(150.000000, 870.000000)">
        <path
           d="M68.6666667,71 L5.33333333,71 C2.4,71 0,64.8656 0,57.368 L0,13.632 C0,6.1344 2.4,0 5.33333333,0 L68.6666667,0 C71.6,0 74,6.1344 74,13.632 L74,57.368 C74,64.8656 71.6,71 68.6666667,71 Z"
           id="path183"
           fill="#FFFFFF" />
        <text
           id="CA-2"
           font-size="12.07"
           font-weight="normal"
           x="4"
           style="font-weight:normal;font-size:12.06999969px;font-family:Helvetica;fill:#000000">
          <tspan
             x="22.5"
             y="22.360001"
             id="tspan186">CA 2</tspan>
        </text>
        <text
           id="Ordering-Service"
           font-size="8.07"
           font-weight="normal"
           font-family="Helvetica"
           fill="#000000"
           opacity="0.517066592">
          <tspan
             x="6.72567871"
             y="39.24"
             id="tspan189"
             style="-inkscape-font-specification:Gulim;font-family:Gulim;font-weight:normal;font-style:normal;font-stretch:normal;font-variant:normal">순서 지정 서비스</tspan>
        </text>
      </g>
      <text
         id="text191"
         font-size="12.07"
         font-weight="normal"
         x="4"
         style="font-weight:normal;font-size:12.06999969px;font-family:Helvetica;fill:#000000">
        <tspan
           x="783"
           y="449"
           id="tspan193">CA 1</tspan>
      </text>
      <text
         id="text195"
         font-size="24.0721"
         font-weight="normal"
         x="14"
         style="font-weight:normal;font-size:24.07209969px;font-family:Helvetica;fill:#000000">
        <tspan
           x="707"
           y="158"
           id="tspan197"
           style="font-style:normal;font-variant:normal;font-weight:normal;font-stretch:normal;font-family:Gulim;-inkscape-font-specification:Gulim">단일 클러스터</tspan>
      </text>
      <g
         id="Group"
         transform="translate(656.000000, 576.000000)">
        <path
           d="M267.81407,206.96619 L17.3291457,206.96619 C7.87688442,206.96619 0.14321608,199.258484 0.14321608,189.837954 L0.14321608,17.6991777 C0.14321608,8.27864761 7.87688442,0.570941215 17.3291457,0.570941215 L267.81407,0.570941215 C277.266332,0.570941215 285,8.27864761 285,17.6991777 L285,189.837954 C285,199.258484 277.266332,206.96619 267.81407,206.96619 Z"
           id="XMLID_248_"
           fill="#4278BD" />
        <rect
           id="XMLID_247_"
           x="23.3442211"
           y="35.8265612"
           width="238.454774"
           height="33.2573257" />
        <text
           id="XMLID_246_"
           font-size="24.0721"
           font-weight="normal"
           font-family="Helvetica"
           fill="#FFFFFF">
          <tspan
             x="26.5628593"
             y="50.9579886"
             id="tspan203"
             style="-inkscape-font-specification:Gulim;font-family:Gulim;font-weight:normal;font-style:normal;font-stretch:normal;font-variant:normal">작업자 노드 2</tspan>
        </text>
      </g>
      <path
         d="M907.531532,741 L854.468468,741 C852.010811,741 850,734.8656 850,727.368 L850,683.632 C850,676.1344 852.010811,670 854.468468,670 L907.531532,670 C909.989189,670 912,676.1344 912,683.632 L912,727.368 C912,734.8656 909.989189,741 907.531532,741 Z"
         id="path205"
         fill="#FFFFFF" />
      <path
         d="M750.243243,741 L693.756757,741 C691.140541,741 689,734.8656 689,727.368 L689,683.632 C689,676.1344 691.140541,670 693.756757,670 L750.243243,670 C752.859459,670 755,676.1344 755,683.632 L755,727.368 C755,734.8656 752.859459,741 750.243243,741 Z"
         id="path207"
         fill="#FFFFFF" />
      <path
         d="M832.243243,741 L775.756757,741 C773.140541,741 771,734.8656 771,727.368 L771,683.632 C771,676.1344 773.140541,670 775.756757,670 L832.243243,670 C834.859459,670 837,676.1344 837,683.632 L837,727.368 C837,734.8656 834.859459,741 832.243243,741 Z"
         id="path209"
         fill="#FFFFFF" />
      <path
         d="M923.80543,1028 L673.19457,1028 C663.737557,1028 656,1020.30705 656,1010.90456 L656,839.095436 C656,829.692946 663.737557,822 673.19457,822 L923.80543,822 C933.262443,822 941,829.692946 941,839.095436 L941,1010.90456 C941,1020.30705 933.262443,1028 923.80543,1028 Z"
         id="XMLID_240_"
         fill="#4278BD" />
      <rect
         id="XMLID_239_"
         x="680"
         y="942"
         width="238"
         height="34" />
      <text
         id="text213"
         font-size="9.07"
         font-weight="normal"
         x="4"
         style="font-weight:normal;font-size:9.06999969px;font-family:Helvetica;opacity:0.51706687;fill:#000000"
         y="-6">
        <tspan
           x="793"
           y="717"
           id="tspan215">(Raft)</tspan>
      </text>
      <text
         id="XMLID_238_"
         font-size="24.0721"
         font-weight="normal"
         font-family="Helvetica"
         fill="#FFFFFF">
        <tspan
           x="684"
           y="871"
           id="tspan218"
           style="-inkscape-font-specification:Gulim;font-family:Gulim;font-weight:normal;font-style:normal;font-stretch:normal;font-variant:normal">작업자 노드 3</tspan>
      </text>
      <path
         d="M837.162162,979 L767.837838,979 C764.627027,979 762,972.8656 762,965.368 L762,921.632 C762,914.1344 764.627027,908 767.837838,908 L837.162162,908 C840.372973,908 843,914.1344 843,921.632 L843,965.368 C843,972.8656 840.372973,979 837.162162,979 Z"
         id="path230"
         fill="#FFFFFF" />
      <text
         id="Ordering-node-1"
         font-size="9.07"
         font-weight="normal"
         x="-16"
         style="font-weight:normal;font-size:9.06999969px;font-family:Helvetica;fill:#000000"
         y="6">
        <tspan
           x="856.85602"
           y="447"
           id="tspan238"
           style="font-style:normal;font-variant:normal;font-weight:normal;font-stretch:normal;font-family:Gulim;-inkscape-font-specification:Gulim">순서 지정 노드 1</tspan>
      </text>
      <rect
         id="rect242"
         x="671"
         y="778"
         width="53"
         height="54" />
      <text
         id="text244"
         font-size="11.07"
         font-weight="normal"
         x="6"
         style="font-weight:normal;font-size:11.06999969px;font-family:Helvetica;fill:#000000">
        <tspan
           x="705"
           y="693"
           id="tspan246"
           style="font-style:normal;font-variant:normal;font-weight:normal;font-stretch:normal;font-family:Gulim;-inkscape-font-specification:Gulim">피어 2</tspan>
      </text>
      <text
         id="text248"
         font-size="10.07"
         font-weight="normal"
         x="4"
         style="font-weight:normal;font-size:10.06999969px;font-family:Helvetica;opacity:0.51706669;fill:#000000">
        <tspan
           x="709"
           y="712"
           id="tspan250"
           style="font-style:normal;font-variant:normal;font-weight:normal;font-stretch:normal;font-family:Gulim;-inkscape-font-specification:Gulim">조직 1</tspan>
      </text>
      <text
         id="text252"
         font-size="9.07"
         font-weight="normal"
         x="4"
         style="font-weight:normal;font-size:9.06999969px;font-family:Helvetica;opacity:0.51706687;fill:#000000"
         y="-6">
        <tspan
           x="791"
           y="952"
           id="tspan254">(Raft)</tspan>
      </text>
      <path
         d="M748.162162,979 L678.837838,979 C675.627027,979 673,972.8656 673,965.368 L673,921.632 C673,914.1344 675.627027,908 678.837838,908 L748.162162,908 C751.372973,908 754,914.1344 754,921.632 L754,965.368 C754,972.8656 751.372973,979 748.162162,979 Z"
         id="path256"
         fill="#FFFFFF" />
      <path
         d="M924.162162,979 L854.837838,979 C851.627027,979 849,972.8656 849,965.368 L849,921.632 C849,914.1344 851.627027,908 854.837838,908 L924.162162,908 C927.372973,908 930,914.1344 930,921.632 L930,965.368 C930,972.8656 927.372973,979 924.162162,979 Z"
         id="path258"
         fill="#FFFFFF" />
      <text
         id="text260"
         font-size="8.07"
         font-weight="normal"
         font-family="Helvetica"
         fill="#000000"
         opacity="0.517066592">
        <tspan
           x="684.225679"
           y="951"
           id="tspan262"
           style="-inkscape-font-specification:Gulim;font-family:Gulim;font-weight:normal;font-style:normal;font-stretch:normal;font-variant:normal">순서 지정 서비스</tspan>
      </text>
      <text
         id="text264"
         font-size="15.07"
         font-weight="normal"
         x="4"
         style="font-weight:normal;font-size:15.06999969px;font-family:Helvetica;fill:#000000">
        <tspan
           x="694"
           y="934"
           id="tspan266">CA 2</tspan>
      </text>
      <text
         id="+-anti-affinity"
         font-size="21.6649"
         font-style="italic"
         font-weight="bold"
         x="46"
         style="font-style:italic;font-weight:bold;font-size:21.66489983px;font-family:Helvetica-BoldOblique, Helvetica;fill:#000000">
        <tspan
           x="733"
           y="204"
           id="tspan274"
           style="font-style:normal;font-variant:normal;font-weight:normal;font-stretch:normal;font-family:Gulim;-inkscape-font-specification:Gulim">+ 반친화성</tspan>
      </text>
      <text
         id="text276"
         font-size="9.07"
         font-weight="normal"
         x="4"
         style="font-weight:normal;font-size:9.06999969px;font-family:Helvetica;opacity:0.51706699;fill:#000000"
         y="-6">
        <tspan
           x="878"
           y="951"
           id="tspan278">(Raft)</tspan>
      </text>
    </g>
  </g>
  <text
     xml:space="preserve"
     style="font-style:normal;font-weight:normal;font-size:40px;line-height:125%;font-family:sans-serif;letter-spacing:0px;word-spacing:0px;fill:#000000;fill-opacity:1;stroke:none;stroke-width:1px;stroke-linecap:butt;stroke-linejoin:miter;stroke-opacity:1"
     x="1665.1693"
     y="700.20013"
     id="text4418"
     sodipodi:linespacing="125%"><tspan
       sodipodi:role="line"
       id="tspan4420"
       x="1665.1693"
       y="700.20013"
       style="font-style:normal;font-variant:normal;font-weight:normal;font-stretch:normal;font-size:9.0625px;font-family:Gulim;-inkscape-font-specification:Gulim;text-align:center;text-anchor:middle">순서 지정</tspan><tspan
       sodipodi:role="line"
       x="1665.1693"
       y="711.52826"
       style="font-style:normal;font-variant:normal;font-weight:normal;font-stretch:normal;font-size:9.0625px;font-family:Gulim;-inkscape-font-specification:Gulim;text-align:center;text-anchor:middle"
       id="tspan4422">노드 2</tspan></text>
  <text
     xml:space="preserve"
     style="font-style:normal;font-weight:normal;font-size:40px;line-height:125%;font-family:sans-serif;letter-spacing:0px;word-spacing:0px;fill:#000000;fill-opacity:1;stroke:none;stroke-width:1px;stroke-linecap:butt;stroke-linejoin:miter;stroke-opacity:1"
     x="1743.0458"
     y="698.14392"
     id="text4418-6"
     sodipodi:linespacing="125%"><tspan
       sodipodi:role="line"
       id="tspan4420-3"
       x="1743.0458"
       y="698.14392"
       style="font-style:normal;font-variant:normal;font-weight:normal;font-stretch:normal;font-size:9.0625px;font-family:Gulim;-inkscape-font-specification:Gulim;text-align:center;text-anchor:middle">순서 지정</tspan><tspan
       sodipodi:role="line"
       x="1743.0458"
       y="709.47205"
       style="font-style:normal;font-variant:normal;font-weight:normal;font-stretch:normal;font-size:9.0625px;font-family:Gulim;-inkscape-font-specification:Gulim;text-align:center;text-anchor:middle"
       id="tspan4422-5">노드 3</tspan></text>
  <text
     xml:space="preserve"
     style="font-style:normal;font-weight:normal;font-size:40px;line-height:125%;font-family:sans-serif;letter-spacing:0px;word-spacing:0px;fill:#000000;fill-opacity:1;stroke:none;stroke-width:1px;stroke-linecap:butt;stroke-linejoin:miter;stroke-opacity:1"
     x="1663.4818"
     y="935.12909"
     id="text4418-6-7"
     sodipodi:linespacing="125%"><tspan
       sodipodi:role="line"
       id="tspan4420-3-3"
       x="1663.4818"
       y="935.12909"
       style="font-style:normal;font-variant:normal;font-weight:normal;font-stretch:normal;font-size:9.0625px;font-family:Gulim;-inkscape-font-specification:Gulim;text-align:center;text-anchor:middle">순서 지정</tspan><tspan
       sodipodi:role="line"
       x="1663.4818"
       y="946.45721"
       style="font-style:normal;font-variant:normal;font-weight:normal;font-stretch:normal;font-size:9.0625px;font-family:Gulim;-inkscape-font-specification:Gulim;text-align:center;text-anchor:middle"
       id="tspan4422-5-3">노드 4</tspan></text>
  <text
     xml:space="preserve"
     style="font-style:normal;font-weight:normal;font-size:40px;line-height:125%;font-family:sans-serif;letter-spacing:0px;word-spacing:0px;fill:#000000;fill-opacity:1;stroke:none;stroke-width:1px;stroke-linecap:butt;stroke-linejoin:miter;stroke-opacity:1"
     x="1749.9554"
     y="935.12915"
     id="text4418-6-1"
     sodipodi:linespacing="125%"><tspan
       sodipodi:role="line"
       id="tspan4420-3-6"
       x="1749.9554"
       y="935.12915"
       style="font-style:normal;font-variant:normal;font-weight:normal;font-stretch:normal;font-size:9.0625px;font-family:Gulim;-inkscape-font-specification:Gulim;text-align:center;text-anchor:middle">순서 지정</tspan><tspan
       sodipodi:role="line"
       x="1749.9554"
       y="946.45728"
       style="font-style:normal;font-variant:normal;font-weight:normal;font-stretch:normal;font-size:9.0625px;font-family:Gulim;-inkscape-font-specification:Gulim;text-align:center;text-anchor:middle"
       id="tspan4422-5-0">노드 5</tspan></text>
</svg>
