<?xml version="1.0" encoding="UTF-8" standalone="no"?>
<!-- Generator: Adobe Illustrator 19.0.0, SVG Export Plug-In . SVG Version: 6.00 Build 0)  -->

<svg
   xmlns:dc="http://purl.org/dc/elements/1.1/"
   xmlns:cc="http://creativecommons.org/ns#"
   xmlns:rdf="http://www.w3.org/1999/02/22-rdf-syntax-ns#"
   xmlns:svg="http://www.w3.org/2000/svg"
   xmlns="http://www.w3.org/2000/svg"
   xmlns:sodipodi="http://sodipodi.sourceforge.net/DTD/sodipodi-0.dtd"
   xmlns:inkscape="http://www.inkscape.org/namespaces/inkscape"
   version="1.1"
   id="Layer_1"
   x="0px"
   y="0px"
   viewBox="0 0 700 500"
   style="enable-background:new 0 0 700 500;"
   xml:space="preserve"
   inkscape:version="0.91 r13725"
   sodipodi:docname="k8s-archi-diagram.svg"><metadata
   id="metadata247"><rdf:RDF><cc:Work
       rdf:about=""><dc:format>image/svg+xml</dc:format><dc:type
         rdf:resource="http://purl.org/dc/dcmitype/StillImage" /></cc:Work></rdf:RDF></metadata><defs
   id="defs245" /><sodipodi:namedview
   pagecolor="#ffffff"
   bordercolor="#666666"
   borderopacity="1"
   objecttolerance="10"
   gridtolerance="10"
   guidetolerance="10"
   inkscape:pageopacity="0"
   inkscape:pageshadow="2"
   inkscape:window-width="1364"
   inkscape:window-height="716"
   id="namedview243"
   showgrid="false"
   inkscape:zoom="0.97144186"
   inkscape:cx="350"
   inkscape:cy="247.88136"
   inkscape:window-x="-8"
   inkscape:window-y="-8"
   inkscape:window-maximized="1"
   inkscape:current-layer="Layer_1" />
<style
   type="text/css"
   id="style3">
	.st0{fill:none;stroke:#72BAE7;stroke-width:1.0447;stroke-miterlimit:10;stroke-dasharray:2.0893,1.0447;}
	.st1{fill:none;stroke:#72BAE7;stroke-miterlimit:10;stroke-dasharray:2,1;}
	.st2{fill:none;stroke:#00AEEF;stroke-miterlimit:10;}
	.st3{fill:#FFFFFF;stroke:#00AEEF;stroke-miterlimit:10;}
	.st4{font-family:'MyriadPro-Regular';}
	.st5{font-size:12px;}
	.st6{fill:#FFFFFF;stroke:#FFFFFF;stroke-width:2;stroke-miterlimit:10;}
	.st7{font-size:15px;}
	.st8{fill:none;stroke:#8BC885;stroke-miterlimit:10;}
	.st9{fill:#8BC885;}
	.st10{fill:none;stroke:#8DC63F;stroke-miterlimit:10;}
	.st11{fill:#FFFFFF;stroke:#8DC63F;stroke-miterlimit:10;}
	.st12{fill:none;}
	.st13{fill:#8DC63F;}
	.st14{fill:none;stroke:#FBB040;stroke-width:0.5;stroke-miterlimit:10;}
	.st15{fill:#FBB040;}
	.st16{fill:#00AEEF;}
	.st17{font-size:14px;}
	.st18{fill:#FFFFFF;}
	.st19{font-size:10px;}
	.st20{fill:none;stroke:#8DC63F;stroke-miterlimit:8;}
	.st21{fill:none;stroke:#00AEEF;stroke-miterlimit:8;}
	.st22{fill:none;stroke:#000000;stroke-width:0.25;stroke-miterlimit:10;}
</style>
<path
   id="XMLID_55_"
   class="st0"
   d="M327.8,107" />
<path
   id="XMLID_38_"
   class="st1"
   d="M328.1,113.2" />
<rect
   x="53.1"
   y="177.4"
   class="st2"
   width="285.2"
   height="266.6"
   id="rect7" />
<g
   id="XMLID_1_">
	<g
   id="XMLID_2_">
		<path
   class="st3"
   d="M158.3,248.9H73.6c-2.6,0-4.7-2.1-4.7-4.7v-26c0-2.6,2.1-4.7,4.7-4.7h84.7c2.6,0,4.7,2.1,4.7,4.7v26    C163,246.8,160.9,248.9,158.3,248.9z"
   id="path11" />
		<path
   class="st3"
   d="M168.4,260.3H83.7c-2.6,0-4.7-2.1-4.7-4.7v-26c0-2.6,2.1-4.7,4.7-4.7h84.7c2.6,0,4.7,2.1,4.7,4.7v26    C173.1,258.2,171,260.3,168.4,260.3z"
   id="path13" />
		<path
   class="st3"
   d="M180.8,270.3H96c-2.6,0-4.7-2.1-4.7-4.7v-26c0-2.6,2.1-4.7,4.7-4.7h84.7c2.6,0,4.7,2.1,4.7,4.7v26    C185.4,268.2,183.3,270.3,180.8,270.3z"
   id="path15" />
	</g>
	<text
   id="XMLID_3_"
   transform="matrix(1 0 0 1 106.3286 249.2421)"
   sodipodi:linespacing="125%"><tspan
     sodipodi:role="line"
     id="tspan3582"
     style="font-size:10px">Gerenciador </tspan><tspan
     sodipodi:role="line"
     id="tspan3584"
     style="font-size:10px">do controlador</tspan></text>

</g>
<g
   id="XMLID_4_">
	<g
   id="XMLID_5_">
		<path
   class="st3"
   d="M295.6,251.7h-84.7c-2.6,0-4.7-2.1-4.7-4.7v-26c0-2.6,2.1-4.7,4.7-4.7h84.7c2.6,0,4.7,2.1,4.7,4.7v26    C300.3,249.6,298.2,251.7,295.6,251.7z"
   id="path24" />
		<path
   class="st3"
   d="M305.8,263.1H221c-2.6,0-4.7-2.1-4.7-4.7v-26c0-2.6,2.1-4.7,4.7-4.7h84.7c2.6,0,4.7,2.1,4.7,4.7v26    C310.4,261,308.3,263.1,305.8,263.1z"
   id="path26" />
		<path
   class="st3"
   d="M318.1,273.1h-84.7c-2.6,0-4.7-2.1-4.7-4.7v-26c0-2.6,2.1-4.7,4.7-4.7h84.7c2.6,0,4.7,2.1,4.7,4.7v26    C322.8,271,320.7,273.1,318.1,273.1z"
   id="path28" />
	</g>
	<text
   id="XMLID_6_"
   transform="matrix(1 0 0 1 243.6523 250.4329)"
   sodipodi:linespacing="125%"><tspan
     sodipodi:role="line"
     id="tspan3575"
     style="font-size:10px">Gerenciador </tspan><tspan
     sodipodi:role="line"
     id="tspan3577"
     style="font-size:10px">do controlador</tspan></text>

</g>
<g
   id="XMLID_7_">
	<ellipse
   class="st3"
   cx="116.4"
   cy="398.7"
   rx="34.3"
   ry="10"
   id="ellipse36" />
	<rect
   x="82.1"
   y="343.9"
   class="st3"
   width="68.6"
   height="54.8"
   id="rect38" />
	<line
   class="st6"
   x1="82.9"
   y1="398.7"
   x2="149.9"
   y2="398.7"
   id="line40" />
	<ellipse
   class="st3"
   cx="116.4"
   cy="354"
   rx="34.3"
   ry="10"
   id="ellipse42" />
	<ellipse
   class="st3"
   cx="116.4"
   cy="348.9"
   rx="34.3"
   ry="10"
   id="ellipse44" />
	<ellipse
   class="st3"
   cx="116.4"
   cy="343.9"
   rx="34.3"
   ry="10"
   id="ellipse46" />
</g>
<text
   id="XMLID_8_"
   transform="matrix(1 0 0 1 106.8689 388.6827)"
   class="st4 st5">etcd</text>

<path
   class="st3"
   d="M314.7,338.9H212.1c-5.3,0-9.7-4.4-9.7-9.7v-17.8c0-5.3,4.4-9.7,9.7-9.7h102.6c5.3,0,9.7,4.4,9.7,9.7v17.8  C324.4,334.5,320,338.9,314.7,338.9z"
   id="path49" />
<text
   id="XMLID_9_"
   class="st4 st5"
   x="223.10803"
   y="324.94019"
   style="font-size:12px;font-family:MyriadPro-Regular">Servidor de API</text>

<g
   id="XMLID_10_">
	<g
   id="XMLID_11_">
		<path
   class="st3"
   d="M294.5,395.6h-84.7c-2.6,0-4.7-2.1-4.7-4.7v-26c0-2.6,2.1-4.7,4.7-4.7h84.7c2.6,0,4.7,2.1,4.7,4.7v26    C299.2,393.5,297.1,395.6,294.5,395.6z"
   id="path54" />
		<path
   class="st3"
   d="M304.7,407h-84.7c-2.6,0-4.7-2.1-4.7-4.7v-26c0-2.6,2.1-4.7,4.7-4.7h84.7c2.6,0,4.7,2.1,4.7,4.7v26    C309.3,404.9,307.2,407,304.7,407z"
   id="path56" />
		<path
   class="st3"
   d="M317,417h-84.7c-2.6,0-4.7-2.1-4.7-4.7v-26c0-2.6,2.1-4.7,4.7-4.7H317c2.6,0,4.7,2.1,4.7,4.7v26    C321.7,414.9,319.6,417,317,417z"
   id="path58" />
	</g>
	<text
   id="XMLID_12_"
   transform="matrix(1 0 0 1 247.4041 402.5417)"
   class="st4 st5">Planejador</text>

</g>
<text
   id="XMLID_13_"
   transform="matrix(1 0 0 1 53.1327 171.2151)"
   class="st4 st7">Nó principal</text>

<g
   id="XMLID_14_">
	<g
   id="XMLID_15_">
		<g
   id="XMLID_81_">
			<g
   id="XMLID_17_">
				<path
   id="XMLID_18_"
   class="st8"
   d="M551.7,159.4c0-21.9,0-37.8,0-37.8s0,0.1,0,0.1" />
				<g
   id="XMLID_19_">
					<polygon
   id="XMLID_20_"
   class="st9"
   points="551.7,166.5 555.8,156.5 551.7,158.9 547.6,156.5      " />
				</g>
			</g>
		</g>
		<g
   id="XMLID_21_">
			<rect
   x="391.8"
   y="81.5"
   class="st10"
   width="235.9"
   height="176.5"
   id="rect70" />
			<rect
   x="401.3"
   y="139.8"
   class="st10"
   width="215.4"
   height="104.8"
   id="rect72" />
			<rect
   x="412.3"
   y="167.9"
   class="st10"
   width="84.7"
   height="66.4"
   id="rect74" />
			<rect
   x="519.1"
   y="167.9"
   class="st10"
   width="84.7"
   height="66.4"
   id="rect76" />
			<g
   id="XMLID_22_">
				<path
   class="st11"
   d="M474.3,210.3H435c-2.6,0-4.7-2.1-4.7-4.7v-18c0-2.6,2.1-4.7,4.7-4.7h39.3c2.6,0,4.7,2.1,4.7,4.7v18      C479,208.2,476.9,210.3,474.3,210.3z"
   id="path79" />
				<path
   class="st11"
   d="M479.6,219.1h-39.3c-2.6,0-4.7-2.1-4.7-4.7v-18c0-2.6,2.1-4.7,4.7-4.7h39.3c2.6,0,4.7,2.1,4.7,4.7v18      C484.2,217,482.1,219.1,479.6,219.1z"
   id="path81" />
				<path
   class="st11"
   d="M485.9,226.9h-39.3c-2.6,0-4.7-2.1-4.7-4.7v-18c0-2.6,2.1-4.7,4.7-4.7h39.3c2.6,0,4.7,2.1,4.7,4.7v18      C490.6,224.8,488.5,226.9,485.9,226.9z"
   id="path83" />
			</g>
			<g
   id="XMLID_23_">
				<path
   class="st11"
   d="M581.8,210.3h-39.3c-2.6,0-4.7-2.1-4.7-4.7v-18c0-2.6,2.1-4.7,4.7-4.7h39.3c2.6,0,4.7,2.1,4.7,4.7v18      C586.4,208.2,584.3,210.3,581.8,210.3z"
   id="path86" />
				<path
   class="st11"
   d="M587,219.1h-39.3c-2.6,0-4.7-2.1-4.7-4.7v-18c0-2.6,2.1-4.7,4.7-4.7H587c2.6,0,4.7,2.1,4.7,4.7v18      C591.7,217,589.6,219.1,587,219.1z"
   id="path88" />
				<path
   class="st11"
   d="M593.4,226.9h-39.3c-2.6,0-4.7-2.1-4.7-4.7v-18c0-2.6,2.1-4.7,4.7-4.7h39.3c2.6,0,4.7,2.1,4.7,4.7v18      C598,224.8,595.9,226.9,593.4,226.9z"
   id="path90" />
			</g>
			<rect
   x="412.3"
   y="95.1"
   class="st11"
   width="71.9"
   height="25.5"
   id="rect92" />
			<rect
   x="509.8"
   y="95.1"
   class="st11"
   width="94"
   height="25.5"
   id="rect94" />
			<text
   id="XMLID_24_"
   transform="matrix(1 0 0 1 430.3737 111.85)"
   class="st4 st5">kubelet</text>

			<text
   id="XMLID_25_"
   transform="matrix(1 0 0 1 538.4372 112.0789)"
   class="st4 st5">Proxy</text>

			<line
   class="st12"
   x1="435.6"
   y1="120.6"
   x2="435.6"
   y2="169.7"
   id="line98" />
			<text
   id="XMLID_26_"
   transform="matrix(1 0 0 1 391.8131 74.896)"
   class="st4 st7">Nó do trabalhador</text>

			<text
   id="XMLID_27_"
   class="st4 st5"
   x="555.45673"
   y="153.78641"
   style="font-size:12px;font-family:MyriadPro-Regular">Contêiner</text>

			<text
   id="XMLID_28_"
   transform="matrix(1 0 0 1 473.5824 179.3193)"
   class="st4 st5">Pod</text>

			<text
   id="XMLID_29_"
   transform="matrix(1 0 0 1 580.2664 178.9298)"
   class="st4 st5">Pod</text>

		</g>
		<g
   id="XMLID_35_">
			<g
   id="XMLID_31_">
				<path
   id="XMLID_32_"
   class="st8"
   d="M442,159.2c0-21.9,0-37.8,0-37.8s0,0.1,0,0.1" />
				<g
   id="XMLID_33_">
					<polygon
   id="XMLID_34_"
   class="st9"
   points="442,166.2 446,156.3 442,158.6 437.9,156.3      " />
				</g>
			</g>
		</g>
	</g>
	<g
   id="g109">
		<g
   id="XMLID_37_">
			<line
   id="XMLID_39_"
   class="st10"
   x1="459.9"
   y1="121.6"
   x2="531.7"
   y2="162.7" />
			<g
   id="XMLID_40_">
				<polygon
   id="XMLID_41_"
   class="st13"
   points="537.8,166.2 527.2,164.8 531.2,162.4 531.2,157.7     " />
			</g>
		</g>
	</g>
	<g
   id="g115">
		<g
   id="XMLID_42_">
			<line
   id="XMLID_43_"
   class="st10"
   x1="537.8"
   y1="120.6"
   x2="466"
   y2="162.9" />
			<g
   id="XMLID_44_">
				<polygon
   id="XMLID_45_"
   class="st13"
   points="459.9,166.5 466.4,157.9 466.5,162.6 470.6,164.9     " />
			</g>
		</g>
	</g>
	<g
   id="g121">
		<g
   id="XMLID_46_">
			<line
   id="XMLID_47_"
   class="st14"
   x1="314.4"
   y1="295.9"
   x2="408.8"
   y2="108.4" />
			<g
   id="XMLID_48_">
				<polygon
   id="XMLID_49_"
   class="st15"
   points="312.8,299 316.8,295.5 314.5,295.6 313.2,293.7     " />
			</g>
			<g
   id="XMLID_50_">
				<polygon
   id="XMLID_51_"
   class="st15"
   points="410.4,105.2 410,110.6 408.7,108.6 406.3,108.8     " />
			</g>
		</g>
	</g>
</g>
<g
   id="g129">
	<g
   id="XMLID_52_">
		<line
   id="XMLID_53_"
   class="st2"
   x1="260.5"
   y1="271.7"
   x2="260.5"
   y2="294.1" />
		<g
   id="XMLID_54_">
			<polygon
   id="XMLID_56_"
   class="st16"
   points="260.5,301.2 256.4,291.2 260.5,293.6 264.5,291.2    " />
		</g>
	</g>
</g>
<g
   id="g135">
	<g
   id="XMLID_57_">
		<line
   id="XMLID_58_"
   class="st2"
   x1="185.4"
   y1="265.6"
   x2="240.1"
   y2="296.3" />
		<g
   id="XMLID_59_">
			<polygon
   id="XMLID_60_"
   class="st16"
   points="246.3,299.7 235.6,298.4 239.7,296 239.6,291.3    " />
		</g>
	</g>
</g>
<g
   id="g141">
	<g
   id="XMLID_61_">
		<line
   id="XMLID_62_"
   class="st2"
   x1="202.4"
   y1="329.2"
   x2="156.2"
   y2="366.9" />
		<g
   id="XMLID_63_">
			<polygon
   id="XMLID_64_"
   class="st16"
   points="150.7,371.3 155.9,361.9 156.6,366.5 161,368.2    " />
		</g>
	</g>
</g>
<g
   id="g147">
	<g
   id="XMLID_65_">
		<line
   id="XMLID_66_"
   class="st2"
   x1="262.3"
   y1="358"
   x2="262.3"
   y2="350" />
		<g
   id="XMLID_67_">
			<polygon
   id="XMLID_68_"
   class="st16"
   points="262.3,342.9 266.4,352.9 262.3,350.5 258.2,352.9    " />
		</g>
	</g>
</g>
<g
   id="XMLID_36_">
	<g
   id="XMLID_69_">
		<g
   id="XMLID_75_">
			<g
   id="XMLID_71_">
				<path
   id="XMLID_72_"
   class="st8"
   d="M552.8,371c0-21.9,0-37.8,0-37.8s0,0.1,0,0.1" />
				<g
   id="XMLID_73_">
					<polygon
   id="XMLID_74_"
   class="st9"
   points="552.8,378 556.8,368.1 552.8,370.4 548.7,368.1      " />
				</g>
			</g>
		</g>
		<g
   id="XMLID_76_">
			<rect
   x="392.9"
   y="293"
   class="st10"
   width="235.9"
   height="176.5"
   id="rect161" />
			<rect
   x="402.4"
   y="351.3"
   class="st10"
   width="215.4"
   height="104.8"
   id="rect163" />
			<rect
   x="413.4"
   y="379.5"
   class="st10"
   width="84.7"
   height="66.4"
   id="rect165" />
			<rect
   x="520.2"
   y="379.5"
   class="st10"
   width="84.7"
   height="66.4"
   id="rect167" />
			<g
   id="XMLID_77_">
				<path
   class="st11"
   d="M475.4,421.9h-39.3c-2.6,0-4.7-2.1-4.7-4.7v-18c0-2.6,2.1-4.7,4.7-4.7h39.3c2.6,0,4.7,2.1,4.7,4.7v18      C480.1,419.8,478,421.9,475.4,421.9z"
   id="path170" />
				<path
   class="st11"
   d="M480.6,430.7h-39.3c-2.6,0-4.7-2.1-4.7-4.7v-18c0-2.6,2.1-4.7,4.7-4.7h39.3c2.6,0,4.7,2.1,4.7,4.7v18      C485.3,428.6,483.2,430.7,480.6,430.7z"
   id="path172" />
				<path
   class="st11"
   d="M487,438.4h-39.3c-2.6,0-4.7-2.1-4.7-4.7v-18c0-2.6,2.1-4.7,4.7-4.7H487c2.6,0,4.7,2.1,4.7,4.7v18      C491.7,436.3,489.6,438.4,487,438.4z"
   id="path174" />
			</g>
			<g
   id="XMLID_78_">
				<path
   class="st11"
   d="M582.9,421.9h-39.3c-2.6,0-4.7-2.1-4.7-4.7v-18c0-2.6,2.1-4.7,4.7-4.7h39.3c2.6,0,4.7,2.1,4.7,4.7v18      C587.5,419.8,585.4,421.9,582.9,421.9z"
   id="path177" />
				<path
   class="st11"
   d="M588.1,430.7h-39.3c-2.6,0-4.7-2.1-4.7-4.7v-18c0-2.6,2.1-4.7,4.7-4.7h39.3c2.6,0,4.7,2.1,4.7,4.7v18      C592.8,428.6,590.7,430.7,588.1,430.7z"
   id="path179" />
				<path
   class="st11"
   d="M594.5,438.4h-39.3c-2.6,0-4.7-2.1-4.7-4.7v-18c0-2.6,2.1-4.7,4.7-4.7h39.3c2.6,0,4.7,2.1,4.7,4.7v18      C599.1,436.3,597,438.4,594.5,438.4z"
   id="path181" />
			</g>
			<rect
   x="413.4"
   y="306.7"
   class="st11"
   width="71.9"
   height="25.5"
   id="rect183" />
			<rect
   x="510.9"
   y="306.7"
   class="st11"
   width="94"
   height="25.5"
   id="rect185" />
			<text
   id="XMLID_79_"
   transform="matrix(1 0 0 1 431.4582 323.3967)"
   class="st4 st5">kubelet</text>

			<text
   id="XMLID_80_"
   transform="matrix(1 0 0 1 539.4373 322.7654)"
   class="st4 st5">Proxy</text>

			<line
   class="st12"
   x1="436.7"
   y1="332.1"
   x2="436.7"
   y2="381.3"
   id="line189" />
			<text
   id="XMLID_82_"
   transform="matrix(1 0 0 1 392.8976 286.4427)"
   class="st4 st7">Nó do trabalhador</text>

			<text
   id="XMLID_83_"
   class="st4 st5"
   x="554.5412"
   y="365.33301"
   style="font-size:12px;font-family:MyriadPro-Regular">Contêiner</text>

			<text
   id="XMLID_84_"
   transform="matrix(1 0 0 1 474.6669 390.866)"
   class="st4 st5">Pod</text>

			<text
   id="XMLID_85_"
   transform="matrix(1 0 0 1 581.3509 390.4764)"
   class="st4 st5">Pod</text>

		</g>
		<g
   id="XMLID_91_">
			<g
   id="XMLID_87_">
				<path
   id="XMLID_88_"
   class="st8"
   d="M443.1,370.7c0-21.9,0-37.8,0-37.8s0,0.1,0,0.1" />
				<g
   id="XMLID_89_">
					<polygon
   id="XMLID_90_"
   class="st9"
   points="443.1,377.8 447.1,367.8 443.1,370.2 439,367.8      " />
				</g>
			</g>
		</g>
	</g>
	<g
   id="g200">
		<g
   id="XMLID_93_">
			<line
   id="XMLID_94_"
   class="st10"
   x1="461"
   y1="333.1"
   x2="532.8"
   y2="374.3" />
			<g
   id="XMLID_95_">
				<polygon
   id="XMLID_96_"
   class="st13"
   points="538.9,377.8 528.2,376.3 532.3,374 532.3,369.3     " />
			</g>
		</g>
	</g>
	<g
   id="g206">
		<g
   id="XMLID_97_">
			<line
   id="XMLID_98_"
   class="st10"
   x1="538.9"
   y1="332.1"
   x2="467.1"
   y2="374.4" />
			<g
   id="XMLID_99_">
				<polygon
   id="XMLID_100_"
   class="st13"
   points="461,378 467.5,369.5 467.5,374.2 471.6,376.5     " />
			</g>
		</g>
	</g>
	<g
   id="g212">
		<g
   id="XMLID_101_">
			<line
   id="XMLID_102_"
   class="st14"
   x1="326.6"
   y1="330.4"
   x2="409.9"
   y2="321.6" />
			<g
   id="XMLID_103_">
				<polygon
   id="XMLID_104_"
   class="st15"
   points="323.1,330.7 328.3,332.2 326.9,330.3 327.8,328.2     " />
			</g>
			<g
   id="XMLID_105_">
				<polygon
   id="XMLID_106_"
   class="st15"
   points="413.4,321.2 408.6,323.7 409.6,321.6 408.2,319.7     " />
			</g>
		</g>
	</g>
</g>
<text
   id="XMLID_92_"
   transform="matrix(1 0 0 1 463.8213 219.9644)"
   class="st4 st17">......</text>

<text
   id="XMLID_107_"
   transform="matrix(1 0 0 1 575.9009 221.1404)"
   class="st4 st17">......</text>

<text
   id="XMLID_108_"
   transform="matrix(1 0 0 1 469.5468 432.6871)"
   class="st4 st17">......</text>

<text
   id="XMLID_109_"
   transform="matrix(1 0 0 1 575.9009 432.6866)"
   class="st4 st17">......</text>

<rect
   id="XMLID_110_"
   x="274"
   y="93.9"
   class="st18"
   width="25.1"
   height="8.7" />
<text
   id="XMLID_111_"
   transform="matrix(1 0 0 1 253.6715 100.8535)"
   class="st4 st19">Controlador de</text>

<g
   id="g226">
	<g
   id="XMLID_113_">
		<line
   id="XMLID_114_"
   class="st2"
   x1="286.5"
   y1="213.6"
   x2="286.5"
   y2="123.9" />
		<g
   id="XMLID_115_">
			<polygon
   id="XMLID_116_"
   class="st16"
   points="286.5,116.9 290.6,126.8 286.5,124.5 282.5,126.8    " />
		</g>
	</g>
</g>
<path
   id="XMLID_112_"
   class="st20"
   d="M580.8,40.9c-0.8-4.2,3.2-8.1,8.8-8.6c2.3-0.2,4.6,0.1,6.6,1c2.1-3,7-4.1,11-2.5  c0.7,0.3,1.3,0.6,1.9,1c1.6-2.4,5.6-3.4,8.9-2.2c0.9,0.3,1.7,0.8,2.3,1.4c2.6-2.3,7.3-2.6,10.4-0.6c1.3,0.8,2.2,2,2.5,3.2  c4.3,0.9,6.9,4.2,5.7,7.4c-0.1,0.3-0.2,0.5-0.4,0.8c3.5,3.4,2.6,8.2-1.9,10.8c-1.4,0.8-3.1,1.3-4.8,1.5c0,3.6-4,6.5-8.9,6.5  c-1.6,0-3.2-0.4-4.6-1c-1.6,4.1-7.4,6.4-12.8,5.1c-2.3-0.5-4.2-1.6-5.6-3.1c-5.6,2.5-12.8,1.2-16.1-3c0-0.1-0.1-0.1-0.1-0.2  c-3.6,0.3-6.9-1.6-7.4-4.3c-0.2-1.4,0.4-2.9,1.7-3.9c-3.1-1.4-4.2-4.4-2.4-6.8c1.1-1.4,2.9-2.3,5-2.4L580.8,40.9z" />
<text
   id="XMLID_117_"
   transform="matrix(1 0 0 1 587.5167 48.0444)"
   class="st4 st5">Internet</text>

<g
   id="g234">
	<g
   id="XMLID_119_">
		<line
   id="XMLID_120_"
   class="st20"
   x1="605.5"
   y1="64.7"
   x2="585.9"
   y2="87.9" />
		<g
   id="XMLID_121_">
			<polygon
   id="XMLID_122_"
   class="st13"
   points="581.4,93.3 584.7,83 586.3,87.5 590.9,88.3    " />
		</g>
	</g>
</g>
<path
   id="XMLID_118_"
   class="st21"
   d="M259.7,92c-0.8-4.2,3.2-8.1,8.8-8.6c2.3-0.2,4.6,0.1,6.6,1c2.1-3,7-4.1,11-2.5  c0.7,0.3,1.3,0.6,1.9,1c1.6-2.4,5.6-3.4,8.9-2.2c0.9,0.3,1.7,0.8,2.3,1.4c2.6-2.3,7.3-2.6,10.4-0.6c1.3,0.8,2.2,2,2.5,3.2  c4.3,0.9,6.9,4.2,5.7,7.4c-0.1,0.3-0.2,0.5-0.4,0.8c3.5,3.4,2.6,8.2-1.9,10.8c-1.4,0.8-3.1,1.3-4.8,1.5c0,3.6-4,6.5-8.9,6.5  c-1.6,0-3.2-0.4-4.6-1c-1.6,4.1-7.4,6.4-12.8,5.1c-2.3-0.5-4.2-1.6-5.6-3.1c-5.6,2.5-12.8,1.2-16.1-3c0-0.1-0.1-0.1-0.1-0.2  c-3.6,0.3-6.9-1.6-7.4-4.3c-0.2-1.4,0.4-2.9,1.7-3.9c-3.1-1.4-4.2-4.4-2.4-6.8c1.1-1.4,2.9-2.3,5-2.4L259.7,92z" />
<rect
   x="16.5"
   y="15.5"
   class="st22"
   width="666.5"
   height="471.8"
   id="rect241" />
</svg>
